# MagicaVoxel @ Ephtracy

# group
o 

# material
mtllib Mummy.mtl
usemtl palette

# normals
vn -1 0 0
vn 1 0 0
vn 0 0 1
vn 0 0 -1
vn 0 -1 0
vn 0 1 0

# texcoords
vt 0.205078 0.5
vt 0.373047 0.5
vt 0.853516 0.5

# verts
v -0.3 0.5 0.2
v -0.3 0.5 0.1
v -0.3 0.5 0
v -0.3 0.5 -0.1
v -0.3 0.5 -0.2
v -0.3 0.6 0.2
v -0.3 0.6 0.1
v -0.3 0.6 0
v -0.3 0.6 -0.1
v -0.3 0.6 -0.2
v -0.2 0 -0.1
v -0.2 0 -0.2
v -0.2 0.1 -0.1
v -0.2 0.1 -0.2
v -0.2 0.2 0
v -0.2 0.2 -0.1
v -0.2 0.2 -0.2
v -0.2 0.2 -0.3
v -0.2 0.3 0
v -0.2 0.3 -0.3
v -0.2 0.4 0
v -0.2 0.4 -0.3
v -0.2 0.5 0
v -0.2 0.5 -0.1
v -0.2 0.5 -0.2
v -0.2 0.5 -0.3
v -0.2 0.6 0
v -0.2 0.6 -0.1
v -0.2 0.6 -0.2
v -0.2 0.6 -0.3
v -0.2 0.7 0
v -0.2 0.7 -0.1
v -0.2 0.7 -0.2
v -0.2 0.7 -0.3
v -0.2 0.8 0
v -0.2 0.8 -0.1
v -0.2 0.8 -0.2
v -0.2 0.8 -0.3
v -0.1 0.2 0.1
v -0.1 0.2 0
v -0.1 0.3 0.1
v -0.1 0.3 0
v -0.1 0.3 -0.3
v -0.1 0.3 -0.4
v -0.1 0.4 0.1
v -0.1 0.4 0
v -0.1 0.4 -0.3
v -0.1 0.4 -0.4
v -0.1 0.5 0.1
v -0.1 0.5 0
v -0.1 0.5 -0.3
v -0.1 0.5 -0.4
v -0.1 0.6 0.1
v -0.1 0.6 0
v -0.1 0.6 -0.3
v -0.1 0.6 -0.4
v -0.1 0.7 0.1
v -0.1 0.7 0
v -0.1 0.7 -0.1
v -0.1 0.7 -0.2
v -0.1 0.7 -0.3
v -0.1 0.7 -0.4
v -0.1 0.8 0.1
v -0.1 0.8 0
v -0.1 0.8 -0.1
v -0.1 0.8 -0.2
v -0.1 0.8 -0.3
v -0.1 0.8 -0.4
v 0.2 0 -0.1
v 0.2 0 -0.2
v 0.2 0.1 -0.1
v 0.2 0.1 -0.2
v 0.2 0.2 -0.1
v 0.2 0.2 -0.2
v 0.3 0.3 0.2
v 0.3 0.3 0.1
v 0.3 0.4 0.2
v 0.3 0.4 0.1
v 0.3 0.5 0.2
v 0.3 0.5 0.1
v 0.3 0.5 0
v 0.3 0.6 0.2
v 0.3 0.6 0.1
v 0.3 0.6 0
v -0.2 0.5 0.2
v -0.2 0.5 0.1
v -0.2 0.5 0
v -0.2 0.6 0.2
v -0.2 0.6 0.1
v -0.2 0.6 0
v -0.1 0 -0.1
v -0.1 0 -0.2
v -0.1 0.1 -0.1
v -0.1 0.1 -0.2
v -0.1 0.2 -0.1
v -0.1 0.2 -0.2
v 0.2 0.2 0.1
v 0.2 0.2 0
v 0.2 0.3 0.1
v 0.2 0.3 0
v 0.2 0.3 -0.3
v 0.2 0.3 -0.4
v 0.2 0.4 0.1
v 0.2 0.4 0
v 0.2 0.4 -0.3
v 0.2 0.4 -0.4
v 0.2 0.5 0.1
v 0.2 0.5 0
v 0.2 0.5 -0.3
v 0.2 0.5 -0.4
v 0.2 0.6 0.1
v 0.2 0.6 0
v 0.2 0.6 -0.3
v 0.2 0.6 -0.4
v 0.2 0.7 0.1
v 0.2 0.7 0
v 0.2 0.7 -0.1
v 0.2 0.7 -0.2
v 0.2 0.7 -0.3
v 0.2 0.7 -0.4
v 0.2 0.8 0.1
v 0.2 0.8 0
v 0.2 0.8 -0.1
v 0.2 0.8 -0.2
v 0.2 0.8 -0.3
v 0.2 0.8 -0.4
v 0.3 0 -0.1
v 0.3 0 -0.2
v 0.3 0.1 -0.1
v 0.3 0.1 -0.2
v 0.3 0.2 0
v 0.3 0.2 -0.1
v 0.3 0.2 -0.2
v 0.3 0.2 -0.3
v 0.3 0.3 0
v 0.3 0.3 -0.3
v 0.3 0.4 0
v 0.3 0.4 -0.3
v 0.3 0.5 0
v 0.3 0.5 -0.1
v 0.3 0.5 -0.2
v 0.3 0.5 -0.3
v 0.3 0.6 0
v 0.3 0.6 -0.1
v 0.3 0.6 -0.2
v 0.3 0.6 -0.3
v 0.3 0.7 0
v 0.3 0.7 -0.1
v 0.3 0.7 -0.2
v 0.3 0.7 -0.3
v 0.3 0.8 0
v 0.3 0.8 -0.1
v 0.3 0.8 -0.2
v 0.3 0.8 -0.3
v 0.4 0.3 0.2
v 0.4 0.3 0.1
v 0.4 0.4 0.2
v 0.4 0.4 0.1
v 0.4 0.5 0.2
v 0.4 0.5 0.1
v 0.4 0.5 0
v 0.4 0.5 -0.1
v 0.4 0.5 -0.2
v 0.4 0.6 0.2
v 0.4 0.6 0.1
v 0.4 0.6 0
v 0.4 0.6 -0.1
v 0.4 0.6 -0.2
v -0.3 0.5 0.2
v -0.3 0.6 0.2
v -0.2 0.5 0.2
v -0.2 0.6 0.2
v 0.3 0.3 0.2
v 0.3 0.4 0.2
v 0.3 0.5 0.2
v 0.3 0.6 0.2
v 0.4 0.3 0.2
v 0.4 0.4 0.2
v 0.4 0.5 0.2
v 0.4 0.6 0.2
v -0.1 0.2 0.1
v -0.1 0.3 0.1
v -0.1 0.4 0.1
v -0.1 0.5 0.1
v -0.1 0.6 0.1
v -0.1 0.7 0.1
v -0.1 0.8 0.1
v 0 0.6 0.1
v 0 0.7 0.1
v 0.1 0.6 0.1
v 0.1 0.7 0.1
v 0.2 0.2 0.1
v 0.2 0.3 0.1
v 0.2 0.4 0.1
v 0.2 0.5 0.1
v 0.2 0.6 0.1
v 0.2 0.7 0.1
v 0.2 0.8 0.1
v -0.2 0.2 0
v -0.2 0.3 0
v -0.2 0.4 0
v -0.2 0.5 0
v -0.2 0.6 0
v -0.2 0.7 0
v -0.2 0.8 0
v -0.1 0.2 0
v -0.1 0.3 0
v -0.1 0.4 0
v -0.1 0.5 0
v -0.1 0.6 0
v -0.1 0.7 0
v -0.1 0.8 0
v 0.2 0.2 0
v 0.2 0.3 0
v 0.2 0.4 0
v 0.2 0.5 0
v 0.2 0.6 0
v 0.2 0.7 0
v 0.2 0.8 0
v 0.3 0.2 0
v 0.3 0.3 0
v 0.3 0.4 0
v 0.3 0.5 0
v 0.3 0.6 0
v 0.3 0.7 0
v 0.3 0.8 0
v -0.2 0 -0.1
v -0.2 0.1 -0.1
v -0.2 0.2 -0.1
v -0.1 0 -0.1
v -0.1 0.1 -0.1
v -0.1 0.2 -0.1
v 0.2 0 -0.1
v 0.2 0.1 -0.1
v 0.2 0.2 -0.1
v 0.3 0 -0.1
v 0.3 0.1 -0.1
v 0.3 0.2 -0.1
v -0.2 0.7 -0.2
v -0.2 0.8 -0.2
v -0.1 0.7 -0.2
v -0.1 0.8 -0.2
v 0.2 0.7 -0.2
v 0.2 0.8 -0.2
v 0.3 0.7 -0.2
v 0.3 0.8 -0.2
v 0.3 0.3 0.1
v 0.3 0.4 0.1
v 0.3 0.5 0.1
v 0.4 0.3 0.1
v 0.4 0.4 0.1
v 0.4 0.5 0.1
v -0.2 0.7 -0.1
v -0.2 0.8 -0.1
v -0.1 0.7 -0.1
v -0.1 0.8 -0.1
v 0.2 0.7 -0.1
v 0.2 0.8 -0.1
v 0.3 0.7 -0.1
v 0.3 0.8 -0.1
v -0.3 0.5 -0.2
v -0.3 0.6 -0.2
v -0.2 0 -0.2
v -0.2 0.1 -0.2
v -0.2 0.2 -0.2
v -0.2 0.5 -0.2
v -0.2 0.6 -0.2
v -0.1 0 -0.2
v -0.1 0.1 -0.2
v -0.1 0.2 -0.2
v 0.2 0 -0.2
v 0.2 0.1 -0.2
v 0.2 0.2 -0.2
v 0.3 0 -0.2
v 0.3 0.1 -0.2
v 0.3 0.2 -0.2
v 0.3 0.5 -0.2
v 0.3 0.6 -0.2
v 0.4 0.5 -0.2
v 0.4 0.6 -0.2
v -0.2 0.2 -0.3
v -0.2 0.3 -0.3
v -0.2 0.4 -0.3
v -0.2 0.5 -0.3
v -0.2 0.6 -0.3
v -0.2 0.7 -0.3
v -0.2 0.8 -0.3
v -0.1 0.3 -0.3
v -0.1 0.4 -0.3
v -0.1 0.5 -0.3
v -0.1 0.6 -0.3
v -0.1 0.7 -0.3
v -0.1 0.8 -0.3
v 0.2 0.3 -0.3
v 0.2 0.4 -0.3
v 0.2 0.5 -0.3
v 0.2 0.6 -0.3
v 0.2 0.7 -0.3
v 0.2 0.8 -0.3
v 0.3 0.2 -0.3
v 0.3 0.3 -0.3
v 0.3 0.4 -0.3
v 0.3 0.5 -0.3
v 0.3 0.6 -0.3
v 0.3 0.7 -0.3
v 0.3 0.8 -0.3
v -0.1 0.3 -0.4
v -0.1 0.4 -0.4
v -0.1 0.5 -0.4
v -0.1 0.6 -0.4
v -0.1 0.7 -0.4
v -0.1 0.8 -0.4
v 0.2 0.3 -0.4
v 0.2 0.4 -0.4
v 0.2 0.5 -0.4
v 0.2 0.6 -0.4
v 0.2 0.7 -0.4
v 0.2 0.8 -0.4
v -0.2 0 -0.1
v -0.1 0 -0.1
v 0.2 0 -0.1
v 0.3 0 -0.1
v -0.2 0 -0.2
v -0.1 0 -0.2
v 0.2 0 -0.2
v 0.3 0 -0.2
v -0.1 0.2 0.1
v 0.2 0.2 0.1
v -0.2 0.2 0
v -0.1 0.2 0
v 0.2 0.2 0
v 0.3 0.2 0
v -0.2 0.2 -0.1
v -0.1 0.2 -0.1
v 0.2 0.2 -0.1
v 0.3 0.2 -0.1
v -0.2 0.2 -0.2
v -0.1 0.2 -0.2
v 0.2 0.2 -0.2
v 0.3 0.2 -0.2
v -0.2 0.2 -0.3
v 0.3 0.2 -0.3
v 0.3 0.3 0.2
v 0.4 0.3 0.2
v 0.3 0.3 0.1
v 0.4 0.3 0.1
v -0.1 0.3 -0.3
v 0.2 0.3 -0.3
v -0.1 0.3 -0.4
v 0.2 0.3 -0.4
v -0.3 0.5 0.2
v -0.2 0.5 0.2
v -0.3 0.5 0.1
v -0.2 0.5 0.1
v 0.3 0.5 0.1
v 0.4 0.5 0.1
v -0.3 0.5 0
v -0.2 0.5 0
v 0.3 0.5 0
v 0.4 0.5 0
v -0.3 0.5 -0.1
v -0.2 0.5 -0.1
v 0.3 0.5 -0.1
v 0.4 0.5 -0.1
v -0.3 0.5 -0.2
v -0.2 0.5 -0.2
v 0.3 0.5 -0.2
v 0.4 0.5 -0.2
v -0.3 0.6 0.2
v -0.2 0.6 0.2
v 0.3 0.6 0.2
v 0.4 0.6 0.2
v -0.3 0.6 0.1
v -0.2 0.6 0.1
v 0.3 0.6 0.1
v 0.4 0.6 0.1
v -0.3 0.6 0
v -0.2 0.6 0
v 0.3 0.6 0
v 0.4 0.6 0
v -0.3 0.6 -0.1
v -0.2 0.6 -0.1
v 0.3 0.6 -0.1
v 0.4 0.6 -0.1
v -0.3 0.6 -0.2
v -0.2 0.6 -0.2
v 0.3 0.6 -0.2
v 0.4 0.6 -0.2
v -0.2 0.7 -0.1
v -0.1 0.7 -0.1
v 0.2 0.7 -0.1
v 0.3 0.7 -0.1
v -0.2 0.7 -0.2
v -0.1 0.7 -0.2
v 0.2 0.7 -0.2
v 0.3 0.7 -0.2
v -0.1 0.8 0.1
v 0.2 0.8 0.1
v -0.2 0.8 0
v -0.1 0.8 0
v 0.2 0.8 0
v 0.3 0.8 0
v -0.2 0.8 -0.1
v -0.1 0.8 -0.1
v 0.2 0.8 -0.1
v 0.3 0.8 -0.1
v -0.2 0.8 -0.2
v -0.1 0.8 -0.2
v 0.2 0.8 -0.2
v 0.3 0.8 -0.2
v -0.2 0.8 -0.3
v -0.1 0.8 -0.3
v 0.2 0.8 -0.3
v 0.3 0.8 -0.3
v -0.1 0.8 -0.4
v 0.2 0.8 -0.4

# faces
f 6/1/1 2/1/1 1/1/1
f 7/2/1 3/2/1 2/2/1
f 7/1/1 2/1/1 6/1/1
f 8/1/1 4/1/1 3/1/1
f 8/2/1 3/2/1 7/2/1
f 9/2/1 5/2/1 4/2/1
f 9/1/1 4/1/1 8/1/1
f 10/2/1 5/2/1 9/2/1
f 13/1/1 12/1/1 11/1/1
f 14/1/1 12/1/1 13/1/1
f 16/2/1 14/2/1 13/2/1
f 17/2/1 14/2/1 16/2/1
f 19/1/1 17/1/1 16/1/1
f 19/1/1 18/1/1 17/1/1
f 19/1/1 16/1/1 15/1/1
f 20/1/1 18/1/1 19/1/1
f 21/2/1 20/2/1 19/2/1
f 22/2/1 20/2/1 21/2/1
f 23/1/1 22/1/1 21/1/1
f 24/1/1 22/1/1 23/1/1
f 25/1/1 22/1/1 24/1/1
f 26/1/1 22/1/1 25/1/1
f 29/2/1 26/2/1 25/2/1
f 30/2/1 26/2/1 29/2/1
f 31/1/1 28/1/1 27/1/1
f 31/1/1 29/1/1 28/1/1
f 31/1/1 30/1/1 29/1/1
f 32/1/1 30/1/1 31/1/1
f 33/1/1 30/1/1 32/1/1
f 34/1/1 30/1/1 33/1/1
f 35/2/1 32/2/1 31/2/1
f 36/2/1 32/2/1 35/2/1
f 37/2/1 34/2/1 33/2/1
f 38/2/1 34/2/1 37/2/1
f 41/1/1 40/1/1 39/1/1
f 42/1/1 40/1/1 41/1/1
f 45/2/1 42/2/1 41/2/1
f 46/2/1 42/2/1 45/2/1
f 47/2/1 44/2/1 43/2/1
f 48/2/1 44/2/1 47/2/1
f 49/1/1 46/1/1 45/1/1
f 50/1/1 46/1/1 49/1/1
f 51/1/1 48/1/1 47/1/1
f 52/1/1 48/1/1 51/1/1
f 53/2/1 50/2/1 49/2/1
f 54/2/1 50/2/1 53/2/1
f 55/2/1 52/2/1 51/2/1
f 56/2/1 52/2/1 55/2/1
f 57/3/1 54/3/1 53/3/1
f 58/3/1 54/3/1 57/3/1
f 61/1/1 56/1/1 55/1/1
f 62/1/1 56/1/1 61/1/1
f 63/2/1 58/2/1 57/2/1
f 64/2/1 58/2/1 63/2/1
f 65/2/1 60/2/1 59/2/1
f 66/2/1 60/2/1 65/2/1
f 67/2/1 62/2/1 61/2/1
f 68/2/1 62/2/1 67/2/1
f 71/1/1 70/1/1 69/1/1
f 72/1/1 70/1/1 71/1/1
f 73/2/1 72/2/1 71/2/1
f 74/2/1 72/2/1 73/2/1
f 77/1/1 76/1/1 75/1/1
f 78/1/1 76/1/1 77/1/1
f 79/2/1 78/2/1 77/2/1
f 80/2/1 78/2/1 79/2/1
f 82/1/1 80/1/1 79/1/1
f 83/2/1 81/2/1 80/2/1
f 83/1/1 80/1/1 82/1/1
f 84/2/1 81/2/1 83/2/1
f 85/1/2 86/1/2 88/1/2
f 86/2/2 87/2/2 89/2/2
f 88/1/2 86/1/2 89/1/2
f 89/2/2 87/2/2 90/2/2
f 91/1/2 92/1/2 93/1/2
f 93/1/2 92/1/2 94/1/2
f 93/2/2 94/2/2 95/2/2
f 95/2/2 94/2/2 96/2/2
f 97/1/2 98/1/2 99/1/2
f 99/1/2 98/1/2 100/1/2
f 99/2/2 100/2/2 103/2/2
f 103/2/2 100/2/2 104/2/2
f 101/2/2 102/2/2 105/2/2
f 105/2/2 102/2/2 106/2/2
f 103/1/2 104/1/2 107/1/2
f 107/1/2 104/1/2 108/1/2
f 105/1/2 106/1/2 109/1/2
f 109/1/2 106/1/2 110/1/2
f 107/2/2 108/2/2 111/2/2
f 111/2/2 108/2/2 112/2/2
f 109/2/2 110/2/2 113/2/2
f 113/2/2 110/2/2 114/2/2
f 111/3/2 112/3/2 115/3/2
f 115/3/2 112/3/2 116/3/2
f 113/1/2 114/1/2 119/1/2
f 119/1/2 114/1/2 120/1/2
f 115/2/2 116/2/2 121/2/2
f 121/2/2 116/2/2 122/2/2
f 117/2/2 118/2/2 123/2/2
f 123/2/2 118/2/2 124/2/2
f 119/2/2 120/2/2 125/2/2
f 125/2/2 120/2/2 126/2/2
f 127/1/2 128/1/2 129/1/2
f 129/1/2 128/1/2 130/1/2
f 129/2/2 130/2/2 132/2/2
f 132/2/2 130/2/2 133/2/2
f 132/1/2 133/1/2 135/1/2
f 133/1/2 134/1/2 135/1/2
f 131/1/2 132/1/2 135/1/2
f 135/1/2 134/1/2 136/1/2
f 135/2/2 136/2/2 137/2/2
f 137/2/2 136/2/2 138/2/2
f 137/1/2 138/1/2 139/1/2
f 139/1/2 138/1/2 140/1/2
f 140/1/2 138/1/2 141/1/2
f 141/1/2 138/1/2 142/1/2
f 141/2/2 142/2/2 145/2/2
f 145/2/2 142/2/2 146/2/2
f 143/1/2 144/1/2 147/1/2
f 144/1/2 145/1/2 147/1/2
f 145/1/2 146/1/2 147/1/2
f 147/1/2 146/1/2 148/1/2
f 148/1/2 146/1/2 149/1/2
f 149/1/2 146/1/2 150/1/2
f 147/2/2 148/2/2 151/2/2
f 151/2/2 148/2/2 152/2/2
f 149/2/2 150/2/2 153/2/2
f 153/2/2 150/2/2 154/2/2
f 155/1/2 156/1/2 157/1/2
f 157/1/2 156/1/2 158/1/2
f 157/2/2 158/2/2 159/2/2
f 159/2/2 158/2/2 160/2/2
f 159/1/2 160/1/2 164/1/2
f 160/2/2 161/2/2 165/2/2
f 164/1/2 160/1/2 165/1/2
f 161/1/2 162/1/2 166/1/2
f 165/2/2 161/2/2 166/2/2
f 162/2/2 163/2/2 167/2/2
f 166/1/2 162/1/2 167/1/2
f 167/2/2 163/2/2 168/2/2
f 171/1/3 170/1/3 169/1/3
f 172/1/3 170/1/3 171/1/3
f 177/1/3 174/1/3 173/1/3
f 178/2/3 175/2/3 174/2/3
f 178/1/3 174/1/3 177/1/3
f 179/1/3 176/1/3 175/1/3
f 179/2/3 175/2/3 178/2/3
f 180/1/3 176/1/3 179/1/3
f 188/2/3 185/2/3 184/2/3
f 188/3/3 186/3/3 185/3/3
f 189/2/3 187/2/3 186/2/3
f 189/3/3 186/3/3 188/3/3
f 190/2/3 188/2/3 184/2/3
f 190/1/3 189/1/3 188/1/3
f 191/2/3 187/2/3 189/2/3
f 191/1/3 189/1/3 190/1/3
f 192/1/3 182/1/3 181/1/3
f 193/2/3 183/2/3 182/2/3
f 193/1/3 182/1/3 192/1/3
f 194/1/3 184/1/3 183/1/3
f 194/2/3 183/2/3 193/2/3
f 195/2/3 190/2/3 184/2/3
f 195/1/3 184/1/3 194/1/3
f 196/3/3 191/3/3 190/3/3
f 196/2/3 190/2/3 195/2/3
f 197/2/3 187/2/3 191/2/3
f 197/3/3 191/3/3 196/3/3
f 198/2/3 187/2/3 197/2/3
f 206/1/3 200/1/3 199/1/3
f 207/2/3 201/2/3 200/2/3
f 207/1/3 200/1/3 206/1/3
f 208/1/3 202/1/3 201/1/3
f 208/2/3 201/2/3 207/2/3
f 209/2/3 203/2/3 202/2/3
f 209/1/3 202/1/3 208/1/3
f 210/1/3 204/1/3 203/1/3
f 210/2/3 203/2/3 209/2/3
f 211/2/3 205/2/3 204/2/3
f 211/1/3 204/1/3 210/1/3
f 212/2/3 205/2/3 211/2/3
f 220/1/3 214/1/3 213/1/3
f 221/2/3 215/2/3 214/2/3
f 221/1/3 214/1/3 220/1/3
f 222/1/3 216/1/3 215/1/3
f 222/2/3 215/2/3 221/2/3
f 223/2/3 217/2/3 216/2/3
f 223/1/3 216/1/3 222/1/3
f 224/1/3 218/1/3 217/1/3
f 224/2/3 217/2/3 223/2/3
f 225/2/3 219/2/3 218/2/3
f 225/1/3 218/1/3 224/1/3
f 226/2/3 219/2/3 225/2/3
f 230/1/3 228/1/3 227/1/3
f 231/2/3 229/2/3 228/2/3
f 231/1/3 228/1/3 230/1/3
f 232/2/3 229/2/3 231/2/3
f 236/1/3 234/1/3 233/1/3
f 237/2/3 235/2/3 234/2/3
f 237/1/3 234/1/3 236/1/3
f 238/2/3 235/2/3 237/2/3
f 241/2/3 240/2/3 239/2/3
f 242/2/3 240/2/3 241/2/3
f 245/2/3 244/2/3 243/2/3
f 246/2/3 244/2/3 245/2/3
f 247/1/4 248/1/4 250/1/4
f 248/2/4 249/2/4 251/2/4
f 250/1/4 248/1/4 251/1/4
f 251/2/4 249/2/4 252/2/4
f 253/2/4 254/2/4 255/2/4
f 255/2/4 254/2/4 256/2/4
f 257/2/4 258/2/4 259/2/4
f 259/2/4 258/2/4 260/2/4
f 261/2/4 262/2/4 266/2/4
f 266/2/4 262/2/4 267/2/4
f 263/1/4 264/1/4 268/1/4
f 264/2/4 265/2/4 269/2/4
f 268/1/4 264/1/4 269/1/4
f 269/2/4 265/2/4 270/2/4
f 271/1/4 272/1/4 274/1/4
f 272/2/4 273/2/4 275/2/4
f 274/1/4 272/1/4 275/1/4
f 275/2/4 273/2/4 276/2/4
f 277/2/4 278/2/4 279/2/4
f 279/2/4 278/2/4 280/2/4
f 281/1/4 282/1/4 288/1/4
f 282/2/4 283/2/4 288/2/4
f 283/1/4 284/1/4 289/1/4
f 288/2/4 283/2/4 289/2/4
f 284/2/4 285/2/4 290/2/4
f 289/1/4 284/1/4 290/1/4
f 285/1/4 286/1/4 291/1/4
f 290/2/4 285/2/4 291/2/4
f 286/2/4 287/2/4 292/2/4
f 291/1/4 286/1/4 292/1/4
f 292/2/4 287/2/4 293/2/4
f 281/1/4 288/1/4 294/1/4
f 281/1/4 294/1/4 300/1/4
f 294/2/4 295/2/4 301/2/4
f 300/1/4 294/1/4 301/1/4
f 295/1/4 296/1/4 302/1/4
f 301/2/4 295/2/4 302/2/4
f 296/2/4 297/2/4 303/2/4
f 302/1/4 296/1/4 303/1/4
f 297/1/4 298/1/4 304/1/4
f 303/2/4 297/2/4 304/2/4
f 298/2/4 299/2/4 305/2/4
f 304/1/4 298/1/4 305/1/4
f 305/2/4 299/2/4 306/2/4
f 307/2/4 308/2/4 313/2/4
f 308/1/4 309/1/4 314/1/4
f 313/2/4 308/2/4 314/2/4
f 309/2/4 310/2/4 315/2/4
f 314/1/4 309/1/4 315/1/4
f 310/1/4 311/1/4 316/1/4
f 315/2/4 310/2/4 316/2/4
f 311/2/4 312/2/4 317/2/4
f 316/1/4 311/1/4 317/1/4
f 317/2/4 312/2/4 318/2/4
f 323/1/5 320/1/5 319/1/5
f 324/1/5 320/1/5 323/1/5
f 325/1/5 322/1/5 321/1/5
f 326/1/5 322/1/5 325/1/5
f 330/1/5 328/1/5 327/1/5
f 331/1/5 328/1/5 330/1/5
f 333/1/5 330/1/5 329/1/5
f 334/2/5 331/2/5 330/2/5
f 334/1/5 330/1/5 333/1/5
f 335/1/5 332/1/5 331/1/5
f 335/2/5 331/2/5 334/2/5
f 336/1/5 332/1/5 335/1/5
f 338/2/5 335/2/5 334/2/5
f 339/2/5 335/2/5 338/2/5
f 341/1/5 338/1/5 337/1/5
f 341/1/5 340/1/5 339/1/5
f 341/1/5 339/1/5 338/1/5
f 342/1/5 340/1/5 341/1/5
f 345/1/5 344/1/5 343/1/5
f 346/1/5 344/1/5 345/1/5
f 349/2/5 348/2/5 347/2/5
f 350/2/5 348/2/5 349/2/5
f 353/1/5 352/1/5 351/1/5
f 354/1/5 352/1/5 353/1/5
f 357/2/5 354/2/5 353/2/5
f 358/2/5 354/2/5 357/2/5
f 359/2/5 356/2/5 355/2/5
f 360/2/5 356/2/5 359/2/5
f 361/1/5 358/1/5 357/1/5
f 362/1/5 358/1/5 361/1/5
f 363/1/5 360/1/5 359/1/5
f 364/1/5 360/1/5 363/1/5
f 365/2/5 362/2/5 361/2/5
f 366/2/5 362/2/5 365/2/5
f 367/2/5 364/2/5 363/2/5
f 368/2/5 364/2/5 367/2/5
f 369/1/6 370/1/6 373/1/6
f 373/1/6 370/1/6 374/1/6
f 371/1/6 372/1/6 375/1/6
f 375/1/6 372/1/6 376/1/6
f 373/2/6 374/2/6 377/2/6
f 377/2/6 374/2/6 378/2/6
f 375/2/6 376/2/6 379/2/6
f 379/2/6 376/2/6 380/2/6
f 377/1/6 378/1/6 381/1/6
f 381/1/6 378/1/6 382/1/6
f 379/1/6 380/1/6 383/1/6
f 383/1/6 380/1/6 384/1/6
f 381/2/6 382/2/6 385/2/6
f 385/2/6 382/2/6 386/2/6
f 383/2/6 384/2/6 387/2/6
f 387/2/6 384/2/6 388/2/6
f 389/1/6 390/1/6 393/1/6
f 393/1/6 390/1/6 394/1/6
f 391/1/6 392/1/6 395/1/6
f 395/1/6 392/1/6 396/1/6
f 397/2/6 398/2/6 400/2/6
f 400/2/6 398/2/6 401/2/6
f 399/2/6 400/2/6 403/2/6
f 401/2/6 402/2/6 403/2/6
f 400/2/6 401/2/6 403/2/6
f 403/2/6 402/2/6 404/2/6
f 404/2/6 402/2/6 405/2/6
f 405/2/6 402/2/6 406/2/6
f 404/2/6 405/2/6 408/2/6
f 408/2/6 405/2/6 409/2/6
f 407/2/6 408/2/6 411/2/6
f 409/2/6 410/2/6 411/2/6
f 408/2/6 409/2/6 411/2/6
f 411/2/6 410/2/6 412/2/6
f 412/2/6 410/2/6 413/2/6
f 413/2/6 410/2/6 414/2/6
f 412/2/6 413/2/6 415/2/6
f 415/2/6 413/2/6 416/2/6
