# MagicaVoxel @ Ephtracy

# group
o 

# material
mtllib Goblin.mtl
usemtl palette

# normals
vn -1 0 0
vn 1 0 0
vn 0 0 1
vn 0 0 -1
vn 0 -1 0
vn 0 1 0

# texcoords
vt 0.345703 0.5
vt 0.369141 0.5
vt 0.533203 0.5
vt 0.896484 0.5
vt 0.986328 0.5
vt 0.994141 0.5

# verts
v -0.3 0.1 0.1
v -0.3 0.1 0
v -0.3 0.2 0.1
v -0.3 0.2 0
v -0.3 0.2 -0.1
v -0.3 0.3 0.3
v -0.3 0.3 0.1
v -0.3 0.3 0
v -0.3 0.3 -0.1
v -0.3 0.4 0.3
v -0.3 0.4 0.2
v -0.3 0.7 0.2
v -0.3 0.7 0.1
v -0.3 0.8 0.1
v -0.3 0.8 0
v -0.2 0 0
v -0.2 0 -0.1
v -0.2 0.1 0
v -0.2 0.1 -0.1
v -0.2 0.1 -0.2
v -0.2 0.2 0
v -0.2 0.2 -0.1
v -0.2 0.3 0
v -0.2 0.3 -0.1
v -0.2 0.3 -0.2
v -0.2 0.6 0
v -0.2 0.6 -0.2
v -0.1 0.5 -0.2
v -0.1 0.5 -0.3
v -0.1 0.6 0
v -0.1 0.6 -0.2
v -0.1 0.7 0
v -0.1 0.7 -0.3
v 0 0 0
v 0 0 -0.1
v 0 0.1 0
v 0 0.1 -0.1
v 0.1 0 0.1
v 0.1 0 0
v 0.1 0.1 0.2
v 0.1 0.1 0.1
v 0.1 0.1 0
v 0.1 0.2 0.3
v 0.1 0.2 0.2
v 0.1 0.3 0.3
v 0.1 0.3 0.2
v 0.1 0.3 0.1
v 0.1 0.4 0.2
v 0.1 0.4 0.1
v -0.2 0.3 0.3
v -0.2 0.3 0.1
v -0.2 0.4 0.3
v -0.2 0.4 0.2
v -0.2 0.4 0.1
v -0.2 0.5 0.1
v -0.2 0.6 0.1
v -0.2 0.6 0
v -0.2 0.7 0.2
v -0.2 0.7 0.1
v -0.2 0.8 0.1
v -0.2 0.8 0
v -0.1 0 0
v -0.1 0 -0.1
v -0.1 0.1 0
v -0.1 0.1 -0.1
v 0 0.5 -0.2
v 0 0.5 -0.3
v 0 0.6 0
v 0 0.6 -0.2
v 0 0.7 0
v 0 0.7 -0.3
v 0.1 0 0
v 0.1 0 -0.1
v 0.1 0.1 0
v 0.1 0.1 -0.1
v 0.1 0.1 -0.2
v 0.1 0.2 -0.1
v 0.1 0.2 -0.2
v 0.1 0.3 -0.1
v 0.1 0.3 -0.2
v 0.1 0.4 0
v 0.1 0.4 -0.1
v 0.1 0.5 0.1
v 0.1 0.5 0
v 0.1 0.6 0.1
v 0.1 0.6 -0.2
v 0.2 0 0.1
v 0.2 0 0
v 0.2 0.1 0.2
v 0.2 0.1 0.1
v 0.2 0.1 0
v 0.2 0.1 -0.1
v 0.2 0.2 0.3
v 0.2 0.2 0.2
v 0.2 0.2 0.1
v 0.2 0.2 0
v 0.2 0.2 -0.1
v 0.2 0.2 -0.2
v 0.2 0.3 0.3
v 0.2 0.3 0.2
v 0.2 0.3 0.1
v 0.2 0.3 0
v 0.2 0.3 -0.1
v 0.2 0.3 -0.2
v 0.2 0.4 0.2
v 0.2 0.4 0.1
v 0.2 0.4 0
v 0.2 0.4 -0.1
v 0.2 0.5 0.1
v 0.2 0.5 0
v 0.3 0.1 0.1
v 0.3 0.1 0
v 0.3 0.2 0.2
v 0.3 0.2 0.1
v 0.3 0.2 0
v 0.3 0.2 -0.1
v 0.3 0.3 0.2
v 0.3 0.3 0.1
v 0.3 0.3 0
v 0.3 0.3 -0.1
v 0.3 0.4 0.1
v 0.3 0.4 0
v -0.3 0.3 0.3
v -0.3 0.4 0.3
v -0.2 0.3 0.3
v -0.2 0.4 0.3
v 0.1 0.2 0.3
v 0.1 0.3 0.3
v 0.2 0.2 0.3
v 0.2 0.3 0.3
v -0.3 0.4 0.2
v -0.3 0.7 0.2
v -0.2 0.4 0.2
v -0.2 0.7 0.2
v 0.1 0.1 0.2
v 0.1 0.2 0.2
v 0.1 0.3 0.2
v 0.1 0.4 0.2
v 0.2 0.1 0.2
v 0.2 0.2 0.2
v 0.2 0.3 0.2
v 0.2 0.4 0.2
v 0.3 0.2 0.2
v 0.3 0.3 0.2
v -0.3 0.1 0.1
v -0.3 0.2 0.1
v -0.3 0.3 0.1
v -0.3 0.7 0.1
v -0.3 0.8 0.1
v -0.2 0.1 0.1
v -0.2 0.2 0.1
v -0.2 0.3 0.1
v -0.2 0.4 0.1
v -0.2 0.5 0.1
v -0.2 0.6 0.1
v -0.2 0.7 0.1
v -0.2 0.8 0.1
v -0.1 0.2 0.1
v -0.1 0.3 0.1
v -0.1 0.4 0.1
v -0.1 0.5 0.1
v 0 0.2 0.1
v 0 0.3 0.1
v 0 0.4 0.1
v 0 0.5 0.1
v 0.1 0 0.1
v 0.1 0.1 0.1
v 0.1 0.3 0.1
v 0.1 0.4 0.1
v 0.1 0.5 0.1
v 0.1 0.6 0.1
v 0.2 0 0.1
v 0.2 0.1 0.1
v 0.2 0.2 0.1
v 0.2 0.3 0.1
v 0.2 0.4 0.1
v 0.2 0.5 0.1
v 0.3 0.1 0.1
v 0.3 0.2 0.1
v 0.3 0.3 0.1
v 0.3 0.4 0.1
v -0.2 0 0
v -0.2 0.1 0
v -0.1 0 0
v -0.1 0.1 0
v -0.1 0.6 0
v -0.1 0.7 0
v 0 0 0
v 0 0.1 0
v 0 0.6 0
v 0 0.7 0
v 0.1 0 0
v 0.1 0.1 0
v -0.3 0.1 0
v -0.3 0.2 0
v -0.3 0.3 0
v -0.3 0.8 0
v -0.2 0.1 0
v -0.2 0.2 0
v -0.2 0.3 0
v -0.2 0.6 0
v -0.2 0.8 0
v 0.1 0 0
v 0.1 0.1 0
v 0.1 0.4 0
v 0.1 0.5 0
v 0.2 0 0
v 0.2 0.1 0
v 0.2 0.2 0
v 0.2 0.3 0
v 0.2 0.4 0
v 0.2 0.5 0
v 0.3 0.1 0
v 0.3 0.2 0
v 0.3 0.3 0
v 0.3 0.4 0
v -0.3 0.2 -0.1
v -0.3 0.3 -0.1
v -0.2 0 -0.1
v -0.2 0.1 -0.1
v -0.2 0.2 -0.1
v -0.2 0.3 -0.1
v -0.1 0 -0.1
v -0.1 0.1 -0.1
v 0 0 -0.1
v 0 0.1 -0.1
v 0.1 0 -0.1
v 0.1 0.1 -0.1
v 0.1 0.2 -0.1
v 0.1 0.3 -0.1
v 0.1 0.4 -0.1
v 0.2 0.1 -0.1
v 0.2 0.2 -0.1
v 0.2 0.3 -0.1
v 0.2 0.4 -0.1
v 0.3 0.2 -0.1
v 0.3 0.3 -0.1
v -0.2 0.1 -0.2
v -0.2 0.3 -0.2
v -0.2 0.6 -0.2
v -0.1 0.2 -0.2
v -0.1 0.3 -0.2
v -0.1 0.5 -0.2
v -0.1 0.6 -0.2
v 0 0.2 -0.2
v 0 0.3 -0.2
v 0 0.5 -0.2
v 0 0.6 -0.2
v 0.1 0.1 -0.2
v 0.1 0.2 -0.2
v 0.1 0.3 -0.2
v 0.1 0.6 -0.2
v 0.2 0.2 -0.2
v 0.2 0.3 -0.2
v -0.1 0.5 -0.3
v -0.1 0.7 -0.3
v 0 0.5 -0.3
v 0 0.7 -0.3
v 0.1 0 0.1
v 0.2 0 0.1
v -0.2 0 0
v -0.1 0 0
v 0 0 0
v 0.1 0 0
v 0.2 0 0
v -0.2 0 -0.1
v -0.1 0 -0.1
v 0 0 -0.1
v 0.1 0 -0.1
v 0.1 0.1 0.2
v 0.2 0.1 0.2
v -0.3 0.1 0.1
v -0.2 0.1 0.1
v 0.1 0.1 0.1
v 0.2 0.1 0.1
v 0.3 0.1 0.1
v -0.3 0.1 0
v -0.2 0.1 0
v -0.1 0.1 0
v 0 0.1 0
v 0.1 0.1 0
v 0.2 0.1 0
v 0.3 0.1 0
v -0.2 0.1 -0.1
v -0.1 0.1 -0.1
v 0 0.1 -0.1
v 0.1 0.1 -0.1
v 0.2 0.1 -0.1
v -0.2 0.1 -0.2
v 0.1 0.1 -0.2
v 0.1 0.2 0.3
v 0.2 0.2 0.3
v 0.1 0.2 0.2
v 0.2 0.2 0.2
v 0.3 0.2 0.2
v 0.2 0.2 0.1
v 0.3 0.2 0.1
v -0.3 0.2 0
v -0.2 0.2 0
v 0.2 0.2 0
v 0.3 0.2 0
v -0.3 0.2 -0.1
v -0.2 0.2 -0.1
v 0.1 0.2 -0.1
v 0.2 0.2 -0.1
v 0.3 0.2 -0.1
v 0.1 0.2 -0.2
v 0.2 0.2 -0.2
v -0.3 0.3 0.3
v -0.2 0.3 0.3
v -0.3 0.3 0.1
v -0.2 0.3 0.1
v -0.1 0.5 -0.2
v 0 0.5 -0.2
v -0.1 0.5 -0.3
v 0 0.5 -0.3
v 0.1 0.3 0.3
v 0.2 0.3 0.3
v 0.1 0.3 0.2
v 0.2 0.3 0.2
v 0.3 0.3 0.2
v 0.2 0.3 0.1
v 0.3 0.3 0.1
v -0.3 0.3 0
v -0.2 0.3 0
v 0.2 0.3 0
v 0.3 0.3 0
v -0.3 0.3 -0.1
v -0.2 0.3 -0.1
v 0.1 0.3 -0.1
v 0.2 0.3 -0.1
v 0.3 0.3 -0.1
v 0.1 0.3 -0.2
v 0.2 0.3 -0.2
v -0.3 0.4 0.3
v -0.2 0.4 0.3
v -0.3 0.4 0.2
v -0.2 0.4 0.2
v 0.1 0.4 0.2
v 0.2 0.4 0.2
v 0.1 0.4 0.1
v 0.2 0.4 0.1
v 0.3 0.4 0.1
v 0.1 0.4 0
v 0.2 0.4 0
v 0.3 0.4 0
v 0.1 0.4 -0.1
v 0.2 0.4 -0.1
v 0.1 0.5 0.1
v 0.2 0.5 0.1
v 0.1 0.5 0
v 0.2 0.5 0
v -0.2 0.6 0.1
v 0.1 0.6 0.1
v -0.2 0.6 0
v -0.1 0.6 0
v 0 0.6 0
v -0.2 0.6 -0.2
v -0.1 0.6 -0.2
v 0 0.6 -0.2
v 0.1 0.6 -0.2
v -0.3 0.7 0.2
v -0.2 0.7 0.2
v -0.3 0.7 0.1
v -0.2 0.7 0.1
v -0.1 0.7 0
v 0 0.7 0
v -0.1 0.7 -0.3
v 0 0.7 -0.3
v -0.3 0.8 0.1
v -0.2 0.8 0.1
v -0.3 0.8 0
v -0.2 0.8 0

# faces
f 3/5/1 2/5/1 1/5/1
f 4/5/1 2/5/1 3/5/1
f 7/4/1 4/4/1 3/4/1
f 7/4/1 5/4/1 4/4/1
f 8/4/1 5/4/1 7/4/1
f 9/4/1 5/4/1 8/4/1
f 10/5/1 7/5/1 6/5/1
f 10/5/1 8/5/1 7/5/1
f 11/5/1 8/5/1 10/5/1
f 12/5/1 8/5/1 11/5/1
f 13/5/1 8/5/1 12/5/1
f 14/5/1 8/5/1 13/5/1
f 15/5/1 8/5/1 14/5/1
f 18/2/1 17/2/1 16/2/1
f 19/2/1 17/2/1 18/2/1
f 21/1/1 19/1/1 18/1/1
f 21/1/1 20/1/1 19/1/1
f 22/1/1 20/1/1 21/1/1
f 24/1/1 20/1/1 22/1/1
f 25/1/1 20/1/1 24/1/1
f 26/4/1 24/4/1 23/4/1
f 26/4/1 25/4/1 24/4/1
f 27/4/1 25/4/1 26/4/1
f 31/3/1 29/3/1 28/3/1
f 32/3/1 31/3/1 30/3/1
f 33/3/1 29/3/1 31/3/1
f 33/3/1 31/3/1 32/3/1
f 36/2/1 35/2/1 34/2/1
f 37/2/1 35/2/1 36/2/1
f 41/5/1 39/5/1 38/5/1
f 42/5/1 39/5/1 41/5/1
f 44/5/1 41/5/1 40/5/1
f 45/5/1 44/5/1 43/5/1
f 46/5/1 41/5/1 44/5/1
f 46/5/1 44/5/1 45/5/1
f 47/5/1 41/5/1 46/5/1
f 48/5/1 47/5/1 46/5/1
f 49/5/1 47/5/1 48/5/1
f 50/5/2 51/5/2 52/5/2
f 52/5/2 51/5/2 53/5/2
f 53/5/2 51/5/2 54/5/2
f 53/5/2 54/5/2 55/5/2
f 53/5/2 55/5/2 56/5/2
f 53/5/2 56/5/2 58/5/2
f 56/5/2 57/5/2 58/5/2
f 58/5/2 57/5/2 59/5/2
f 59/5/2 57/5/2 60/5/2
f 60/5/2 57/5/2 61/5/2
f 62/2/2 63/2/2 64/2/2
f 64/2/2 63/2/2 65/2/2
f 66/3/2 67/3/2 69/3/2
f 68/3/2 69/3/2 70/3/2
f 69/3/2 67/3/2 71/3/2
f 70/3/2 69/3/2 71/3/2
f 72/2/2 73/2/2 74/2/2
f 74/2/2 73/2/2 75/2/2
f 75/1/2 76/1/2 77/1/2
f 77/1/2 76/1/2 78/1/2
f 79/4/2 80/4/2 82/4/2
f 81/4/2 82/4/2 84/4/2
f 83/4/2 84/4/2 85/4/2
f 82/4/2 80/4/2 86/4/2
f 85/4/2 84/4/2 86/4/2
f 84/4/2 82/4/2 86/4/2
f 87/5/2 88/5/2 90/5/2
f 90/5/2 88/5/2 91/5/2
f 89/5/2 90/5/2 94/5/2
f 94/5/2 90/5/2 95/5/2
f 91/5/2 92/5/2 96/5/2
f 96/5/2 92/5/2 97/5/2
f 93/5/2 94/5/2 99/5/2
f 99/5/2 94/5/2 100/5/2
f 97/5/2 98/5/2 103/5/2
f 103/5/2 98/5/2 104/5/2
f 100/5/2 101/5/2 105/5/2
f 105/5/2 101/5/2 106/5/2
f 102/5/2 103/5/2 107/5/2
f 107/5/2 103/5/2 108/5/2
f 106/5/2 107/5/2 109/5/2
f 109/5/2 107/5/2 110/5/2
f 111/5/2 112/5/2 114/5/2
f 114/5/2 112/5/2 115/5/2
f 113/5/2 114/5/2 117/5/2
f 115/5/2 116/5/2 117/5/2
f 114/5/2 115/5/2 117/5/2
f 117/5/2 116/5/2 118/5/2
f 118/5/2 116/5/2 119/5/2
f 119/5/2 116/5/2 120/5/2
f 118/5/2 119/5/2 121/5/2
f 121/5/2 119/5/2 122/5/2
f 125/5/3 124/5/3 123/5/3
f 126/5/3 124/5/3 125/5/3
f 129/5/3 128/5/3 127/5/3
f 130/5/3 128/5/3 129/5/3
f 133/5/3 132/5/3 131/5/3
f 134/5/3 132/5/3 133/5/3
f 139/5/3 136/5/3 135/5/3
f 140/5/3 136/5/3 139/5/3
f 141/5/3 138/5/3 137/5/3
f 142/5/3 138/5/3 141/5/3
f 143/5/3 141/5/3 140/5/3
f 144/5/3 141/5/3 143/5/3
f 150/5/3 146/5/3 145/5/3
f 151/4/3 147/4/3 146/4/3
f 151/5/3 146/5/3 150/5/3
f 152/4/3 147/4/3 151/4/3
f 156/5/3 149/5/3 148/5/3
f 157/5/3 149/5/3 156/5/3
f 158/1/3 151/1/3 150/1/3
f 158/1/3 152/1/3 151/1/3
f 159/4/3 153/4/3 152/4/3
f 159/1/3 152/1/3 158/1/3
f 160/6/3 154/6/3 153/6/3
f 160/4/3 153/4/3 159/4/3
f 161/4/3 155/4/3 154/4/3
f 161/6/3 154/6/3 160/6/3
f 162/4/3 160/4/3 159/4/3
f 162/1/3 158/1/3 150/1/3
f 162/4/3 161/4/3 160/4/3
f 162/4/3 159/4/3 158/4/3
f 163/4/3 161/4/3 162/4/3
f 164/4/3 161/4/3 163/4/3
f 165/4/3 155/4/3 161/4/3
f 165/4/3 161/4/3 164/4/3
f 167/1/3 162/1/3 150/1/3
f 167/1/3 163/1/3 162/1/3
f 168/4/3 164/4/3 163/4/3
f 168/1/3 163/1/3 167/1/3
f 169/6/3 165/6/3 164/6/3
f 169/4/3 164/4/3 168/4/3
f 170/4/3 155/4/3 165/4/3
f 170/6/3 165/6/3 169/6/3
f 171/4/3 155/4/3 170/4/3
f 172/5/3 167/5/3 166/5/3
f 173/5/3 167/5/3 172/5/3
f 176/5/3 170/5/3 169/5/3
f 177/5/3 170/5/3 176/5/3
f 178/5/3 174/5/3 173/5/3
f 179/5/3 174/5/3 178/5/3
f 180/5/3 176/5/3 175/5/3
f 181/5/3 176/5/3 180/5/3
f 184/2/3 183/2/3 182/2/3
f 185/2/3 183/2/3 184/2/3
f 190/3/3 187/3/3 186/3/3
f 191/3/3 187/3/3 190/3/3
f 192/2/3 189/2/3 188/2/3
f 193/2/3 189/2/3 192/2/3
f 194/5/4 195/5/4 198/5/4
f 198/5/4 195/5/4 199/5/4
f 196/5/4 197/5/4 200/5/4
f 200/5/4 197/5/4 201/5/4
f 201/5/4 197/5/4 202/5/4
f 203/5/4 204/5/4 207/5/4
f 207/5/4 204/5/4 208/5/4
f 205/5/4 206/5/4 211/5/4
f 211/5/4 206/5/4 212/5/4
f 208/5/4 209/5/4 213/5/4
f 213/5/4 209/5/4 214/5/4
f 210/5/4 211/5/4 215/5/4
f 215/5/4 211/5/4 216/5/4
f 217/4/4 218/4/4 221/4/4
f 221/4/4 218/4/4 222/4/4
f 219/2/4 220/2/4 223/2/4
f 223/2/4 220/2/4 224/2/4
f 225/2/4 226/2/4 227/2/4
f 227/2/4 226/2/4 228/2/4
f 228/5/4 229/5/4 232/5/4
f 232/5/4 229/5/4 233/5/4
f 230/5/4 231/5/4 234/5/4
f 234/5/4 231/5/4 235/5/4
f 233/5/4 234/5/4 236/5/4
f 236/5/4 234/5/4 237/5/4
f 238/1/4 239/1/4 241/1/4
f 239/4/4 240/4/4 242/4/4
f 241/1/4 239/1/4 242/1/4
f 242/4/4 240/4/4 243/4/4
f 243/4/4 240/4/4 244/4/4
f 238/1/4 241/1/4 245/1/4
f 241/4/4 242/4/4 245/4/4
f 242/4/4 243/4/4 245/4/4
f 245/4/4 243/4/4 246/4/4
f 246/4/4 243/4/4 247/4/4
f 238/1/4 245/1/4 249/1/4
f 245/1/4 246/1/4 249/1/4
f 249/1/4 246/1/4 250/1/4
f 247/4/4 248/4/4 251/4/4
f 250/1/4 246/1/4 251/1/4
f 246/4/4 247/4/4 251/4/4
f 251/4/4 248/4/4 252/4/4
f 250/5/4 251/5/4 253/5/4
f 253/5/4 251/5/4 254/5/4
f 255/3/4 256/3/4 257/3/4
f 257/3/4 256/3/4 258/3/4
f 264/5/5 260/5/5 259/5/5
f 265/5/5 260/5/5 264/5/5
f 266/2/5 262/2/5 261/2/5
f 267/2/5 262/2/5 266/2/5
f 268/2/5 264/2/5 263/2/5
f 269/2/5 264/2/5 268/2/5
f 274/5/5 271/5/5 270/5/5
f 275/5/5 271/5/5 274/5/5
f 277/5/5 273/5/5 272/5/5
f 278/1/5 274/1/5 273/1/5
f 278/5/5 273/5/5 277/5/5
f 279/1/5 274/1/5 278/1/5
f 280/1/5 274/1/5 279/1/5
f 281/1/5 274/1/5 280/1/5
f 282/5/5 276/5/5 275/5/5
f 283/5/5 276/5/5 282/5/5
f 285/1/5 280/1/5 279/1/5
f 286/1/5 280/1/5 285/1/5
f 287/5/5 282/5/5 281/5/5
f 288/5/5 282/5/5 287/5/5
f 289/1/5 286/1/5 285/1/5
f 289/1/5 285/1/5 284/1/5
f 289/1/5 287/1/5 286/1/5
f 290/1/5 287/1/5 289/1/5
f 293/5/5 292/5/5 291/5/5
f 294/5/5 292/5/5 293/5/5
f 296/5/5 295/5/5 294/5/5
f 297/5/5 295/5/5 296/5/5
f 302/4/5 299/4/5 298/4/5
f 303/4/5 299/4/5 302/4/5
f 305/5/5 301/5/5 300/5/5
f 306/5/5 301/5/5 305/5/5
f 307/5/5 305/5/5 304/5/5
f 308/5/5 305/5/5 307/5/5
f 311/5/5 310/5/5 309/5/5
f 312/5/5 310/5/5 311/5/5
f 315/3/5 314/3/5 313/3/5
f 316/3/5 314/3/5 315/3/5
f 317/5/6 318/5/6 319/5/6
f 319/5/6 318/5/6 320/5/6
f 320/5/6 321/5/6 322/5/6
f 322/5/6 321/5/6 323/5/6
f 324/4/6 325/4/6 328/4/6
f 328/4/6 325/4/6 329/4/6
f 326/5/6 327/5/6 331/5/6
f 331/5/6 327/5/6 332/5/6
f 330/5/6 331/5/6 333/5/6
f 333/5/6 331/5/6 334/5/6
f 335/5/6 336/5/6 337/5/6
f 337/5/6 336/5/6 338/5/6
f 339/5/6 340/5/6 341/5/6
f 341/5/6 340/5/6 342/5/6
f 342/5/6 343/5/6 345/5/6
f 345/5/6 343/5/6 346/5/6
f 344/5/6 345/5/6 347/5/6
f 347/5/6 345/5/6 348/5/6
f 349/5/6 350/5/6 351/5/6
f 351/5/6 350/5/6 352/5/6
f 353/4/6 354/4/6 355/4/6
f 355/4/6 354/4/6 356/4/6
f 356/4/6 354/4/6 357/4/6
f 355/4/6 356/4/6 358/4/6
f 358/4/6 356/4/6 359/4/6
f 357/4/6 354/4/6 360/4/6
f 360/4/6 354/4/6 361/4/6
f 362/5/6 363/5/6 364/5/6
f 364/5/6 363/5/6 365/5/6
f 366/3/6 367/3/6 368/3/6
f 368/3/6 367/3/6 369/3/6
f 370/5/6 371/5/6 372/5/6
f 372/5/6 371/5/6 373/5/6
