# MagicaVoxel @ Ephtracy

# group
o 

# material
mtllib JackOLantern.mtl
usemtl palette

# normals
vn -1 0 0
vn 1 0 0
vn 0 0 1
vn 0 0 -1
vn 0 -1 0
vn 0 1 0

# texcoords
vt 0.0175781 0.5
vt 0.0917969 0.5
vt 0.904297 0.5
vt 0.994141 0.5

# verts
v -0.4 0.2 0.1
v -0.4 0.2 -0.2
v -0.4 0.6 0.1
v -0.4 0.6 -0.2
v -0.3 0.1 0.1
v -0.3 0.1 -0.2
v -0.3 0.2 0.2
v -0.3 0.2 0.1
v -0.3 0.2 -0.2
v -0.3 0.2 -0.3
v -0.3 0.5 0.2
v -0.3 0.5 0.1
v -0.3 0.5 -0.2
v -0.3 0.5 -0.3
v -0.3 0.6 0.1
v -0.3 0.6 -0.2
v -0.3 0.7 0.1
v -0.3 0.7 -0.2
v -0.2 0 0.2
v -0.2 0 -0.3
v -0.2 0.1 0.1
v -0.2 0.1 -0.2
v -0.2 0.2 0.3
v -0.2 0.2 0.2
v -0.2 0.2 0.1
v -0.2 0.2 -0.2
v -0.2 0.2 -0.3
v -0.2 0.2 -0.4
v -0.2 0.3 0.3
v -0.2 0.3 0.2
v -0.2 0.4 0.3
v -0.2 0.4 0.2
v -0.2 0.5 0.2
v -0.2 0.5 0.1
v -0.2 0.5 -0.2
v -0.2 0.5 -0.3
v -0.2 0.5 -0.4
v -0.2 0.6 0.3
v -0.2 0.6 0.2
v -0.2 0.7 0.3
v -0.2 0.7 0.1
v -0.2 0.7 -0.2
v -0.2 0.7 -0.3
v -0.1 0.1 0.3
v -0.1 0.1 0.2
v -0.1 0.1 -0.3
v -0.1 0.1 -0.4
v -0.1 0.2 0.3
v -0.1 0.2 0.2
v -0.1 0.2 -0.3
v -0.1 0.2 -0.4
v -0.1 0.5 -0.3
v -0.1 0.5 -0.4
v -0.1 0.7 -0.3
v -0.1 0.7 -0.4
v -0.1 0.8 0
v -0.1 0.8 -0.1
v -0.1 0.9 0
v -0.1 0.9 -0.1
v 0 0.7 0
v 0 0.7 -0.1
v 0 0.8 0
v 0 0.8 -0.1
v 0.1 0.7 0
v 0.1 0.7 -0.1
v 0.1 0.9 0
v 0.1 0.9 -0.1
v 0.2 0.1 0.3
v 0.2 0.1 0.2
v 0.2 0.1 -0.3
v 0.2 0.1 -0.4
v 0.2 0.2 0.3
v 0.2 0.2 0.2
v 0.2 0.2 -0.3
v 0.2 0.2 -0.4
v 0.2 0.5 -0.3
v 0.2 0.5 -0.4
v 0.2 0.7 -0.3
v 0.2 0.7 -0.4
v 0.3 0 0.2
v 0.3 0 -0.3
v 0.3 0.1 0.1
v 0.3 0.1 -0.2
v 0.3 0.2 0.3
v 0.3 0.2 0.2
v 0.3 0.2 0.1
v 0.3 0.2 -0.2
v 0.3 0.2 -0.3
v 0.3 0.2 -0.4
v 0.3 0.3 0.3
v 0.3 0.3 0.2
v 0.3 0.4 0.3
v 0.3 0.4 0.2
v 0.3 0.5 0.2
v 0.3 0.5 0.1
v 0.3 0.5 -0.2
v 0.3 0.5 -0.3
v 0.3 0.5 -0.4
v 0.3 0.6 0.3
v 0.3 0.6 0.2
v 0.3 0.7 0.3
v 0.3 0.7 0.1
v 0.3 0.7 -0.2
v 0.3 0.7 -0.3
v 0.4 0.1 0.1
v 0.4 0.1 -0.2
v 0.4 0.2 0.2
v 0.4 0.2 0.1
v 0.4 0.2 -0.2
v 0.4 0.2 -0.3
v 0.4 0.5 0.2
v 0.4 0.5 0.1
v 0.4 0.5 -0.2
v 0.4 0.5 -0.3
v 0.4 0.6 0.1
v 0.4 0.6 -0.2
v 0.4 0.7 0.1
v 0.4 0.7 -0.2
v 0.5 0.2 0.1
v 0.5 0.2 -0.2
v 0.5 0.6 0.1
v 0.5 0.6 -0.2
v -0.2 0.2 0.3
v -0.2 0.3 0.3
v -0.2 0.4 0.3
v -0.2 0.6 0.3
v -0.2 0.7 0.3
v -0.1 0.1 0.3
v -0.1 0.2 0.3
v -0.1 0.3 0.3
v -0.1 0.5 0.3
v -0.1 0.6 0.3
v 0 0.3 0.3
v 0 0.4 0.3
v 0 0.5 0.3
v 0.1 0.3 0.3
v 0.1 0.4 0.3
v 0.1 0.5 0.3
v 0.2 0.1 0.3
v 0.2 0.2 0.3
v 0.2 0.3 0.3
v 0.2 0.5 0.3
v 0.2 0.6 0.3
v 0.3 0.2 0.3
v 0.3 0.3 0.3
v 0.3 0.4 0.3
v 0.3 0.6 0.3
v 0.3 0.7 0.3
v -0.3 0.2 0.2
v -0.3 0.5 0.2
v -0.2 0 0.2
v -0.2 0.2 0.2
v -0.2 0.3 0.2
v -0.2 0.4 0.2
v -0.2 0.5 0.2
v -0.1 0.1 0.2
v -0.1 0.2 0.2
v 0.2 0.1 0.2
v 0.2 0.2 0.2
v 0.3 0 0.2
v 0.3 0.2 0.2
v 0.3 0.3 0.2
v 0.3 0.4 0.2
v 0.3 0.5 0.2
v 0.4 0.2 0.2
v 0.4 0.5 0.2
v -0.4 0.2 0.1
v -0.4 0.6 0.1
v -0.3 0.1 0.1
v -0.3 0.2 0.1
v -0.3 0.5 0.1
v -0.3 0.6 0.1
v -0.3 0.7 0.1
v -0.2 0.1 0.1
v -0.2 0.2 0.1
v -0.2 0.5 0.1
v -0.2 0.7 0.1
v 0.3 0.1 0.1
v 0.3 0.2 0.1
v 0.3 0.5 0.1
v 0.3 0.7 0.1
v 0.4 0.1 0.1
v 0.4 0.2 0.1
v 0.4 0.5 0.1
v 0.4 0.6 0.1
v 0.4 0.7 0.1
v 0.5 0.2 0.1
v 0.5 0.6 0.1
v -0.1 0.8 0
v -0.1 0.9 0
v 0 0.7 0
v 0 0.8 0
v 0.1 0.7 0
v 0.1 0.9 0
v -0.1 0.8 -0.1
v -0.1 0.9 -0.1
v 0 0.7 -0.1
v 0 0.8 -0.1
v 0.1 0.7 -0.1
v 0.1 0.9 -0.1
v -0.4 0.2 -0.2
v -0.4 0.6 -0.2
v -0.3 0.1 -0.2
v -0.3 0.2 -0.2
v -0.3 0.5 -0.2
v -0.3 0.6 -0.2
v -0.3 0.7 -0.2
v -0.2 0.1 -0.2
v -0.2 0.2 -0.2
v -0.2 0.5 -0.2
v -0.2 0.7 -0.2
v 0.3 0.1 -0.2
v 0.3 0.2 -0.2
v 0.3 0.5 -0.2
v 0.3 0.7 -0.2
v 0.4 0.1 -0.2
v 0.4 0.2 -0.2
v 0.4 0.5 -0.2
v 0.4 0.6 -0.2
v 0.4 0.7 -0.2
v 0.5 0.2 -0.2
v 0.5 0.6 -0.2
v -0.3 0.2 -0.3
v -0.3 0.5 -0.3
v -0.2 0 -0.3
v -0.2 0.2 -0.3
v -0.2 0.5 -0.3
v -0.2 0.7 -0.3
v -0.1 0.1 -0.3
v -0.1 0.2 -0.3
v -0.1 0.5 -0.3
v -0.1 0.7 -0.3
v 0.2 0.1 -0.3
v 0.2 0.2 -0.3
v 0.2 0.5 -0.3
v 0.2 0.7 -0.3
v 0.3 0 -0.3
v 0.3 0.2 -0.3
v 0.3 0.5 -0.3
v 0.3 0.7 -0.3
v 0.4 0.2 -0.3
v 0.4 0.5 -0.3
v -0.2 0.2 -0.4
v -0.2 0.5 -0.4
v -0.1 0.1 -0.4
v -0.1 0.2 -0.4
v -0.1 0.5 -0.4
v -0.1 0.7 -0.4
v 0.2 0.1 -0.4
v 0.2 0.2 -0.4
v 0.2 0.5 -0.4
v 0.2 0.7 -0.4
v 0.3 0.2 -0.4
v 0.3 0.5 -0.4
v -0.2 0 0.2
v 0.3 0 0.2
v -0.2 0 -0.3
v 0.3 0 -0.3
v -0.1 0.1 0.3
v 0.2 0.1 0.3
v -0.1 0.1 0.2
v 0.2 0.1 0.2
v -0.3 0.1 0.1
v -0.2 0.1 0.1
v 0.3 0.1 0.1
v 0.4 0.1 0.1
v -0.3 0.1 -0.2
v -0.2 0.1 -0.2
v 0.3 0.1 -0.2
v 0.4 0.1 -0.2
v -0.1 0.1 -0.3
v 0.2 0.1 -0.3
v -0.1 0.1 -0.4
v 0.2 0.1 -0.4
v -0.2 0.2 0.3
v -0.1 0.2 0.3
v 0.2 0.2 0.3
v 0.3 0.2 0.3
v -0.3 0.2 0.2
v -0.2 0.2 0.2
v -0.1 0.2 0.2
v 0.2 0.2 0.2
v 0.3 0.2 0.2
v 0.4 0.2 0.2
v -0.4 0.2 0.1
v -0.3 0.2 0.1
v -0.2 0.2 0.1
v 0.3 0.2 0.1
v 0.4 0.2 0.1
v 0.5 0.2 0.1
v -0.4 0.2 -0.2
v -0.3 0.2 -0.2
v -0.2 0.2 -0.2
v 0.3 0.2 -0.2
v 0.4 0.2 -0.2
v 0.5 0.2 -0.2
v -0.3 0.2 -0.3
v -0.2 0.2 -0.3
v -0.1 0.2 -0.3
v 0.2 0.2 -0.3
v 0.3 0.2 -0.3
v 0.4 0.2 -0.3
v -0.2 0.2 -0.4
v -0.1 0.2 -0.4
v 0.2 0.2 -0.4
v 0.3 0.2 -0.4
v -0.1 0.8 0
v 0 0.8 0
v -0.1 0.8 -0.1
v 0 0.8 -0.1
v -0.3 0.5 0.2
v -0.2 0.5 0.2
v 0.3 0.5 0.2
v 0.4 0.5 0.2
v -0.3 0.5 0.1
v -0.2 0.5 0.1
v 0.3 0.5 0.1
v 0.4 0.5 0.1
v -0.3 0.5 -0.2
v -0.2 0.5 -0.2
v 0.3 0.5 -0.2
v 0.4 0.5 -0.2
v -0.3 0.5 -0.3
v -0.2 0.5 -0.3
v -0.1 0.5 -0.3
v 0.2 0.5 -0.3
v 0.3 0.5 -0.3
v 0.4 0.5 -0.3
v -0.2 0.5 -0.4
v -0.1 0.5 -0.4
v 0.2 0.5 -0.4
v 0.3 0.5 -0.4
v -0.4 0.6 0.1
v -0.3 0.6 0.1
v 0.4 0.6 0.1
v 0.5 0.6 0.1
v -0.4 0.6 -0.2
v -0.3 0.6 -0.2
v 0.4 0.6 -0.2
v 0.5 0.6 -0.2
v -0.2 0.7 0.3
v 0.3 0.7 0.3
v -0.3 0.7 0.1
v -0.2 0.7 0.1
v 0.3 0.7 0.1
v 0.4 0.7 0.1
v 0 0.7 0
v 0.1 0.7 0
v 0 0.7 -0.1
v 0.1 0.7 -0.1
v -0.3 0.7 -0.2
v -0.2 0.7 -0.2
v 0.3 0.7 -0.2
v 0.4 0.7 -0.2
v -0.2 0.7 -0.3
v -0.1 0.7 -0.3
v 0.2 0.7 -0.3
v 0.3 0.7 -0.3
v -0.1 0.7 -0.4
v 0.2 0.7 -0.4
v -0.1 0.9 0
v 0.1 0.9 0
v -0.1 0.9 -0.1
v 0.1 0.9 -0.1

# faces
f 3/2/1 2/2/1 1/2/1
f 4/2/1 2/2/1 3/2/1
f 8/2/1 6/2/1 5/2/1
f 9/2/1 6/2/1 8/2/1
f 11/2/1 8/2/1 7/2/1
f 12/2/1 8/2/1 11/2/1
f 13/2/1 10/2/1 9/2/1
f 14/2/1 10/2/1 13/2/1
f 17/2/1 16/2/1 15/2/1
f 18/2/1 16/2/1 17/2/1
f 21/2/1 20/2/1 19/2/1
f 22/2/1 20/2/1 21/2/1
f 24/2/1 21/2/1 19/2/1
f 25/2/1 21/2/1 24/2/1
f 26/2/1 20/2/1 22/2/1
f 27/2/1 20/2/1 26/2/1
f 29/1/1 24/1/1 23/1/1
f 30/1/1 24/1/1 29/1/1
f 31/2/1 30/2/1 29/2/1
f 32/2/1 30/2/1 31/2/1
f 33/1/1 32/1/1 31/1/1
f 36/2/1 28/2/1 27/2/1
f 37/2/1 28/2/1 36/2/1
f 38/1/1 33/1/1 31/1/1
f 39/2/1 34/2/1 33/2/1
f 39/1/1 33/1/1 38/1/1
f 40/2/1 39/2/1 38/2/1
f 41/2/1 34/2/1 39/2/1
f 41/2/1 39/2/1 40/2/1
f 42/2/1 36/2/1 35/2/1
f 43/2/1 36/2/1 42/2/1
f 48/1/1 45/1/1 44/1/1
f 49/1/1 45/1/1 48/1/1
f 50/2/1 47/2/1 46/2/1
f 51/2/1 47/2/1 50/2/1
f 54/2/1 53/2/1 52/2/1
f 55/2/1 53/2/1 54/2/1
f 58/3/1 57/3/1 56/3/1
f 59/3/1 57/3/1 58/3/1
f 62/3/1 61/3/1 60/3/1
f 63/3/1 61/3/1 62/3/1
f 64/3/2 65/3/2 66/3/2
f 66/3/2 65/3/2 67/3/2
f 68/1/2 69/1/2 72/1/2
f 72/1/2 69/1/2 73/1/2
f 70/2/2 71/2/2 74/2/2
f 74/2/2 71/2/2 75/2/2
f 76/2/2 77/2/2 78/2/2
f 78/2/2 77/2/2 79/2/2
f 80/2/2 81/2/2 82/2/2
f 82/2/2 81/2/2 83/2/2
f 80/2/2 82/2/2 85/2/2
f 85/2/2 82/2/2 86/2/2
f 83/2/2 81/2/2 87/2/2
f 87/2/2 81/2/2 88/2/2
f 84/1/2 85/1/2 90/1/2
f 90/1/2 85/1/2 91/1/2
f 90/2/2 91/2/2 92/2/2
f 92/2/2 91/2/2 93/2/2
f 92/1/2 93/1/2 94/1/2
f 88/2/2 89/2/2 97/2/2
f 97/2/2 89/2/2 98/2/2
f 92/1/2 94/1/2 99/1/2
f 94/2/2 95/2/2 100/2/2
f 99/1/2 94/1/2 100/1/2
f 99/2/2 100/2/2 101/2/2
f 100/2/2 95/2/2 102/2/2
f 101/2/2 100/2/2 102/2/2
f 96/2/2 97/2/2 103/2/2
f 103/2/2 97/2/2 104/2/2
f 105/2/2 106/2/2 108/2/2
f 108/2/2 106/2/2 109/2/2
f 107/2/2 108/2/2 111/2/2
f 111/2/2 108/2/2 112/2/2
f 109/2/2 110/2/2 113/2/2
f 113/2/2 110/2/2 114/2/2
f 115/2/2 116/2/2 117/2/2
f 117/2/2 116/2/2 118/2/2
f 119/2/2 120/2/2 121/2/2
f 121/2/2 120/2/2 122/2/2
f 129/1/3 124/1/3 123/1/3
f 130/2/3 125/2/3 124/2/3
f 130/1/3 124/1/3 129/1/3
f 131/1/3 126/1/3 125/1/3
f 132/2/3 127/2/3 126/2/3
f 132/1/3 126/1/3 131/1/3
f 133/2/3 125/2/3 130/2/3
f 133/2/3 130/2/3 129/2/3
f 134/1/3 131/1/3 125/1/3
f 134/2/3 125/2/3 133/2/3
f 135/2/3 132/2/3 131/2/3
f 135/1/3 131/1/3 134/1/3
f 136/2/3 133/2/3 129/2/3
f 136/1/3 134/1/3 133/1/3
f 137/2/3 135/2/3 134/2/3
f 137/1/3 134/1/3 136/1/3
f 138/2/3 132/2/3 135/2/3
f 138/2/3 135/2/3 137/2/3
f 139/1/3 129/1/3 128/1/3
f 140/2/3 137/2/3 136/2/3
f 140/1/3 129/1/3 139/1/3
f 140/2/3 136/2/3 129/2/3
f 141/2/3 137/2/3 140/2/3
f 142/2/3 132/2/3 138/2/3
f 142/1/3 138/1/3 137/1/3
f 143/2/3 127/2/3 132/2/3
f 143/2/3 132/2/3 142/2/3
f 144/1/3 141/1/3 140/1/3
f 145/2/3 137/2/3 141/2/3
f 145/1/3 141/1/3 144/1/3
f 146/1/3 142/1/3 137/1/3
f 146/2/3 137/2/3 145/2/3
f 146/1/3 143/1/3 142/1/3
f 147/2/3 127/2/3 143/2/3
f 147/1/3 143/1/3 146/1/3
f 148/2/3 127/2/3 147/2/3
f 152/2/3 150/2/3 149/2/3
f 153/2/3 150/2/3 152/2/3
f 154/2/3 150/2/3 153/2/3
f 155/2/3 150/2/3 154/2/3
f 156/2/3 152/2/3 151/2/3
f 157/2/3 152/2/3 156/2/3
f 158/2/3 156/2/3 151/2/3
f 160/2/3 158/2/3 151/2/3
f 160/2/3 159/2/3 158/2/3
f 161/2/3 159/2/3 160/2/3
f 165/2/3 164/2/3 163/2/3
f 165/2/3 163/2/3 162/2/3
f 165/2/3 162/2/3 161/2/3
f 166/2/3 164/2/3 165/2/3
f 170/2/3 168/2/3 167/2/3
f 171/2/3 168/2/3 170/2/3
f 172/2/3 168/2/3 171/2/3
f 174/2/3 170/2/3 169/2/3
f 175/2/3 170/2/3 174/2/3
f 176/2/3 173/2/3 172/2/3
f 176/2/3 172/2/3 171/2/3
f 177/2/3 173/2/3 176/2/3
f 182/2/3 179/2/3 178/2/3
f 183/2/3 179/2/3 182/2/3
f 184/2/3 181/2/3 180/2/3
f 185/2/3 181/2/3 184/2/3
f 186/2/3 181/2/3 185/2/3
f 187/2/3 184/2/3 183/2/3
f 187/2/3 185/2/3 184/2/3
f 188/2/3 185/2/3 187/2/3
f 192/3/3 190/3/3 189/3/3
f 193/3/3 192/3/3 191/3/3
f 194/3/3 190/3/3 192/3/3
f 194/3/3 192/3/3 193/3/3
f 195/3/4 196/3/4 198/3/4
f 197/3/4 198/3/4 199/3/4
f 198/3/4 196/3/4 200/3/4
f 199/3/4 198/3/4 200/3/4
f 201/2/4 202/2/4 204/2/4
f 204/2/4 202/2/4 205/2/4
f 205/2/4 202/2/4 206/2/4
f 203/2/4 204/2/4 208/2/4
f 208/2/4 204/2/4 209/2/4
f 206/2/4 207/2/4 210/2/4
f 205/2/4 206/2/4 210/2/4
f 210/2/4 207/2/4 211/2/4
f 212/2/4 213/2/4 216/2/4
f 216/2/4 213/2/4 217/2/4
f 214/2/4 215/2/4 218/2/4
f 218/2/4 215/2/4 219/2/4
f 219/2/4 215/2/4 220/2/4
f 217/2/4 218/2/4 221/2/4
f 218/2/4 219/2/4 221/2/4
f 221/2/4 219/2/4 222/2/4
f 223/2/4 224/2/4 226/2/4
f 226/2/4 224/2/4 227/2/4
f 225/2/4 226/2/4 229/2/4
f 229/2/4 226/2/4 230/2/4
f 227/2/4 228/2/4 231/2/4
f 231/2/4 228/2/4 232/2/4
f 225/2/4 229/2/4 233/2/4
f 225/2/4 233/2/4 237/2/4
f 233/2/4 234/2/4 237/2/4
f 237/2/4 234/2/4 238/2/4
f 235/2/4 236/2/4 239/2/4
f 239/2/4 236/2/4 240/2/4
f 238/2/4 239/2/4 241/2/4
f 241/2/4 239/2/4 242/2/4
f 243/2/4 244/2/4 246/2/4
f 246/2/4 244/2/4 247/2/4
f 245/2/4 246/2/4 249/2/4
f 247/2/4 248/2/4 249/2/4
f 246/2/4 247/2/4 249/2/4
f 249/2/4 248/2/4 250/2/4
f 250/2/4 248/2/4 251/2/4
f 251/2/4 248/2/4 252/2/4
f 250/2/4 251/2/4 253/2/4
f 253/2/4 251/2/4 254/2/4
f 257/2/5 256/2/5 255/2/5
f 258/2/5 256/2/5 257/2/5
f 261/1/5 260/1/5 259/1/5
f 262/1/5 260/1/5 261/1/5
f 267/2/5 264/2/5 263/2/5
f 268/2/5 264/2/5 267/2/5
f 269/2/5 266/2/5 265/2/5
f 270/2/5 266/2/5 269/2/5
f 273/2/5 272/2/5 271/2/5
f 274/2/5 272/2/5 273/2/5
f 280/1/5 276/1/5 275/1/5
f 281/1/5 276/1/5 280/1/5
f 282/1/5 278/1/5 277/1/5
f 283/1/5 278/1/5 282/1/5
f 286/2/5 280/2/5 279/2/5
f 287/2/5 280/2/5 286/2/5
f 288/2/5 284/2/5 283/2/5
f 289/2/5 284/2/5 288/2/5
f 291/2/5 286/2/5 285/2/5
f 292/2/5 286/2/5 291/2/5
f 295/2/5 290/2/5 289/2/5
f 296/2/5 290/2/5 295/2/5
f 297/2/5 293/2/5 292/2/5
f 298/2/5 293/2/5 297/2/5
f 301/2/5 295/2/5 294/2/5
f 302/2/5 295/2/5 301/2/5
f 303/2/5 299/2/5 298/2/5
f 304/2/5 299/2/5 303/2/5
f 305/2/5 301/2/5 300/2/5
f 306/2/5 301/2/5 305/2/5
f 309/3/5 308/3/5 307/3/5
f 310/3/5 308/3/5 309/3/5
f 311/2/6 312/2/6 315/2/6
f 315/2/6 312/2/6 316/2/6
f 313/2/6 314/2/6 317/2/6
f 317/2/6 314/2/6 318/2/6
f 319/2/6 320/2/6 323/2/6
f 323/2/6 320/2/6 324/2/6
f 321/2/6 322/2/6 327/2/6
f 327/2/6 322/2/6 328/2/6
f 324/2/6 325/2/6 329/2/6
f 329/2/6 325/2/6 330/2/6
f 326/2/6 327/2/6 331/2/6
f 331/2/6 327/2/6 332/2/6
f 333/2/6 334/2/6 337/2/6
f 337/2/6 334/2/6 338/2/6
f 335/2/6 336/2/6 339/2/6
f 339/2/6 336/2/6 340/2/6
f 341/2/6 342/2/6 344/2/6
f 344/2/6 342/2/6 345/2/6
f 343/2/6 344/2/6 347/2/6
f 345/2/6 346/2/6 347/2/6
f 344/2/6 345/2/6 347/2/6
f 347/2/6 346/2/6 348/2/6
f 343/2/6 347/2/6 349/2/6
f 348/2/6 346/2/6 350/2/6
f 343/2/6 349/2/6 351/2/6
f 349/2/6 350/2/6 351/2/6
f 351/2/6 350/2/6 352/2/6
f 350/2/6 346/2/6 353/2/6
f 352/2/6 350/2/6 353/2/6
f 353/2/6 346/2/6 354/2/6
f 352/2/6 353/2/6 355/2/6
f 355/2/6 353/2/6 356/2/6
f 356/2/6 353/2/6 357/2/6
f 357/2/6 353/2/6 358/2/6
f 356/2/6 357/2/6 359/2/6
f 359/2/6 357/2/6 360/2/6
f 361/3/6 362/3/6 363/3/6
f 363/3/6 362/3/6 364/3/6
