# MagicaVoxel @ Ephtracy

# group
o 

# material
mtllib BallistaTower5.mtl
usemtl palette

# normals
vn -1 0 0
vn 1 0 0
vn 0 0 1
vn 0 0 -1
vn 0 -1 0
vn 0 1 0

# texcoords
vt 0.533203 0.5
vt 0.666016 0.5
vt 0.974609 0.5
vt 0.982422 0.5

# verts
v -1 0 1
v -1 0 -1
v -1 0.1 1
v -1 0.1 -1
v -1 1.1 1
v -1 1.1 0.4
v -1 1.1 -0.4
v -1 1.1 -1
v -1 1.4 0.2
v -1 1.4 -0.2
v -1 1.7 0.2
v -1 1.7 -0.2
v -1 1.9 1
v -1 1.9 0.4
v -1 1.9 -0.4
v -1 1.9 -1
v -0.9 0.1 0.9
v -0.9 0.1 -0.9
v -0.9 0.4 0.9
v -0.9 0.4 -0.9
v -0.9 0.6 0.9
v -0.9 0.6 -0.9
v -0.9 0.8 0.9
v -0.9 0.8 -0.9
v -0.9 1.1 0.4
v -0.9 1.1 -0.4
v -0.9 1.4 0.2
v -0.9 1.4 -0.2
v -0.9 1.7 0.2
v -0.9 1.7 -0.2
v -0.9 1.8 0.4
v -0.9 1.8 -0.4
v -0.8 0.8 0.8
v -0.8 0.8 -0.8
v -0.8 1.1 0.8
v -0.8 1.1 0.4
v -0.8 1.1 -0.4
v -0.8 1.1 -0.8
v -0.4 0.1 -0.9
v -0.4 0.1 -1
v -0.4 0.4 -0.9
v -0.4 0.6 -0.9
v -0.4 0.7 -0.9
v -0.4 0.7 -1
v -0.2 1.4 1
v -0.2 1.4 0.9
v -0.2 1.4 -0.9
v -0.2 1.4 -1
v -0.2 1.7 1
v -0.2 1.7 0.9
v -0.2 1.7 -0.9
v -0.2 1.7 -1
v 0.2 0.5 -0.9
v 0.2 0.5 -1
v 0.2 0.6 -0.9
v 0.2 0.6 -1
v 0.3 0 -0.9
v 0.3 0 -1
v 0.3 0.5 -0.9
v 0.3 0.5 -1
v 0.4 1.1 1
v 0.4 1.1 0.9
v 0.4 1.1 -0.9
v 0.4 1.1 -1
v 0.4 1.8 0.9
v 0.4 1.8 0.8
v 0.4 1.8 -0.8
v 0.4 1.8 -0.9
v 0.4 1.9 1
v 0.4 1.9 0.8
v 0.4 1.9 -0.8
v 0.4 1.9 -1
v 0.8 1.7 0.8
v 0.8 1.7 0.4
v 0.8 1.7 -0.4
v 0.8 1.7 -0.8
v 0.8 1.8 0.4
v 0.8 1.8 -0.4
v 0.8 1.9 0.8
v 0.8 1.9 0.4
v 0.8 1.9 -0.4
v 0.8 1.9 -0.8
v -0.8 1.7 0.8
v -0.8 1.7 0.4
v -0.8 1.7 -0.4
v -0.8 1.7 -0.8
v -0.8 1.8 0.4
v -0.8 1.8 -0.4
v -0.8 1.9 0.8
v -0.8 1.9 0.4
v -0.8 1.9 -0.4
v -0.8 1.9 -0.8
v -0.4 1.1 1
v -0.4 1.1 0.9
v -0.4 1.1 -0.9
v -0.4 1.1 -1
v -0.4 1.8 0.9
v -0.4 1.8 0.8
v -0.4 1.8 -0.8
v -0.4 1.8 -0.9
v -0.4 1.9 1
v -0.4 1.9 0.8
v -0.4 1.9 -0.8
v -0.4 1.9 -1
v -0.3 0 -0.9
v -0.3 0 -1
v -0.3 0.5 -0.9
v -0.3 0.5 -1
v -0.2 0.5 -0.9
v -0.2 0.5 -1
v -0.2 0.6 -0.9
v -0.2 0.6 -1
v 0.2 1.4 1
v 0.2 1.4 0.9
v 0.2 1.4 -0.9
v 0.2 1.4 -1
v 0.2 1.7 1
v 0.2 1.7 0.9
v 0.2 1.7 -0.9
v 0.2 1.7 -1
v 0.4 0.1 -0.9
v 0.4 0.1 -1
v 0.4 0.4 -0.9
v 0.4 0.6 -0.9
v 0.4 0.7 -0.9
v 0.4 0.7 -1
v 0.8 0.8 0.8
v 0.8 0.8 -0.8
v 0.8 1.1 0.8
v 0.8 1.1 0.4
v 0.8 1.1 -0.4
v 0.8 1.1 -0.8
v 0.9 0.1 0.9
v 0.9 0.1 -0.9
v 0.9 0.4 0.9
v 0.9 0.4 -0.9
v 0.9 0.6 0.9
v 0.9 0.6 -0.9
v 0.9 0.8 0.9
v 0.9 0.8 -0.9
v 0.9 1.1 0.4
v 0.9 1.1 -0.4
v 0.9 1.4 0.2
v 0.9 1.4 -0.2
v 0.9 1.7 0.2
v 0.9 1.7 -0.2
v 0.9 1.8 0.4
v 0.9 1.8 -0.4
v 1 0 1
v 1 0 -1
v 1 0.1 1
v 1 0.1 -1
v 1 1.1 1
v 1 1.1 0.4
v 1 1.1 -0.4
v 1 1.1 -1
v 1 1.4 0.2
v 1 1.4 -0.2
v 1 1.7 0.2
v 1 1.7 -0.2
v 1 1.9 1
v 1 1.9 0.4
v 1 1.9 -0.4
v 1 1.9 -1
v -1 0 1
v -1 0.1 1
v -1 1.1 1
v -1 1.9 1
v -0.4 1.1 1
v -0.4 1.9 1
v -0.2 1.4 1
v -0.2 1.7 1
v 0.2 1.4 1
v 0.2 1.7 1
v 0.4 1.1 1
v 0.4 1.9 1
v 1 0 1
v 1 0.1 1
v 1 1.1 1
v 1 1.9 1
v -0.9 0.1 0.9
v -0.9 0.4 0.9
v -0.9 0.6 0.9
v -0.9 0.8 0.9
v -0.4 1.1 0.9
v -0.4 1.8 0.9
v -0.2 1.4 0.9
v -0.2 1.7 0.9
v 0.2 1.4 0.9
v 0.2 1.7 0.9
v 0.4 1.1 0.9
v 0.4 1.8 0.9
v 0.9 0.1 0.9
v 0.9 0.4 0.9
v 0.9 0.6 0.9
v 0.9 0.8 0.9
v -0.8 0.8 0.8
v -0.8 1.1 0.8
v -0.4 1.1 0.8
v 0.4 1.1 0.8
v 0.8 0.8 0.8
v 0.8 1.1 0.8
v -1 1.4 0.2
v -1 1.7 0.2
v -0.9 1.4 0.2
v -0.9 1.7 0.2
v 0.9 1.4 0.2
v 0.9 1.7 0.2
v 1 1.4 0.2
v 1 1.7 0.2
v -1 1.1 -0.4
v -1 1.9 -0.4
v -0.9 1.1 -0.4
v -0.9 1.8 -0.4
v -0.8 1.8 -0.4
v -0.8 1.9 -0.4
v 0.8 1.8 -0.4
v 0.8 1.9 -0.4
v 0.9 1.1 -0.4
v 0.9 1.8 -0.4
v 1 1.1 -0.4
v 1 1.9 -0.4
v -0.8 1.7 -0.8
v -0.8 1.9 -0.8
v -0.4 1.7 -0.8
v -0.4 1.8 -0.8
v -0.4 1.9 -0.8
v 0.4 1.7 -0.8
v 0.4 1.8 -0.8
v 0.4 1.9 -0.8
v 0.8 1.7 -0.8
v 0.8 1.9 -0.8
v -0.8 1.7 0.8
v -0.8 1.9 0.8
v -0.4 1.7 0.8
v -0.4 1.8 0.8
v -0.4 1.9 0.8
v 0.4 1.7 0.8
v 0.4 1.8 0.8
v 0.4 1.9 0.8
v 0.8 1.7 0.8
v 0.8 1.9 0.8
v -1 1.1 0.4
v -1 1.9 0.4
v -0.9 1.1 0.4
v -0.9 1.8 0.4
v -0.8 1.8 0.4
v -0.8 1.9 0.4
v 0.8 1.8 0.4
v 0.8 1.9 0.4
v 0.9 1.1 0.4
v 0.9 1.8 0.4
v 1 1.1 0.4
v 1 1.9 0.4
v -1 1.4 -0.2
v -1 1.7 -0.2
v -0.9 1.4 -0.2
v -0.9 1.7 -0.2
v 0.9 1.4 -0.2
v 0.9 1.7 -0.2
v 1 1.4 -0.2
v 1 1.7 -0.2
v -0.8 0.8 -0.8
v -0.8 1.1 -0.8
v -0.4 1.1 -0.8
v 0.4 1.1 -0.8
v 0.8 0.8 -0.8
v 0.8 1.1 -0.8
v -0.9 0.1 -0.9
v -0.9 0.4 -0.9
v -0.9 0.6 -0.9
v -0.9 0.8 -0.9
v -0.4 0.1 -0.9
v -0.4 0.4 -0.9
v -0.4 0.6 -0.9
v -0.4 0.7 -0.9
v -0.4 1.1 -0.9
v -0.4 1.8 -0.9
v -0.3 0 -0.9
v -0.3 0.5 -0.9
v -0.2 0.5 -0.9
v -0.2 0.6 -0.9
v -0.2 1.4 -0.9
v -0.2 1.7 -0.9
v 0.2 0.5 -0.9
v 0.2 0.6 -0.9
v 0.2 1.4 -0.9
v 0.2 1.7 -0.9
v 0.3 0 -0.9
v 0.3 0.5 -0.9
v 0.4 0.1 -0.9
v 0.4 0.4 -0.9
v 0.4 0.6 -0.9
v 0.4 0.7 -0.9
v 0.4 1.1 -0.9
v 0.4 1.8 -0.9
v 0.9 0.1 -0.9
v 0.9 0.4 -0.9
v 0.9 0.6 -0.9
v 0.9 0.8 -0.9
v -1 0 -1
v -1 0.1 -1
v -1 1.1 -1
v -1 1.9 -1
v -0.4 0.1 -1
v -0.4 0.7 -1
v -0.4 1.1 -1
v -0.4 1.9 -1
v -0.3 0 -1
v -0.3 0.5 -1
v -0.2 0.5 -1
v -0.2 0.6 -1
v -0.2 1.4 -1
v -0.2 1.7 -1
v 0.2 0.5 -1
v 0.2 0.6 -1
v 0.2 1.4 -1
v 0.2 1.7 -1
v 0.3 0 -1
v 0.3 0.5 -1
v 0.4 0.1 -1
v 0.4 0.7 -1
v 0.4 1.1 -1
v 0.4 1.9 -1
v 1 0 -1
v 1 0.1 -1
v 1 1.1 -1
v 1 1.9 -1
v -1 0 1
v 1 0 1
v -0.3 0 -0.8
v 0.3 0 -0.8
v -0.3 0 -0.9
v 0.3 0 -0.9
v -1 0 -1
v -0.3 0 -1
v 0.3 0 -1
v 1 0 -1
v -0.3 0.5 -0.9
v -0.2 0.5 -0.9
v 0.2 0.5 -0.9
v 0.3 0.5 -0.9
v -0.3 0.5 -1
v -0.2 0.5 -1
v 0.2 0.5 -1
v 0.3 0.5 -1
v -0.2 0.6 -0.9
v 0.2 0.6 -0.9
v -0.2 0.6 -1
v 0.2 0.6 -1
v -1 1.1 1
v -0.4 1.1 1
v 0.4 1.1 1
v 1 1.1 1
v -0.4 1.1 0.9
v 0.4 1.1 0.9
v -0.8 1.1 0.8
v -0.4 1.1 0.8
v 0.4 1.1 0.8
v 0.8 1.1 0.8
v -1 1.1 0.4
v -0.9 1.1 0.4
v -0.8 1.1 0.4
v 0.8 1.1 0.4
v 0.9 1.1 0.4
v 1 1.1 0.4
v -1 1.1 -0.4
v -0.9 1.1 -0.4
v -0.8 1.1 -0.4
v 0.8 1.1 -0.4
v 0.9 1.1 -0.4
v 1 1.1 -0.4
v -0.8 1.1 -0.8
v -0.4 1.1 -0.8
v 0.4 1.1 -0.8
v 0.8 1.1 -0.8
v -0.4 1.1 -0.9
v 0.4 1.1 -0.9
v -1 1.1 -1
v -0.4 1.1 -1
v 0.4 1.1 -1
v 1 1.1 -1
v -0.2 1.4 1
v 0.2 1.4 1
v -0.2 1.4 0.9
v 0.2 1.4 0.9
v -1 1.4 0.2
v -0.9 1.4 0.2
v 0.9 1.4 0.2
v 1 1.4 0.2
v -1 1.4 -0.2
v -0.9 1.4 -0.2
v 0.9 1.4 -0.2
v 1 1.4 -0.2
v -0.2 1.4 -0.9
v 0.2 1.4 -0.9
v -0.2 1.4 -1
v 0.2 1.4 -1
v -1 0.1 1
v 1 0.1 1
v -0.9 0.1 0.9
v 0.9 0.1 0.9
v -0.9 0.1 -0.9
v -0.4 0.1 -0.9
v 0.4 0.1 -0.9
v 0.9 0.1 -0.9
v -1 0.1 -1
v -0.4 0.1 -1
v 0.4 0.1 -1
v 1 0.1 -1
v -0.4 0.7 -0.9
v 0.4 0.7 -0.9
v -0.4 0.7 -1
v 0.4 0.7 -1
v -0.9 0.8 0.9
v 0.9 0.8 0.9
v -0.8 0.8 0.8
v 0.8 0.8 0.8
v -0.8 0.8 -0.8
v 0.8 0.8 -0.8
v -0.9 0.8 -0.9
v 0.9 0.8 -0.9
v -0.2 1.7 1
v 0.2 1.7 1
v -0.2 1.7 0.9
v 0.2 1.7 0.9
v -0.8 1.7 0.8
v -0.4 1.7 0.8
v 0.4 1.7 0.8
v 0.8 1.7 0.8
v -0.8 1.7 0.4
v -0.4 1.7 0.4
v 0.4 1.7 0.4
v 0.8 1.7 0.4
v -1 1.7 0.2
v -0.9 1.7 0.2
v 0.9 1.7 0.2
v 1 1.7 0.2
v -1 1.7 -0.2
v -0.9 1.7 -0.2
v 0.9 1.7 -0.2
v 1 1.7 -0.2
v -0.8 1.7 -0.4
v -0.4 1.7 -0.4
v 0.4 1.7 -0.4
v 0.8 1.7 -0.4
v -0.8 1.7 -0.8
v -0.4 1.7 -0.8
v 0.4 1.7 -0.8
v 0.8 1.7 -0.8
v -0.2 1.7 -0.9
v 0.2 1.7 -0.9
v -0.2 1.7 -1
v 0.2 1.7 -1
v -0.4 1.8 0.9
v 0.4 1.8 0.9
v -0.4 1.8 0.8
v 0.4 1.8 0.8
v -0.9 1.8 0.4
v -0.8 1.8 0.4
v 0.8 1.8 0.4
v 0.9 1.8 0.4
v -0.9 1.8 -0.4
v -0.8 1.8 -0.4
v 0.8 1.8 -0.4
v 0.9 1.8 -0.4
v -0.4 1.8 -0.8
v 0.4 1.8 -0.8
v -0.4 1.8 -0.9
v 0.4 1.8 -0.9
v -1 1.9 1
v -0.4 1.9 1
v 0.4 1.9 1
v 1 1.9 1
v -0.8 1.9 0.8
v -0.4 1.9 0.8
v 0.4 1.9 0.8
v 0.8 1.9 0.8
v -1 1.9 0.4
v -0.8 1.9 0.4
v 0.8 1.9 0.4
v 1 1.9 0.4
v -1 1.9 -0.4
v -0.8 1.9 -0.4
v 0.8 1.9 -0.4
v 1 1.9 -0.4
v -0.8 1.9 -0.8
v -0.4 1.9 -0.8
v 0.4 1.9 -0.8
v 0.8 1.9 -0.8
v -1 1.9 -1
v -0.4 1.9 -1
v 0.4 1.9 -1
v 1 1.9 -1

# faces
f 3/3/1 2/3/1 1/3/1
f 4/3/1 2/3/1 3/3/1
f 11/2/1 10/2/1 9/2/1
f 12/2/1 10/2/1 11/2/1
f 13/2/1 6/2/1 5/2/1
f 14/2/1 6/2/1 13/2/1
f 15/2/1 8/2/1 7/2/1
f 16/2/1 8/2/1 15/2/1
f 19/3/1 18/3/1 17/3/1
f 20/3/1 18/3/1 19/3/1
f 21/2/1 20/2/1 19/2/1
f 22/2/1 20/2/1 21/2/1
f 23/3/1 22/3/1 21/3/1
f 24/3/1 22/3/1 23/3/1
f 27/4/1 26/4/1 25/4/1
f 28/4/1 26/4/1 27/4/1
f 29/4/1 27/4/1 25/4/1
f 30/4/1 26/4/1 28/4/1
f 31/4/1 29/4/1 25/4/1
f 31/4/1 30/4/1 29/4/1
f 32/4/1 26/4/1 30/4/1
f 32/4/1 30/4/1 31/4/1
f 35/3/1 34/3/1 33/3/1
f 36/3/1 34/3/1 35/3/1
f 37/3/1 34/3/1 36/3/1
f 38/3/1 34/3/1 37/3/1
f 41/3/1 40/3/1 39/3/1
f 42/3/1 40/3/1 41/3/1
f 43/3/1 40/3/1 42/3/1
f 44/3/1 40/3/1 43/3/1
f 49/2/1 46/2/1 45/2/1
f 50/2/1 46/2/1 49/2/1
f 51/2/1 48/2/1 47/2/1
f 52/2/1 48/2/1 51/2/1
f 55/3/1 54/3/1 53/3/1
f 56/3/1 54/3/1 55/3/1
f 59/3/1 58/3/1 57/3/1
f 60/3/1 58/3/1 59/3/1
f 65/2/1 62/2/1 61/2/1
f 68/2/1 64/2/1 63/2/1
f 69/2/1 66/2/1 65/2/1
f 69/2/1 65/2/1 61/2/1
f 70/2/1 66/2/1 69/2/1
f 71/2/1 68/2/1 67/2/1
f 72/2/1 64/2/1 68/2/1
f 72/2/1 68/2/1 71/2/1
f 77/2/1 74/2/1 73/2/1
f 77/4/1 75/4/1 74/4/1
f 78/2/1 76/2/1 75/2/1
f 78/4/1 75/4/1 77/4/1
f 79/2/1 77/2/1 73/2/1
f 80/2/1 77/2/1 79/2/1
f 81/2/1 76/2/1 78/2/1
f 82/2/1 76/2/1 81/2/1
f 83/2/2 84/2/2 87/2/2
f 84/4/2 85/4/2 87/4/2
f 85/2/2 86/2/2 88/2/2
f 87/4/2 85/4/2 88/4/2
f 83/2/2 87/2/2 89/2/2
f 89/2/2 87/2/2 90/2/2
f 88/2/2 86/2/2 91/2/2
f 91/2/2 86/2/2 92/2/2
f 93/2/2 94/2/2 97/2/2
f 95/2/2 96/2/2 100/2/2
f 97/2/2 98/2/2 101/2/2
f 93/2/2 97/2/2 101/2/2
f 101/2/2 98/2/2 102/2/2
f 99/2/2 100/2/2 103/2/2
f 100/2/2 96/2/2 104/2/2
f 103/2/2 100/2/2 104/2/2
f 105/3/2 106/3/2 107/3/2
f 107/3/2 106/3/2 108/3/2
f 109/3/2 110/3/2 111/3/2
f 111/3/2 110/3/2 112/3/2
f 113/2/2 114/2/2 117/2/2
f 117/2/2 114/2/2 118/2/2
f 115/2/2 116/2/2 119/2/2
f 119/2/2 116/2/2 120/2/2
f 121/3/2 122/3/2 123/3/2
f 123/3/2 122/3/2 124/3/2
f 124/3/2 122/3/2 125/3/2
f 125/3/2 122/3/2 126/3/2
f 127/3/2 128/3/2 129/3/2
f 129/3/2 128/3/2 130/3/2
f 130/3/2 128/3/2 131/3/2
f 131/3/2 128/3/2 132/3/2
f 133/3/2 134/3/2 135/3/2
f 135/3/2 134/3/2 136/3/2
f 135/2/2 136/2/2 137/2/2
f 137/2/2 136/2/2 138/2/2
f 137/3/2 138/3/2 139/3/2
f 139/3/2 138/3/2 140/3/2
f 141/4/2 142/4/2 143/4/2
f 143/4/2 142/4/2 144/4/2
f 141/4/2 143/4/2 145/4/2
f 144/4/2 142/4/2 146/4/2
f 141/4/2 145/4/2 147/4/2
f 145/4/2 146/4/2 147/4/2
f 146/4/2 142/4/2 148/4/2
f 147/4/2 146/4/2 148/4/2
f 149/3/2 150/3/2 151/3/2
f 151/3/2 150/3/2 152/3/2
f 157/2/2 158/2/2 159/2/2
f 159/2/2 158/2/2 160/2/2
f 153/2/2 154/2/2 161/2/2
f 161/2/2 154/2/2 162/2/2
f 155/2/2 156/2/2 163/2/2
f 163/2/2 156/2/2 164/2/2
f 169/2/3 168/2/3 167/2/3
f 170/2/3 168/2/3 169/2/3
f 173/2/3 172/2/3 171/2/3
f 174/2/3 172/2/3 173/2/3
f 177/3/3 166/3/3 165/3/3
f 178/3/3 166/3/3 177/3/3
f 179/2/3 176/2/3 175/2/3
f 180/2/3 176/2/3 179/2/3
f 187/4/3 186/4/3 185/4/3
f 188/4/3 186/4/3 187/4/3
f 189/4/3 187/4/3 185/4/3
f 190/4/3 186/4/3 188/4/3
f 191/4/3 189/4/3 185/4/3
f 191/4/3 190/4/3 189/4/3
f 192/4/3 186/4/3 190/4/3
f 192/4/3 190/4/3 191/4/3
f 193/3/3 182/3/3 181/3/3
f 194/2/3 183/2/3 182/2/3
f 194/3/3 182/3/3 193/3/3
f 195/3/3 184/3/3 183/3/3
f 195/2/3 183/2/3 194/2/3
f 196/3/3 184/3/3 195/3/3
f 199/3/3 198/3/3 197/3/3
f 200/3/3 199/3/3 197/3/3
f 201/3/3 200/3/3 197/3/3
f 202/3/3 200/3/3 201/3/3
f 205/2/3 204/2/3 203/2/3
f 206/2/3 204/2/3 205/2/3
f 209/2/3 208/2/3 207/2/3
f 210/2/3 208/2/3 209/2/3
f 213/2/3 212/2/3 211/2/3
f 214/2/3 212/2/3 213/2/3
f 215/2/3 212/2/3 214/2/3
f 216/2/3 212/2/3 215/2/3
f 220/2/3 218/2/3 217/2/3
f 221/2/3 220/2/3 219/2/3
f 222/2/3 218/2/3 220/2/3
f 222/2/3 220/2/3 221/2/3
f 225/2/3 224/2/3 223/2/3
f 226/2/3 224/2/3 225/2/3
f 227/2/3 224/2/3 226/2/3
f 228/4/3 226/4/3 225/4/3
f 229/4/3 226/4/3 228/4/3
f 231/2/3 229/2/3 228/2/3
f 231/2/3 230/2/3 229/2/3
f 232/2/3 230/2/3 231/2/3
f 233/2/4 234/2/4 235/2/4
f 235/2/4 234/2/4 236/2/4
f 236/2/4 234/2/4 237/2/4
f 235/4/4 236/4/4 238/4/4
f 238/4/4 236/4/4 239/4/4
f 238/2/4 239/2/4 241/2/4
f 239/2/4 240/2/4 241/2/4
f 241/2/4 240/2/4 242/2/4
f 243/2/4 244/2/4 245/2/4
f 245/2/4 244/2/4 246/2/4
f 246/2/4 244/2/4 247/2/4
f 247/2/4 244/2/4 248/2/4
f 249/2/4 250/2/4 252/2/4
f 251/2/4 252/2/4 253/2/4
f 252/2/4 250/2/4 254/2/4
f 253/2/4 252/2/4 254/2/4
f 255/2/4 256/2/4 257/2/4
f 257/2/4 256/2/4 258/2/4
f 259/2/4 260/2/4 261/2/4
f 261/2/4 260/2/4 262/2/4
f 263/3/4 264/3/4 265/3/4
f 263/3/4 265/3/4 266/3/4
f 263/3/4 266/3/4 267/3/4
f 267/3/4 266/3/4 268/3/4
f 269/3/4 270/3/4 273/3/4
f 270/2/4 271/2/4 274/2/4
f 273/3/4 270/3/4 274/3/4
f 271/3/4 272/3/4 275/3/4
f 274/2/4 271/2/4 275/2/4
f 275/3/4 272/3/4 276/3/4
f 279/1/4 280/1/4 281/1/4
f 277/4/4 278/4/4 283/4/4
f 283/4/4 278/4/4 284/4/4
f 281/1/4 282/1/4 285/1/4
f 279/1/4 281/1/4 285/1/4
f 285/1/4 282/1/4 286/1/4
f 277/4/4 283/4/4 287/4/4
f 284/4/4 278/4/4 288/4/4
f 279/1/4 285/1/4 289/1/4
f 289/1/4 285/1/4 290/1/4
f 276/3/4 272/3/4 294/3/4
f 277/4/4 287/4/4 295/4/4
f 287/4/4 288/4/4 295/4/4
f 288/4/4 278/4/4 296/4/4
f 295/4/4 288/4/4 296/4/4
f 291/3/4 292/3/4 297/3/4
f 292/2/4 293/2/4 298/2/4
f 297/3/4 292/3/4 298/3/4
f 293/3/4 294/3/4 299/3/4
f 298/2/4 293/2/4 299/2/4
f 294/3/4 272/3/4 300/3/4
f 299/3/4 294/3/4 300/3/4
f 301/3/4 302/3/4 305/3/4
f 303/2/4 304/2/4 307/2/4
f 307/2/4 304/2/4 308/2/4
f 305/3/4 306/3/4 309/3/4
f 301/3/4 305/3/4 309/3/4
f 309/3/4 306/3/4 310/3/4
f 310/3/4 306/3/4 311/3/4
f 311/3/4 306/3/4 312/3/4
f 312/3/4 306/3/4 316/3/4
f 313/2/4 314/2/4 317/2/4
f 317/2/4 314/2/4 318/2/4
f 315/3/4 316/3/4 320/3/4
f 319/3/4 320/3/4 321/3/4
f 316/3/4 306/3/4 322/3/4
f 321/3/4 320/3/4 322/3/4
f 320/3/4 316/3/4 322/3/4
f 319/3/4 321/3/4 325/3/4
f 325/3/4 321/3/4 326/3/4
f 323/2/4 324/2/4 327/2/4
f 327/2/4 324/2/4 328/2/4
f 331/3/5 330/3/5 329/3/5
f 332/3/5 330/3/5 331/3/5
f 333/3/5 331/3/5 329/3/5
f 333/1/5 332/1/5 331/1/5
f 334/3/5 330/3/5 332/3/5
f 334/1/5 332/1/5 333/1/5
f 335/3/5 333/3/5 329/3/5
f 336/3/5 333/3/5 335/3/5
f 337/3/5 330/3/5 334/3/5
f 338/3/5 330/3/5 337/3/5
f 343/3/5 340/3/5 339/3/5
f 344/3/5 340/3/5 343/3/5
f 345/3/5 342/3/5 341/3/5
f 346/3/5 342/3/5 345/3/5
f 349/3/5 348/3/5 347/3/5
f 350/3/5 348/3/5 349/3/5
f 355/2/5 352/2/5 351/2/5
f 356/2/5 354/2/5 353/2/5
f 357/2/5 355/2/5 351/2/5
f 358/4/5 356/4/5 355/4/5
f 358/2/5 355/2/5 357/2/5
f 359/2/5 354/2/5 356/2/5
f 359/4/5 356/4/5 358/4/5
f 360/2/5 354/2/5 359/2/5
f 361/2/5 357/2/5 351/2/5
f 362/2/5 357/2/5 361/2/5
f 363/2/5 357/2/5 362/2/5
f 364/2/5 354/2/5 360/2/5
f 365/2/5 354/2/5 364/2/5
f 366/2/5 354/2/5 365/2/5
f 368/4/5 363/4/5 362/4/5
f 369/4/5 363/4/5 368/4/5
f 370/4/5 365/4/5 364/4/5
f 371/4/5 365/4/5 370/4/5
f 373/2/5 369/2/5 368/2/5
f 373/2/5 368/2/5 367/2/5
f 376/2/5 372/2/5 371/2/5
f 376/2/5 371/2/5 370/2/5
f 377/4/5 375/4/5 374/4/5
f 377/2/5 374/2/5 373/2/5
f 378/2/5 376/2/5 375/2/5
f 378/4/5 375/4/5 377/4/5
f 379/2/5 377/2/5 373/2/5
f 379/2/5 373/2/5 367/2/5
f 380/2/5 377/2/5 379/2/5
f 381/2/5 376/2/5 378/2/5
f 382/2/5 372/2/5 376/2/5
f 382/2/5 376/2/5 381/2/5
f 385/2/5 384/2/5 383/2/5
f 386/2/5 384/2/5 385/2/5
f 391/2/5 388/2/5 387/2/5
f 392/2/5 388/2/5 391/2/5
f 393/2/5 390/2/5 389/2/5
f 394/2/5 390/2/5 393/2/5
f 397/2/5 396/2/5 395/2/5
f 398/2/5 396/2/5 397/2/5
f 399/3/6 400/3/6 401/3/6
f 401/3/6 400/3/6 402/3/6
f 399/3/6 401/3/6 403/3/6
f 402/3/6 400/3/6 406/3/6
f 403/3/6 404/3/6 407/3/6
f 399/3/6 403/3/6 407/3/6
f 407/3/6 404/3/6 408/3/6
f 405/3/6 406/3/6 409/3/6
f 406/3/6 400/3/6 410/3/6
f 409/3/6 406/3/6 410/3/6
f 411/3/6 412/3/6 413/3/6
f 413/3/6 412/3/6 414/3/6
f 415/3/6 416/3/6 417/3/6
f 417/3/6 416/3/6 418/3/6
f 415/3/6 417/3/6 419/3/6
f 418/3/6 416/3/6 420/3/6
f 415/3/6 419/3/6 421/3/6
f 419/3/6 420/3/6 421/3/6
f 420/3/6 416/3/6 422/3/6
f 421/3/6 420/3/6 422/3/6
f 423/2/6 424/2/6 425/2/6
f 425/2/6 424/2/6 426/2/6
f 427/2/6 428/2/6 431/2/6
f 428/4/6 429/4/6 432/4/6
f 431/2/6 428/2/6 432/2/6
f 429/2/6 430/2/6 433/2/6
f 432/4/6 429/4/6 433/4/6
f 433/2/6 430/2/6 434/2/6
f 435/2/6 436/2/6 439/2/6
f 439/2/6 436/2/6 440/2/6
f 437/2/6 438/2/6 441/2/6
f 441/2/6 438/2/6 442/2/6
f 431/4/6 432/4/6 443/4/6
f 432/4/6 433/4/6 443/4/6
f 433/4/6 434/4/6 443/4/6
f 443/4/6 434/4/6 444/4/6
f 444/4/6 434/4/6 445/4/6
f 445/4/6 434/4/6 446/4/6
f 443/2/6 444/2/6 447/2/6
f 444/4/6 445/4/6 448/4/6
f 447/2/6 444/2/6 448/2/6
f 445/2/6 446/2/6 449/2/6
f 448/4/6 445/4/6 449/4/6
f 449/2/6 446/2/6 450/2/6
f 451/2/6 452/2/6 453/2/6
f 453/2/6 452/2/6 454/2/6
f 455/4/6 456/4/6 457/4/6
f 457/4/6 456/4/6 458/4/6
f 459/4/6 460/4/6 463/4/6
f 463/4/6 460/4/6 464/4/6
f 461/4/6 462/4/6 465/4/6
f 465/4/6 462/4/6 466/4/6
f 467/4/6 468/4/6 469/4/6
f 469/4/6 468/4/6 470/4/6
f 471/2/6 472/2/6 475/2/6
f 475/2/6 472/2/6 476/2/6
f 473/2/6 474/2/6 477/2/6
f 477/2/6 474/2/6 478/2/6
f 471/2/6 475/2/6 479/2/6
f 479/2/6 475/2/6 480/2/6
f 478/2/6 474/2/6 481/2/6
f 481/2/6 474/2/6 482/2/6
f 483/2/6 484/2/6 487/2/6
f 485/2/6 486/2/6 490/2/6
f 487/2/6 488/2/6 491/2/6
f 483/2/6 487/2/6 491/2/6
f 491/2/6 488/2/6 492/2/6
f 489/2/6 490/2/6 493/2/6
f 490/2/6 486/2/6 494/2/6
f 493/2/6 490/2/6 494/2/6
