# MagicaVoxel @ Ephtracy

# group
o 

# material
mtllib BallistaTower1.mtl
usemtl palette

# normals
vn -1 0 0
vn 1 0 0
vn 0 0 1
vn 0 0 -1
vn 0 -1 0
vn 0 1 0

# texcoords
vt 0.533203 0.5
vt 0.974609 0.5

# verts
v -1 0 1
v -1 0 -1
v -1 0.1 1
v -1 0.1 -1
v -0.9 0.1 0.9
v -0.9 0.1 -0.9
v -0.9 0.8 0.9
v -0.9 0.8 -0.9
v -0.9 1.1 0.9
v -0.9 1.1 -0.9
v -0.9 1.6 0.9
v -0.9 1.6 -0.9
v -0.8 0.8 0.8
v -0.8 0.8 -0.8
v -0.8 1.1 0.8
v -0.8 1.1 -0.8
v -0.4 0.1 -0.9
v -0.4 0.1 -1
v -0.4 0.7 -0.9
v -0.4 0.7 -1
v 0.2 0.5 -0.9
v 0.2 0.5 -1
v 0.2 0.6 -0.9
v 0.2 0.6 -1
v 0.3 0 -0.9
v 0.3 0 -1
v 0.3 0.5 -0.9
v 0.3 0.5 -1
v -0.3 0 -0.9
v -0.3 0 -1
v -0.3 0.5 -0.9
v -0.3 0.5 -1
v -0.2 0.5 -0.9
v -0.2 0.5 -1
v -0.2 0.6 -0.9
v -0.2 0.6 -1
v 0.4 0.1 -0.9
v 0.4 0.1 -1
v 0.4 0.7 -0.9
v 0.4 0.7 -1
v 0.8 0.8 0.8
v 0.8 0.8 -0.8
v 0.8 1.1 0.8
v 0.8 1.1 -0.8
v 0.9 0.1 0.9
v 0.9 0.1 -0.9
v 0.9 0.8 0.9
v 0.9 0.8 -0.9
v 0.9 1.1 0.9
v 0.9 1.1 -0.9
v 0.9 1.6 0.9
v 0.9 1.6 -0.9
v 1 0 1
v 1 0 -1
v 1 0.1 1
v 1 0.1 -1
v -1 0 1
v -1 0.1 1
v 1 0 1
v 1 0.1 1
v -0.9 0.1 0.9
v -0.9 0.8 0.9
v -0.9 1.1 0.9
v -0.9 1.6 0.9
v 0.9 0.1 0.9
v 0.9 0.8 0.9
v 0.9 1.1 0.9
v 0.9 1.6 0.9
v -0.8 0.8 0.8
v -0.8 1.1 0.8
v 0.8 0.8 0.8
v 0.8 1.1 0.8
v -0.8 0.8 -0.8
v -0.8 1.1 -0.8
v 0.8 0.8 -0.8
v 0.8 1.1 -0.8
v -0.9 0.1 -0.9
v -0.9 0.8 -0.9
v -0.9 1.1 -0.9
v -0.9 1.6 -0.9
v -0.4 0.1 -0.9
v -0.4 0.7 -0.9
v -0.3 0 -0.9
v -0.3 0.5 -0.9
v -0.2 0.5 -0.9
v -0.2 0.6 -0.9
v 0.2 0.5 -0.9
v 0.2 0.6 -0.9
v 0.3 0 -0.9
v 0.3 0.5 -0.9
v 0.4 0.1 -0.9
v 0.4 0.7 -0.9
v 0.9 0.1 -0.9
v 0.9 0.8 -0.9
v 0.9 1.1 -0.9
v 0.9 1.6 -0.9
v -1 0 -1
v -1 0.1 -1
v -0.4 0.1 -1
v -0.4 0.7 -1
v -0.3 0 -1
v -0.3 0.5 -1
v -0.2 0.5 -1
v -0.2 0.6 -1
v 0.2 0.5 -1
v 0.2 0.6 -1
v 0.3 0 -1
v 0.3 0.5 -1
v 0.4 0.1 -1
v 0.4 0.7 -1
v 1 0 -1
v 1 0.1 -1
v -1 0 1
v 1 0 1
v -0.3 0 -0.8
v 0.3 0 -0.8
v -0.3 0 -0.9
v 0.3 0 -0.9
v -1 0 -1
v -0.3 0 -1
v 0.3 0 -1
v 1 0 -1
v -0.3 0.5 -0.9
v -0.2 0.5 -0.9
v 0.2 0.5 -0.9
v 0.3 0.5 -0.9
v -0.3 0.5 -1
v -0.2 0.5 -1
v 0.2 0.5 -1
v 0.3 0.5 -1
v -0.2 0.6 -0.9
v 0.2 0.6 -0.9
v -0.2 0.6 -1
v 0.2 0.6 -1
v -0.9 1.1 0.9
v 0.9 1.1 0.9
v -0.8 1.1 0.8
v 0.8 1.1 0.8
v -0.8 1.1 -0.8
v 0.8 1.1 -0.8
v -0.9 1.1 -0.9
v 0.9 1.1 -0.9
v -1 0.1 1
v 1 0.1 1
v -0.9 0.1 0.9
v 0.9 0.1 0.9
v -0.9 0.1 -0.9
v -0.4 0.1 -0.9
v 0.4 0.1 -0.9
v 0.9 0.1 -0.9
v -1 0.1 -1
v -0.4 0.1 -1
v 0.4 0.1 -1
v 1 0.1 -1
v -0.4 0.7 -0.9
v 0.4 0.7 -0.9
v -0.4 0.7 -1
v 0.4 0.7 -1
v -0.9 0.8 0.9
v 0.9 0.8 0.9
v -0.8 0.8 0.8
v 0.8 0.8 0.8
v -0.8 0.8 -0.8
v 0.8 0.8 -0.8
v -0.9 0.8 -0.9
v 0.9 0.8 -0.9
v -0.9 1.6 0.9
v 0.9 1.6 0.9
v -0.9 1.6 -0.9
v 0.9 1.6 -0.9

# faces
f 3/2/1 2/2/1 1/2/1
f 4/2/1 2/2/1 3/2/1
f 7/2/1 6/2/1 5/2/1
f 8/2/1 6/2/1 7/2/1
f 11/1/1 10/1/1 9/1/1
f 12/1/1 10/1/1 11/1/1
f 15/2/1 14/2/1 13/2/1
f 16/2/1 14/2/1 15/2/1
f 19/2/1 18/2/1 17/2/1
f 20/2/1 18/2/1 19/2/1
f 23/2/1 22/2/1 21/2/1
f 24/2/1 22/2/1 23/2/1
f 27/2/1 26/2/1 25/2/1
f 28/2/1 26/2/1 27/2/1
f 29/2/2 30/2/2 31/2/2
f 31/2/2 30/2/2 32/2/2
f 33/2/2 34/2/2 35/2/2
f 35/2/2 34/2/2 36/2/2
f 37/2/2 38/2/2 39/2/2
f 39/2/2 38/2/2 40/2/2
f 41/2/2 42/2/2 43/2/2
f 43/2/2 42/2/2 44/2/2
f 45/2/2 46/2/2 47/2/2
f 47/2/2 46/2/2 48/2/2
f 49/1/2 50/1/2 51/1/2
f 51/1/2 50/1/2 52/1/2
f 53/2/2 54/2/2 55/2/2
f 55/2/2 54/2/2 56/2/2
f 59/2/3 58/2/3 57/2/3
f 60/2/3 58/2/3 59/2/3
f 65/2/3 62/2/3 61/2/3
f 66/2/3 62/2/3 65/2/3
f 67/1/3 64/1/3 63/1/3
f 68/1/3 64/1/3 67/1/3
f 71/2/3 70/2/3 69/2/3
f 72/2/3 70/2/3 71/2/3
f 73/2/4 74/2/4 75/2/4
f 75/2/4 74/2/4 76/2/4
f 77/2/4 78/2/4 81/2/4
f 81/2/4 78/2/4 82/2/4
f 83/1/4 84/1/4 85/1/4
f 83/1/4 85/1/4 87/1/4
f 85/1/4 86/1/4 87/1/4
f 87/1/4 86/1/4 88/1/4
f 83/1/4 87/1/4 89/1/4
f 89/1/4 87/1/4 90/1/4
f 82/2/4 78/2/4 92/2/4
f 91/2/4 92/2/4 93/2/4
f 92/2/4 78/2/4 94/2/4
f 93/2/4 92/2/4 94/2/4
f 79/1/4 80/1/4 95/1/4
f 95/1/4 80/1/4 96/1/4
f 97/2/4 98/2/4 99/2/4
f 97/2/4 99/2/4 101/2/4
f 99/2/4 100/2/4 101/2/4
f 101/2/4 100/2/4 102/2/4
f 102/2/4 100/2/4 103/2/4
f 103/2/4 100/2/4 104/2/4
f 104/2/4 100/2/4 106/2/4
f 105/2/4 106/2/4 108/2/4
f 107/2/4 108/2/4 109/2/4
f 106/2/4 100/2/4 110/2/4
f 109/2/4 108/2/4 110/2/4
f 108/2/4 106/2/4 110/2/4
f 107/2/4 109/2/4 111/2/4
f 111/2/4 109/2/4 112/2/4
f 115/2/5 114/2/5 113/2/5
f 116/2/5 114/2/5 115/2/5
f 117/2/5 115/2/5 113/2/5
f 117/1/5 116/1/5 115/1/5
f 118/2/5 114/2/5 116/2/5
f 118/1/5 116/1/5 117/1/5
f 119/2/5 117/2/5 113/2/5
f 120/2/5 117/2/5 119/2/5
f 121/2/5 114/2/5 118/2/5
f 122/2/5 114/2/5 121/2/5
f 127/2/5 124/2/5 123/2/5
f 128/2/5 124/2/5 127/2/5
f 129/2/5 126/2/5 125/2/5
f 130/2/5 126/2/5 129/2/5
f 133/2/5 132/2/5 131/2/5
f 134/2/5 132/2/5 133/2/5
f 137/1/5 136/1/5 135/1/5
f 138/1/5 136/1/5 137/1/5
f 139/1/5 137/1/5 135/1/5
f 140/1/5 136/1/5 138/1/5
f 141/1/5 139/1/5 135/1/5
f 141/1/5 140/1/5 139/1/5
f 142/1/5 136/1/5 140/1/5
f 142/1/5 140/1/5 141/1/5
f 143/2/6 144/2/6 145/2/6
f 145/2/6 144/2/6 146/2/6
f 143/2/6 145/2/6 147/2/6
f 146/2/6 144/2/6 150/2/6
f 147/2/6 148/2/6 151/2/6
f 143/2/6 147/2/6 151/2/6
f 151/2/6 148/2/6 152/2/6
f 149/2/6 150/2/6 153/2/6
f 150/2/6 144/2/6 154/2/6
f 153/2/6 150/2/6 154/2/6
f 155/2/6 156/2/6 157/2/6
f 157/2/6 156/2/6 158/2/6
f 159/2/6 160/2/6 161/2/6
f 161/2/6 160/2/6 162/2/6
f 159/2/6 161/2/6 163/2/6
f 162/2/6 160/2/6 164/2/6
f 159/2/6 163/2/6 165/2/6
f 163/2/6 164/2/6 165/2/6
f 164/2/6 160/2/6 166/2/6
f 165/2/6 164/2/6 166/2/6
f 167/1/6 168/1/6 169/1/6
f 169/1/6 168/1/6 170/1/6
