# MagicaVoxel @ Ephtracy

# group
o 

# material
mtllib barrackstower1.mtl
usemtl palette

# normals
vn -1 0 0
vn 1 0 0
vn 0 0 1
vn 0 0 -1
vn 0 -1 0
vn 0 1 0

# texcoords
vt 0.533203 0.5
vt 0.634766 0.5
vt 0.974609 0.5

# verts
v -1.2 0 1.2
v -1.2 0 -1.2
v -1.2 0.2 1.2
v -1.2 0.2 -1.2
v -1.2 1.2 0.3
v -1.2 1.2 0.2
v -1.2 1.2 -0.2
v -1.2 1.2 -0.3
v -1.2 1.3 0.2
v -1.2 1.3 -0.2
v -1.2 1.6 1.2
v -1.2 1.6 0.4
v -1.2 1.6 -0.4
v -1.2 1.6 -1.2
v -1.2 1.7 0.4
v -1.2 1.7 0.3
v -1.2 1.7 -0.3
v -1.2 1.7 -0.4
v -1.2 1.8 1.2
v -1.2 1.8 -1.2
v -1.1 0.2 1.1
v -1.1 0.2 -1.1
v -1.1 1 0.8
v -1.1 1 0.6
v -1.1 1 -0.6
v -1.1 1 -0.8
v -1.1 1.2 0.8
v -1.1 1.2 0.6
v -1.1 1.2 0.3
v -1.1 1.2 0.2
v -1.1 1.2 -0.2
v -1.1 1.2 -0.3
v -1.1 1.2 -0.6
v -1.1 1.2 -0.8
v -1.1 1.3 0.2
v -1.1 1.3 -0.2
v -1.1 1.6 1.1
v -1.1 1.6 0.4
v -1.1 1.6 -0.4
v -1.1 1.6 -1.1
v -1.1 1.7 0.4
v -1.1 1.7 0.3
v -1.1 1.7 -0.3
v -1.1 1.7 -0.4
v -1 1 0.8
v -1 1 0.6
v -1 1 -0.6
v -1 1 -0.8
v -1 1.2 0.8
v -1 1.2 0.6
v -1 1.2 -0.6
v -1 1.2 -0.8
v -0.6 1 1.1
v -0.6 1 1
v -0.6 1 -1
v -0.6 1 -1.1
v -0.6 1.2 1.1
v -0.6 1.2 1
v -0.6 1.2 -1
v -0.6 1.2 -1.1
v -0.5 0.2 -1.1
v -0.5 0.2 -1.2
v -0.5 0.6 -1.1
v -0.5 0.6 -1.2
v -0.4 0.6 -1.1
v -0.4 0.6 -1.2
v -0.4 0.7 -1.1
v -0.4 0.7 -1.2
v -0.3 0.7 -1.1
v -0.3 0.7 -1.2
v -0.3 0.8 -1.1
v -0.3 0.8 -1.2
v -0.3 1.2 1.2
v -0.3 1.2 1.1
v -0.3 1.2 -1.1
v -0.3 1.2 -1.2
v -0.3 1.7 1.2
v -0.3 1.7 1.1
v -0.3 1.7 -1.1
v -0.3 1.7 -1.2
v 0.2 0.6 -1.1
v 0.2 0.6 -1.2
v 0.2 0.7 -1.1
v 0.2 0.7 -1.2
v 0.2 1.2 1.2
v 0.2 1.2 1.1
v 0.2 1.2 -1.1
v 0.2 1.2 -1.2
v 0.2 1.3 1.2
v 0.2 1.3 1.1
v 0.2 1.3 -1.1
v 0.2 1.3 -1.2
v 0.3 0.5 -1.1
v 0.3 0.5 -1.2
v 0.3 0.6 -1.1
v 0.3 0.6 -1.2
v 0.4 0 -1.1
v 0.4 0 -1.2
v 0.4 0.5 -1.1
v 0.4 0.5 -1.2
v 0.4 1.6 1.2
v 0.4 1.6 1.1
v 0.4 1.6 -1.1
v 0.4 1.6 -1.2
v 0.4 1.7 1.2
v 0.4 1.7 1.1
v 0.4 1.7 -1.1
v 0.4 1.7 -1.2
v 0.8 1 1.1
v 0.8 1 1
v 0.8 1 -1
v 0.8 1 -1.1
v 0.8 1.2 1.1
v 0.8 1.2 1
v 0.8 1.2 -1
v 0.8 1.2 -1.1
v 1.1 1.7 1.1
v 1.1 1.7 -1.1
v 1.1 1.8 1.1
v 1.1 1.8 -1.1
v -1.1 1.7 1.1
v -1.1 1.7 -1.1
v -1.1 1.8 1.1
v -1.1 1.8 -1.1
v -0.8 1 1.1
v -0.8 1 1
v -0.8 1 -1
v -0.8 1 -1.1
v -0.8 1.2 1.1
v -0.8 1.2 1
v -0.8 1.2 -1
v -0.8 1.2 -1.1
v -0.4 0 -1.1
v -0.4 0 -1.2
v -0.4 0.5 -1.1
v -0.4 0.5 -1.2
v -0.4 1.6 1.2
v -0.4 1.6 1.1
v -0.4 1.6 -1.1
v -0.4 1.6 -1.2
v -0.4 1.7 1.2
v -0.4 1.7 1.1
v -0.4 1.7 -1.1
v -0.4 1.7 -1.2
v -0.3 0.5 -1.1
v -0.3 0.5 -1.2
v -0.3 0.6 -1.1
v -0.3 0.6 -1.2
v -0.2 0.6 -1.1
v -0.2 0.6 -1.2
v -0.2 0.7 -1.1
v -0.2 0.7 -1.2
v -0.2 1.2 1.2
v -0.2 1.2 1.1
v -0.2 1.2 -1.1
v -0.2 1.2 -1.2
v -0.2 1.3 1.2
v -0.2 1.3 1.1
v -0.2 1.3 -1.1
v -0.2 1.3 -1.2
v 0.3 0.7 -1.1
v 0.3 0.7 -1.2
v 0.3 0.8 -1.1
v 0.3 0.8 -1.2
v 0.3 1.2 1.2
v 0.3 1.2 1.1
v 0.3 1.2 -1.1
v 0.3 1.2 -1.2
v 0.3 1.7 1.2
v 0.3 1.7 1.1
v 0.3 1.7 -1.1
v 0.3 1.7 -1.2
v 0.4 0.6 -1.1
v 0.4 0.6 -1.2
v 0.4 0.7 -1.1
v 0.4 0.7 -1.2
v 0.5 0.2 -1.1
v 0.5 0.2 -1.2
v 0.5 0.6 -1.1
v 0.5 0.6 -1.2
v 0.6 1 1.1
v 0.6 1 1
v 0.6 1 -1
v 0.6 1 -1.1
v 0.6 1.2 1.1
v 0.6 1.2 1
v 0.6 1.2 -1
v 0.6 1.2 -1.1
v 1 1 0.8
v 1 1 0.6
v 1 1 -0.6
v 1 1 -0.8
v 1 1.2 0.8
v 1 1.2 0.6
v 1 1.2 -0.6
v 1 1.2 -0.8
v 1.1 0.2 1.1
v 1.1 0.2 -1.1
v 1.1 1 0.8
v 1.1 1 0.6
v 1.1 1 -0.6
v 1.1 1 -0.8
v 1.1 1.2 0.8
v 1.1 1.2 0.6
v 1.1 1.2 0.3
v 1.1 1.2 0.2
v 1.1 1.2 -0.2
v 1.1 1.2 -0.3
v 1.1 1.2 -0.6
v 1.1 1.2 -0.8
v 1.1 1.3 0.2
v 1.1 1.3 -0.2
v 1.1 1.6 1.1
v 1.1 1.6 0.4
v 1.1 1.6 -0.4
v 1.1 1.6 -1.1
v 1.1 1.7 0.4
v 1.1 1.7 0.3
v 1.1 1.7 -0.3
v 1.1 1.7 -0.4
v 1.2 0 1.2
v 1.2 0 -1.2
v 1.2 0.2 1.2
v 1.2 0.2 -1.2
v 1.2 1.2 0.3
v 1.2 1.2 0.2
v 1.2 1.2 -0.2
v 1.2 1.2 -0.3
v 1.2 1.3 0.2
v 1.2 1.3 -0.2
v 1.2 1.6 1.2
v 1.2 1.6 0.4
v 1.2 1.6 -0.4
v 1.2 1.6 -1.2
v 1.2 1.7 0.4
v 1.2 1.7 0.3
v 1.2 1.7 -0.3
v 1.2 1.7 -0.4
v 1.2 1.8 1.2
v 1.2 1.8 -1.2
v -1.2 0 1.2
v -1.2 0.2 1.2
v -1.2 1.6 1.2
v -1.2 1.8 1.2
v -0.4 1.6 1.2
v -0.4 1.7 1.2
v -0.3 1.2 1.2
v -0.3 1.7 1.2
v -0.2 1.2 1.2
v -0.2 1.3 1.2
v 0.2 1.2 1.2
v 0.2 1.3 1.2
v 0.3 1.2 1.2
v 0.3 1.7 1.2
v 0.4 1.6 1.2
v 0.4 1.7 1.2
v 1.2 0 1.2
v 1.2 0.2 1.2
v 1.2 1.6 1.2
v 1.2 1.8 1.2
v -1.1 0.2 1.1
v -1.1 1.6 1.1
v -0.8 1 1.1
v -0.8 1.2 1.1
v -0.6 1 1.1
v -0.6 1.2 1.1
v -0.4 1.6 1.1
v -0.4 1.7 1.1
v -0.3 1.2 1.1
v -0.3 1.7 1.1
v -0.2 1.2 1.1
v -0.2 1.3 1.1
v 0.2 1.2 1.1
v 0.2 1.3 1.1
v 0.3 1.2 1.1
v 0.3 1.7 1.1
v 0.4 1.6 1.1
v 0.4 1.7 1.1
v 0.6 1 1.1
v 0.6 1.2 1.1
v 0.8 1 1.1
v 0.8 1.2 1.1
v 1.1 0.2 1.1
v 1.1 1.6 1.1
v -0.8 1 1
v -0.8 1.2 1
v -0.6 1 1
v -0.6 1.2 1
v 0.6 1 1
v 0.6 1.2 1
v 0.8 1 1
v 0.8 1.2 1
v -1.1 1 0.6
v -1.1 1.2 0.6
v -1 1 0.6
v -1 1.2 0.6
v 1 1 0.6
v 1 1.2 0.6
v 1.1 1 0.6
v 1.1 1.2 0.6
v -1.2 1.2 0.3
v -1.2 1.7 0.3
v -1.1 1.2 0.3
v -1.1 1.7 0.3
v 1.1 1.2 0.3
v 1.1 1.7 0.3
v 1.2 1.2 0.3
v 1.2 1.7 0.3
v -1.2 1.2 -0.2
v -1.2 1.3 -0.2
v -1.1 1.2 -0.2
v -1.1 1.3 -0.2
v 1.1 1.2 -0.2
v 1.1 1.3 -0.2
v 1.2 1.2 -0.2
v 1.2 1.3 -0.2
v -1.2 1.6 -0.4
v -1.2 1.7 -0.4
v -1.1 1.6 -0.4
v -1.1 1.7 -0.4
v 1.1 1.6 -0.4
v 1.1 1.7 -0.4
v 1.2 1.6 -0.4
v 1.2 1.7 -0.4
v -1.1 1 -0.8
v -1.1 1.2 -0.8
v -1 1 -0.8
v -1 1.2 -0.8
v 1 1 -0.8
v 1 1.2 -0.8
v 1.1 1 -0.8
v 1.1 1.2 -0.8
v -1.1 1.7 -1.1
v -1.1 1.8 -1.1
v 1.1 1.7 -1.1
v 1.1 1.8 -1.1
v -1.1 1.7 1.1
v -1.1 1.8 1.1
v 1.1 1.7 1.1
v 1.1 1.8 1.1
v -1.1 1 0.8
v -1.1 1.2 0.8
v -1 1 0.8
v -1 1.2 0.8
v 1 1 0.8
v 1 1.2 0.8
v 1.1 1 0.8
v 1.1 1.2 0.8
v -1.2 1.6 0.4
v -1.2 1.7 0.4
v -1.1 1.6 0.4
v -1.1 1.7 0.4
v 1.1 1.6 0.4
v 1.1 1.7 0.4
v 1.2 1.6 0.4
v 1.2 1.7 0.4
v -1.2 1.2 0.2
v -1.2 1.3 0.2
v -1.1 1.2 0.2
v -1.1 1.3 0.2
v 1.1 1.2 0.2
v 1.1 1.3 0.2
v 1.2 1.2 0.2
v 1.2 1.3 0.2
v -1.2 1.2 -0.3
v -1.2 1.7 -0.3
v -1.1 1.2 -0.3
v -1.1 1.7 -0.3
v 1.1 1.2 -0.3
v 1.1 1.7 -0.3
v 1.2 1.2 -0.3
v 1.2 1.7 -0.3
v -1.1 1 -0.6
v -1.1 1.2 -0.6
v -1 1 -0.6
v -1 1.2 -0.6
v 1 1 -0.6
v 1 1.2 -0.6
v 1.1 1 -0.6
v 1.1 1.2 -0.6
v -0.8 1 -1
v -0.8 1.2 -1
v -0.6 1 -1
v -0.6 1.2 -1
v 0.6 1 -1
v 0.6 1.2 -1
v 0.8 1 -1
v 0.8 1.2 -1
v -1.1 0.2 -1.1
v -1.1 1.6 -1.1
v -0.8 1 -1.1
v -0.8 1.2 -1.1
v -0.6 1 -1.1
v -0.6 1.2 -1.1
v -0.5 0.2 -1.1
v -0.5 0.6 -1.1
v -0.4 0 -1.1
v -0.4 0.5 -1.1
v -0.4 0.6 -1.1
v -0.4 0.7 -1.1
v -0.4 1.6 -1.1
v -0.4 1.7 -1.1
v -0.3 0.5 -1.1
v -0.3 0.6 -1.1
v -0.3 0.7 -1.1
v -0.3 0.8 -1.1
v -0.3 1.2 -1.1
v -0.3 1.7 -1.1
v -0.2 0.6 -1.1
v -0.2 0.7 -1.1
v -0.2 1.2 -1.1
v -0.2 1.3 -1.1
v 0.2 0.6 -1.1
v 0.2 0.7 -1.1
v 0.2 1.2 -1.1
v 0.2 1.3 -1.1
v 0.3 0.5 -1.1
v 0.3 0.6 -1.1
v 0.3 0.7 -1.1
v 0.3 0.8 -1.1
v 0.3 1.2 -1.1
v 0.3 1.7 -1.1
v 0.4 0 -1.1
v 0.4 0.5 -1.1
v 0.4 0.6 -1.1
v 0.4 0.7 -1.1
v 0.4 1.6 -1.1
v 0.4 1.7 -1.1
v 0.5 0.2 -1.1
v 0.5 0.6 -1.1
v 0.6 1 -1.1
v 0.6 1.2 -1.1
v 0.8 1 -1.1
v 0.8 1.2 -1.1
v 1.1 0.2 -1.1
v 1.1 1.6 -1.1
v -1.2 0 -1.2
v -1.2 0.2 -1.2
v -1.2 1.6 -1.2
v -1.2 1.8 -1.2
v -0.5 0.2 -1.2
v -0.5 0.6 -1.2
v -0.4 0 -1.2
v -0.4 0.5 -1.2
v -0.4 0.6 -1.2
v -0.4 0.7 -1.2
v -0.4 1.6 -1.2
v -0.4 1.7 -1.2
v -0.3 0.5 -1.2
v -0.3 0.6 -1.2
v -0.3 0.7 -1.2
v -0.3 0.8 -1.2
v -0.3 1.2 -1.2
v -0.3 1.7 -1.2
v -0.2 0.6 -1.2
v -0.2 0.7 -1.2
v -0.2 1.2 -1.2
v -0.2 1.3 -1.2
v 0.2 0.6 -1.2
v 0.2 0.7 -1.2
v 0.2 1.2 -1.2
v 0.2 1.3 -1.2
v 0.3 0.5 -1.2
v 0.3 0.6 -1.2
v 0.3 0.7 -1.2
v 0.3 0.8 -1.2
v 0.3 1.2 -1.2
v 0.3 1.7 -1.2
v 0.4 0 -1.2
v 0.4 0.5 -1.2
v 0.4 0.6 -1.2
v 0.4 0.7 -1.2
v 0.4 1.6 -1.2
v 0.4 1.7 -1.2
v 0.5 0.2 -1.2
v 0.5 0.6 -1.2
v 1.2 0 -1.2
v 1.2 0.2 -1.2
v 1.2 1.6 -1.2
v 1.2 1.8 -1.2
v -1.2 0 1.2
v 1.2 0 1.2
v -0.4 0 -1
v 0.4 0 -1
v -0.4 0 -1.1
v 0.4 0 -1.1
v -1.2 0 -1.2
v -0.4 0 -1.2
v 0.4 0 -1.2
v 1.2 0 -1.2
v -0.4 0.5 -1.1
v -0.3 0.5 -1.1
v 0.3 0.5 -1.1
v 0.4 0.5 -1.1
v -0.4 0.5 -1.2
v -0.3 0.5 -1.2
v 0.3 0.5 -1.2
v 0.4 0.5 -1.2
v -0.3 0.6 -1.1
v -0.2 0.6 -1.1
v 0.2 0.6 -1.1
v 0.3 0.6 -1.1
v -0.3 0.6 -1.2
v -0.2 0.6 -1.2
v 0.2 0.6 -1.2
v 0.3 0.6 -1.2
v -0.2 0.7 -1.1
v 0.2 0.7 -1.1
v -0.2 0.7 -1.2
v 0.2 0.7 -1.2
v -0.3 1.2 1.2
v -0.2 1.2 1.2
v 0.2 1.2 1.2
v 0.3 1.2 1.2
v -0.8 1.2 1.1
v -0.6 1.2 1.1
v -0.3 1.2 1.1
v -0.2 1.2 1.1
v 0.2 1.2 1.1
v 0.3 1.2 1.1
v 0.6 1.2 1.1
v 0.8 1.2 1.1
v -0.8 1.2 1
v -0.6 1.2 1
v 0.6 1.2 1
v 0.8 1.2 1
v -1.1 1.2 0.8
v -1 1.2 0.8
v 1 1.2 0.8
v 1.1 1.2 0.8
v -1.1 1.2 0.6
v -1 1.2 0.6
v 1 1.2 0.6
v 1.1 1.2 0.6
v -1.2 1.2 0.3
v -1.1 1.2 0.3
v 1.1 1.2 0.3
v 1.2 1.2 0.3
v -1.2 1.2 0.2
v -1.1 1.2 0.2
v 1.1 1.2 0.2
v 1.2 1.2 0.2
v -1.2 1.2 -0.2
v -1.1 1.2 -0.2
v 1.1 1.2 -0.2
v 1.2 1.2 -0.2
v -1.2 1.2 -0.3
v -1.1 1.2 -0.3
v 1.1 1.2 -0.3
v 1.2 1.2 -0.3
v -1.1 1.2 -0.6
v -1 1.2 -0.6
v 1 1.2 -0.6
v 1.1 1.2 -0.6
v -1.1 1.2 -0.8
v -1 1.2 -0.8
v 1 1.2 -0.8
v 1.1 1.2 -0.8
v -0.8 1.2 -1
v -0.6 1.2 -1
v 0.6 1.2 -1
v 0.8 1.2 -1
v -0.8 1.2 -1.1
v -0.6 1.2 -1.1
v -0.3 1.2 -1.1
v -0.2 1.2 -1.1
v 0.2 1.2 -1.1
v 0.3 1.2 -1.1
v 0.6 1.2 -1.1
v 0.8 1.2 -1.1
v -0.3 1.2 -1.2
v -0.2 1.2 -1.2
v 0.2 1.2 -1.2
v 0.3 1.2 -1.2
v -0.2 1.3 1.2
v 0.2 1.3 1.2
v -0.2 1.3 1.1
v 0.2 1.3 1.1
v -1.2 1.3 0.2
v -1.1 1.3 0.2
v 1.1 1.3 0.2
v 1.2 1.3 0.2
v -1.2 1.3 -0.2
v -1.1 1.3 -0.2
v 1.1 1.3 -0.2
v 1.2 1.3 -0.2
v -0.2 1.3 -1.1
v 0.2 1.3 -1.1
v -0.2 1.3 -1.2
v 0.2 1.3 -1.2
v -1.2 1.6 1.2
v -0.4 1.6 1.2
v 0.4 1.6 1.2
v 1.2 1.6 1.2
v -1.1 1.6 1.1
v -0.4 1.6 1.1
v 0.4 1.6 1.1
v 1.1 1.6 1.1
v -1.2 1.6 0.4
v -1.1 1.6 0.4
v 1.1 1.6 0.4
v 1.2 1.6 0.4
v -1.2 1.6 -0.4
v -1.1 1.6 -0.4
v 1.1 1.6 -0.4
v 1.2 1.6 -0.4
v -1.1 1.6 -1.1
v -0.4 1.6 -1.1
v 0.4 1.6 -1.1
v 1.1 1.6 -1.1
v -1.2 1.6 -1.2
v -0.4 1.6 -1.2
v 0.4 1.6 -1.2
v 1.2 1.6 -1.2
v -0.4 1.7 1.2
v -0.3 1.7 1.2
v 0.3 1.7 1.2
v 0.4 1.7 1.2
v -0.4 1.7 1.1
v -0.3 1.7 1.1
v 0.3 1.7 1.1
v 0.4 1.7 1.1
v -1.2 1.7 0.4
v -1.1 1.7 0.4
v 1.1 1.7 0.4
v 1.2 1.7 0.4
v -1.2 1.7 0.3
v -1.1 1.7 0.3
v 1.1 1.7 0.3
v 1.2 1.7 0.3
v -1.2 1.7 -0.3
v -1.1 1.7 -0.3
v 1.1 1.7 -0.3
v 1.2 1.7 -0.3
v -1.2 1.7 -0.4
v -1.1 1.7 -0.4
v 1.1 1.7 -0.4
v 1.2 1.7 -0.4
v -0.4 1.7 -1.1
v -0.3 1.7 -1.1
v 0.3 1.7 -1.1
v 0.4 1.7 -1.1
v -0.4 1.7 -1.2
v -0.3 1.7 -1.2
v 0.3 1.7 -1.2
v 0.4 1.7 -1.2
v -1.2 0.2 1.2
v 1.2 0.2 1.2
v -1.1 0.2 1.1
v 1.1 0.2 1.1
v -1.1 0.2 -1.1
v -0.5 0.2 -1.1
v 0.5 0.2 -1.1
v 1.1 0.2 -1.1
v -1.2 0.2 -1.2
v -0.5 0.2 -1.2
v 0.5 0.2 -1.2
v 1.2 0.2 -1.2
v -0.5 0.6 -1.1
v -0.4 0.6 -1.1
v 0.4 0.6 -1.1
v 0.5 0.6 -1.1
v -0.5 0.6 -1.2
v -0.4 0.6 -1.2
v 0.4 0.6 -1.2
v 0.5 0.6 -1.2
v -0.4 0.7 -1.1
v -0.3 0.7 -1.1
v 0.3 0.7 -1.1
v 0.4 0.7 -1.1
v -0.4 0.7 -1.2
v -0.3 0.7 -1.2
v 0.3 0.7 -1.2
v 0.4 0.7 -1.2
v -0.3 0.8 -1.1
v 0.3 0.8 -1.1
v -0.3 0.8 -1.2
v 0.3 0.8 -1.2
v -0.8 1 1.1
v -0.6 1 1.1
v 0.6 1 1.1
v 0.8 1 1.1
v -0.8 1 1
v -0.6 1 1
v 0.6 1 1
v 0.8 1 1
v -1.1 1 0.8
v -1 1 0.8
v 1 1 0.8
v 1.1 1 0.8
v -1.1 1 0.6
v -1 1 0.6
v 1 1 0.6
v 1.1 1 0.6
v -1.1 1 -0.6
v -1 1 -0.6
v 1 1 -0.6
v 1.1 1 -0.6
v -1.1 1 -0.8
v -1 1 -0.8
v 1 1 -0.8
v 1.1 1 -0.8
v -0.8 1 -1
v -0.6 1 -1
v 0.6 1 -1
v 0.8 1 -1
v -0.8 1 -1.1
v -0.6 1 -1.1
v 0.6 1 -1.1
v 0.8 1 -1.1
v -1.1 1.7 1.1
v 1.1 1.7 1.1
v -1.1 1.7 -1.1
v 1.1 1.7 -1.1
v -1.2 1.8 1.2
v 1.2 1.8 1.2
v -1.1 1.8 1.1
v 1.1 1.8 1.1
v -1.1 1.8 -1.1
v 1.1 1.8 -1.1
v -1.2 1.8 -1.2
v 1.2 1.8 -1.2

# faces
f 3/3/1 2/3/1 1/3/1
f 4/3/1 2/3/1 3/3/1
f 9/2/1 6/2/1 5/2/1
f 10/2/1 8/2/1 7/2/1
f 15/3/1 12/3/1 11/3/1
f 16/2/1 9/2/1 5/2/1
f 16/2/1 10/2/1 9/2/1
f 17/2/1 8/2/1 10/2/1
f 17/2/1 10/2/1 16/2/1
f 18/3/1 14/3/1 13/3/1
f 19/3/1 15/3/1 11/3/1
f 19/3/1 18/3/1 17/3/1
f 19/3/1 16/3/1 15/3/1
f 19/3/1 17/3/1 16/3/1
f 20/3/1 14/3/1 18/3/1
f 20/3/1 18/3/1 19/3/1
f 23/3/1 22/3/1 21/3/1
f 24/3/1 22/3/1 23/3/1
f 25/3/1 22/3/1 24/3/1
f 26/3/1 22/3/1 25/3/1
f 27/3/1 23/3/1 21/3/1
f 28/3/1 25/3/1 24/3/1
f 29/3/1 25/3/1 28/3/1
f 30/3/1 25/3/1 29/3/1
f 31/3/1 25/3/1 30/3/1
f 32/3/1 25/3/1 31/3/1
f 33/3/1 25/3/1 32/3/1
f 34/3/1 22/3/1 26/3/1
f 35/3/1 31/3/1 30/3/1
f 36/3/1 31/3/1 35/3/1
f 37/3/1 27/3/1 21/3/1
f 37/3/1 28/3/1 27/3/1
f 37/3/1 29/3/1 28/3/1
f 38/3/1 29/3/1 37/3/1
f 39/3/1 33/3/1 32/3/1
f 39/3/1 34/3/1 33/3/1
f 40/3/1 22/3/1 34/3/1
f 40/3/1 34/3/1 39/3/1
f 41/3/1 29/3/1 38/3/1
f 42/3/1 29/3/1 41/3/1
f 43/3/1 39/3/1 32/3/1
f 44/3/1 39/3/1 43/3/1
f 49/3/1 46/3/1 45/3/1
f 50/3/1 46/3/1 49/3/1
f 51/3/1 48/3/1 47/3/1
f 52/3/1 48/3/1 51/3/1
f 57/3/1 54/3/1 53/3/1
f 58/3/1 54/3/1 57/3/1
f 59/3/1 56/3/1 55/3/1
f 60/3/1 56/3/1 59/3/1
f 63/3/1 62/3/1 61/3/1
f 64/3/1 62/3/1 63/3/1
f 67/3/1 66/3/1 65/3/1
f 68/3/1 66/3/1 67/3/1
f 71/3/1 70/3/1 69/3/1
f 72/3/1 70/3/1 71/3/1
f 77/2/1 74/2/1 73/2/1
f 78/2/1 74/2/1 77/2/1
f 79/2/1 76/2/1 75/2/1
f 80/2/1 76/2/1 79/2/1
f 83/3/1 82/3/1 81/3/1
f 84/3/1 82/3/1 83/3/1
f 89/2/1 86/2/1 85/2/1
f 90/2/1 86/2/1 89/2/1
f 91/2/1 88/2/1 87/2/1
f 92/2/1 88/2/1 91/2/1
f 95/3/1 94/3/1 93/3/1
f 96/3/1 94/3/1 95/3/1
f 99/3/1 98/3/1 97/3/1
f 100/3/1 98/3/1 99/3/1
f 105/3/1 102/3/1 101/3/1
f 106/3/1 102/3/1 105/3/1
f 107/3/1 104/3/1 103/3/1
f 108/3/1 104/3/1 107/3/1
f 113/3/1 110/3/1 109/3/1
f 114/3/1 110/3/1 113/3/1
f 115/3/1 112/3/1 111/3/1
f 116/3/1 112/3/1 115/3/1
f 119/3/1 118/3/1 117/3/1
f 120/3/1 118/3/1 119/3/1
f 121/3/2 122/3/2 123/3/2
f 123/3/2 122/3/2 124/3/2
f 125/3/2 126/3/2 129/3/2
f 129/3/2 126/3/2 130/3/2
f 127/3/2 128/3/2 131/3/2
f 131/3/2 128/3/2 132/3/2
f 133/3/2 134/3/2 135/3/2
f 135/3/2 134/3/2 136/3/2
f 137/3/2 138/3/2 141/3/2
f 141/3/2 138/3/2 142/3/2
f 139/3/2 140/3/2 143/3/2
f 143/3/2 140/3/2 144/3/2
f 145/3/2 146/3/2 147/3/2
f 147/3/2 146/3/2 148/3/2
f 149/3/2 150/3/2 151/3/2
f 151/3/2 150/3/2 152/3/2
f 153/2/2 154/2/2 157/2/2
f 157/2/2 154/2/2 158/2/2
f 155/2/2 156/2/2 159/2/2
f 159/2/2 156/2/2 160/2/2
f 161/3/2 162/3/2 163/3/2
f 163/3/2 162/3/2 164/3/2
f 165/2/2 166/2/2 169/2/2
f 169/2/2 166/2/2 170/2/2
f 167/2/2 168/2/2 171/2/2
f 171/2/2 168/2/2 172/2/2
f 173/3/2 174/3/2 175/3/2
f 175/3/2 174/3/2 176/3/2
f 177/3/2 178/3/2 179/3/2
f 179/3/2 178/3/2 180/3/2
f 181/3/2 182/3/2 185/3/2
f 185/3/2 182/3/2 186/3/2
f 183/3/2 184/3/2 187/3/2
f 187/3/2 184/3/2 188/3/2
f 189/3/2 190/3/2 193/3/2
f 193/3/2 190/3/2 194/3/2
f 191/3/2 192/3/2 195/3/2
f 195/3/2 192/3/2 196/3/2
f 197/3/2 198/3/2 199/3/2
f 199/3/2 198/3/2 200/3/2
f 200/3/2 198/3/2 201/3/2
f 201/3/2 198/3/2 202/3/2
f 197/3/2 199/3/2 203/3/2
f 200/3/2 201/3/2 204/3/2
f 204/3/2 201/3/2 205/3/2
f 205/3/2 201/3/2 206/3/2
f 206/3/2 201/3/2 207/3/2
f 207/3/2 201/3/2 208/3/2
f 208/3/2 201/3/2 209/3/2
f 202/3/2 198/3/2 210/3/2
f 206/3/2 207/3/2 211/3/2
f 211/3/2 207/3/2 212/3/2
f 197/3/2 203/3/2 213/3/2
f 203/3/2 204/3/2 213/3/2
f 204/3/2 205/3/2 213/3/2
f 213/3/2 205/3/2 214/3/2
f 208/3/2 209/3/2 215/3/2
f 209/3/2 210/3/2 215/3/2
f 210/3/2 198/3/2 216/3/2
f 215/3/2 210/3/2 216/3/2
f 214/3/2 205/3/2 217/3/2
f 217/3/2 205/3/2 218/3/2
f 208/3/2 215/3/2 219/3/2
f 219/3/2 215/3/2 220/3/2
f 221/3/2 222/3/2 223/3/2
f 223/3/2 222/3/2 224/3/2
f 225/2/2 226/2/2 229/2/2
f 227/2/2 228/2/2 230/2/2
f 231/3/2 232/3/2 235/3/2
f 225/2/2 229/2/2 236/2/2
f 229/2/2 230/2/2 236/2/2
f 230/2/2 228/2/2 237/2/2
f 236/2/2 230/2/2 237/2/2
f 233/3/2 234/3/2 238/3/2
f 231/3/2 235/3/2 239/3/2
f 237/3/2 238/3/2 239/3/2
f 235/3/2 236/3/2 239/3/2
f 236/3/2 237/3/2 239/3/2
f 238/3/2 234/3/2 240/3/2
f 239/3/2 238/3/2 240/3/2
f 245/3/3 244/3/3 243/3/3
f 246/3/3 244/3/3 245/3/3
f 248/3/3 244/3/3 246/3/3
f 249/2/3 248/2/3 247/2/3
f 250/2/3 248/2/3 249/2/3
f 252/2/3 248/2/3 250/2/3
f 253/2/3 252/2/3 251/2/3
f 254/3/3 244/3/3 248/3/3
f 254/2/3 252/2/3 253/2/3
f 254/2/3 248/2/3 252/2/3
f 256/3/3 244/3/3 254/3/3
f 257/3/3 242/3/3 241/3/3
f 258/3/3 242/3/3 257/3/3
f 259/3/3 256/3/3 255/3/3
f 260/3/3 244/3/3 256/3/3
f 260/3/3 256/3/3 259/3/3
f 263/3/3 262/3/3 261/3/3
f 264/3/3 262/3/3 263/3/3
f 265/3/3 263/3/3 261/3/3
f 266/3/3 262/3/3 264/3/3
f 267/3/3 262/3/3 266/3/3
f 267/3/3 266/3/3 265/3/3
f 269/3/3 267/3/3 265/3/3
f 269/3/3 268/3/3 267/3/3
f 270/3/3 268/3/3 269/3/3
f 271/3/3 269/3/3 265/3/3
f 273/3/3 271/3/3 265/3/3
f 273/3/3 272/3/3 271/3/3
f 274/3/3 272/3/3 273/3/3
f 275/3/3 273/3/3 265/3/3
f 277/3/3 276/3/3 275/3/3
f 278/3/3 276/3/3 277/3/3
f 279/3/3 265/3/3 261/3/3
f 279/3/3 275/3/3 265/3/3
f 279/3/3 277/3/3 275/3/3
f 280/3/3 277/3/3 279/3/3
f 281/3/3 279/3/3 261/3/3
f 282/3/3 277/3/3 280/3/3
f 283/3/3 281/3/3 261/3/3
f 283/3/3 282/3/3 281/3/3
f 284/3/3 277/3/3 282/3/3
f 284/3/3 282/3/3 283/3/3
f 287/3/3 286/3/3 285/3/3
f 288/3/3 286/3/3 287/3/3
f 291/3/3 290/3/3 289/3/3
f 292/3/3 290/3/3 291/3/3
f 295/3/3 294/3/3 293/3/3
f 296/3/3 294/3/3 295/3/3
f 299/3/3 298/3/3 297/3/3
f 300/3/3 298/3/3 299/3/3
f 303/2/3 302/2/3 301/2/3
f 304/2/3 302/2/3 303/2/3
f 307/2/3 306/2/3 305/2/3
f 308/2/3 306/2/3 307/2/3
f 311/2/3 310/2/3 309/2/3
f 312/2/3 310/2/3 311/2/3
f 315/2/3 314/2/3 313/2/3
f 316/2/3 314/2/3 315/2/3
f 319/3/3 318/3/3 317/3/3
f 320/3/3 318/3/3 319/3/3
f 323/3/3 322/3/3 321/3/3
f 324/3/3 322/3/3 323/3/3
f 327/3/3 326/3/3 325/3/3
f 328/3/3 326/3/3 327/3/3
f 331/3/3 330/3/3 329/3/3
f 332/3/3 330/3/3 331/3/3
f 335/3/3 334/3/3 333/3/3
f 336/3/3 334/3/3 335/3/3
f 337/3/4 338/3/4 339/3/4
f 339/3/4 338/3/4 340/3/4
f 341/3/4 342/3/4 343/3/4
f 343/3/4 342/3/4 344/3/4
f 345/3/4 346/3/4 347/3/4
f 347/3/4 346/3/4 348/3/4
f 349/3/4 350/3/4 351/3/4
f 351/3/4 350/3/4 352/3/4
f 353/3/4 354/3/4 355/3/4
f 355/3/4 354/3/4 356/3/4
f 357/2/4 358/2/4 359/2/4
f 359/2/4 358/2/4 360/2/4
f 361/2/4 362/2/4 363/2/4
f 363/2/4 362/2/4 364/2/4
f 365/2/4 366/2/4 367/2/4
f 367/2/4 366/2/4 368/2/4
f 369/2/4 370/2/4 371/2/4
f 371/2/4 370/2/4 372/2/4
f 373/3/4 374/3/4 375/3/4
f 375/3/4 374/3/4 376/3/4
f 377/3/4 378/3/4 379/3/4
f 379/3/4 378/3/4 380/3/4
f 381/3/4 382/3/4 383/3/4
f 383/3/4 382/3/4 384/3/4
f 385/3/4 386/3/4 387/3/4
f 387/3/4 386/3/4 388/3/4
f 389/3/4 390/3/4 391/3/4
f 391/3/4 390/3/4 392/3/4
f 389/3/4 391/3/4 393/3/4
f 392/3/4 390/3/4 394/3/4
f 389/3/4 393/3/4 395/3/4
f 393/3/4 394/3/4 395/3/4
f 395/3/4 394/3/4 396/3/4
f 396/3/4 394/3/4 399/3/4
f 399/3/4 394/3/4 400/3/4
f 394/3/4 390/3/4 401/3/4
f 400/3/4 394/3/4 401/3/4
f 397/1/4 398/1/4 403/1/4
f 401/3/4 402/3/4 405/3/4
f 400/3/4 401/3/4 405/3/4
f 405/3/4 402/3/4 406/3/4
f 406/3/4 402/3/4 407/3/4
f 407/3/4 402/3/4 408/3/4
f 403/1/4 404/1/4 409/1/4
f 406/3/4 407/3/4 411/3/4
f 409/1/4 410/1/4 413/1/4
f 403/1/4 409/1/4 413/1/4
f 413/1/4 410/1/4 414/1/4
f 411/3/4 412/3/4 415/3/4
f 406/3/4 411/3/4 415/3/4
f 415/3/4 412/3/4 416/3/4
f 397/1/4 403/1/4 417/1/4
f 403/1/4 413/1/4 417/1/4
f 417/1/4 413/1/4 418/1/4
f 406/3/4 415/3/4 420/3/4
f 420/3/4 415/3/4 421/3/4
f 397/1/4 417/1/4 423/1/4
f 423/1/4 417/1/4 424/1/4
f 420/3/4 421/3/4 426/3/4
f 421/3/4 422/3/4 426/3/4
f 419/3/4 420/3/4 426/3/4
f 426/3/4 422/3/4 427/3/4
f 427/3/4 422/3/4 428/3/4
f 425/3/4 426/3/4 430/3/4
f 426/3/4 427/3/4 430/3/4
f 430/3/4 427/3/4 431/3/4
f 429/3/4 430/3/4 431/3/4
f 431/3/4 427/3/4 432/3/4
f 429/3/4 431/3/4 433/3/4
f 432/3/4 427/3/4 434/3/4
f 429/3/4 433/3/4 435/3/4
f 433/3/4 434/3/4 435/3/4
f 434/3/4 427/3/4 436/3/4
f 435/3/4 434/3/4 436/3/4
f 437/3/4 438/3/4 441/3/4
f 437/3/4 441/3/4 443/3/4
f 441/3/4 442/3/4 443/3/4
f 443/3/4 442/3/4 444/3/4
f 444/3/4 442/3/4 445/3/4
f 439/3/4 440/3/4 447/3/4
f 447/3/4 440/3/4 448/3/4
f 445/3/4 446/3/4 449/3/4
f 444/3/4 445/3/4 449/3/4
f 449/3/4 446/3/4 450/3/4
f 450/3/4 446/3/4 451/3/4
f 448/3/4 440/3/4 454/3/4
f 451/3/4 452/3/4 455/3/4
f 450/3/4 451/3/4 455/3/4
f 455/3/4 452/3/4 456/3/4
f 453/2/4 454/2/4 457/2/4
f 457/2/4 454/2/4 458/2/4
f 456/3/4 452/3/4 460/3/4
f 458/2/4 454/2/4 462/2/4
f 459/3/4 460/3/4 464/3/4
f 460/3/4 452/3/4 465/3/4
f 464/3/4 460/3/4 465/3/4
f 465/3/4 452/3/4 466/3/4
f 461/2/4 462/2/4 467/2/4
f 454/3/4 440/3/4 468/3/4
f 467/2/4 462/2/4 468/2/4
f 462/2/4 454/2/4 468/2/4
f 463/3/4 464/3/4 470/3/4
f 464/3/4 465/3/4 470/3/4
f 470/3/4 465/3/4 471/3/4
f 471/3/4 465/3/4 472/3/4
f 468/3/4 440/3/4 474/3/4
f 469/3/4 470/3/4 475/3/4
f 470/3/4 471/3/4 475/3/4
f 475/3/4 471/3/4 476/3/4
f 469/3/4 475/3/4 477/3/4
f 477/3/4 475/3/4 478/3/4
f 473/3/4 474/3/4 479/3/4
f 474/3/4 440/3/4 480/3/4
f 479/3/4 474/3/4 480/3/4
f 483/3/5 482/3/5 481/3/5
f 484/3/5 482/3/5 483/3/5
f 485/3/5 483/3/5 481/3/5
f 485/1/5 484/1/5 483/1/5
f 486/3/5 482/3/5 484/3/5
f 486/1/5 484/1/5 485/1/5
f 487/3/5 485/3/5 481/3/5
f 488/3/5 485/3/5 487/3/5
f 489/3/5 482/3/5 486/3/5
f 490/3/5 482/3/5 489/3/5
f 495/3/5 492/3/5 491/3/5
f 496/3/5 492/3/5 495/3/5
f 497/3/5 494/3/5 493/3/5
f 498/3/5 494/3/5 497/3/5
f 503/3/5 500/3/5 499/3/5
f 504/3/5 500/3/5 503/3/5
f 505/3/5 502/3/5 501/3/5
f 506/3/5 502/3/5 505/3/5
f 509/3/5 508/3/5 507/3/5
f 510/3/5 508/3/5 509/3/5
f 517/2/5 512/2/5 511/2/5
f 518/2/5 512/2/5 517/2/5
f 519/2/5 514/2/5 513/2/5
f 520/2/5 514/2/5 519/2/5
f 523/3/5 516/3/5 515/3/5
f 524/3/5 516/3/5 523/3/5
f 525/3/5 522/3/5 521/3/5
f 526/3/5 522/3/5 525/3/5
f 531/3/5 528/3/5 527/3/5
f 532/3/5 528/3/5 531/3/5
f 533/3/5 530/3/5 529/3/5
f 534/3/5 530/3/5 533/3/5
f 539/2/5 536/2/5 535/2/5
f 540/2/5 536/2/5 539/2/5
f 541/2/5 538/2/5 537/2/5
f 542/2/5 538/2/5 541/2/5
f 547/2/5 544/2/5 543/2/5
f 548/2/5 544/2/5 547/2/5
f 549/2/5 546/2/5 545/2/5
f 550/2/5 546/2/5 549/2/5
f 555/3/5 552/3/5 551/3/5
f 556/3/5 552/3/5 555/3/5
f 557/3/5 554/3/5 553/3/5
f 558/3/5 554/3/5 557/3/5
f 563/3/5 560/3/5 559/3/5
f 564/3/5 560/3/5 563/3/5
f 569/3/5 562/3/5 561/3/5
f 570/3/5 562/3/5 569/3/5
f 571/2/5 566/2/5 565/2/5
f 572/2/5 566/2/5 571/2/5
f 573/2/5 568/2/5 567/2/5
f 574/2/5 568/2/5 573/2/5
f 577/2/5 576/2/5 575/2/5
f 578/2/5 576/2/5 577/2/5
f 583/2/5 580/2/5 579/2/5
f 584/2/5 580/2/5 583/2/5
f 585/2/5 582/2/5 581/2/5
f 586/2/5 582/2/5 585/2/5
f 589/2/5 588/2/5 587/2/5
f 590/2/5 588/2/5 589/2/5
f 595/3/5 592/3/5 591/3/5
f 596/3/5 592/3/5 595/3/5
f 597/3/5 594/3/5 593/3/5
f 598/3/5 594/3/5 597/3/5
f 599/3/5 595/3/5 591/3/5
f 600/3/5 595/3/5 599/3/5
f 601/3/5 594/3/5 598/3/5
f 602/3/5 594/3/5 601/3/5
f 607/3/5 604/3/5 603/3/5
f 610/3/5 606/3/5 605/3/5
f 611/3/5 608/3/5 607/3/5
f 611/3/5 607/3/5 603/3/5
f 612/3/5 608/3/5 611/3/5
f 613/3/5 610/3/5 609/3/5
f 614/3/5 606/3/5 610/3/5
f 614/3/5 610/3/5 613/3/5
f 619/3/5 616/3/5 615/3/5
f 620/3/5 616/3/5 619/3/5
f 621/3/5 618/3/5 617/3/5
f 622/3/5 618/3/5 621/3/5
f 627/3/5 624/3/5 623/3/5
f 628/3/5 624/3/5 627/3/5
f 629/3/5 626/3/5 625/3/5
f 630/3/5 626/3/5 629/3/5
f 635/3/5 632/3/5 631/3/5
f 636/3/5 632/3/5 635/3/5
f 637/3/5 634/3/5 633/3/5
f 638/3/5 634/3/5 637/3/5
f 643/3/5 640/3/5 639/3/5
f 644/3/5 640/3/5 643/3/5
f 645/3/5 642/3/5 641/3/5
f 646/3/5 642/3/5 645/3/5
f 647/3/6 648/3/6 649/3/6
f 649/3/6 648/3/6 650/3/6
f 647/3/6 649/3/6 651/3/6
f 650/3/6 648/3/6 654/3/6
f 651/3/6 652/3/6 655/3/6
f 647/3/6 651/3/6 655/3/6
f 655/3/6 652/3/6 656/3/6
f 653/3/6 654/3/6 657/3/6
f 654/3/6 648/3/6 658/3/6
f 657/3/6 654/3/6 658/3/6
f 659/3/6 660/3/6 663/3/6
f 663/3/6 660/3/6 664/3/6
f 661/3/6 662/3/6 665/3/6
f 665/3/6 662/3/6 666/3/6
f 667/3/6 668/3/6 671/3/6
f 671/3/6 668/3/6 672/3/6
f 669/3/6 670/3/6 673/3/6
f 673/3/6 670/3/6 674/3/6
f 675/3/6 676/3/6 677/3/6
f 677/3/6 676/3/6 678/3/6
f 679/3/6 680/3/6 683/3/6
f 683/3/6 680/3/6 684/3/6
f 681/3/6 682/3/6 685/3/6
f 685/3/6 682/3/6 686/3/6
f 687/3/6 688/3/6 691/3/6
f 691/3/6 688/3/6 692/3/6
f 689/3/6 690/3/6 693/3/6
f 693/3/6 690/3/6 694/3/6
f 695/3/6 696/3/6 699/3/6
f 699/3/6 696/3/6 700/3/6
f 697/3/6 698/3/6 701/3/6
f 701/3/6 698/3/6 702/3/6
f 703/3/6 704/3/6 707/3/6
f 707/3/6 704/3/6 708/3/6
f 705/3/6 706/3/6 709/3/6
f 709/3/6 706/3/6 710/3/6
f 711/3/6 712/3/6 713/3/6
f 713/3/6 712/3/6 714/3/6
f 715/3/6 716/3/6 717/3/6
f 717/3/6 716/3/6 718/3/6
f 715/3/6 717/3/6 719/3/6
f 718/3/6 716/3/6 720/3/6
f 715/3/6 719/3/6 721/3/6
f 719/3/6 720/3/6 721/3/6
f 720/3/6 716/3/6 722/3/6
f 721/3/6 720/3/6 722/3/6
