# MagicaVoxel @ Ephtracy

# group
o 

# material
mtllib WarriorUnit.mtl
usemtl palette

# normals
vn -1 0 0
vn 1 0 0
vn 0 0 1
vn 0 0 -1
vn 0 -1 0
vn 0 1 0

# texcoords
vt 0.0332031 0.5
vt 0.533203 0.5
vt 0.537109 0.5
vt 0.861328 0.5
vt 0.974609 0.5
vt 0.982422 0.5
vt 0.994141 0.5

# verts
v -0.3 0.1 0.2
v -0.3 0.1 0.1
v -0.3 0.2 0.2
v -0.3 0.2 0.1
v -0.3 0.2 -0.1
v -0.3 0.3 0.3
v -0.3 0.3 0.2
v -0.3 0.3 0.1
v -0.3 0.3 -0.1
v -0.3 0.4 0.2
v -0.3 0.4 0.1
v -0.3 0.7 0.3
v -0.3 0.7 0.2
v -0.3 0.8 0.2
v -0.3 0.8 0.1
v -0.2 0 0
v -0.2 0 -0.1
v -0.2 0.1 0.1
v -0.2 0.1 0
v -0.2 0.1 -0.1
v -0.2 0.1 -0.2
v -0.2 0.2 0.1
v -0.2 0.2 -0.1
v -0.2 0.3 0.1
v -0.2 0.3 -0.1
v -0.2 0.3 -0.2
v -0.2 0.4 0.1
v -0.2 0.4 0
v -0.2 0.5 0.1
v -0.2 0.5 0
v -0.2 0.6 0.1
v -0.2 0.6 0
v -0.2 0.7 0.1
v -0.2 0.7 -0.2
v 0 0 0
v 0 0 -0.1
v 0 0.1 0
v 0 0.1 -0.1
v 0.1 0.4 0.2
v 0.1 0.4 0.1
v 0.1 0.5 0.3
v 0.1 0.5 0.2
v 0.1 0.5 0.1
v 0.1 0.5 -0.2
v 0.1 0.5 -0.3
v 0.1 0.6 0.1
v 0.1 0.7 0.1
v 0.1 0.7 0
v 0.1 0.7 -0.1
v 0.1 0.7 -0.2
v 0.1 0.8 0.3
v 0.1 0.8 0.2
v 0.1 0.8 0.1
v 0.1 0.8 0
v 0.1 0.8 -0.1
v 0.1 0.8 -0.3
v 0.1 0.9 0.2
v 0.1 0.9 0.1
v -0.2 0.1 0.2
v -0.2 0.1 0.1
v -0.2 0.2 0.2
v -0.2 0.2 0.1
v -0.2 0.3 0.3
v -0.2 0.3 0.2
v -0.2 0.3 0.1
v -0.2 0.4 0.2
v -0.2 0.4 0.1
v -0.2 0.5 0.1
v -0.2 0.6 0.1
v -0.2 0.7 0.3
v -0.2 0.7 0.2
v -0.2 0.7 0.1
v -0.2 0.8 0.2
v -0.2 0.8 0.1
v -0.1 0 0
v -0.1 0 -0.1
v -0.1 0.1 0
v -0.1 0.1 -0.1
v 0.1 0 0
v 0.1 0 -0.1
v 0.1 0.1 0.1
v 0.1 0.1 0
v 0.1 0.1 -0.1
v 0.1 0.1 -0.2
v 0.1 0.2 0
v 0.1 0.2 -0.1
v 0.1 0.3 0.1
v 0.1 0.3 0
v 0.1 0.3 -0.1
v 0.1 0.3 -0.2
v 0.1 0.4 0.1
v 0.1 0.4 0
v 0.1 0.5 0.1
v 0.1 0.5 0
v 0.1 0.5 -0.1
v 0.1 0.5 -0.2
v 0.3 0.1 0
v 0.3 0.1 -0.1
v 0.3 0.2 0
v 0.3 0.2 -0.1
v 0.3 0.3 0
v 0.3 0.3 -0.1
v 0.3 0.4 0.2
v 0.3 0.4 0.1
v 0.3 0.5 0.3
v 0.3 0.5 0.2
v 0.3 0.5 0.1
v 0.3 0.5 0
v 0.3 0.5 -0.1
v 0.3 0.5 -0.3
v 0.3 0.6 0
v 0.3 0.6 -0.1
v 0.3 0.7 0
v 0.3 0.7 -0.1
v 0.3 0.8 0.3
v 0.3 0.8 0.2
v 0.3 0.8 0.1
v 0.3 0.8 0
v 0.3 0.8 -0.1
v 0.3 0.8 -0.3
v 0.3 0.9 0.2
v 0.3 0.9 0.1
v -0.3 0.3 0.3
v -0.3 0.7 0.3
v -0.2 0.3 0.3
v -0.2 0.7 0.3
v 0.1 0.5 0.3
v 0.1 0.8 0.3
v 0.3 0.5 0.3
v 0.3 0.8 0.3
v -0.3 0.1 0.2
v -0.3 0.2 0.2
v -0.3 0.3 0.2
v -0.3 0.7 0.2
v -0.3 0.8 0.2
v -0.2 0.1 0.2
v -0.2 0.2 0.2
v -0.2 0.3 0.2
v -0.2 0.7 0.2
v -0.2 0.8 0.2
v 0.1 0.4 0.2
v 0.1 0.5 0.2
v 0.1 0.8 0.2
v 0.1 0.9 0.2
v 0.3 0.4 0.2
v 0.3 0.5 0.2
v 0.3 0.8 0.2
v 0.3 0.9 0.2
v -0.2 0.1 0.1
v -0.2 0.2 0.1
v -0.2 0.3 0.1
v -0.2 0.4 0.1
v -0.2 0.5 0.1
v -0.2 0.6 0.1
v -0.2 0.7 0.1
v -0.1 0.1 0.1
v -0.1 0.2 0.1
v -0.1 0.3 0.1
v -0.1 0.5 0.1
v -0.1 0.6 0.1
v 0 0.1 0.1
v 0 0.2 0.1
v 0 0.3 0.1
v 0 0.5 0.1
v 0 0.6 0.1
v 0.1 0.1 0.1
v 0.1 0.3 0.1
v 0.1 0.4 0.1
v 0.1 0.5 0.1
v 0.1 0.6 0.1
v 0.1 0.7 0.1
v -0.2 0 0
v -0.2 0.1 0
v -0.1 0 0
v -0.1 0.1 0
v 0 0 0
v 0 0.1 0
v 0.1 0 0
v 0.1 0.1 0
v 0.1 0.2 0
v 0.1 0.3 0
v 0.1 0.4 0
v 0.1 0.5 0
v 0.3 0.1 0
v 0.3 0.2 0
v 0.3 0.3 0
v 0.3 0.5 0
v -0.3 0.1 0.1
v -0.3 0.2 0.1
v -0.3 0.3 0.1
v -0.3 0.4 0.1
v -0.3 0.8 0.1
v -0.2 0.1 0.1
v -0.2 0.2 0.1
v -0.2 0.3 0.1
v -0.2 0.4 0.1
v -0.2 0.5 0.1
v -0.2 0.6 0.1
v -0.2 0.7 0.1
v -0.2 0.8 0.1
v 0.1 0.4 0.1
v 0.1 0.5 0.1
v 0.1 0.8 0.1
v 0.1 0.9 0.1
v 0.3 0.4 0.1
v 0.3 0.5 0.1
v 0.3 0.8 0.1
v 0.3 0.9 0.1
v -0.3 0.2 -0.1
v -0.3 0.3 -0.1
v -0.2 0 -0.1
v -0.2 0.1 -0.1
v -0.2 0.2 -0.1
v -0.2 0.3 -0.1
v -0.1 0 -0.1
v -0.1 0.1 -0.1
v 0 0 -0.1
v 0 0.1 -0.1
v 0.1 0 -0.1
v 0.1 0.1 -0.1
v 0.1 0.2 -0.1
v 0.1 0.3 -0.1
v 0.1 0.5 -0.1
v 0.3 0.1 -0.1
v 0.3 0.2 -0.1
v 0.3 0.3 -0.1
v 0.3 0.5 -0.1
v -0.2 0.1 -0.2
v -0.2 0.3 -0.2
v -0.2 0.7 -0.2
v -0.1 0.1 -0.2
v -0.1 0.2 -0.2
v -0.1 0.3 -0.2
v 0 0.1 -0.2
v 0 0.2 -0.2
v 0 0.3 -0.2
v 0.1 0.1 -0.2
v 0.1 0.3 -0.2
v 0.1 0.5 -0.2
v 0.1 0.7 -0.2
v 0.1 0.5 -0.3
v 0.1 0.8 -0.3
v 0.3 0.5 -0.3
v 0.3 0.8 -0.3
v -0.2 0 0
v -0.1 0 0
v 0 0 0
v 0.1 0 0
v -0.2 0 -0.1
v -0.1 0 -0.1
v 0 0 -0.1
v 0.1 0 -0.1
v -0.3 0.1 0.2
v -0.2 0.1 0.2
v -0.3 0.1 0.1
v -0.2 0.1 0.1
v -0.1 0.1 0.1
v 0 0.1 0.1
v 0.1 0.1 0.1
v -0.2 0.1 0
v -0.1 0.1 0
v 0 0.1 0
v 0.1 0.1 0
v 0.3 0.1 0
v -0.2 0.1 -0.1
v -0.1 0.1 -0.1
v 0 0.1 -0.1
v 0.1 0.1 -0.1
v 0.3 0.1 -0.1
v -0.2 0.1 -0.2
v -0.1 0.1 -0.2
v 0 0.1 -0.2
v 0.1 0.1 -0.2
v -0.3 0.2 0.1
v -0.2 0.2 0.1
v -0.3 0.2 -0.1
v -0.2 0.2 -0.1
v -0.3 0.3 0.3
v -0.2 0.3 0.3
v -0.3 0.3 0.2
v -0.2 0.3 0.2
v 0.1 0.4 0.2
v 0.3 0.4 0.2
v 0.1 0.4 0.1
v 0.3 0.4 0.1
v 0.1 0.5 0.3
v 0.3 0.5 0.3
v 0.1 0.5 0.2
v 0.3 0.5 0.2
v 0.1 0.5 0.1
v 0.3 0.5 0.1
v 0.1 0.5 0
v 0.3 0.5 0
v 0.1 0.5 -0.1
v 0.3 0.5 -0.1
v 0.1 0.5 -0.2
v 0.1 0.5 -0.3
v 0.3 0.5 -0.3
v -0.3 0.3 0.1
v -0.2 0.3 0.1
v -0.3 0.3 -0.1
v -0.2 0.3 -0.1
v -0.3 0.7 0.3
v -0.2 0.7 0.3
v -0.3 0.7 0.2
v -0.2 0.7 0.2
v -0.2 0.7 0.1
v 0.1 0.7 0.1
v 0.1 0.7 0
v 0.1 0.7 -0.1
v -0.2 0.7 -0.2
v 0.1 0.7 -0.2
v 0.1 0.8 0.3
v 0.3 0.8 0.3
v -0.3 0.8 0.2
v -0.2 0.8 0.2
v 0.1 0.8 0.2
v 0.3 0.8 0.2
v -0.3 0.8 0.1
v -0.2 0.8 0.1
v 0.1 0.8 0.1
v 0.3 0.8 0.1
v 0.1 0.8 0
v 0.3 0.8 0
v 0.1 0.8 -0.1
v 0.3 0.8 -0.1
v 0.1 0.8 -0.3
v 0.3 0.8 -0.3
v 0.1 0.9 0.2
v 0.3 0.9 0.2
v 0.1 0.9 0.1
v 0.3 0.9 0.1

# faces
f 3/3/1 2/3/1 1/3/1
f 4/3/1 2/3/1 3/3/1
f 7/1/1 4/1/1 3/1/1
f 7/1/1 5/1/1 4/1/1
f 8/1/1 5/1/1 7/1/1
f 9/1/1 5/1/1 8/1/1
f 10/5/1 7/5/1 6/5/1
f 10/3/1 8/3/1 7/3/1
f 11/3/1 8/3/1 10/3/1
f 12/5/1 10/5/1 6/5/1
f 12/5/1 11/5/1 10/5/1
f 13/5/1 11/5/1 12/5/1
f 14/5/1 11/5/1 13/5/1
f 15/5/1 11/5/1 14/5/1
f 19/3/1 17/3/1 16/3/1
f 20/3/1 17/3/1 19/3/1
f 22/4/1 19/4/1 18/4/1
f 22/4/1 21/4/1 20/4/1
f 22/4/1 20/4/1 19/4/1
f 23/4/1 21/4/1 22/4/1
f 25/4/1 21/4/1 23/4/1
f 26/4/1 21/4/1 25/4/1
f 27/6/1 25/6/1 24/6/1
f 27/6/1 26/6/1 25/6/1
f 28/6/1 26/6/1 27/6/1
f 29/1/1 28/1/1 27/1/1
f 30/6/1 26/6/1 28/6/1
f 30/1/1 28/1/1 29/1/1
f 31/7/1 30/7/1 29/7/1
f 32/6/1 26/6/1 30/6/1
f 32/7/1 30/7/1 31/7/1
f 33/6/1 32/6/1 31/6/1
f 34/6/1 26/6/1 32/6/1
f 34/6/1 32/6/1 33/6/1
f 37/3/1 36/3/1 35/3/1
f 38/3/1 36/3/1 37/3/1
f 42/5/1 40/5/1 39/5/1
f 43/5/1 40/5/1 42/5/1
f 46/5/1 42/5/1 41/5/1
f 46/5/1 43/5/1 42/5/1
f 47/5/1 46/5/1 41/5/1
f 50/5/1 45/5/1 44/5/1
f 51/5/1 47/5/1 41/5/1
f 51/5/1 48/5/1 47/5/1
f 52/5/1 48/5/1 51/5/1
f 53/5/1 48/5/1 52/5/1
f 54/3/1 49/3/1 48/3/1
f 54/5/1 48/5/1 53/5/1
f 55/5/1 50/5/1 49/5/1
f 55/3/1 49/3/1 54/3/1
f 56/5/1 45/5/1 50/5/1
f 56/5/1 50/5/1 55/5/1
f 57/5/1 53/5/1 52/5/1
f 58/5/1 53/5/1 57/5/1
f 59/3/2 60/3/2 61/3/2
f 61/3/2 60/3/2 62/3/2
f 61/1/2 62/1/2 64/1/2
f 64/1/2 62/1/2 65/1/2
f 63/5/2 64/5/2 66/5/2
f 64/3/2 65/3/2 66/3/2
f 66/3/2 65/3/2 67/3/2
f 66/5/2 67/5/2 68/5/2
f 66/5/2 68/5/2 69/5/2
f 63/5/2 66/5/2 70/5/2
f 66/5/2 69/5/2 70/5/2
f 70/5/2 69/5/2 71/5/2
f 71/5/2 69/5/2 72/5/2
f 71/5/2 72/5/2 73/5/2
f 73/5/2 72/5/2 74/5/2
f 75/3/2 76/3/2 77/3/2
f 77/3/2 76/3/2 78/3/2
f 79/3/2 80/3/2 82/3/2
f 82/3/2 80/3/2 83/3/2
f 81/4/2 82/4/2 85/4/2
f 83/4/2 84/4/2 86/4/2
f 81/4/2 85/4/2 87/4/2
f 87/4/2 85/4/2 88/4/2
f 86/4/2 84/4/2 89/4/2
f 89/4/2 84/4/2 90/4/2
f 87/6/2 88/6/2 91/6/2
f 91/6/2 88/6/2 92/6/2
f 91/1/2 92/1/2 93/1/2
f 93/1/2 92/1/2 94/1/2
f 89/6/2 90/6/2 95/6/2
f 95/6/2 90/6/2 96/6/2
f 97/3/2 98/3/2 99/3/2
f 99/3/2 98/3/2 100/3/2
f 99/1/2 100/1/2 101/1/2
f 101/1/2 100/1/2 102/1/2
f 103/5/2 104/5/2 106/5/2
f 106/5/2 104/5/2 107/5/2
f 101/3/2 102/3/2 108/3/2
f 108/3/2 102/3/2 109/3/2
f 108/3/2 109/3/2 111/3/2
f 106/5/2 107/5/2 111/5/2
f 107/5/2 108/5/2 111/5/2
f 105/5/2 106/5/2 111/5/2
f 109/5/2 110/5/2 112/5/2
f 111/3/2 109/3/2 112/3/2
f 105/5/2 111/5/2 113/5/2
f 111/5/2 112/5/2 113/5/2
f 112/5/2 110/5/2 114/5/2
f 113/5/2 112/5/2 114/5/2
f 105/5/2 113/5/2 115/5/2
f 115/5/2 113/5/2 116/5/2
f 116/5/2 113/5/2 117/5/2
f 113/3/2 114/3/2 118/3/2
f 117/5/2 113/5/2 118/5/2
f 114/5/2 110/5/2 119/5/2
f 118/3/2 114/3/2 119/3/2
f 119/5/2 110/5/2 120/5/2
f 116/5/2 117/5/2 121/5/2
f 121/5/2 117/5/2 122/5/2
f 125/5/3 124/5/3 123/5/3
f 126/5/3 124/5/3 125/5/3
f 129/5/3 128/5/3 127/5/3
f 130/5/3 128/5/3 129/5/3
f 136/3/3 132/3/3 131/3/3
f 137/1/3 133/1/3 132/1/3
f 137/3/3 132/3/3 136/3/3
f 138/1/3 133/1/3 137/1/3
f 139/5/3 135/5/3 134/5/3
f 140/5/3 135/5/3 139/5/3
f 145/5/3 142/5/3 141/5/3
f 146/5/3 142/5/3 145/5/3
f 147/5/3 144/5/3 143/5/3
f 148/5/3 144/5/3 147/5/3
f 156/4/3 150/4/3 149/4/3
f 156/4/3 151/4/3 150/4/3
f 157/4/3 151/4/3 156/4/3
f 158/6/3 152/6/3 151/6/3
f 158/4/3 151/4/3 157/4/3
f 159/7/3 154/7/3 153/7/3
f 159/1/3 153/1/3 152/1/3
f 160/6/3 155/6/3 154/6/3
f 160/7/3 154/7/3 159/7/3
f 161/2/3 157/2/3 156/2/3
f 162/6/3 158/6/3 157/6/3
f 162/2/3 157/2/3 161/2/3
f 163/6/3 152/6/3 158/6/3
f 163/6/3 158/6/3 162/6/3
f 164/1/3 159/1/3 152/1/3
f 164/1/3 160/1/3 159/1/3
f 165/6/3 155/6/3 160/6/3
f 165/1/3 160/1/3 164/1/3
f 166/4/3 162/4/3 161/4/3
f 166/4/3 163/4/3 162/4/3
f 167/6/3 152/6/3 163/6/3
f 167/4/3 163/4/3 166/4/3
f 168/1/3 164/1/3 152/1/3
f 168/6/3 152/6/3 167/6/3
f 169/7/3 165/7/3 164/7/3
f 169/1/3 164/1/3 168/1/3
f 170/6/3 155/6/3 165/6/3
f 170/7/3 165/7/3 169/7/3
f 171/6/3 155/6/3 170/6/3
f 174/3/3 173/3/3 172/3/3
f 175/3/3 173/3/3 174/3/3
f 178/3/3 177/3/3 176/3/3
f 179/3/3 177/3/3 178/3/3
f 184/3/3 180/3/3 179/3/3
f 185/1/3 181/1/3 180/1/3
f 185/3/3 180/3/3 184/3/3
f 186/3/3 183/3/3 182/3/3
f 186/1/3 181/1/3 185/1/3
f 186/3/3 182/3/3 181/3/3
f 187/3/3 183/3/3 186/3/3
f 188/3/4 189/3/4 193/3/4
f 193/3/4 189/3/4 194/3/4
f 190/3/4 191/3/4 195/3/4
f 191/5/4 192/5/4 196/5/4
f 195/3/4 191/3/4 196/3/4
f 196/5/4 192/5/4 197/5/4
f 197/5/4 192/5/4 198/5/4
f 198/5/4 192/5/4 199/5/4
f 199/5/4 192/5/4 200/5/4
f 201/5/4 202/5/4 205/5/4
f 205/5/4 202/5/4 206/5/4
f 203/5/4 204/5/4 207/5/4
f 207/5/4 204/5/4 208/5/4
f 209/1/4 210/1/4 213/1/4
f 213/1/4 210/1/4 214/1/4
f 211/3/4 212/3/4 215/3/4
f 215/3/4 212/3/4 216/3/4
f 217/3/4 218/3/4 219/3/4
f 219/3/4 218/3/4 220/3/4
f 220/3/4 221/3/4 224/3/4
f 221/1/4 222/1/4 225/1/4
f 224/3/4 221/3/4 225/3/4
f 222/3/4 223/3/4 226/3/4
f 225/1/4 222/1/4 226/1/4
f 226/3/4 223/3/4 227/3/4
f 228/4/4 229/4/4 231/4/4
f 231/4/4 229/4/4 232/4/4
f 229/6/4 230/6/4 233/6/4
f 232/4/4 229/4/4 233/4/4
f 231/2/4 232/2/4 234/2/4
f 232/6/4 233/6/4 235/6/4
f 234/2/4 232/2/4 235/2/4
f 233/6/4 230/6/4 236/6/4
f 235/6/4 233/6/4 236/6/4
f 234/4/4 235/4/4 237/4/4
f 235/4/4 236/4/4 237/4/4
f 236/6/4 230/6/4 238/6/4
f 237/4/4 236/4/4 238/4/4
f 238/6/4 230/6/4 239/6/4
f 239/6/4 230/6/4 240/6/4
f 241/5/4 242/5/4 243/5/4
f 243/5/4 242/5/4 244/5/4
f 249/3/5 246/3/5 245/3/5
f 250/3/5 246/3/5 249/3/5
f 251/3/5 248/3/5 247/3/5
f 252/3/5 248/3/5 251/3/5
f 255/3/5 254/3/5 253/3/5
f 256/3/5 254/3/5 255/3/5
f 260/4/5 257/4/5 256/4/5
f 261/2/5 258/2/5 257/2/5
f 261/4/5 257/4/5 260/4/5
f 262/4/5 259/4/5 258/4/5
f 262/2/5 258/2/5 261/2/5
f 263/4/5 259/4/5 262/4/5
f 266/2/5 262/2/5 261/2/5
f 267/2/5 262/2/5 266/2/5
f 268/3/5 264/3/5 263/3/5
f 269/3/5 264/3/5 268/3/5
f 270/4/5 266/4/5 265/4/5
f 271/2/5 267/2/5 266/2/5
f 271/4/5 266/4/5 270/4/5
f 272/4/5 268/4/5 267/4/5
f 272/2/5 267/2/5 271/2/5
f 273/4/5 268/4/5 272/4/5
f 276/1/5 275/1/5 274/1/5
f 277/1/5 275/1/5 276/1/5
f 280/5/5 279/5/5 278/5/5
f 281/5/5 279/5/5 280/5/5
f 284/5/5 283/5/5 282/5/5
f 285/5/5 283/5/5 284/5/5
f 288/5/5 287/5/5 286/5/5
f 289/5/5 287/5/5 288/5/5
f 292/5/5 291/5/5 290/5/5
f 293/5/5 291/5/5 292/5/5
f 296/5/5 295/5/5 294/5/5
f 297/5/5 295/5/5 296/5/5
f 298/5/5 295/5/5 297/5/5
f 299/1/6 300/1/6 301/1/6
f 301/1/6 300/1/6 302/1/6
f 303/5/6 304/5/6 305/5/6
f 305/5/6 304/5/6 306/5/6
f 307/6/6 308/6/6 309/6/6
f 307/6/6 309/6/6 310/6/6
f 307/6/6 310/6/6 311/6/6
f 311/6/6 310/6/6 312/6/6
f 313/5/6 314/5/6 317/5/6
f 317/5/6 314/5/6 318/5/6
f 315/5/6 316/5/6 319/5/6
f 319/5/6 316/5/6 320/5/6
f 321/5/6 322/5/6 323/5/6
f 323/5/6 322/5/6 324/5/6
f 323/3/6 324/3/6 325/3/6
f 325/3/6 324/3/6 326/3/6
f 325/5/6 326/5/6 327/5/6
f 327/5/6 326/5/6 328/5/6
f 329/5/6 330/5/6 331/5/6
f 331/5/6 330/5/6 332/5/6
