# MagicaVoxel @ Ephtracy

# group
o 

# material
mtllib AssassinTower2.mtl
usemtl palette

# normals
vn -1 0 0
vn 1 0 0
vn 0 0 1
vn 0 0 -1
vn 0 -1 0
vn 0 1 0

# texcoords
vt 0.533203 0.5
vt 0.634766 0.5
vt 0.974609 0.5

# verts
v -1 0 1
v -1 0 -1
v -1 0.1 1
v -1 0.1 -1
v -1 1.2 0.2
v -1 1.2 0.1
v -1 1.2 -0.1
v -1 1.2 -0.2
v -1 1.3 0.1
v -1 1.3 -0.1
v -1 1.5 0.2
v -1 1.5 -0.2
v -1 1.6 1
v -1 1.6 0.2
v -1 1.6 -0.2
v -1 1.6 -1
v -1 1.7 0.7
v -1 1.7 0.3
v -1 1.7 -0.3
v -1 1.7 -0.7
v -1 1.8 1
v -1 1.8 0.7
v -1 1.8 0.3
v -1 1.8 -0.3
v -1 1.8 -0.7
v -1 1.8 -1
v -0.9 0.1 0.9
v -0.9 0.1 -0.9
v -0.9 1.1 0.7
v -0.9 1.1 0.5
v -0.9 1.1 -0.5
v -0.9 1.1 -0.7
v -0.9 1.2 0.2
v -0.9 1.2 0.1
v -0.9 1.2 -0.1
v -0.9 1.2 -0.2
v -0.9 1.3 0.7
v -0.9 1.3 0.5
v -0.9 1.3 0.1
v -0.9 1.3 -0.1
v -0.9 1.3 -0.5
v -0.9 1.3 -0.7
v -0.9 1.5 0.2
v -0.9 1.5 -0.2
v -0.9 1.6 0.9
v -0.9 1.6 0.2
v -0.9 1.6 -0.2
v -0.9 1.6 -0.9
v -0.8 1.1 0.7
v -0.8 1.1 0.5
v -0.8 1.1 -0.5
v -0.8 1.1 -0.7
v -0.8 1.3 0.7
v -0.8 1.3 0.5
v -0.8 1.3 -0.5
v -0.8 1.3 -0.7
v -0.5 1.1 0.9
v -0.5 1.1 0.8
v -0.5 1.1 -0.8
v -0.5 1.1 -0.9
v -0.5 1.3 0.9
v -0.5 1.3 0.8
v -0.5 1.3 -0.8
v -0.5 1.3 -0.9
v -0.4 0.1 -0.9
v -0.4 0.1 -1
v -0.4 0.7 -0.9
v -0.4 0.7 -1
v -0.3 1.7 1
v -0.3 1.7 0.9
v -0.3 1.7 -0.9
v -0.3 1.7 -1
v -0.3 1.8 1
v -0.3 1.8 0.9
v -0.3 1.8 -0.9
v -0.3 1.8 -1
v -0.2 1.2 1
v -0.2 1.2 0.9
v -0.2 1.2 -0.9
v -0.2 1.2 -1
v -0.2 1.5 1
v -0.2 1.5 0.9
v -0.2 1.5 -0.9
v -0.2 1.5 -1
v -0.2 1.6 1
v -0.2 1.6 0.9
v -0.2 1.6 -0.9
v -0.2 1.6 -1
v 0.1 1.2 1
v 0.1 1.2 0.9
v 0.1 1.2 -0.9
v 0.1 1.2 -1
v 0.1 1.3 1
v 0.1 1.3 0.9
v 0.1 1.3 -0.9
v 0.1 1.3 -1
v 0.2 0.5 -0.9
v 0.2 0.5 -1
v 0.2 0.6 -0.9
v 0.2 0.6 -1
v 0.3 0 -0.9
v 0.3 0 -1
v 0.3 0.5 -0.9
v 0.3 0.5 -1
v 0.7 1.1 0.9
v 0.7 1.1 0.8
v 0.7 1.1 -0.8
v 0.7 1.1 -0.9
v 0.7 1.3 0.9
v 0.7 1.3 0.8
v 0.7 1.3 -0.8
v 0.7 1.3 -0.9
v 0.7 1.6 0.9
v 0.7 1.6 0.7
v 0.7 1.6 -0.7
v 0.7 1.6 -0.9
v 0.7 1.7 1
v 0.7 1.7 0.9
v 0.7 1.7 -0.9
v 0.7 1.7 -1
v 0.7 1.8 1
v 0.7 1.8 0.7
v 0.7 1.8 -0.7
v 0.7 1.8 -1
v 0.9 1.6 0.7
v 0.9 1.6 -0.7
v 0.9 1.7 0.7
v 0.9 1.7 0.3
v 0.9 1.7 -0.3
v 0.9 1.7 -0.7
v 0.9 1.8 0.3
v 0.9 1.8 -0.3
v -0.9 1.6 0.7
v -0.9 1.6 -0.7
v -0.9 1.7 0.7
v -0.9 1.7 0.3
v -0.9 1.7 -0.3
v -0.9 1.7 -0.7
v -0.9 1.8 0.3
v -0.9 1.8 -0.3
v -0.7 1.1 0.9
v -0.7 1.1 0.8
v -0.7 1.1 -0.8
v -0.7 1.1 -0.9
v -0.7 1.3 0.9
v -0.7 1.3 0.8
v -0.7 1.3 -0.8
v -0.7 1.3 -0.9
v -0.7 1.6 0.9
v -0.7 1.6 0.7
v -0.7 1.6 -0.7
v -0.7 1.6 -0.9
v -0.7 1.7 1
v -0.7 1.7 0.9
v -0.7 1.7 -0.9
v -0.7 1.7 -1
v -0.7 1.8 1
v -0.7 1.8 0.7
v -0.7 1.8 -0.7
v -0.7 1.8 -1
v -0.3 0 -0.9
v -0.3 0 -1
v -0.3 0.5 -0.9
v -0.3 0.5 -1
v -0.2 0.5 -0.9
v -0.2 0.5 -1
v -0.2 0.6 -0.9
v -0.2 0.6 -1
v -0.1 1.2 1
v -0.1 1.2 0.9
v -0.1 1.2 -0.9
v -0.1 1.2 -1
v -0.1 1.3 1
v -0.1 1.3 0.9
v -0.1 1.3 -0.9
v -0.1 1.3 -1
v 0.2 1.2 1
v 0.2 1.2 0.9
v 0.2 1.2 -0.9
v 0.2 1.2 -1
v 0.2 1.5 1
v 0.2 1.5 0.9
v 0.2 1.5 -0.9
v 0.2 1.5 -1
v 0.2 1.6 1
v 0.2 1.6 0.9
v 0.2 1.6 -0.9
v 0.2 1.6 -1
v 0.3 1.7 1
v 0.3 1.7 0.9
v 0.3 1.7 -0.9
v 0.3 1.7 -1
v 0.3 1.8 1
v 0.3 1.8 0.9
v 0.3 1.8 -0.9
v 0.3 1.8 -1
v 0.4 0.1 -0.9
v 0.4 0.1 -1
v 0.4 0.7 -0.9
v 0.4 0.7 -1
v 0.5 1.1 0.9
v 0.5 1.1 0.8
v 0.5 1.1 -0.8
v 0.5 1.1 -0.9
v 0.5 1.3 0.9
v 0.5 1.3 0.8
v 0.5 1.3 -0.8
v 0.5 1.3 -0.9
v 0.8 1.1 0.7
v 0.8 1.1 0.5
v 0.8 1.1 -0.5
v 0.8 1.1 -0.7
v 0.8 1.3 0.7
v 0.8 1.3 0.5
v 0.8 1.3 -0.5
v 0.8 1.3 -0.7
v 0.9 0.1 0.9
v 0.9 0.1 -0.9
v 0.9 1.1 0.7
v 0.9 1.1 0.5
v 0.9 1.1 -0.5
v 0.9 1.1 -0.7
v 0.9 1.2 0.2
v 0.9 1.2 0.1
v 0.9 1.2 -0.1
v 0.9 1.2 -0.2
v 0.9 1.3 0.7
v 0.9 1.3 0.5
v 0.9 1.3 0.1
v 0.9 1.3 -0.1
v 0.9 1.3 -0.5
v 0.9 1.3 -0.7
v 0.9 1.5 0.2
v 0.9 1.5 -0.2
v 0.9 1.6 0.9
v 0.9 1.6 0.2
v 0.9 1.6 -0.2
v 0.9 1.6 -0.9
v 1 0 1
v 1 0 -1
v 1 0.1 1
v 1 0.1 -1
v 1 1.2 0.2
v 1 1.2 0.1
v 1 1.2 -0.1
v 1 1.2 -0.2
v 1 1.3 0.1
v 1 1.3 -0.1
v 1 1.5 0.2
v 1 1.5 -0.2
v 1 1.6 1
v 1 1.6 0.2
v 1 1.6 -0.2
v 1 1.6 -1
v 1 1.7 0.7
v 1 1.7 0.3
v 1 1.7 -0.3
v 1 1.7 -0.7
v 1 1.8 1
v 1 1.8 0.7
v 1 1.8 0.3
v 1 1.8 -0.3
v 1 1.8 -0.7
v 1 1.8 -1
v -1 0 1
v -1 0.1 1
v -1 1.6 1
v -1 1.8 1
v -0.7 1.7 1
v -0.7 1.8 1
v -0.3 1.7 1
v -0.3 1.8 1
v -0.2 1.2 1
v -0.2 1.5 1
v -0.2 1.6 1
v -0.1 1.2 1
v -0.1 1.3 1
v 0.1 1.2 1
v 0.1 1.3 1
v 0.2 1.2 1
v 0.2 1.5 1
v 0.2 1.6 1
v 0.3 1.7 1
v 0.3 1.8 1
v 0.7 1.7 1
v 0.7 1.8 1
v 1 0 1
v 1 0.1 1
v 1 1.6 1
v 1 1.8 1
v -0.9 0.1 0.9
v -0.9 1.6 0.9
v -0.7 1.1 0.9
v -0.7 1.3 0.9
v -0.5 1.1 0.9
v -0.5 1.3 0.9
v -0.2 1.2 0.9
v -0.2 1.5 0.9
v -0.2 1.6 0.9
v -0.1 1.2 0.9
v -0.1 1.3 0.9
v 0.1 1.2 0.9
v 0.1 1.3 0.9
v 0.2 1.2 0.9
v 0.2 1.5 0.9
v 0.2 1.6 0.9
v 0.5 1.1 0.9
v 0.5 1.3 0.9
v 0.7 1.1 0.9
v 0.7 1.3 0.9
v 0.9 0.1 0.9
v 0.9 1.6 0.9
v -0.7 1.1 0.8
v -0.7 1.3 0.8
v -0.5 1.1 0.8
v -0.5 1.3 0.8
v 0.5 1.1 0.8
v 0.5 1.3 0.8
v 0.7 1.1 0.8
v 0.7 1.3 0.8
v -0.9 1.1 0.5
v -0.9 1.3 0.5
v -0.8 1.1 0.5
v -0.8 1.3 0.5
v 0.8 1.1 0.5
v 0.8 1.3 0.5
v 0.9 1.1 0.5
v 0.9 1.3 0.5
v -1 1.7 0.3
v -1 1.8 0.3
v -0.9 1.7 0.3
v -0.9 1.8 0.3
v 0.9 1.7 0.3
v 0.9 1.8 0.3
v 1 1.7 0.3
v 1 1.8 0.3
v -1 1.2 0.2
v -1 1.5 0.2
v -1 1.6 0.2
v -0.9 1.2 0.2
v -0.9 1.5 0.2
v -0.9 1.6 0.2
v 0.9 1.2 0.2
v 0.9 1.5 0.2
v 0.9 1.6 0.2
v 1 1.2 0.2
v 1 1.5 0.2
v 1 1.6 0.2
v -1 1.2 -0.1
v -1 1.3 -0.1
v -0.9 1.2 -0.1
v -0.9 1.3 -0.1
v 0.9 1.2 -0.1
v 0.9 1.3 -0.1
v 1 1.2 -0.1
v 1 1.3 -0.1
v -1 1.7 -0.7
v -1 1.8 -0.7
v -0.9 1.1 -0.7
v -0.9 1.3 -0.7
v -0.9 1.6 -0.7
v -0.9 1.7 -0.7
v -0.8 1.1 -0.7
v -0.8 1.3 -0.7
v -0.7 1.6 -0.7
v -0.7 1.8 -0.7
v 0.7 1.6 -0.7
v 0.7 1.8 -0.7
v 0.8 1.1 -0.7
v 0.8 1.3 -0.7
v 0.9 1.1 -0.7
v 0.9 1.3 -0.7
v 0.9 1.6 -0.7
v 0.9 1.7 -0.7
v 1 1.7 -0.7
v 1 1.8 -0.7
v -0.7 1.6 -0.9
v -0.7 1.7 -0.9
v -0.3 1.7 -0.9
v -0.3 1.8 -0.9
v 0.3 1.7 -0.9
v 0.3 1.8 -0.9
v 0.7 1.6 -0.9
v 0.7 1.7 -0.9
v -0.7 1.6 0.9
v -0.7 1.7 0.9
v -0.3 1.7 0.9
v -0.3 1.8 0.9
v 0.3 1.7 0.9
v 0.3 1.8 0.9
v 0.7 1.6 0.9
v 0.7 1.7 0.9
v -1 1.7 0.7
v -1 1.8 0.7
v -0.9 1.1 0.7
v -0.9 1.3 0.7
v -0.9 1.6 0.7
v -0.9 1.7 0.7
v -0.8 1.1 0.7
v -0.8 1.3 0.7
v -0.7 1.6 0.7
v -0.7 1.8 0.7
v 0.7 1.6 0.7
v 0.7 1.8 0.7
v 0.8 1.1 0.7
v 0.8 1.3 0.7
v 0.9 1.1 0.7
v 0.9 1.3 0.7
v 0.9 1.6 0.7
v 0.9 1.7 0.7
v 1 1.7 0.7
v 1 1.8 0.7
v -1 1.2 0.1
v -1 1.3 0.1
v -0.9 1.2 0.1
v -0.9 1.3 0.1
v 0.9 1.2 0.1
v 0.9 1.3 0.1
v 1 1.2 0.1
v 1 1.3 0.1
v -1 1.2 -0.2
v -1 1.5 -0.2
v -1 1.6 -0.2
v -0.9 1.2 -0.2
v -0.9 1.5 -0.2
v -0.9 1.6 -0.2
v 0.9 1.2 -0.2
v 0.9 1.5 -0.2
v 0.9 1.6 -0.2
v 1 1.2 -0.2
v 1 1.5 -0.2
v 1 1.6 -0.2
v -1 1.7 -0.3
v -1 1.8 -0.3
v -0.9 1.7 -0.3
v -0.9 1.8 -0.3
v 0.9 1.7 -0.3
v 0.9 1.8 -0.3
v 1 1.7 -0.3
v 1 1.8 -0.3
v -0.9 1.1 -0.5
v -0.9 1.3 -0.5
v -0.8 1.1 -0.5
v -0.8 1.3 -0.5
v 0.8 1.1 -0.5
v 0.8 1.3 -0.5
v 0.9 1.1 -0.5
v 0.9 1.3 -0.5
v -0.7 1.1 -0.8
v -0.7 1.3 -0.8
v -0.5 1.1 -0.8
v -0.5 1.3 -0.8
v 0.5 1.1 -0.8
v 0.5 1.3 -0.8
v 0.7 1.1 -0.8
v 0.7 1.3 -0.8
v -0.9 0.1 -0.9
v -0.9 1.6 -0.9
v -0.7 1.1 -0.9
v -0.7 1.3 -0.9
v -0.5 1.1 -0.9
v -0.5 1.3 -0.9
v -0.4 0.1 -0.9
v -0.4 0.7 -0.9
v -0.3 0 -0.9
v -0.3 0.5 -0.9
v -0.2 0.5 -0.9
v -0.2 0.6 -0.9
v -0.2 1.2 -0.9
v -0.2 1.5 -0.9
v -0.2 1.6 -0.9
v -0.1 1.2 -0.9
v -0.1 1.3 -0.9
v 0.1 1.2 -0.9
v 0.1 1.3 -0.9
v 0.2 0.5 -0.9
v 0.2 0.6 -0.9
v 0.2 1.2 -0.9
v 0.2 1.5 -0.9
v 0.2 1.6 -0.9
v 0.3 0 -0.9
v 0.3 0.5 -0.9
v 0.4 0.1 -0.9
v 0.4 0.7 -0.9
v 0.5 1.1 -0.9
v 0.5 1.3 -0.9
v 0.7 1.1 -0.9
v 0.7 1.3 -0.9
v 0.9 0.1 -0.9
v 0.9 1.6 -0.9
v -1 0 -1
v -1 0.1 -1
v -1 1.6 -1
v -1 1.8 -1
v -0.7 1.7 -1
v -0.7 1.8 -1
v -0.4 0.1 -1
v -0.4 0.7 -1
v -0.3 0 -1
v -0.3 0.5 -1
v -0.3 1.7 -1
v -0.3 1.8 -1
v -0.2 0.5 -1
v -0.2 0.6 -1
v -0.2 1.2 -1
v -0.2 1.5 -1
v -0.2 1.6 -1
v -0.1 1.2 -1
v -0.1 1.3 -1
v 0.1 1.2 -1
v 0.1 1.3 -1
v 0.2 0.5 -1
v 0.2 0.6 -1
v 0.2 1.2 -1
v 0.2 1.5 -1
v 0.2 1.6 -1
v 0.3 0 -1
v 0.3 0.5 -1
v 0.3 1.7 -1
v 0.3 1.8 -1
v 0.4 0.1 -1
v 0.4 0.7 -1
v 0.7 1.7 -1
v 0.7 1.8 -1
v 1 0 -1
v 1 0.1 -1
v 1 1.6 -1
v 1 1.8 -1
v -1 0 1
v 1 0 1
v -0.3 0 -0.8
v 0.3 0 -0.8
v -0.3 0 -0.9
v 0.3 0 -0.9
v -1 0 -1
v -0.3 0 -1
v 0.3 0 -1
v 1 0 -1
v -0.3 0.5 -0.9
v -0.2 0.5 -0.9
v 0.2 0.5 -0.9
v 0.3 0.5 -0.9
v -0.3 0.5 -1
v -0.2 0.5 -1
v 0.2 0.5 -1
v 0.3 0.5 -1
v -0.2 0.6 -0.9
v 0.2 0.6 -0.9
v -0.2 0.6 -1
v 0.2 0.6 -1
v -0.2 1.2 1
v -0.1 1.2 1
v 0.1 1.2 1
v 0.2 1.2 1
v -0.2 1.2 0.9
v -0.1 1.2 0.9
v 0.1 1.2 0.9
v 0.2 1.2 0.9
v -1 1.2 0.2
v -0.9 1.2 0.2
v 0.9 1.2 0.2
v 1 1.2 0.2
v -1 1.2 0.1
v -0.9 1.2 0.1
v 0.9 1.2 0.1
v 1 1.2 0.1
v -1 1.2 -0.1
v -0.9 1.2 -0.1
v 0.9 1.2 -0.1
v 1 1.2 -0.1
v -1 1.2 -0.2
v -0.9 1.2 -0.2
v 0.9 1.2 -0.2
v 1 1.2 -0.2
v -0.2 1.2 -0.9
v -0.1 1.2 -0.9
v 0.1 1.2 -0.9
v 0.2 1.2 -0.9
v -0.2 1.2 -1
v -0.1 1.2 -1
v 0.1 1.2 -1
v 0.2 1.2 -1
v -0.1 1.3 1
v 0.1 1.3 1
v -0.7 1.3 0.9
v -0.5 1.3 0.9
v -0.1 1.3 0.9
v 0.1 1.3 0.9
v 0.5 1.3 0.9
v 0.7 1.3 0.9
v -0.7 1.3 0.8
v -0.5 1.3 0.8
v 0.5 1.3 0.8
v 0.7 1.3 0.8
v -0.9 1.3 0.7
v -0.8 1.3 0.7
v 0.8 1.3 0.7
v 0.9 1.3 0.7
v -0.9 1.3 0.5
v -0.8 1.3 0.5
v 0.8 1.3 0.5
v 0.9 1.3 0.5
v -1 1.3 0.1
v -0.9 1.3 0.1
v 0.9 1.3 0.1
v 1 1.3 0.1
v -1 1.3 -0.1
v -0.9 1.3 -0.1
v 0.9 1.3 -0.1
v 1 1.3 -0.1
v -0.9 1.3 -0.5
v -0.8 1.3 -0.5
v 0.8 1.3 -0.5
v 0.9 1.3 -0.5
v -0.9 1.3 -0.7
v -0.8 1.3 -0.7
v 0.8 1.3 -0.7
v 0.9 1.3 -0.7
v -0.7 1.3 -0.8
v -0.5 1.3 -0.8
v 0.5 1.3 -0.8
v 0.7 1.3 -0.8
v -0.7 1.3 -0.9
v -0.5 1.3 -0.9
v -0.1 1.3 -0.9
v 0.1 1.3 -0.9
v 0.5 1.3 -0.9
v 0.7 1.3 -0.9
v -0.1 1.3 -1
v 0.1 1.3 -1
v -1 1.6 1
v -0.2 1.6 1
v 0.2 1.6 1
v 1 1.6 1
v -0.9 1.6 0.9
v -0.2 1.6 0.9
v 0.2 1.6 0.9
v 0.9 1.6 0.9
v -1 1.6 0.2
v -0.9 1.6 0.2
v 0.9 1.6 0.2
v 1 1.6 0.2
v -1 1.6 -0.2
v -0.9 1.6 -0.2
v 0.9 1.6 -0.2
v 1 1.6 -0.2
v -0.9 1.6 -0.9
v -0.2 1.6 -0.9
v 0.2 1.6 -0.9
v 0.9 1.6 -0.9
v -1 1.6 -1
v -0.2 1.6 -1
v 0.2 1.6 -1
v 1 1.6 -1
v -1 0.1 1
v 1 0.1 1
v -0.9 0.1 0.9
v 0.9 0.1 0.9
v -0.9 0.1 -0.9
v -0.4 0.1 -0.9
v 0.4 0.1 -0.9
v 0.9 0.1 -0.9
v -1 0.1 -1
v -0.4 0.1 -1
v 0.4 0.1 -1
v 1 0.1 -1
v -0.4 0.7 -0.9
v 0.4 0.7 -0.9
v -0.4 0.7 -1
v 0.4 0.7 -1
v -0.7 1.1 0.9
v -0.5 1.1 0.9
v 0.5 1.1 0.9
v 0.7 1.1 0.9
v -0.7 1.1 0.8
v -0.5 1.1 0.8
v 0.5 1.1 0.8
v 0.7 1.1 0.8
v -0.9 1.1 0.7
v -0.8 1.1 0.7
v 0.8 1.1 0.7
v 0.9 1.1 0.7
v -0.9 1.1 0.5
v -0.8 1.1 0.5
v 0.8 1.1 0.5
v 0.9 1.1 0.5
v -0.9 1.1 -0.5
v -0.8 1.1 -0.5
v 0.8 1.1 -0.5
v 0.9 1.1 -0.5
v -0.9 1.1 -0.7
v -0.8 1.1 -0.7
v 0.8 1.1 -0.7
v 0.9 1.1 -0.7
v -0.7 1.1 -0.8
v -0.5 1.1 -0.8
v 0.5 1.1 -0.8
v 0.7 1.1 -0.8
v -0.7 1.1 -0.9
v -0.5 1.1 -0.9
v 0.5 1.1 -0.9
v 0.7 1.1 -0.9
v -0.7 1.6 0.9
v 0.7 1.6 0.9
v -0.9 1.6 0.7
v -0.7 1.6 0.7
v 0.7 1.6 0.7
v 0.9 1.6 0.7
v -0.9 1.6 -0.7
v -0.7 1.6 -0.7
v 0.7 1.6 -0.7
v 0.9 1.6 -0.7
v -0.7 1.6 -0.9
v 0.7 1.6 -0.9
v -0.7 1.7 1
v -0.3 1.7 1
v 0.3 1.7 1
v 0.7 1.7 1
v -0.7 1.7 0.9
v -0.3 1.7 0.9
v 0.3 1.7 0.9
v 0.7 1.7 0.9
v -1 1.7 0.7
v -0.9 1.7 0.7
v 0.9 1.7 0.7
v 1 1.7 0.7
v -1 1.7 0.3
v -0.9 1.7 0.3
v 0.9 1.7 0.3
v 1 1.7 0.3
v -1 1.7 -0.3
v -0.9 1.7 -0.3
v 0.9 1.7 -0.3
v 1 1.7 -0.3
v -1 1.7 -0.7
v -0.9 1.7 -0.7
v 0.9 1.7 -0.7
v 1 1.7 -0.7
v -0.7 1.7 -0.9
v -0.3 1.7 -0.9
v 0.3 1.7 -0.9
v 0.7 1.7 -0.9
v -0.7 1.7 -1
v -0.3 1.7 -1
v 0.3 1.7 -1
v 0.7 1.7 -1
v -1 1.8 1
v -0.7 1.8 1
v -0.3 1.8 1
v 0.3 1.8 1
v 0.7 1.8 1
v 1 1.8 1
v -0.3 1.8 0.9
v 0.3 1.8 0.9
v -1 1.8 0.7
v -0.7 1.8 0.7
v 0.7 1.8 0.7
v 1 1.8 0.7
v -1 1.8 0.3
v -0.9 1.8 0.3
v 0.9 1.8 0.3
v 1 1.8 0.3
v -1 1.8 -0.3
v -0.9 1.8 -0.3
v 0.9 1.8 -0.3
v 1 1.8 -0.3
v -1 1.8 -0.7
v -0.7 1.8 -0.7
v 0.7 1.8 -0.7
v 1 1.8 -0.7
v -0.3 1.8 -0.9
v 0.3 1.8 -0.9
v -1 1.8 -1
v -0.7 1.8 -1
v -0.3 1.8 -1
v 0.3 1.8 -1
v 0.7 1.8 -1
v 1 1.8 -1

# faces
f 3/3/1 2/3/1 1/3/1
f 4/3/1 2/3/1 3/3/1
f 9/2/1 6/2/1 5/2/1
f 10/2/1 8/2/1 7/2/1
f 11/2/1 9/2/1 5/2/1
f 11/2/1 10/2/1 9/2/1
f 12/2/1 8/2/1 10/2/1
f 12/2/1 10/2/1 11/2/1
f 14/1/1 12/1/1 11/1/1
f 15/1/1 12/1/1 14/1/1
f 17/3/1 15/3/1 14/3/1
f 17/3/1 16/3/1 15/3/1
f 17/3/1 14/3/1 13/3/1
f 18/3/1 16/3/1 17/3/1
f 19/3/1 16/3/1 18/3/1
f 20/3/1 16/3/1 19/3/1
f 21/3/1 17/3/1 13/3/1
f 22/3/1 17/3/1 21/3/1
f 23/3/1 19/3/1 18/3/1
f 24/3/1 19/3/1 23/3/1
f 25/3/1 16/3/1 20/3/1
f 26/3/1 16/3/1 25/3/1
f 29/3/1 28/3/1 27/3/1
f 30/3/1 28/3/1 29/3/1
f 31/3/1 28/3/1 30/3/1
f 32/3/1 28/3/1 31/3/1
f 33/3/1 31/3/1 30/3/1
f 34/3/1 31/3/1 33/3/1
f 35/3/1 31/3/1 34/3/1
f 36/3/1 31/3/1 35/3/1
f 37/3/1 29/3/1 27/3/1
f 38/3/1 33/3/1 30/3/1
f 39/3/1 35/3/1 34/3/1
f 40/3/1 35/3/1 39/3/1
f 41/3/1 31/3/1 36/3/1
f 42/3/1 28/3/1 32/3/1
f 43/3/1 38/3/1 37/3/1
f 43/3/1 33/3/1 38/3/1
f 44/3/1 42/3/1 41/3/1
f 44/3/1 41/3/1 36/3/1
f 45/3/1 43/3/1 37/3/1
f 45/3/1 37/3/1 27/3/1
f 46/3/1 43/3/1 45/3/1
f 47/3/1 42/3/1 44/3/1
f 48/3/1 28/3/1 42/3/1
f 48/3/1 42/3/1 47/3/1
f 53/3/1 50/3/1 49/3/1
f 54/3/1 50/3/1 53/3/1
f 55/3/1 52/3/1 51/3/1
f 56/3/1 52/3/1 55/3/1
f 61/3/1 58/3/1 57/3/1
f 62/3/1 58/3/1 61/3/1
f 63/3/1 60/3/1 59/3/1
f 64/3/1 60/3/1 63/3/1
f 67/3/1 66/3/1 65/3/1
f 68/3/1 66/3/1 67/3/1
f 73/3/1 70/3/1 69/3/1
f 74/3/1 70/3/1 73/3/1
f 75/3/1 72/3/1 71/3/1
f 76/3/1 72/3/1 75/3/1
f 81/2/1 78/2/1 77/2/1
f 82/2/1 78/2/1 81/2/1
f 83/2/1 80/2/1 79/2/1
f 84/2/1 80/2/1 83/2/1
f 85/1/1 82/1/1 81/1/1
f 86/1/1 82/1/1 85/1/1
f 87/1/1 84/1/1 83/1/1
f 88/1/1 84/1/1 87/1/1
f 93/2/1 90/2/1 89/2/1
f 94/2/1 90/2/1 93/2/1
f 95/2/1 92/2/1 91/2/1
f 96/2/1 92/2/1 95/2/1
f 99/3/1 98/3/1 97/3/1
f 100/3/1 98/3/1 99/3/1
f 103/3/1 102/3/1 101/3/1
f 104/3/1 102/3/1 103/3/1
f 109/3/1 106/3/1 105/3/1
f 110/3/1 106/3/1 109/3/1
f 111/3/1 108/3/1 107/3/1
f 112/3/1 108/3/1 111/3/1
f 118/3/1 114/3/1 113/3/1
f 119/3/1 116/3/1 115/3/1
f 121/3/1 118/3/1 117/3/1
f 122/3/1 114/3/1 118/3/1
f 122/3/1 118/3/1 121/3/1
f 123/3/1 119/3/1 115/3/1
f 123/3/1 120/3/1 119/3/1
f 124/3/1 120/3/1 123/3/1
f 127/3/1 126/3/1 125/3/1
f 128/3/1 126/3/1 127/3/1
f 129/3/1 126/3/1 128/3/1
f 130/3/1 126/3/1 129/3/1
f 131/3/1 129/3/1 128/3/1
f 132/3/1 129/3/1 131/3/1
f 133/3/2 134/3/2 135/3/2
f 135/3/2 134/3/2 136/3/2
f 136/3/2 134/3/2 137/3/2
f 137/3/2 134/3/2 138/3/2
f 136/3/2 137/3/2 139/3/2
f 139/3/2 137/3/2 140/3/2
f 141/3/2 142/3/2 145/3/2
f 145/3/2 142/3/2 146/3/2
f 143/3/2 144/3/2 147/3/2
f 147/3/2 144/3/2 148/3/2
f 149/3/2 150/3/2 154/3/2
f 151/3/2 152/3/2 155/3/2
f 153/3/2 154/3/2 157/3/2
f 154/3/2 150/3/2 158/3/2
f 157/3/2 154/3/2 158/3/2
f 151/3/2 155/3/2 159/3/2
f 155/3/2 156/3/2 159/3/2
f 159/3/2 156/3/2 160/3/2
f 161/3/2 162/3/2 163/3/2
f 163/3/2 162/3/2 164/3/2
f 165/3/2 166/3/2 167/3/2
f 167/3/2 166/3/2 168/3/2
f 169/2/2 170/2/2 173/2/2
f 173/2/2 170/2/2 174/2/2
f 171/2/2 172/2/2 175/2/2
f 175/2/2 172/2/2 176/2/2
f 177/2/2 178/2/2 181/2/2
f 181/2/2 178/2/2 182/2/2
f 179/2/2 180/2/2 183/2/2
f 183/2/2 180/2/2 184/2/2
f 181/1/2 182/1/2 185/1/2
f 185/1/2 182/1/2 186/1/2
f 183/1/2 184/1/2 187/1/2
f 187/1/2 184/1/2 188/1/2
f 189/3/2 190/3/2 193/3/2
f 193/3/2 190/3/2 194/3/2
f 191/3/2 192/3/2 195/3/2
f 195/3/2 192/3/2 196/3/2
f 197/3/2 198/3/2 199/3/2
f 199/3/2 198/3/2 200/3/2
f 201/3/2 202/3/2 205/3/2
f 205/3/2 202/3/2 206/3/2
f 203/3/2 204/3/2 207/3/2
f 207/3/2 204/3/2 208/3/2
f 209/3/2 210/3/2 213/3/2
f 213/3/2 210/3/2 214/3/2
f 211/3/2 212/3/2 215/3/2
f 215/3/2 212/3/2 216/3/2
f 217/3/2 218/3/2 219/3/2
f 219/3/2 218/3/2 220/3/2
f 220/3/2 218/3/2 221/3/2
f 221/3/2 218/3/2 222/3/2
f 220/3/2 221/3/2 223/3/2
f 223/3/2 221/3/2 224/3/2
f 224/3/2 221/3/2 225/3/2
f 225/3/2 221/3/2 226/3/2
f 217/3/2 219/3/2 227/3/2
f 220/3/2 223/3/2 228/3/2
f 224/3/2 225/3/2 229/3/2
f 229/3/2 225/3/2 230/3/2
f 226/3/2 221/3/2 231/3/2
f 222/3/2 218/3/2 232/3/2
f 227/3/2 228/3/2 233/3/2
f 228/3/2 223/3/2 233/3/2
f 231/3/2 232/3/2 234/3/2
f 226/3/2 231/3/2 234/3/2
f 227/3/2 233/3/2 235/3/2
f 217/3/2 227/3/2 235/3/2
f 235/3/2 233/3/2 236/3/2
f 234/3/2 232/3/2 237/3/2
f 232/3/2 218/3/2 238/3/2
f 237/3/2 232/3/2 238/3/2
f 239/3/2 240/3/2 241/3/2
f 241/3/2 240/3/2 242/3/2
f 243/2/2 244/2/2 247/2/2
f 245/2/2 246/2/2 248/2/2
f 243/2/2 247/2/2 249/2/2
f 247/2/2 248/2/2 249/2/2
f 248/2/2 246/2/2 250/2/2
f 249/2/2 248/2/2 250/2/2
f 249/1/2 250/1/2 252/1/2
f 252/1/2 250/1/2 253/1/2
f 252/3/2 253/3/2 255/3/2
f 253/3/2 254/3/2 255/3/2
f 251/3/2 252/3/2 255/3/2
f 255/3/2 254/3/2 256/3/2
f 256/3/2 254/3/2 257/3/2
f 257/3/2 254/3/2 258/3/2
f 251/3/2 255/3/2 259/3/2
f 259/3/2 255/3/2 260/3/2
f 256/3/2 257/3/2 261/3/2
f 261/3/2 257/3/2 262/3/2
f 258/3/2 254/3/2 263/3/2
f 263/3/2 254/3/2 264/3/2
f 269/3/3 268/3/3 267/3/3
f 270/3/3 268/3/3 269/3/3
f 271/3/3 269/3/3 267/3/3
f 275/3/3 271/3/3 267/3/3
f 275/3/3 272/3/3 271/3/3
f 276/2/3 274/2/3 273/2/3
f 277/2/3 274/2/3 276/2/3
f 279/2/3 274/2/3 277/2/3
f 280/2/3 279/2/3 278/2/3
f 281/1/3 275/1/3 274/1/3
f 281/2/3 279/2/3 280/2/3
f 281/2/3 274/2/3 279/2/3
f 282/3/3 272/3/3 275/3/3
f 282/1/3 275/1/3 281/1/3
f 283/3/3 272/3/3 282/3/3
f 284/3/3 272/3/3 283/3/3
f 285/3/3 283/3/3 282/3/3
f 287/3/3 266/3/3 265/3/3
f 288/3/3 266/3/3 287/3/3
f 289/3/3 286/3/3 285/3/3
f 289/3/3 285/3/3 282/3/3
f 290/3/3 286/3/3 289/3/3
f 293/3/3 292/3/3 291/3/3
f 294/3/3 292/3/3 293/3/3
f 295/3/3 293/3/3 291/3/3
f 296/3/3 292/3/3 294/3/3
f 297/3/3 296/3/3 295/3/3
f 298/3/3 292/3/3 296/3/3
f 298/3/3 296/3/3 297/3/3
f 299/3/3 292/3/3 298/3/3
f 300/3/3 297/3/3 295/3/3
f 302/3/3 300/3/3 295/3/3
f 302/3/3 301/3/3 300/3/3
f 303/3/3 301/3/3 302/3/3
f 304/3/3 302/3/3 295/3/3
f 307/3/3 295/3/3 291/3/3
f 307/3/3 306/3/3 305/3/3
f 307/3/3 305/3/3 304/3/3
f 307/3/3 304/3/3 295/3/3
f 308/3/3 306/3/3 307/3/3
f 309/3/3 307/3/3 291/3/3
f 310/3/3 306/3/3 308/3/3
f 311/3/3 309/3/3 291/3/3
f 311/3/3 310/3/3 309/3/3
f 312/3/3 306/3/3 310/3/3
f 312/3/3 310/3/3 311/3/3
f 315/3/3 314/3/3 313/3/3
f 316/3/3 314/3/3 315/3/3
f 319/3/3 318/3/3 317/3/3
f 320/3/3 318/3/3 319/3/3
f 323/3/3 322/3/3 321/3/3
f 324/3/3 322/3/3 323/3/3
f 327/3/3 326/3/3 325/3/3
f 328/3/3 326/3/3 327/3/3
f 331/3/3 330/3/3 329/3/3
f 332/3/3 330/3/3 331/3/3
f 335/3/3 334/3/3 333/3/3
f 336/3/3 334/3/3 335/3/3
f 340/2/3 338/2/3 337/2/3
f 341/1/3 339/1/3 338/1/3
f 341/2/3 338/2/3 340/2/3
f 342/1/3 339/1/3 341/1/3
f 346/2/3 344/2/3 343/2/3
f 347/1/3 345/1/3 344/1/3
f 347/2/3 344/2/3 346/2/3
f 348/1/3 345/1/3 347/1/3
f 351/2/3 350/2/3 349/2/3
f 352/2/3 350/2/3 351/2/3
f 355/2/3 354/2/3 353/2/3
f 356/2/3 354/2/3 355/2/3
f 362/3/3 358/3/3 357/3/3
f 363/3/3 360/3/3 359/3/3
f 364/3/3 360/3/3 363/3/3
f 365/3/3 362/3/3 361/3/3
f 366/3/3 358/3/3 362/3/3
f 366/3/3 362/3/3 365/3/3
f 371/3/3 370/3/3 369/3/3
f 372/3/3 370/3/3 371/3/3
f 373/3/3 368/3/3 367/3/3
f 374/3/3 368/3/3 373/3/3
f 375/3/3 368/3/3 374/3/3
f 376/3/3 368/3/3 375/3/3
f 379/3/3 378/3/3 377/3/3
f 381/3/3 379/3/3 377/3/3
f 381/3/3 380/3/3 379/3/3
f 382/3/3 380/3/3 381/3/3
f 383/3/3 381/3/3 377/3/3
f 384/3/3 381/3/3 383/3/3
f 385/3/4 386/3/4 387/3/4
f 385/3/4 387/3/4 389/3/4
f 387/3/4 388/3/4 389/3/4
f 389/3/4 388/3/4 390/3/4
f 385/3/4 389/3/4 391/3/4
f 391/3/4 389/3/4 392/3/4
f 393/3/4 394/3/4 398/3/4
f 395/3/4 396/3/4 399/3/4
f 399/3/4 396/3/4 400/3/4
f 397/3/4 398/3/4 401/3/4
f 398/3/4 394/3/4 402/3/4
f 401/3/4 398/3/4 402/3/4
f 405/3/4 406/3/4 407/3/4
f 407/3/4 406/3/4 408/3/4
f 403/3/4 404/3/4 409/3/4
f 409/3/4 404/3/4 410/3/4
f 410/3/4 404/3/4 411/3/4
f 411/3/4 404/3/4 412/3/4
f 413/2/4 414/2/4 415/2/4
f 415/2/4 414/2/4 416/2/4
f 417/2/4 418/2/4 419/2/4
f 419/2/4 418/2/4 420/2/4
f 421/2/4 422/2/4 424/2/4
f 422/1/4 423/1/4 425/1/4
f 424/2/4 422/2/4 425/2/4
f 425/1/4 423/1/4 426/1/4
f 427/2/4 428/2/4 430/2/4
f 428/1/4 429/1/4 431/1/4
f 430/2/4 428/2/4 431/2/4
f 431/1/4 429/1/4 432/1/4
f 433/3/4 434/3/4 435/3/4
f 435/3/4 434/3/4 436/3/4
f 437/3/4 438/3/4 439/3/4
f 439/3/4 438/3/4 440/3/4
f 441/3/4 442/3/4 443/3/4
f 443/3/4 442/3/4 444/3/4
f 445/3/4 446/3/4 447/3/4
f 447/3/4 446/3/4 448/3/4
f 449/3/4 450/3/4 451/3/4
f 451/3/4 450/3/4 452/3/4
f 453/3/4 454/3/4 455/3/4
f 455/3/4 454/3/4 456/3/4
f 457/3/4 458/3/4 459/3/4
f 459/3/4 458/3/4 460/3/4
f 457/3/4 459/3/4 461/3/4
f 460/3/4 458/3/4 462/3/4
f 457/3/4 461/3/4 463/3/4
f 461/3/4 462/3/4 463/3/4
f 463/3/4 462/3/4 464/3/4
f 465/1/4 466/1/4 467/1/4
f 464/3/4 462/3/4 469/3/4
f 462/3/4 458/3/4 470/3/4
f 469/3/4 462/3/4 470/3/4
f 470/3/4 458/3/4 471/3/4
f 464/3/4 469/3/4 472/3/4
f 464/3/4 472/3/4 474/3/4
f 472/3/4 473/3/4 474/3/4
f 474/3/4 473/3/4 475/3/4
f 467/1/4 468/1/4 476/1/4
f 465/1/4 467/1/4 476/1/4
f 476/1/4 468/1/4 477/1/4
f 464/3/4 474/3/4 478/3/4
f 465/1/4 476/1/4 481/1/4
f 481/1/4 476/1/4 482/1/4
f 464/3/4 478/3/4 484/3/4
f 479/3/4 480/3/4 484/3/4
f 478/3/4 479/3/4 484/3/4
f 484/3/4 480/3/4 485/3/4
f 483/3/4 484/3/4 485/3/4
f 485/3/4 480/3/4 486/3/4
f 483/3/4 485/3/4 487/3/4
f 486/3/4 480/3/4 488/3/4
f 483/3/4 487/3/4 489/3/4
f 487/3/4 488/3/4 489/3/4
f 488/3/4 480/3/4 490/3/4
f 489/3/4 488/3/4 490/3/4
f 493/3/4 494/3/4 495/3/4
f 495/3/4 494/3/4 496/3/4
f 491/3/4 492/3/4 497/3/4
f 491/3/4 497/3/4 499/3/4
f 497/3/4 498/3/4 499/3/4
f 499/3/4 498/3/4 500/3/4
f 493/3/4 495/3/4 501/3/4
f 500/3/4 498/3/4 503/3/4
f 503/3/4 498/3/4 504/3/4
f 501/3/4 502/3/4 507/3/4
f 493/3/4 501/3/4 507/3/4
f 505/2/4 506/2/4 508/2/4
f 508/2/4 506/2/4 509/2/4
f 509/2/4 506/2/4 511/2/4
f 504/3/4 498/3/4 513/3/4
f 510/2/4 511/2/4 514/2/4
f 506/1/4 507/1/4 515/1/4
f 514/2/4 511/2/4 515/2/4
f 511/2/4 506/2/4 515/2/4
f 507/3/4 502/3/4 516/3/4
f 515/1/4 507/1/4 516/1/4
f 512/3/4 513/3/4 518/3/4
f 516/3/4 502/3/4 519/3/4
f 519/3/4 502/3/4 520/3/4
f 517/3/4 518/3/4 521/3/4
f 513/3/4 498/3/4 522/3/4
f 521/3/4 518/3/4 522/3/4
f 518/3/4 513/3/4 522/3/4
f 516/3/4 519/3/4 523/3/4
f 517/3/4 521/3/4 525/3/4
f 525/3/4 521/3/4 526/3/4
f 523/3/4 524/3/4 527/3/4
f 516/3/4 523/3/4 527/3/4
f 527/3/4 524/3/4 528/3/4
f 531/3/5 530/3/5 529/3/5
f 532/3/5 530/3/5 531/3/5
f 533/3/5 531/3/5 529/3/5
f 533/1/5 532/1/5 531/1/5
f 534/3/5 530/3/5 532/3/5
f 534/1/5 532/1/5 533/1/5
f 535/3/5 533/3/5 529/3/5
f 536/3/5 533/3/5 535/3/5
f 537/3/5 530/3/5 534/3/5
f 538/3/5 530/3/5 537/3/5
f 543/3/5 540/3/5 539/3/5
f 544/3/5 540/3/5 543/3/5
f 545/3/5 542/3/5 541/3/5
f 546/3/5 542/3/5 545/3/5
f 549/3/5 548/3/5 547/3/5
f 550/3/5 548/3/5 549/3/5
f 555/2/5 552/2/5 551/2/5
f 556/2/5 552/2/5 555/2/5
f 557/2/5 554/2/5 553/2/5
f 558/2/5 554/2/5 557/2/5
f 563/2/5 560/2/5 559/2/5
f 564/2/5 560/2/5 563/2/5
f 565/2/5 562/2/5 561/2/5
f 566/2/5 562/2/5 565/2/5
f 571/2/5 568/2/5 567/2/5
f 572/2/5 568/2/5 571/2/5
f 573/2/5 570/2/5 569/2/5
f 574/2/5 570/2/5 573/2/5
f 579/2/5 576/2/5 575/2/5
f 580/2/5 576/2/5 579/2/5
f 581/2/5 578/2/5 577/2/5
f 582/2/5 578/2/5 581/2/5
f 587/2/5 584/2/5 583/2/5
f 588/2/5 584/2/5 587/2/5
f 591/3/5 586/3/5 585/3/5
f 592/3/5 586/3/5 591/3/5
f 593/3/5 590/3/5 589/3/5
f 594/3/5 590/3/5 593/3/5
f 599/3/5 596/3/5 595/3/5
f 600/3/5 596/3/5 599/3/5
f 601/3/5 598/3/5 597/3/5
f 602/3/5 598/3/5 601/3/5
f 607/2/5 604/2/5 603/2/5
f 608/2/5 604/2/5 607/2/5
f 609/2/5 606/2/5 605/2/5
f 610/2/5 606/2/5 609/2/5
f 615/3/5 612/3/5 611/3/5
f 616/3/5 612/3/5 615/3/5
f 617/3/5 614/3/5 613/3/5
f 618/3/5 614/3/5 617/3/5
f 623/3/5 620/3/5 619/3/5
f 624/3/5 620/3/5 623/3/5
f 627/3/5 622/3/5 621/3/5
f 628/3/5 622/3/5 627/3/5
f 629/2/5 626/2/5 625/2/5
f 630/2/5 626/2/5 629/2/5
f 635/3/5 632/3/5 631/3/5
f 636/3/5 632/3/5 635/3/5
f 637/3/5 634/3/5 633/3/5
f 638/3/5 634/3/5 637/3/5
f 639/3/5 635/3/5 631/3/5
f 640/3/5 635/3/5 639/3/5
f 641/3/5 634/3/5 638/3/5
f 642/3/5 634/3/5 641/3/5
f 647/3/5 644/3/5 643/3/5
f 650/3/5 646/3/5 645/3/5
f 651/3/5 648/3/5 647/3/5
f 651/3/5 647/3/5 643/3/5
f 652/3/5 648/3/5 651/3/5
f 653/3/5 650/3/5 649/3/5
f 654/3/5 646/3/5 650/3/5
f 654/3/5 650/3/5 653/3/5
f 655/3/6 656/3/6 657/3/6
f 657/3/6 656/3/6 658/3/6
f 655/3/6 657/3/6 659/3/6
f 658/3/6 656/3/6 662/3/6
f 659/3/6 660/3/6 663/3/6
f 655/3/6 659/3/6 663/3/6
f 663/3/6 660/3/6 664/3/6
f 661/3/6 662/3/6 665/3/6
f 662/3/6 656/3/6 666/3/6
f 665/3/6 662/3/6 666/3/6
f 667/3/6 668/3/6 669/3/6
f 669/3/6 668/3/6 670/3/6
f 671/3/6 672/3/6 675/3/6
f 675/3/6 672/3/6 676/3/6
f 673/3/6 674/3/6 677/3/6
f 677/3/6 674/3/6 678/3/6
f 679/3/6 680/3/6 683/3/6
f 683/3/6 680/3/6 684/3/6
f 681/3/6 682/3/6 685/3/6
f 685/3/6 682/3/6 686/3/6
f 687/3/6 688/3/6 691/3/6
f 691/3/6 688/3/6 692/3/6
f 689/3/6 690/3/6 693/3/6
f 693/3/6 690/3/6 694/3/6
f 695/3/6 696/3/6 699/3/6
f 699/3/6 696/3/6 700/3/6
f 697/3/6 698/3/6 701/3/6
f 701/3/6 698/3/6 702/3/6
f 703/3/6 704/3/6 706/3/6
f 706/3/6 704/3/6 707/3/6
f 705/3/6 706/3/6 709/3/6
f 707/3/6 708/3/6 709/3/6
f 706/3/6 707/3/6 709/3/6
f 709/3/6 708/3/6 710/3/6
f 710/3/6 708/3/6 711/3/6
f 711/3/6 708/3/6 712/3/6
f 710/3/6 711/3/6 713/3/6
f 713/3/6 711/3/6 714/3/6
f 715/3/6 716/3/6 719/3/6
f 719/3/6 716/3/6 720/3/6
f 717/3/6 718/3/6 721/3/6
f 721/3/6 718/3/6 722/3/6
f 723/3/6 724/3/6 727/3/6
f 727/3/6 724/3/6 728/3/6
f 725/3/6 726/3/6 729/3/6
f 729/3/6 726/3/6 730/3/6
f 731/3/6 732/3/6 735/3/6
f 735/3/6 732/3/6 736/3/6
f 733/3/6 734/3/6 737/3/6
f 737/3/6 734/3/6 738/3/6
f 739/3/6 740/3/6 743/3/6
f 743/3/6 740/3/6 744/3/6
f 741/3/6 742/3/6 745/3/6
f 745/3/6 742/3/6 746/3/6
f 749/3/6 750/3/6 753/3/6
f 753/3/6 750/3/6 754/3/6
f 747/3/6 748/3/6 755/3/6
f 755/3/6 748/3/6 756/3/6
f 751/3/6 752/3/6 757/3/6
f 757/3/6 752/3/6 758/3/6
f 759/3/6 760/3/6 763/3/6
f 763/3/6 760/3/6 764/3/6
f 761/3/6 762/3/6 765/3/6
f 765/3/6 762/3/6 766/3/6
f 767/3/6 768/3/6 773/3/6
f 773/3/6 768/3/6 774/3/6
f 771/3/6 772/3/6 775/3/6
f 775/3/6 772/3/6 776/3/6
f 769/3/6 770/3/6 777/3/6
f 777/3/6 770/3/6 778/3/6
