# MagicaVoxel @ Ephtracy

# group
o 

# material
mtllib ArmoredOrc.mtl
usemtl palette

# normals
vn -1 0 0
vn 1 0 0
vn 0 0 1
vn 0 0 -1
vn 0 -1 0
vn 0 1 0

# texcoords
vt 0.369141 0.5
vt 0.537109 0.5
vt 0.865234 0.5
vt 0.896484 0.5
vt 0.958984 0.5
vt 0.990234 0.5
vt 0.994141 0.5

# verts
v -0.5 0.4 0.1
v -0.5 0.4 0
v -0.5 0.5 0
v -0.5 0.5 -0.2
v -0.5 0.6 0.1
v -0.5 0.6 0
v -0.5 0.6 -0.2
v -0.4 0.3 0.2
v -0.4 0.3 0.1
v -0.4 0.4 0.1
v -0.4 0.4 0
v -0.4 0.4 -0.1
v -0.4 0.5 0.2
v -0.4 0.5 0.1
v -0.4 0.5 0
v -0.4 0.5 -0.1
v -0.4 0.6 0.3
v -0.4 0.6 0.2
v -0.4 0.6 0.1
v -0.4 0.9 0.1
v -0.4 0.9 0
v -0.4 1 0.3
v -0.4 1 0
v -0.3 0 0
v -0.3 0 -0.1
v -0.3 0.1 0
v -0.3 0.1 -0.1
v -0.3 0.2 0.1
v -0.3 0.2 0
v -0.3 0.2 -0.1
v -0.3 0.2 -0.2
v -0.3 0.3 0.1
v -0.3 0.3 0
v -0.3 0.4 0.1
v -0.3 0.4 0
v -0.3 0.4 -0.1
v -0.3 0.5 -0.1
v -0.3 0.5 -0.2
v -0.3 0.6 0.1
v -0.3 0.6 0
v -0.3 0.6 -0.2
v -0.3 0.8 0.1
v -0.3 0.8 -0.2
v -0.2 0.2 0.2
v -0.2 0.2 0.1
v -0.2 0.2 -0.2
v -0.2 0.2 -0.3
v -0.2 0.3 0.2
v -0.2 0.3 0.1
v -0.2 0.4 0.2
v -0.2 0.4 0.1
v -0.2 0.5 0.2
v -0.2 0.5 0.1
v -0.2 0.6 0.2
v -0.2 0.6 0.1
v -0.2 0.7 0.2
v -0.2 0.7 0.1
v -0.2 0.8 0
v -0.2 0.8 -0.2
v -0.2 0.8 -0.3
v -0.2 0.9 0
v -0.2 0.9 -0.2
v -0.1 0.6 -0.3
v -0.1 0.6 -0.4
v -0.1 0.8 0.1
v -0.1 0.8 0
v -0.1 0.8 -0.2
v -0.1 0.8 -0.3
v -0.1 0.8 -0.4
v -0.1 0.9 0.1
v -0.1 0.9 0
v -0.1 0.9 -0.2
v -0.1 0.9 -0.3
v 0 0.3 0.2
v 0 0.3 0.1
v 0 0.4 0.2
v 0 0.4 0.1
v 0.1 0 0
v 0.1 0 -0.1
v 0.1 0.1 0
v 0.1 0.1 -0.1
v 0.1 0.2 0
v 0.1 0.2 -0.1
v 0.2 0.2 0.2
v 0.2 0.2 0.1
v 0.2 0.3 0.1
v 0.2 0.6 0.2
v 0.2 0.6 0.1
v 0.3 0.1 0.2
v 0.3 0.1 0.1
v 0.3 0.2 0.2
v 0.3 0.2 0.1
v 0.3 0.2 -0.1
v 0.3 0.3 0
v 0.3 0.3 -0.1
v 0.3 0.6 0.2
v 0.3 0.6 0.1
v 0.3 0.6 0
v 0.3 0.7 0.2
v 0.3 0.7 0.1
v 0.4 0.1 0.1
v 0.4 0.1 0
v 0.4 0.2 0.1
v 0.4 0.2 0
v 0.4 0.6 0.1
v 0.4 0.6 0
v 0.4 0.7 0.1
v 0.4 0.7 0
v -0.3 0.3 0.2
v -0.3 0.3 0.1
v -0.3 0.5 0.2
v -0.3 0.5 0.1
v -0.3 0.6 0.3
v -0.3 0.6 0.2
v -0.3 0.6 0.1
v -0.3 0.7 0.2
v -0.3 0.7 0.1
v -0.3 0.8 0.2
v -0.3 0.8 0.1
v -0.3 0.9 0.1
v -0.3 0.9 0
v -0.3 1 0.3
v -0.3 1 0
v -0.2 0 0
v -0.2 0 -0.1
v -0.2 0.1 0
v -0.2 0.1 -0.1
v -0.2 0.2 0
v -0.2 0.2 -0.1
v -0.1 0.3 0.2
v -0.1 0.3 0.1
v -0.1 0.4 0.2
v -0.1 0.4 0.1
v 0 0.6 -0.3
v 0 0.6 -0.4
v 0 0.8 0.1
v 0 0.8 0
v 0 0.8 -0.2
v 0 0.8 -0.3
v 0 0.8 -0.4
v 0 0.9 0.1
v 0 0.9 0
v 0 0.9 -0.2
v 0 0.9 -0.3
v 0.1 0.2 0.2
v 0.1 0.2 0.1
v 0.1 0.2 -0.2
v 0.1 0.2 -0.3
v 0.1 0.3 0.2
v 0.1 0.3 0.1
v 0.1 0.4 0.2
v 0.1 0.4 0.1
v 0.1 0.5 0.2
v 0.1 0.5 0.1
v 0.1 0.6 0.2
v 0.1 0.6 0.1
v 0.1 0.7 0.2
v 0.1 0.7 0.1
v 0.1 0.8 0
v 0.1 0.8 -0.2
v 0.1 0.8 -0.3
v 0.1 0.9 0
v 0.1 0.9 -0.2
v 0.2 0 0
v 0.2 0 -0.1
v 0.2 0.1 0
v 0.2 0.1 -0.1
v 0.2 0.2 0.1
v 0.2 0.2 0
v 0.2 0.2 -0.1
v 0.2 0.2 -0.2
v 0.2 0.3 0.1
v 0.2 0.3 0
v 0.2 0.3 -0.1
v 0.2 0.5 -0.1
v 0.2 0.5 -0.2
v 0.2 0.6 0.1
v 0.2 0.6 0
v 0.2 0.6 -0.2
v 0.2 0.7 0.2
v 0.2 0.7 0.1
v 0.2 0.8 0.2
v 0.2 0.8 -0.2
v 0.4 0.1 0.2
v 0.4 0.1 0.1
v 0.4 0.2 0.2
v 0.4 0.2 0.1
v 0.4 0.3 0.2
v 0.4 0.3 0.1
v 0.4 0.5 0.2
v 0.4 0.5 0.1
v 0.4 0.5 0
v 0.4 0.5 -0.1
v 0.4 0.5 -0.2
v 0.4 0.6 0.2
v 0.4 0.6 0.1
v 0.4 0.6 0
v 0.4 0.6 -0.2
v 0.4 0.7 0.2
v 0.4 0.7 0.1
v 0.5 0.1 0.1
v 0.5 0.1 0
v 0.5 0.2 0.1
v 0.5 0.2 0
v 0.5 0.2 -0.1
v 0.5 0.3 0.2
v 0.5 0.3 0.1
v 0.5 0.5 0.2
v 0.5 0.5 0.1
v 0.5 0.5 0
v 0.5 0.5 -0.1
v 0.5 0.7 0.1
v 0.5 0.7 0
v -0.4 0.6 0.3
v -0.4 1 0.3
v -0.3 0.6 0.3
v -0.3 1 0.3
v -0.4 0.3 0.2
v -0.4 0.5 0.2
v -0.4 0.6 0.2
v -0.3 0.3 0.2
v -0.3 0.5 0.2
v -0.3 0.6 0.2
v -0.3 0.7 0.2
v -0.3 0.8 0.2
v -0.2 0.2 0.2
v -0.2 0.3 0.2
v -0.2 0.4 0.2
v -0.2 0.5 0.2
v -0.2 0.6 0.2
v -0.2 0.7 0.2
v -0.1 0.3 0.2
v -0.1 0.4 0.2
v -0.1 0.6 0.2
v -0.1 0.7 0.2
v 0 0.3 0.2
v 0 0.4 0.2
v 0 0.6 0.2
v 0 0.7 0.2
v 0.1 0.2 0.2
v 0.1 0.3 0.2
v 0.1 0.4 0.2
v 0.1 0.5 0.2
v 0.1 0.6 0.2
v 0.1 0.7 0.2
v 0.2 0.2 0.2
v 0.2 0.6 0.2
v 0.2 0.7 0.2
v 0.2 0.8 0.2
v 0.3 0.1 0.2
v 0.3 0.2 0.2
v 0.3 0.6 0.2
v 0.3 0.7 0.2
v 0.4 0.1 0.2
v 0.4 0.2 0.2
v 0.4 0.3 0.2
v 0.4 0.5 0.2
v 0.4 0.6 0.2
v 0.4 0.7 0.2
v 0.5 0.3 0.2
v 0.5 0.5 0.2
v -0.5 0.4 0.1
v -0.5 0.6 0.1
v -0.4 0.4 0.1
v -0.4 0.5 0.1
v -0.4 0.6 0.1
v -0.3 0.2 0.1
v -0.3 0.3 0.1
v -0.3 0.5 0.1
v -0.3 0.6 0.1
v -0.3 0.7 0.1
v -0.2 0.2 0.1
v -0.2 0.3 0.1
v -0.2 0.4 0.1
v -0.2 0.5 0.1
v -0.2 0.6 0.1
v -0.2 0.7 0.1
v -0.1 0.3 0.1
v -0.1 0.4 0.1
v -0.1 0.8 0.1
v -0.1 0.9 0.1
v 0 0.3 0.1
v 0 0.4 0.1
v 0 0.8 0.1
v 0 0.9 0.1
v 0.1 0.2 0.1
v 0.1 0.3 0.1
v 0.1 0.4 0.1
v 0.1 0.5 0.1
v 0.1 0.6 0.1
v 0.1 0.7 0.1
v 0.2 0.2 0.1
v 0.2 0.3 0.1
v 0.2 0.6 0.1
v 0.2 0.7 0.1
v 0.4 0.1 0.1
v 0.4 0.2 0.1
v 0.4 0.3 0.1
v 0.4 0.5 0.1
v 0.4 0.6 0.1
v 0.4 0.7 0.1
v 0.5 0.1 0.1
v 0.5 0.2 0.1
v 0.5 0.3 0.1
v 0.5 0.5 0.1
v 0.5 0.7 0.1
v -0.3 0 0
v -0.3 0.1 0
v -0.3 0.2 0
v -0.2 0 0
v -0.2 0.1 0
v -0.2 0.2 0
v -0.2 0.8 0
v -0.2 0.9 0
v -0.1 0.8 0
v -0.1 0.9 0
v 0 0.8 0
v 0 0.9 0
v 0.1 0 0
v 0.1 0.1 0
v 0.1 0.2 0
v 0.1 0.8 0
v 0.1 0.9 0
v 0.2 0 0
v 0.2 0.1 0
v 0.2 0.2 0
v 0.2 0.3 0
v 0.2 0.6 0
v 0.3 0.3 0
v 0.3 0.6 0
v -0.4 0.3 0.1
v -0.4 0.4 0.1
v -0.4 0.6 0.1
v -0.4 0.9 0.1
v -0.3 0.3 0.1
v -0.3 0.4 0.1
v -0.3 0.6 0.1
v -0.3 0.8 0.1
v -0.3 0.9 0.1
v 0.2 0.2 0.1
v 0.2 0.3 0.1
v 0.2 0.6 0.1
v 0.3 0.1 0.1
v 0.3 0.2 0.1
v 0.3 0.6 0.1
v 0.3 0.7 0.1
v 0.4 0.1 0.1
v 0.4 0.2 0.1
v 0.4 0.6 0.1
v 0.4 0.7 0.1
v -0.5 0.4 0
v -0.5 0.5 0
v -0.4 0.4 0
v -0.4 0.5 0
v -0.4 0.9 0
v -0.4 1 0
v -0.3 0.9 0
v -0.3 1 0
v 0.4 0.1 0
v 0.4 0.2 0
v 0.4 0.5 0
v 0.4 0.6 0
v 0.4 0.7 0
v 0.5 0.1 0
v 0.5 0.2 0
v 0.5 0.5 0
v 0.5 0.7 0
v -0.4 0.4 -0.1
v -0.4 0.5 -0.1
v -0.3 0 -0.1
v -0.3 0.1 -0.1
v -0.3 0.2 -0.1
v -0.3 0.4 -0.1
v -0.3 0.5 -0.1
v -0.2 0 -0.1
v -0.2 0.1 -0.1
v -0.2 0.2 -0.1
v 0.1 0 -0.1
v 0.1 0.1 -0.1
v 0.1 0.2 -0.1
v 0.2 0 -0.1
v 0.2 0.1 -0.1
v 0.2 0.2 -0.1
v 0.2 0.3 -0.1
v 0.2 0.5 -0.1
v 0.3 0.2 -0.1
v 0.3 0.3 -0.1
v 0.4 0.5 -0.1
v 0.5 0.2 -0.1
v 0.5 0.5 -0.1
v -0.5 0.5 -0.2
v -0.5 0.6 -0.2
v -0.3 0.2 -0.2
v -0.3 0.5 -0.2
v -0.3 0.6 -0.2
v -0.3 0.8 -0.2
v -0.2 0.2 -0.2
v -0.2 0.8 -0.2
v -0.2 0.9 -0.2
v -0.1 0.8 -0.2
v -0.1 0.9 -0.2
v 0 0.8 -0.2
v 0 0.9 -0.2
v 0.1 0.2 -0.2
v 0.1 0.8 -0.2
v 0.1 0.9 -0.2
v 0.2 0.2 -0.2
v 0.2 0.5 -0.2
v 0.2 0.6 -0.2
v 0.2 0.8 -0.2
v 0.4 0.5 -0.2
v 0.4 0.6 -0.2
v -0.2 0.2 -0.3
v -0.2 0.8 -0.3
v -0.1 0.6 -0.3
v -0.1 0.8 -0.3
v -0.1 0.9 -0.3
v 0 0.6 -0.3
v 0 0.8 -0.3
v 0 0.9 -0.3
v 0.1 0.2 -0.3
v 0.1 0.8 -0.3
v -0.1 0.6 -0.4
v -0.1 0.8 -0.4
v 0 0.6 -0.4
v 0 0.8 -0.4
v -0.3 0 0
v -0.2 0 0
v 0.1 0 0
v 0.2 0 0
v -0.3 0 -0.1
v -0.2 0 -0.1
v 0.1 0 -0.1
v 0.2 0 -0.1
v 0.3 0.1 0.2
v 0.4 0.1 0.2
v 0.3 0.1 0.1
v 0.4 0.1 0.1
v 0.5 0.1 0.1
v 0.4 0.1 0
v 0.5 0.1 0
v -0.2 0.2 0.2
v 0.1 0.2 0.2
v 0.2 0.2 0.2
v 0.3 0.2 0.2
v -0.3 0.2 0.1
v -0.2 0.2 0.1
v 0.1 0.2 0.1
v 0.2 0.2 0.1
v 0.3 0.2 0.1
v 0.4 0.2 0.1
v -0.3 0.2 0
v -0.2 0.2 0
v 0.1 0.2 0
v 0.2 0.2 0
v 0.4 0.2 0
v 0.5 0.2 0
v -0.3 0.2 -0.1
v -0.2 0.2 -0.1
v 0.1 0.2 -0.1
v 0.2 0.2 -0.1
v 0.3 0.2 -0.1
v 0.5 0.2 -0.1
v -0.3 0.2 -0.2
v -0.2 0.2 -0.2
v 0.1 0.2 -0.2
v 0.2 0.2 -0.2
v -0.2 0.2 -0.3
v 0.1 0.2 -0.3
v -0.4 0.3 0.2
v -0.3 0.3 0.2
v 0.4 0.3 0.2
v 0.5 0.3 0.2
v -0.4 0.3 0.1
v -0.3 0.3 0.1
v 0.4 0.3 0.1
v 0.5 0.3 0.1
v 0.2 0.3 0
v 0.3 0.3 0
v 0.2 0.3 -0.1
v 0.3 0.3 -0.1
v -0.5 0.4 0.1
v -0.4 0.4 0.1
v -0.3 0.4 0.1
v -0.5 0.4 0
v -0.4 0.4 0
v -0.3 0.4 0
v -0.4 0.4 -0.1
v -0.3 0.4 -0.1
v -0.2 0.5 0.2
v 0.1 0.5 0.2
v -0.2 0.5 0.1
v 0.1 0.5 0.1
v -0.5 0.5 0
v -0.4 0.5 0
v -0.4 0.5 -0.1
v -0.3 0.5 -0.1
v 0.2 0.5 -0.1
v 0.4 0.5 -0.1
v -0.5 0.5 -0.2
v -0.3 0.5 -0.2
v 0.2 0.5 -0.2
v 0.4 0.5 -0.2
v -0.4 0.6 0.3
v -0.3 0.6 0.3
v -0.4 0.6 0.2
v -0.3 0.6 0.2
v -0.1 0.6 -0.3
v 0 0.6 -0.3
v -0.1 0.6 -0.4
v 0 0.6 -0.4
v -0.3 0.7 0.2
v -0.2 0.7 0.2
v 0.1 0.7 0.2
v 0.2 0.7 0.2
v -0.3 0.7 0.1
v -0.2 0.7 0.1
v 0.1 0.7 0.1
v 0.2 0.7 0.1
v -0.4 0.9 0.1
v -0.3 0.9 0.1
v -0.4 0.9 0
v -0.3 0.9 0
v -0.1 0.3 0.2
v 0 0.3 0.2
v -0.1 0.3 0.1
v 0 0.3 0.1
v -0.2 0.4 0.2
v -0.1 0.4 0.2
v 0 0.4 0.2
v 0.1 0.4 0.2
v -0.2 0.4 0.1
v -0.1 0.4 0.1
v 0 0.4 0.1
v 0.1 0.4 0.1
v 0.4 0.5 0.2
v 0.5 0.5 0.2
v 0.4 0.5 0.1
v 0.5 0.5 0.1
v 0.4 0.5 0
v 0.5 0.5 0
v 0.4 0.5 -0.1
v 0.5 0.5 -0.1
v 0.2 0.6 0.2
v 0.3 0.6 0.2
v -0.5 0.6 0.1
v -0.4 0.6 0.1
v -0.3 0.6 0.1
v 0.2 0.6 0.1
v 0.3 0.6 0.1
v 0.4 0.6 0.1
v -0.5 0.6 0
v -0.3 0.6 0
v 0.2 0.6 0
v 0.3 0.6 0
v 0.4 0.6 0
v -0.5 0.6 -0.2
v -0.3 0.6 -0.2
v 0.2 0.6 -0.2
v 0.4 0.6 -0.2
v 0.3 0.7 0.2
v 0.4 0.7 0.2
v 0.3 0.7 0.1
v 0.4 0.7 0.1
v 0.5 0.7 0.1
v 0.4 0.7 0
v 0.5 0.7 0
v -0.3 0.8 0.2
v 0.2 0.8 0.2
v -0.3 0.8 0.1
v -0.1 0.8 0.1
v 0 0.8 0.1
v -0.2 0.8 0
v -0.1 0.8 0
v 0 0.8 0
v 0.1 0.8 0
v -0.3 0.8 -0.2
v -0.2 0.8 -0.2
v -0.1 0.8 -0.2
v 0 0.8 -0.2
v 0.1 0.8 -0.2
v 0.2 0.8 -0.2
v -0.2 0.8 -0.3
v -0.1 0.8 -0.3
v 0 0.8 -0.3
v 0.1 0.8 -0.3
v -0.1 0.8 -0.4
v 0 0.8 -0.4
v -0.1 0.9 0.1
v 0 0.9 0.1
v -0.2 0.9 0
v -0.1 0.9 0
v 0 0.9 0
v 0.1 0.9 0
v -0.2 0.9 -0.2
v -0.1 0.9 -0.2
v 0 0.9 -0.2
v 0.1 0.9 -0.2
v -0.1 0.9 -0.3
v 0 0.9 -0.3
v -0.4 1 0.3
v -0.3 1 0.3
v -0.4 1 0
v -0.3 1 0

# faces
f 3/4/1 2/4/1 1/4/1
f 5/4/1 3/4/1 1/4/1
f 6/6/1 4/6/1 3/6/1
f 6/4/1 3/4/1 5/4/1
f 7/6/1 4/6/1 6/6/1
f 10/6/1 9/6/1 8/6/1
f 13/6/1 10/6/1 8/6/1
f 14/6/1 10/6/1 13/6/1
f 15/4/1 12/4/1 11/4/1
f 16/4/1 12/4/1 15/4/1
f 18/4/1 14/4/1 13/4/1
f 19/4/1 14/4/1 18/4/1
f 20/6/1 18/6/1 17/6/1
f 20/6/1 19/6/1 18/6/1
f 22/6/1 20/6/1 17/6/1
f 22/6/1 21/6/1 20/6/1
f 23/6/1 21/6/1 22/6/1
f 26/1/1 25/1/1 24/1/1
f 27/1/1 25/1/1 26/1/1
f 29/4/1 27/4/1 26/4/1
f 30/4/1 27/4/1 29/4/1
f 32/6/1 30/6/1 29/6/1
f 32/6/1 31/6/1 30/6/1
f 32/6/1 29/6/1 28/6/1
f 33/6/1 31/6/1 32/6/1
f 34/4/1 33/4/1 32/4/1
f 35/6/1 31/6/1 33/6/1
f 35/4/1 33/4/1 34/4/1
f 36/6/1 31/6/1 35/6/1
f 37/6/1 31/6/1 36/6/1
f 38/6/1 31/6/1 37/6/1
f 42/6/1 40/6/1 39/6/1
f 42/6/1 41/6/1 40/6/1
f 43/6/1 41/6/1 42/6/1
f 48/4/1 45/4/1 44/4/1
f 49/4/1 45/4/1 48/4/1
f 50/5/1 49/5/1 48/5/1
f 51/5/1 49/5/1 50/5/1
f 54/4/1 53/4/1 52/4/1
f 55/4/1 53/4/1 54/4/1
f 56/7/1 55/7/1 54/7/1
f 57/7/1 55/7/1 56/7/1
f 59/6/1 47/6/1 46/6/1
f 60/6/1 47/6/1 59/6/1
f 61/2/1 59/2/1 58/2/1
f 62/2/1 59/2/1 61/2/1
f 68/2/1 64/2/1 63/2/1
f 69/2/1 64/2/1 68/2/1
f 70/2/1 66/2/1 65/2/1
f 71/2/1 66/2/1 70/2/1
f 72/2/1 68/2/1 67/2/1
f 73/2/1 68/2/1 72/2/1
f 76/5/1 75/5/1 74/5/1
f 77/5/1 75/5/1 76/5/1
f 80/1/1 79/1/1 78/1/1
f 81/1/1 79/1/1 80/1/1
f 82/4/1 81/4/1 80/4/1
f 83/4/1 81/4/1 82/4/1
f 86/6/1 85/6/1 84/6/1
f 87/6/1 86/6/1 84/6/1
f 88/6/1 86/6/1 87/6/1
f 91/6/1 90/6/1 89/6/1
f 92/6/1 90/6/1 91/6/1
f 94/6/1 93/6/1 92/6/1
f 95/6/1 93/6/1 94/6/1
f 97/6/1 94/6/1 92/6/1
f 98/6/1 94/6/1 97/6/1
f 99/6/1 97/6/1 96/6/1
f 100/6/1 97/6/1 99/6/1
f 103/6/1 102/6/1 101/6/1
f 104/6/1 102/6/1 103/6/1
f 107/6/1 106/6/1 105/6/1
f 108/6/1 106/6/1 107/6/1
f 109/6/2 110/6/2 111/6/2
f 111/6/2 110/6/2 112/6/2
f 111/4/2 112/4/2 114/4/2
f 114/4/2 112/4/2 115/4/2
f 113/6/2 114/6/2 116/6/2
f 114/6/2 115/6/2 116/6/2
f 116/6/2 115/6/2 117/6/2
f 113/6/2 116/6/2 118/6/2
f 118/6/2 119/6/2 120/6/2
f 118/6/2 120/6/2 122/6/2
f 120/6/2 121/6/2 122/6/2
f 113/6/2 118/6/2 122/6/2
f 122/6/2 121/6/2 123/6/2
f 124/1/2 125/1/2 126/1/2
f 126/1/2 125/1/2 127/1/2
f 126/4/2 127/4/2 128/4/2
f 128/4/2 127/4/2 129/4/2
f 130/5/2 131/5/2 132/5/2
f 132/5/2 131/5/2 133/5/2
f 134/2/2 135/2/2 139/2/2
f 139/2/2 135/2/2 140/2/2
f 136/2/2 137/2/2 141/2/2
f 141/2/2 137/2/2 142/2/2
f 138/2/2 139/2/2 143/2/2
f 143/2/2 139/2/2 144/2/2
f 145/4/2 146/4/2 149/4/2
f 149/4/2 146/4/2 150/4/2
f 149/5/2 150/5/2 151/5/2
f 151/5/2 150/5/2 152/5/2
f 153/4/2 154/4/2 155/4/2
f 155/4/2 154/4/2 156/4/2
f 155/7/2 156/7/2 157/7/2
f 157/7/2 156/7/2 158/7/2
f 147/6/2 148/6/2 160/6/2
f 160/6/2 148/6/2 161/6/2
f 159/2/2 160/2/2 162/2/2
f 162/2/2 160/2/2 163/2/2
f 164/1/2 165/1/2 166/1/2
f 166/1/2 165/1/2 167/1/2
f 166/4/2 167/4/2 169/4/2
f 169/4/2 167/4/2 170/4/2
f 169/6/2 170/6/2 172/6/2
f 170/6/2 171/6/2 172/6/2
f 168/6/2 169/6/2 172/6/2
f 172/6/2 171/6/2 173/6/2
f 173/6/2 171/6/2 174/6/2
f 174/6/2 171/6/2 175/6/2
f 175/6/2 171/6/2 176/6/2
f 172/4/2 173/4/2 177/4/2
f 177/4/2 173/4/2 178/4/2
f 177/6/2 178/6/2 181/6/2
f 178/6/2 179/6/2 181/6/2
f 180/6/2 181/6/2 182/6/2
f 181/6/2 179/6/2 183/6/2
f 182/6/2 181/6/2 183/6/2
f 184/6/2 185/6/2 186/6/2
f 186/6/2 185/6/2 187/6/2
f 186/3/2 187/3/2 188/3/2
f 188/3/2 187/3/2 189/3/2
f 190/3/2 191/3/2 195/3/2
f 195/3/2 191/3/2 196/3/2
f 193/6/2 194/6/2 197/6/2
f 192/6/2 193/6/2 197/6/2
f 197/6/2 194/6/2 198/6/2
f 195/6/2 196/6/2 199/6/2
f 199/6/2 196/6/2 200/6/2
f 201/6/2 202/6/2 203/6/2
f 203/6/2 202/6/2 204/6/2
f 203/3/2 204/3/2 207/3/2
f 206/3/2 207/3/2 208/3/2
f 207/3/2 204/3/2 209/3/2
f 208/3/2 207/3/2 209/3/2
f 204/6/2 205/6/2 210/6/2
f 209/3/2 204/3/2 210/3/2
f 210/6/2 205/6/2 211/6/2
f 209/6/2 210/6/2 212/6/2
f 212/6/2 210/6/2 213/6/2
f 216/6/3 215/6/3 214/6/3
f 217/6/3 215/6/3 216/6/3
f 221/6/3 219/6/3 218/6/3
f 222/4/3 220/4/3 219/4/3
f 222/6/3 219/6/3 221/6/3
f 223/4/3 220/4/3 222/4/3
f 231/6/3 225/6/3 224/6/3
f 232/4/3 227/4/3 226/4/3
f 232/5/3 228/5/3 227/5/3
f 233/5/3 228/5/3 232/5/3
f 234/4/3 230/4/3 229/4/3
f 234/7/3 231/7/3 230/7/3
f 235/6/3 225/6/3 231/6/3
f 235/7/3 231/7/3 234/7/3
f 236/4/3 232/4/3 226/4/3
f 238/4/3 235/4/3 234/4/3
f 238/4/3 234/4/3 229/4/3
f 239/6/3 225/6/3 235/6/3
f 239/4/3 235/4/3 238/4/3
f 240/4/3 236/4/3 226/4/3
f 241/5/3 237/5/3 236/5/3
f 241/4/3 236/4/3 240/4/3
f 242/5/3 237/5/3 241/5/3
f 243/4/3 238/4/3 229/4/3
f 244/7/3 239/7/3 238/7/3
f 244/4/3 238/4/3 243/4/3
f 245/6/3 225/6/3 239/6/3
f 245/7/3 239/7/3 244/7/3
f 248/6/3 225/6/3 245/6/3
f 249/6/3 225/6/3 248/6/3
f 251/6/3 247/6/3 246/6/3
f 252/6/3 247/6/3 251/6/3
f 254/6/3 251/6/3 250/6/3
f 255/3/3 252/3/3 251/3/3
f 255/6/3 251/6/3 254/6/3
f 256/3/3 252/3/3 255/3/3
f 257/3/3 252/3/3 256/3/3
f 258/6/3 253/6/3 252/6/3
f 258/3/3 252/3/3 257/3/3
f 259/6/3 253/6/3 258/6/3
f 260/3/3 257/3/3 256/3/3
f 261/3/3 257/3/3 260/3/3
f 264/4/3 263/4/3 262/4/3
f 265/4/3 263/4/3 264/4/3
f 266/4/3 263/4/3 265/4/3
f 272/6/3 268/6/3 267/6/3
f 273/4/3 270/4/3 269/4/3
f 273/6/3 268/6/3 272/6/3
f 273/4/3 269/4/3 268/4/3
f 274/4/3 270/4/3 273/4/3
f 275/4/3 270/4/3 274/4/3
f 276/6/3 271/6/3 270/6/3
f 276/4/3 270/4/3 275/4/3
f 277/6/3 271/6/3 276/6/3
f 279/4/3 275/4/3 274/4/3
f 282/4/3 279/4/3 278/4/3
f 283/4/3 275/4/3 279/4/3
f 283/4/3 279/4/3 282/4/3
f 284/2/3 281/2/3 280/2/3
f 285/2/3 281/2/3 284/2/3
f 288/4/3 275/4/3 283/4/3
f 289/4/3 275/4/3 288/4/3
f 292/6/3 287/6/3 286/6/3
f 293/4/3 288/4/3 287/4/3
f 293/6/3 287/6/3 292/6/3
f 293/4/3 289/4/3 288/4/3
f 293/4/3 290/4/3 289/4/3
f 294/6/3 291/6/3 290/6/3
f 294/4/3 290/4/3 293/4/3
f 295/6/3 291/6/3 294/6/3
f 302/6/3 297/6/3 296/6/3
f 303/3/3 298/3/3 297/3/3
f 303/6/3 297/6/3 302/6/3
f 304/3/3 298/3/3 303/3/3
f 305/6/3 301/6/3 300/6/3
f 305/6/3 300/6/3 299/6/3
f 306/6/3 301/6/3 305/6/3
f 310/1/3 308/1/3 307/1/3
f 311/4/3 309/4/3 308/4/3
f 311/1/3 308/1/3 310/1/3
f 312/4/3 309/4/3 311/4/3
f 315/2/3 314/2/3 313/2/3
f 316/2/3 314/2/3 315/2/3
f 322/2/3 318/2/3 317/2/3
f 323/2/3 318/2/3 322/2/3
f 324/1/3 320/1/3 319/1/3
f 325/4/3 321/4/3 320/4/3
f 325/1/3 320/1/3 324/1/3
f 326/4/3 321/4/3 325/4/3
f 329/6/3 328/6/3 327/6/3
f 330/6/3 328/6/3 329/6/3
f 331/6/4 332/6/4 335/6/4
f 335/6/4 332/6/4 336/6/4
f 333/6/4 334/6/4 337/6/4
f 337/6/4 334/6/4 338/6/4
f 338/6/4 334/6/4 339/6/4
f 340/6/4 341/6/4 344/6/4
f 341/6/4 342/6/4 344/6/4
f 344/6/4 342/6/4 345/6/4
f 343/6/4 344/6/4 347/6/4
f 347/6/4 344/6/4 348/6/4
f 345/6/4 346/6/4 349/6/4
f 349/6/4 346/6/4 350/6/4
f 351/4/4 352/4/4 353/4/4
f 353/4/4 352/4/4 354/4/4
f 355/6/4 356/6/4 357/6/4
f 357/6/4 356/6/4 358/6/4
f 359/6/4 360/6/4 364/6/4
f 364/6/4 360/6/4 365/6/4
f 362/6/4 363/6/4 366/6/4
f 361/6/4 362/6/4 366/6/4
f 366/6/4 363/6/4 367/6/4
f 368/4/4 369/4/4 373/4/4
f 373/4/4 369/4/4 374/4/4
f 370/1/4 371/1/4 375/1/4
f 371/4/4 372/4/4 376/4/4
f 375/1/4 371/1/4 376/1/4
f 376/4/4 372/4/4 377/4/4
f 378/1/4 379/1/4 381/1/4
f 379/4/4 380/4/4 382/4/4
f 381/1/4 379/1/4 382/1/4
f 382/4/4 380/4/4 383/4/4
f 384/6/4 385/6/4 387/6/4
f 387/6/4 385/6/4 388/6/4
f 386/6/4 387/6/4 388/6/4
f 386/6/4 388/6/4 389/6/4
f 389/6/4 388/6/4 390/6/4
f 391/6/4 392/6/4 394/6/4
f 394/6/4 392/6/4 395/6/4
f 393/6/4 394/6/4 397/6/4
f 395/6/4 396/6/4 397/6/4
f 394/6/4 395/6/4 397/6/4
f 397/6/4 396/6/4 398/6/4
f 398/2/4 399/2/4 400/2/4
f 400/2/4 399/2/4 401/2/4
f 402/2/4 403/2/4 405/2/4
f 405/2/4 403/2/4 406/2/4
f 404/6/4 405/6/4 407/6/4
f 407/6/4 405/6/4 408/6/4
f 408/6/4 405/6/4 409/6/4
f 409/6/4 405/6/4 410/6/4
f 408/6/4 409/6/4 411/6/4
f 411/6/4 409/6/4 412/6/4
f 413/6/4 414/6/4 415/6/4
f 415/6/4 414/6/4 416/6/4
f 413/6/4 415/6/4 418/6/4
f 416/2/4 417/2/4 419/2/4
f 419/2/4 417/2/4 420/2/4
f 413/6/4 418/6/4 421/6/4
f 418/6/4 419/6/4 421/6/4
f 421/6/4 419/6/4 422/6/4
f 423/2/4 424/2/4 425/2/4
f 425/2/4 424/2/4 426/2/4
f 431/1/5 428/1/5 427/1/5
f 432/1/5 428/1/5 431/1/5
f 433/1/5 430/1/5 429/1/5
f 434/1/5 430/1/5 433/1/5
f 437/6/5 436/6/5 435/6/5
f 438/6/5 436/6/5 437/6/5
f 440/6/5 439/6/5 438/6/5
f 441/6/5 439/6/5 440/6/5
f 447/4/5 443/4/5 442/4/5
f 448/4/5 443/4/5 447/4/5
f 449/6/5 445/6/5 444/6/5
f 450/6/5 445/6/5 449/6/5
f 452/6/5 448/6/5 447/6/5
f 452/6/5 447/6/5 446/6/5
f 452/6/5 449/6/5 448/6/5
f 453/6/5 449/6/5 452/6/5
f 454/6/5 449/6/5 453/6/5
f 455/6/5 449/6/5 454/6/5
f 456/6/5 451/6/5 450/6/5
f 459/6/5 454/6/5 453/6/5
f 460/6/5 454/6/5 459/6/5
f 462/6/5 457/6/5 456/6/5
f 462/6/5 456/6/5 450/6/5
f 463/6/5 457/6/5 462/6/5
f 464/6/5 461/6/5 460/6/5
f 464/6/5 460/6/5 459/6/5
f 464/6/5 459/6/5 458/6/5
f 465/6/5 461/6/5 464/6/5
f 466/6/5 461/6/5 465/6/5
f 467/6/5 461/6/5 466/6/5
f 468/6/5 466/6/5 465/6/5
f 469/6/5 466/6/5 468/6/5
f 474/6/5 471/6/5 470/6/5
f 475/6/5 471/6/5 474/6/5
f 476/3/5 473/3/5 472/3/5
f 477/3/5 473/3/5 476/3/5
f 480/6/5 479/6/5 478/6/5
f 481/6/5 479/6/5 480/6/5
f 485/4/5 483/4/5 482/4/5
f 485/4/5 484/4/5 483/4/5
f 486/4/5 484/4/5 485/4/5
f 487/4/5 484/4/5 486/4/5
f 488/4/5 487/4/5 486/4/5
f 489/4/5 487/4/5 488/4/5
f 492/4/5 491/4/5 490/4/5
f 493/4/5 491/4/5 492/4/5
f 496/6/5 495/6/5 494/6/5
f 500/6/5 497/6/5 496/6/5
f 500/6/5 496/6/5 494/6/5
f 501/6/5 497/6/5 500/6/5
f 502/6/5 499/6/5 498/6/5
f 503/6/5 499/6/5 502/6/5
f 506/6/5 505/6/5 504/6/5
f 507/6/5 505/6/5 506/6/5
f 510/2/5 509/2/5 508/2/5
f 511/2/5 509/2/5 510/2/5
f 516/6/5 513/6/5 512/6/5
f 517/6/5 513/6/5 516/6/5
f 518/6/5 515/6/5 514/6/5
f 519/6/5 515/6/5 518/6/5
f 522/6/5 521/6/5 520/6/5
f 523/6/5 521/6/5 522/6/5
f 524/4/6 525/4/6 526/4/6
f 526/4/6 525/4/6 527/4/6
f 528/5/6 529/5/6 532/5/6
f 532/5/6 529/5/6 533/5/6
f 530/5/6 531/5/6 534/5/6
f 534/5/6 531/5/6 535/5/6
f 536/3/6 537/3/6 538/3/6
f 538/3/6 537/3/6 539/3/6
f 540/6/6 541/6/6 542/6/6
f 542/6/6 541/6/6 543/6/6
f 544/6/6 545/6/6 549/6/6
f 549/6/6 545/6/6 550/6/6
f 547/4/6 548/4/6 552/4/6
f 546/4/6 547/4/6 552/4/6
f 552/4/6 548/4/6 553/4/6
f 550/6/6 551/6/6 555/6/6
f 555/6/6 551/6/6 556/6/6
f 552/6/6 553/6/6 557/6/6
f 557/6/6 553/6/6 558/6/6
f 554/6/6 555/6/6 559/6/6
f 555/6/6 556/6/6 559/6/6
f 559/6/6 556/6/6 560/6/6
f 561/6/6 562/6/6 563/6/6
f 563/6/6 562/6/6 564/6/6
f 564/6/6 565/6/6 566/6/6
f 566/6/6 565/6/6 567/6/6
f 568/6/6 569/6/6 570/6/6
f 570/6/6 569/6/6 571/6/6
f 571/6/6 569/6/6 572/6/6
f 570/6/6 571/6/6 573/6/6
f 573/6/6 571/6/6 574/6/6
f 572/6/6 569/6/6 575/6/6
f 575/6/6 569/6/6 576/6/6
f 570/6/6 573/6/6 577/6/6
f 577/6/6 573/6/6 578/6/6
f 576/6/6 569/6/6 581/6/6
f 581/6/6 569/6/6 582/6/6
f 578/6/6 579/6/6 583/6/6
f 583/6/6 579/6/6 584/6/6
f 580/6/6 581/6/6 585/6/6
f 585/6/6 581/6/6 586/6/6
f 584/2/6 585/2/6 587/2/6
f 587/2/6 585/2/6 588/2/6
f 589/2/6 590/2/6 592/2/6
f 592/2/6 590/2/6 593/2/6
f 591/2/6 592/2/6 595/2/6
f 593/2/6 594/2/6 595/2/6
f 592/2/6 593/2/6 595/2/6
f 595/2/6 594/2/6 596/2/6
f 596/2/6 594/2/6 597/2/6
f 597/2/6 594/2/6 598/2/6
f 596/2/6 597/2/6 599/2/6
f 599/2/6 597/2/6 600/2/6
f 601/6/6 602/6/6 603/6/6
f 603/6/6 602/6/6 604/6/6
