# MagicaVoxel @ Ephtracy

# group
o 

# material
mtllib Ooogie.mtl
usemtl palette

# normals
vn -1 0 0
vn 1 0 0
vn 0 0 1
vn 0 0 -1
vn 0 -1 0
vn 0 1 0

# texcoords
vt 0.208984 0.5
vt 0.537109 0.5
vt 0.896484 0.5
vt 0.958984 0.5
vt 0.994141 0.5

# verts
v -0.7 0.7 -0.1
v -0.7 0.7 -0.2
v -0.7 0.8 0
v -0.7 0.8 -0.1
v -0.7 0.8 -0.2
v -0.7 0.8 -0.3
v -0.7 0.9 0
v -0.7 0.9 -0.1
v -0.7 1.3 -0.1
v -0.7 1.3 -0.2
v -0.7 1.4 -0.2
v -0.7 1.4 -0.3
v -0.6 0 0.1
v -0.6 0 -0.3
v -0.6 0.1 0.1
v -0.6 0.1 0
v -0.6 0.5 0
v -0.6 0.5 -0.3
v -0.6 0.7 0.1
v -0.6 0.7 0
v -0.6 0.7 -0.1
v -0.6 0.7 -0.2
v -0.6 0.7 -0.3
v -0.6 0.7 -0.4
v -0.6 0.8 0
v -0.6 0.8 -0.1
v -0.6 0.8 -0.2
v -0.6 0.8 -0.3
v -0.6 0.9 0
v -0.6 0.9 -0.1
v -0.6 1.3 0.1
v -0.6 1.3 0
v -0.6 1.3 -0.1
v -0.6 1.3 -0.2
v -0.6 1.4 0
v -0.6 1.4 -0.2
v -0.6 1.4 -0.3
v -0.6 1.4 -0.4
v -0.6 1.5 -0.2
v -0.6 1.5 -0.3
v -0.5 0.7 0.2
v -0.5 0.7 0.1
v -0.5 1.3 0.2
v -0.5 1.3 0.1
v -0.5 1.3 0
v -0.5 1.4 0.1
v -0.5 1.4 0
v -0.5 1.4 -0.3
v -0.5 1.4 -0.4
v -0.5 1.5 -0.3
v -0.5 1.5 -0.4
v -0.4 0.7 0.3
v -0.4 0.7 0.2
v -0.4 1.2 0.3
v -0.4 1.2 0.2
v -0.4 1.3 0.2
v -0.4 1.3 0.1
v -0.4 1.4 0.2
v -0.4 1.4 0.1
v -0.4 1.4 -0.2
v -0.4 1.5 0.1
v -0.4 1.5 -0.2
v -0.3 0.8 0.4
v -0.3 0.8 0.3
v -0.3 1.1 0.4
v -0.3 1.1 0.3
v -0.3 1.2 0.3
v -0.3 1.2 0.2
v -0.3 1.3 0.3
v -0.3 1.3 0.2
v -0.3 1.5 0
v -0.3 1.5 -0.4
v -0.3 1.6 0
v -0.3 1.6 -0.4
v -0.3 2 0
v -0.3 2 -0.4
v -0.3 2.1 0
v -0.3 2.1 -0.4
v -0.2 1.1 0.4
v -0.2 1.1 0.3
v -0.2 1.2 0.4
v -0.2 1.2 0.3
v -0.2 1.3 0.3
v -0.2 1.3 0.2
v -0.2 1.4 0.3
v -0.2 1.4 0.2
v -0.2 1.6 0.1
v -0.2 1.6 0
v -0.2 1.6 -0.4
v -0.2 1.7 0.1
v -0.2 1.7 0
v -0.2 1.8 0.1
v -0.2 1.8 0
v -0.2 1.9 0
v -0.2 1.9 -0.1
v -0.2 2 0
v -0.2 2 -0.1
v -0.2 2 -0.4
v -0.2 2.1 -0.1
v -0.2 2.1 -0.3
v -0.2 2.2 -0.1
v -0.2 2.2 -0.3
v -0.1 1.8 -0.4
v -0.1 1.8 -0.5
v -0.1 2.1 -0.3
v -0.1 2.1 -0.4
v -0.1 2.2 -0.3
v -0.1 2.2 -0.5
v 0.1 1.7 0.1
v 0.1 1.7 0
v 0.1 1.8 0.1
v 0.1 1.8 0
v 0.3 0 0.1
v 0.3 0 -0.3
v 0.3 0.1 0.1
v 0.3 0.1 0
v 0.3 0.5 0
v 0.3 0.5 -0.3
v -0.3 0 0.1
v -0.3 0 -0.3
v -0.3 0.1 0.1
v -0.3 0.1 0
v -0.3 0.5 0
v -0.3 0.5 -0.3
v -0.1 1.7 0.1
v -0.1 1.7 0
v -0.1 1.8 0.1
v -0.1 1.8 0
v 0.1 1.8 -0.4
v 0.1 1.8 -0.5
v 0.1 2.1 -0.3
v 0.1 2.1 -0.4
v 0.1 2.2 -0.3
v 0.1 2.2 -0.5
v 0.2 1.1 0.4
v 0.2 1.1 0.3
v 0.2 1.2 0.4
v 0.2 1.2 0.3
v 0.2 1.3 0.3
v 0.2 1.3 0.2
v 0.2 1.4 0.3
v 0.2 1.4 0.2
v 0.2 1.6 0.1
v 0.2 1.6 0
v 0.2 1.6 -0.4
v 0.2 1.7 0.1
v 0.2 1.7 0
v 0.2 1.8 0.1
v 0.2 1.8 0
v 0.2 1.9 0
v 0.2 1.9 -0.1
v 0.2 2 0
v 0.2 2 -0.1
v 0.2 2 -0.4
v 0.2 2.1 -0.1
v 0.2 2.1 -0.3
v 0.2 2.2 -0.1
v 0.2 2.2 -0.3
v 0.3 0.8 0.4
v 0.3 0.8 0.3
v 0.3 1.1 0.4
v 0.3 1.1 0.3
v 0.3 1.2 0.3
v 0.3 1.2 0.2
v 0.3 1.3 0.3
v 0.3 1.3 0.2
v 0.3 1.5 0
v 0.3 1.5 -0.4
v 0.3 1.6 0
v 0.3 1.6 -0.4
v 0.3 2 0
v 0.3 2 -0.4
v 0.3 2.1 0
v 0.3 2.1 -0.4
v 0.4 0.7 0.3
v 0.4 0.7 0.2
v 0.4 1.2 0.3
v 0.4 1.2 0.2
v 0.4 1.3 0.2
v 0.4 1.3 0.1
v 0.4 1.4 0.2
v 0.4 1.4 0.1
v 0.4 1.4 -0.2
v 0.4 1.5 0.1
v 0.4 1.5 -0.2
v 0.5 0.7 0.2
v 0.5 0.7 0.1
v 0.5 1.3 0.2
v 0.5 1.3 0.1
v 0.5 1.3 0
v 0.5 1.4 0.1
v 0.5 1.4 0
v 0.5 1.4 -0.3
v 0.5 1.4 -0.4
v 0.5 1.5 -0.3
v 0.5 1.5 -0.4
v 0.6 0 0.1
v 0.6 0 -0.3
v 0.6 0.1 0.1
v 0.6 0.1 0
v 0.6 0.5 0
v 0.6 0.5 -0.3
v 0.6 0.7 0.1
v 0.6 0.7 0
v 0.6 0.7 -0.1
v 0.6 0.7 -0.2
v 0.6 0.7 -0.3
v 0.6 0.7 -0.4
v 0.6 0.8 0
v 0.6 0.8 -0.1
v 0.6 0.8 -0.2
v 0.6 0.8 -0.3
v 0.6 0.9 0
v 0.6 0.9 -0.1
v 0.6 1.3 0.1
v 0.6 1.3 0
v 0.6 1.3 -0.1
v 0.6 1.3 -0.2
v 0.6 1.4 0
v 0.6 1.4 -0.2
v 0.6 1.4 -0.3
v 0.6 1.4 -0.4
v 0.6 1.5 -0.2
v 0.6 1.5 -0.3
v 0.7 0.7 -0.1
v 0.7 0.7 -0.2
v 0.7 0.8 0
v 0.7 0.8 -0.1
v 0.7 0.8 -0.2
v 0.7 0.8 -0.3
v 0.7 0.9 0
v 0.7 0.9 -0.1
v 0.7 1.3 -0.1
v 0.7 1.3 -0.2
v 0.7 1.4 -0.2
v 0.7 1.4 -0.3
v -0.3 0.8 0.4
v -0.3 1.1 0.4
v -0.2 1.1 0.4
v -0.2 1.2 0.4
v 0.2 1.1 0.4
v 0.2 1.2 0.4
v 0.3 0.8 0.4
v 0.3 1.1 0.4
v -0.4 0.7 0.3
v -0.4 1.2 0.3
v -0.3 0.8 0.3
v -0.3 1.1 0.3
v -0.3 1.2 0.3
v -0.3 1.3 0.3
v -0.2 1.1 0.3
v -0.2 1.2 0.3
v -0.2 1.3 0.3
v -0.2 1.4 0.3
v 0.2 1.1 0.3
v 0.2 1.2 0.3
v 0.2 1.3 0.3
v 0.2 1.4 0.3
v 0.3 0.8 0.3
v 0.3 1.1 0.3
v 0.3 1.2 0.3
v 0.3 1.3 0.3
v 0.4 0.7 0.3
v 0.4 1.2 0.3
v -0.5 0.7 0.2
v -0.5 1.3 0.2
v -0.4 0.7 0.2
v -0.4 1.2 0.2
v -0.4 1.3 0.2
v -0.4 1.4 0.2
v -0.3 1.2 0.2
v -0.3 1.3 0.2
v -0.2 1.3 0.2
v -0.2 1.4 0.2
v 0.2 1.3 0.2
v 0.2 1.4 0.2
v 0.3 1.2 0.2
v 0.3 1.3 0.2
v 0.4 0.7 0.2
v 0.4 1.2 0.2
v 0.4 1.3 0.2
v 0.4 1.4 0.2
v 0.5 0.7 0.2
v 0.5 1.3 0.2
v -0.6 0 0.1
v -0.6 0.1 0.1
v -0.6 0.7 0.1
v -0.6 1.3 0.1
v -0.5 0.7 0.1
v -0.5 1.3 0.1
v -0.5 1.4 0.1
v -0.4 1.3 0.1
v -0.4 1.4 0.1
v -0.4 1.5 0.1
v -0.3 0 0.1
v -0.3 0.1 0.1
v -0.2 1.6 0.1
v -0.2 1.7 0.1
v -0.2 1.8 0.1
v -0.1 1.7 0.1
v -0.1 1.8 0.1
v 0.1 1.7 0.1
v 0.1 1.8 0.1
v 0.2 1.6 0.1
v 0.2 1.7 0.1
v 0.2 1.8 0.1
v 0.3 0 0.1
v 0.3 0.1 0.1
v 0.4 1.3 0.1
v 0.4 1.4 0.1
v 0.4 1.5 0.1
v 0.5 0.7 0.1
v 0.5 1.3 0.1
v 0.5 1.4 0.1
v 0.6 0 0.1
v 0.6 0.1 0.1
v 0.6 0.7 0.1
v 0.6 1.3 0.1
v -0.7 0.8 0
v -0.7 0.9 0
v -0.6 0.1 0
v -0.6 0.5 0
v -0.6 0.7 0
v -0.6 0.8 0
v -0.6 0.9 0
v -0.6 1.3 0
v -0.6 1.4 0
v -0.5 1.3 0
v -0.5 1.4 0
v -0.3 0.1 0
v -0.3 0.5 0
v -0.3 1.5 0
v -0.3 1.6 0
v -0.3 2 0
v -0.3 2.1 0
v -0.2 1.6 0
v -0.2 1.8 0
v -0.2 1.9 0
v -0.2 2 0
v -0.1 1.7 0
v -0.1 1.8 0
v -0.1 1.9 0
v -0.1 2 0
v 0.1 1.7 0
v 0.1 1.8 0
v 0.1 1.9 0
v 0.1 2 0
v 0.2 1.6 0
v 0.2 1.8 0
v 0.2 1.9 0
v 0.2 2 0
v 0.3 0.1 0
v 0.3 0.5 0
v 0.3 1.5 0
v 0.3 1.6 0
v 0.3 2 0
v 0.3 2.1 0
v 0.5 1.3 0
v 0.5 1.4 0
v 0.6 0.1 0
v 0.6 0.5 0
v 0.6 0.7 0
v 0.6 0.8 0
v 0.6 0.9 0
v 0.6 1.3 0
v 0.6 1.4 0
v 0.7 0.8 0
v 0.7 0.9 0
v -0.7 0.7 -0.1
v -0.7 0.8 -0.1
v -0.7 0.9 -0.1
v -0.7 1.3 -0.1
v -0.6 0.7 -0.1
v -0.6 0.8 -0.1
v -0.6 0.9 -0.1
v -0.6 1.3 -0.1
v -0.2 2.1 -0.1
v -0.2 2.2 -0.1
v 0.2 2.1 -0.1
v 0.2 2.2 -0.1
v 0.6 0.7 -0.1
v 0.6 0.8 -0.1
v 0.6 0.9 -0.1
v 0.6 1.3 -0.1
v 0.7 0.7 -0.1
v 0.7 0.8 -0.1
v 0.7 0.9 -0.1
v 0.7 1.3 -0.1
v -0.7 1.3 -0.2
v -0.7 1.4 -0.2
v -0.6 1.3 -0.2
v -0.6 1.4 -0.2
v -0.6 1.5 -0.2
v -0.4 1.4 -0.2
v -0.4 1.5 -0.2
v 0.4 1.4 -0.2
v 0.4 1.5 -0.2
v 0.6 1.3 -0.2
v 0.6 1.4 -0.2
v 0.6 1.5 -0.2
v 0.7 1.3 -0.2
v 0.7 1.4 -0.2
v -0.7 0.7 -0.2
v -0.7 0.8 -0.2
v -0.6 0.7 -0.2
v -0.6 0.8 -0.2
v 0.6 0.7 -0.2
v 0.6 0.8 -0.2
v 0.7 0.7 -0.2
v 0.7 0.8 -0.2
v -0.7 0.8 -0.3
v -0.7 1.4 -0.3
v -0.6 0 -0.3
v -0.6 0.5 -0.3
v -0.6 0.7 -0.3
v -0.6 0.8 -0.3
v -0.6 1.4 -0.3
v -0.6 1.5 -0.3
v -0.5 1.4 -0.3
v -0.5 1.5 -0.3
v -0.3 0 -0.3
v -0.3 0.5 -0.3
v -0.2 2.1 -0.3
v -0.2 2.2 -0.3
v -0.1 2.1 -0.3
v -0.1 2.2 -0.3
v 0.1 2.1 -0.3
v 0.1 2.2 -0.3
v 0.2 2.1 -0.3
v 0.2 2.2 -0.3
v 0.3 0 -0.3
v 0.3 0.5 -0.3
v 0.5 1.4 -0.3
v 0.5 1.5 -0.3
v 0.6 0 -0.3
v 0.6 0.5 -0.3
v 0.6 0.7 -0.3
v 0.6 0.8 -0.3
v 0.6 1.4 -0.3
v 0.6 1.5 -0.3
v 0.7 0.8 -0.3
v 0.7 1.4 -0.3
v -0.6 0.7 -0.4
v -0.6 1.4 -0.4
v -0.5 1.4 -0.4
v -0.5 1.5 -0.4
v -0.3 1.5 -0.4
v -0.3 1.6 -0.4
v -0.3 2 -0.4
v -0.3 2.1 -0.4
v -0.2 1.6 -0.4
v -0.2 2 -0.4
v -0.1 1.8 -0.4
v -0.1 2.1 -0.4
v 0.1 1.8 -0.4
v 0.1 2.1 -0.4
v 0.2 1.6 -0.4
v 0.2 2 -0.4
v 0.3 1.5 -0.4
v 0.3 1.6 -0.4
v 0.3 2 -0.4
v 0.3 2.1 -0.4
v 0.5 1.4 -0.4
v 0.5 1.5 -0.4
v 0.6 0.7 -0.4
v 0.6 1.4 -0.4
v -0.1 1.8 -0.5
v -0.1 2.2 -0.5
v 0.1 1.8 -0.5
v 0.1 2.2 -0.5
v -0.6 0 0.1
v -0.3 0 0.1
v 0.3 0 0.1
v 0.6 0 0.1
v -0.6 0 -0.3
v -0.3 0 -0.3
v 0.3 0 -0.3
v 0.6 0 -0.3
v -0.3 0.5 0
v 0.3 0.5 0
v -0.3 0.5 -0.3
v 0.3 0.5 -0.3
v -0.4 0.7 0.3
v 0.4 0.7 0.3
v -0.5 0.7 0.2
v -0.4 0.7 0.2
v 0.4 0.7 0.2
v 0.5 0.7 0.2
v -0.6 0.7 0.1
v -0.5 0.7 0.1
v 0.5 0.7 0.1
v 0.6 0.7 0.1
v -0.6 0.7 0
v 0.6 0.7 0
v -0.7 0.7 -0.1
v -0.6 0.7 -0.1
v 0.6 0.7 -0.1
v 0.7 0.7 -0.1
v -0.7 0.7 -0.2
v -0.6 0.7 -0.2
v 0.6 0.7 -0.2
v 0.7 0.7 -0.2
v -0.6 0.7 -0.3
v 0.6 0.7 -0.3
v -0.6 0.7 -0.4
v 0.6 0.7 -0.4
v -0.3 0.8 0.4
v 0.3 0.8 0.4
v -0.3 0.8 0.3
v 0.3 0.8 0.3
v -0.7 0.8 0
v -0.6 0.8 0
v 0.6 0.8 0
v 0.7 0.8 0
v -0.7 0.8 -0.1
v -0.6 0.8 -0.1
v 0.6 0.8 -0.1
v 0.7 0.8 -0.1
v -0.7 0.8 -0.2
v -0.6 0.8 -0.2
v 0.6 0.8 -0.2
v 0.7 0.8 -0.2
v -0.7 0.8 -0.3
v -0.6 0.8 -0.3
v 0.6 0.8 -0.3
v 0.7 0.8 -0.3
v -0.2 1.6 0.1
v 0.2 1.6 0.1
v -0.2 1.6 0
v 0.2 1.6 0
v -0.1 1.8 -0.4
v 0.1 1.8 -0.4
v -0.1 1.8 -0.5
v 0.1 1.8 -0.5
v -0.3 2 0
v -0.2 2 0
v 0.2 2 0
v 0.3 2 0
v -0.2 2 -0.1
v 0.2 2 -0.1
v -0.3 2 -0.4
v -0.2 2 -0.4
v 0.2 2 -0.4
v 0.3 2 -0.4
v -0.6 0.1 0.1
v -0.3 0.1 0.1
v 0.3 0.1 0.1
v 0.6 0.1 0.1
v -0.6 0.1 0
v -0.3 0.1 0
v 0.3 0.1 0
v 0.6 0.1 0
v -0.7 0.9 0
v -0.6 0.9 0
v 0.6 0.9 0
v 0.7 0.9 0
v -0.7 0.9 -0.1
v -0.6 0.9 -0.1
v 0.6 0.9 -0.1
v 0.7 0.9 -0.1
v -0.3 1.1 0.4
v -0.2 1.1 0.4
v 0.2 1.1 0.4
v 0.3 1.1 0.4
v -0.3 1.1 0.3
v -0.2 1.1 0.3
v 0.2 1.1 0.3
v 0.3 1.1 0.3
v -0.2 1.2 0.4
v 0.2 1.2 0.4
v -0.4 1.2 0.3
v -0.3 1.2 0.3
v -0.2 1.2 0.3
v 0.2 1.2 0.3
v 0.3 1.2 0.3
v 0.4 1.2 0.3
v -0.4 1.2 0.2
v -0.3 1.2 0.2
v 0.3 1.2 0.2
v 0.4 1.2 0.2
v -0.3 1.3 0.3
v -0.2 1.3 0.3
v 0.2 1.3 0.3
v 0.3 1.3 0.3
v -0.5 1.3 0.2
v -0.4 1.3 0.2
v -0.3 1.3 0.2
v -0.2 1.3 0.2
v 0.2 1.3 0.2
v 0.3 1.3 0.2
v 0.4 1.3 0.2
v 0.5 1.3 0.2
v -0.6 1.3 0.1
v -0.5 1.3 0.1
v -0.4 1.3 0.1
v 0.4 1.3 0.1
v 0.5 1.3 0.1
v 0.6 1.3 0.1
v -0.6 1.3 0
v -0.5 1.3 0
v 0.5 1.3 0
v 0.6 1.3 0
v -0.7 1.3 -0.1
v -0.6 1.3 -0.1
v 0.6 1.3 -0.1
v 0.7 1.3 -0.1
v -0.7 1.3 -0.2
v -0.6 1.3 -0.2
v 0.6 1.3 -0.2
v 0.7 1.3 -0.2
v -0.2 1.4 0.3
v 0.2 1.4 0.3
v -0.4 1.4 0.2
v -0.2 1.4 0.2
v 0.2 1.4 0.2
v 0.4 1.4 0.2
v -0.5 1.4 0.1
v -0.4 1.4 0.1
v 0.4 1.4 0.1
v 0.5 1.4 0.1
v -0.6 1.4 0
v -0.5 1.4 0
v 0.5 1.4 0
v 0.6 1.4 0
v -0.7 1.4 -0.2
v -0.6 1.4 -0.2
v -0.4 1.4 -0.2
v 0.4 1.4 -0.2
v 0.6 1.4 -0.2
v 0.7 1.4 -0.2
v -0.7 1.4 -0.3
v -0.6 1.4 -0.3
v -0.5 1.4 -0.3
v 0.5 1.4 -0.3
v 0.6 1.4 -0.3
v 0.7 1.4 -0.3
v -0.6 1.4 -0.4
v -0.5 1.4 -0.4
v 0.5 1.4 -0.4
v 0.6 1.4 -0.4
v -0.4 1.5 0.1
v 0.4 1.5 0.1
v -0.3 1.5 0
v 0.3 1.5 0
v -0.6 1.5 -0.2
v -0.4 1.5 -0.2
v 0.4 1.5 -0.2
v 0.6 1.5 -0.2
v -0.6 1.5 -0.3
v -0.5 1.5 -0.3
v 0.5 1.5 -0.3
v 0.6 1.5 -0.3
v -0.5 1.5 -0.4
v -0.3 1.5 -0.4
v 0.3 1.5 -0.4
v 0.5 1.5 -0.4
v -0.3 1.6 0
v -0.2 1.6 0
v 0.2 1.6 0
v 0.3 1.6 0
v -0.3 1.6 -0.4
v -0.2 1.6 -0.4
v 0.2 1.6 -0.4
v 0.3 1.6 -0.4
v -0.1 1.7 0.1
v 0.1 1.7 0.1
v -0.1 1.7 0
v 0.1 1.7 0
v -0.2 1.8 0.1
v -0.1 1.8 0.1
v 0.1 1.8 0.1
v 0.2 1.8 0.1
v -0.2 1.8 0
v -0.1 1.8 0
v 0.1 1.8 0
v 0.2 1.8 0
v -0.3 2.1 0
v 0.3 2.1 0
v -0.2 2.1 -0.1
v 0.2 2.1 -0.1
v -0.2 2.1 -0.3
v -0.1 2.1 -0.3
v 0.1 2.1 -0.3
v 0.2 2.1 -0.3
v -0.3 2.1 -0.4
v -0.1 2.1 -0.4
v 0.1 2.1 -0.4
v 0.3 2.1 -0.4
v -0.2 2.2 -0.1
v 0.2 2.2 -0.1
v -0.2 2.2 -0.3
v -0.1 2.2 -0.3
v 0.1 2.2 -0.3
v 0.2 2.2 -0.3
v -0.1 2.2 -0.5
v 0.1 2.2 -0.5

# faces
f 4/3/1 2/3/1 1/3/1
f 5/3/1 2/3/1 4/3/1
f 7/3/1 4/3/1 3/3/1
f 7/3/1 6/3/1 5/3/1
f 7/3/1 5/3/1 4/3/1
f 8/3/1 6/3/1 7/3/1
f 9/3/1 6/3/1 8/3/1
f 10/3/1 6/3/1 9/3/1
f 11/3/1 6/3/1 10/3/1
f 12/3/1 6/3/1 11/3/1
f 15/3/1 14/3/1 13/3/1
f 16/3/1 14/3/1 15/3/1
f 17/3/1 14/3/1 16/3/1
f 18/3/1 14/3/1 17/3/1
f 20/1/1 18/1/1 17/1/1
f 21/1/1 18/1/1 20/1/1
f 22/1/1 18/1/1 21/1/1
f 23/1/1 18/1/1 22/1/1
f 25/3/1 20/3/1 19/3/1
f 25/3/1 21/3/1 20/3/1
f 26/3/1 21/3/1 25/3/1
f 27/3/1 23/3/1 22/3/1
f 27/3/1 24/3/1 23/3/1
f 28/3/1 24/3/1 27/3/1
f 29/3/1 25/3/1 19/3/1
f 31/3/1 29/3/1 19/3/1
f 31/3/1 30/3/1 29/3/1
f 32/3/1 30/3/1 31/3/1
f 33/3/1 30/3/1 32/3/1
f 35/3/1 34/3/1 33/3/1
f 35/3/1 33/3/1 32/3/1
f 36/3/1 34/3/1 35/3/1
f 37/3/1 24/3/1 28/3/1
f 38/3/1 24/3/1 37/3/1
f 39/3/1 37/3/1 36/3/1
f 40/3/1 37/3/1 39/3/1
f 43/3/1 42/3/1 41/3/1
f 44/3/1 42/3/1 43/3/1
f 46/3/1 45/3/1 44/3/1
f 47/3/1 45/3/1 46/3/1
f 50/3/1 49/3/1 48/3/1
f 51/3/1 49/3/1 50/3/1
f 54/3/1 53/3/1 52/3/1
f 55/3/1 53/3/1 54/3/1
f 58/3/1 57/3/1 56/3/1
f 59/3/1 57/3/1 58/3/1
f 61/3/1 60/3/1 59/3/1
f 62/3/1 60/3/1 61/3/1
f 65/3/1 64/3/1 63/3/1
f 66/3/1 64/3/1 65/3/1
f 69/3/1 68/3/1 67/3/1
f 70/3/1 68/3/1 69/3/1
f 73/3/1 72/3/1 71/3/1
f 74/3/1 72/3/1 73/3/1
f 77/3/1 76/3/1 75/3/1
f 78/3/1 76/3/1 77/3/1
f 81/3/1 80/3/1 79/3/1
f 82/3/1 80/3/1 81/3/1
f 85/3/1 84/3/1 83/3/1
f 86/3/1 84/3/1 85/3/1
f 90/3/1 88/3/1 87/3/1
f 90/3/1 89/3/1 88/3/1
f 91/3/1 89/3/1 90/3/1
f 92/4/1 91/4/1 90/4/1
f 93/3/1 89/3/1 91/3/1
f 93/4/1 91/4/1 92/4/1
f 94/3/1 89/3/1 93/3/1
f 95/3/1 89/3/1 94/3/1
f 96/5/1 95/5/1 94/5/1
f 97/3/1 89/3/1 95/3/1
f 97/5/1 95/5/1 96/5/1
f 98/3/1 89/3/1 97/3/1
f 101/2/1 100/2/1 99/2/1
f 102/2/1 100/2/1 101/2/1
f 106/2/1 104/2/1 103/2/1
f 107/2/1 106/2/1 105/2/1
f 108/2/1 104/2/1 106/2/1
f 108/2/1 106/2/1 107/2/1
f 111/4/1 110/4/1 109/4/1
f 112/4/1 110/4/1 111/4/1
f 115/3/1 114/3/1 113/3/1
f 116/3/1 114/3/1 115/3/1
f 117/3/1 114/3/1 116/3/1
f 118/3/1 114/3/1 117/3/1
f 119/3/2 120/3/2 121/3/2
f 121/3/2 120/3/2 122/3/2
f 122/3/2 120/3/2 123/3/2
f 123/3/2 120/3/2 124/3/2
f 125/4/2 126/4/2 127/4/2
f 127/4/2 126/4/2 128/4/2
f 129/2/2 130/2/2 132/2/2
f 131/2/2 132/2/2 133/2/2
f 132/2/2 130/2/2 134/2/2
f 133/2/2 132/2/2 134/2/2
f 135/3/2 136/3/2 137/3/2
f 137/3/2 136/3/2 138/3/2
f 139/3/2 140/3/2 141/3/2
f 141/3/2 140/3/2 142/3/2
f 143/3/2 144/3/2 146/3/2
f 144/3/2 145/3/2 146/3/2
f 146/3/2 145/3/2 147/3/2
f 146/4/2 147/4/2 148/4/2
f 147/3/2 145/3/2 149/3/2
f 148/4/2 147/4/2 149/4/2
f 149/3/2 145/3/2 150/3/2
f 150/3/2 145/3/2 151/3/2
f 150/5/2 151/5/2 152/5/2
f 151/3/2 145/3/2 153/3/2
f 152/5/2 151/5/2 153/5/2
f 153/3/2 145/3/2 154/3/2
f 155/2/2 156/2/2 157/2/2
f 157/2/2 156/2/2 158/2/2
f 159/3/2 160/3/2 161/3/2
f 161/3/2 160/3/2 162/3/2
f 163/3/2 164/3/2 165/3/2
f 165/3/2 164/3/2 166/3/2
f 167/3/2 168/3/2 169/3/2
f 169/3/2 168/3/2 170/3/2
f 171/3/2 172/3/2 173/3/2
f 173/3/2 172/3/2 174/3/2
f 175/3/2 176/3/2 177/3/2
f 177/3/2 176/3/2 178/3/2
f 179/3/2 180/3/2 181/3/2
f 181/3/2 180/3/2 182/3/2
f 182/3/2 183/3/2 184/3/2
f 184/3/2 183/3/2 185/3/2
f 186/3/2 187/3/2 188/3/2
f 188/3/2 187/3/2 189/3/2
f 189/3/2 190/3/2 191/3/2
f 191/3/2 190/3/2 192/3/2
f 193/3/2 194/3/2 195/3/2
f 195/3/2 194/3/2 196/3/2
f 197/3/2 198/3/2 199/3/2
f 199/3/2 198/3/2 200/3/2
f 200/3/2 198/3/2 201/3/2
f 201/3/2 198/3/2 202/3/2
f 201/1/2 202/1/2 204/1/2
f 204/1/2 202/1/2 205/1/2
f 205/1/2 202/1/2 206/1/2
f 206/1/2 202/1/2 207/1/2
f 203/3/2 204/3/2 209/3/2
f 204/3/2 205/3/2 209/3/2
f 209/3/2 205/3/2 210/3/2
f 206/3/2 207/3/2 211/3/2
f 207/3/2 208/3/2 211/3/2
f 211/3/2 208/3/2 212/3/2
f 203/3/2 209/3/2 213/3/2
f 203/3/2 213/3/2 215/3/2
f 213/3/2 214/3/2 215/3/2
f 215/3/2 214/3/2 216/3/2
f 216/3/2 214/3/2 217/3/2
f 217/3/2 218/3/2 219/3/2
f 216/3/2 217/3/2 219/3/2
f 219/3/2 218/3/2 220/3/2
f 212/3/2 208/3/2 221/3/2
f 221/3/2 208/3/2 222/3/2
f 220/3/2 221/3/2 223/3/2
f 223/3/2 221/3/2 224/3/2
f 225/3/2 226/3/2 228/3/2
f 228/3/2 226/3/2 229/3/2
f 227/3/2 228/3/2 231/3/2
f 229/3/2 230/3/2 231/3/2
f 228/3/2 229/3/2 231/3/2
f 231/3/2 230/3/2 232/3/2
f 232/3/2 230/3/2 233/3/2
f 233/3/2 230/3/2 234/3/2
f 234/3/2 230/3/2 235/3/2
f 235/3/2 230/3/2 236/3/2
f 239/3/3 238/3/3 237/3/3
f 241/3/3 239/3/3 237/3/3
f 241/3/3 240/3/3 239/3/3
f 242/3/3 240/3/3 241/3/3
f 243/3/3 241/3/3 237/3/3
f 244/3/3 241/3/3 243/3/3
f 247/3/3 246/3/3 245/3/3
f 248/3/3 246/3/3 247/3/3
f 249/3/3 246/3/3 248/3/3
f 251/3/3 250/3/3 249/3/3
f 251/3/3 249/3/3 248/3/3
f 252/3/3 250/3/3 251/3/3
f 253/3/3 250/3/3 252/3/3
f 256/3/3 254/3/3 253/3/3
f 256/3/3 253/3/3 252/3/3
f 257/3/3 254/3/3 256/3/3
f 258/3/3 254/3/3 257/3/3
f 259/3/3 247/3/3 245/3/3
f 260/3/3 256/3/3 255/3/3
f 260/3/3 257/3/3 256/3/3
f 261/3/3 257/3/3 260/3/3
f 262/3/3 257/3/3 261/3/3
f 263/3/3 259/3/3 245/3/3
f 263/3/3 260/3/3 259/3/3
f 263/3/3 261/3/3 260/3/3
f 264/3/3 261/3/3 263/3/3
f 267/3/3 266/3/3 265/3/3
f 268/3/3 266/3/3 267/3/3
f 269/3/3 266/3/3 268/3/3
f 271/3/3 270/3/3 269/3/3
f 271/3/3 269/3/3 268/3/3
f 272/3/3 270/3/3 271/3/3
f 273/3/3 270/3/3 272/3/3
f 274/3/3 270/3/3 273/3/3
f 278/3/3 276/3/3 275/3/3
f 280/3/3 278/3/3 277/3/3
f 281/3/3 276/3/3 278/3/3
f 281/3/3 278/3/3 280/3/3
f 282/3/3 276/3/3 281/3/3
f 283/3/3 280/3/3 279/3/3
f 283/3/3 281/3/3 280/3/3
f 284/3/3 281/3/3 283/3/3
f 289/3/3 288/3/3 287/3/3
f 290/3/3 288/3/3 289/3/3
f 292/3/3 291/3/3 290/3/3
f 293/3/3 291/3/3 292/3/3
f 295/3/3 286/3/3 285/3/3
f 296/3/3 286/3/3 295/3/3
f 300/3/3 298/3/3 297/3/3
f 300/4/3 299/4/3 298/4/3
f 301/4/3 299/4/3 300/4/3
f 302/3/3 300/3/3 297/3/3
f 304/3/3 302/3/3 297/3/3
f 305/4/3 303/4/3 302/4/3
f 305/3/3 302/3/3 304/3/3
f 306/4/3 303/4/3 305/4/3
f 310/3/3 294/3/3 293/3/3
f 311/3/3 294/3/3 310/3/3
f 313/3/3 310/3/3 309/3/3
f 314/3/3 310/3/3 313/3/3
f 315/3/3 308/3/3 307/3/3
f 316/3/3 308/3/3 315/3/3
f 317/3/3 313/3/3 312/3/3
f 318/3/3 313/3/3 317/3/3
f 324/3/3 320/3/3 319/3/3
f 325/3/3 320/3/3 324/3/3
f 328/3/3 327/3/3 326/3/3
f 329/3/3 327/3/3 328/3/3
f 330/3/3 322/3/3 321/3/3
f 331/1/3 323/1/3 322/1/3
f 331/3/3 322/3/3 330/3/3
f 336/3/3 333/3/3 332/3/3
f 339/3/3 335/3/3 334/3/3
f 341/3/3 338/3/3 337/3/3
f 342/5/3 339/5/3 338/5/3
f 342/3/3 338/3/3 341/3/3
f 343/3/3 335/3/3 339/3/3
f 343/5/3 339/5/3 342/5/3
f 344/3/3 341/3/3 340/3/3
f 344/3/3 342/3/3 341/3/3
f 344/3/3 343/3/3 342/3/3
f 345/3/3 343/3/3 344/3/3
f 346/3/3 343/3/3 345/3/3
f 347/3/3 335/3/3 343/3/3
f 347/3/3 343/3/3 346/3/3
f 348/3/3 336/3/3 332/3/3
f 349/3/3 346/3/3 345/3/3
f 350/5/3 347/5/3 346/5/3
f 350/3/3 346/3/3 349/3/3
f 351/3/3 335/3/3 347/3/3
f 351/5/3 347/5/3 350/5/3
f 353/1/3 323/1/3 331/1/3
f 354/3/3 348/3/3 332/3/3
f 355/3/3 348/3/3 354/3/3
f 356/3/3 335/3/3 351/3/3
f 357/3/3 335/3/3 356/3/3
f 360/3/3 353/3/3 352/3/3
f 361/1/3 323/1/3 353/1/3
f 361/3/3 353/3/3 360/3/3
f 362/1/3 323/1/3 361/1/3
f 365/3/3 359/3/3 358/3/3
f 366/3/3 359/3/3 365/3/3
f 367/3/3 364/3/3 363/3/3
f 368/3/3 364/3/3 367/3/3
f 373/3/3 370/3/3 369/3/3
f 374/3/3 370/3/3 373/3/3
f 375/3/3 372/3/3 371/3/3
f 376/3/3 372/3/3 375/3/3
f 379/2/3 378/2/3 377/2/3
f 380/2/3 378/2/3 379/2/3
f 385/3/3 382/3/3 381/3/3
f 386/3/3 382/3/3 385/3/3
f 387/3/3 384/3/3 383/3/3
f 388/3/3 384/3/3 387/3/3
f 391/3/3 390/3/3 389/3/3
f 392/3/3 390/3/3 391/3/3
f 394/3/3 393/3/3 392/3/3
f 395/3/3 393/3/3 394/3/3
f 399/3/3 397/3/3 396/3/3
f 400/3/3 397/3/3 399/3/3
f 401/3/3 399/3/3 398/3/3
f 402/3/3 399/3/3 401/3/3
f 403/3/4 404/3/4 405/3/4
f 405/3/4 404/3/4 406/3/4
f 407/3/4 408/3/4 409/3/4
f 409/3/4 408/3/4 410/3/4
f 411/3/4 412/3/4 416/3/4
f 416/3/4 412/3/4 417/3/4
f 417/3/4 418/3/4 419/3/4
f 419/3/4 418/3/4 420/3/4
f 413/3/4 414/3/4 421/3/4
f 414/1/4 415/1/4 422/1/4
f 421/3/4 414/3/4 422/3/4
f 423/2/4 424/2/4 425/2/4
f 425/2/4 424/2/4 426/2/4
f 427/2/4 428/2/4 429/2/4
f 429/2/4 428/2/4 430/2/4
f 422/1/4 415/1/4 432/1/4
f 431/3/4 432/3/4 435/3/4
f 432/1/4 415/1/4 436/1/4
f 435/3/4 432/3/4 436/3/4
f 436/1/4 415/1/4 437/1/4
f 433/3/4 434/3/4 439/3/4
f 439/3/4 434/3/4 440/3/4
f 438/3/4 439/3/4 441/3/4
f 441/3/4 439/3/4 442/3/4
f 443/3/4 444/3/4 445/3/4
f 445/3/4 446/3/4 447/3/4
f 447/3/4 448/3/4 451/3/4
f 449/3/4 450/3/4 452/3/4
f 451/3/4 452/3/4 453/3/4
f 452/3/4 450/3/4 454/3/4
f 453/3/4 452/3/4 454/3/4
f 451/3/4 453/3/4 455/3/4
f 447/3/4 451/3/4 457/3/4
f 455/3/4 456/3/4 457/3/4
f 451/3/4 455/3/4 457/3/4
f 457/3/4 456/3/4 458/3/4
f 445/3/4 447/3/4 459/3/4
f 447/3/4 457/3/4 459/3/4
f 459/3/4 457/3/4 460/3/4
f 458/3/4 456/3/4 461/3/4
f 461/3/4 456/3/4 462/3/4
f 443/3/4 445/3/4 463/3/4
f 445/3/4 459/3/4 463/3/4
f 463/3/4 459/3/4 464/3/4
f 443/3/4 463/3/4 465/3/4
f 465/3/4 463/3/4 466/3/4
f 467/2/4 468/2/4 469/2/4
f 469/2/4 468/2/4 470/2/4
f 475/3/5 472/3/5 471/3/5
f 476/3/5 472/3/5 475/3/5
f 477/3/5 474/3/5 473/3/5
f 478/3/5 474/3/5 477/3/5
f 481/1/5 480/1/5 479/1/5
f 482/1/5 480/1/5 481/1/5
f 486/3/5 484/3/5 483/3/5
f 487/3/5 484/3/5 486/3/5
f 490/3/5 486/3/5 485/3/5
f 490/3/5 488/3/5 487/3/5
f 490/3/5 487/3/5 486/3/5
f 491/3/5 488/3/5 490/3/5
f 493/3/5 490/3/5 489/3/5
f 493/3/5 492/3/5 491/3/5
f 493/3/5 491/3/5 490/3/5
f 494/3/5 492/3/5 493/3/5
f 499/3/5 496/3/5 495/3/5
f 500/3/5 496/3/5 499/3/5
f 501/3/5 498/3/5 497/3/5
f 502/3/5 498/3/5 501/3/5
f 505/3/5 504/3/5 503/3/5
f 506/3/5 504/3/5 505/3/5
f 509/3/5 508/3/5 507/3/5
f 510/3/5 508/3/5 509/3/5
f 515/3/5 512/3/5 511/3/5
f 516/3/5 512/3/5 515/3/5
f 517/3/5 514/3/5 513/3/5
f 518/3/5 514/3/5 517/3/5
f 523/3/5 520/3/5 519/3/5
f 524/3/5 520/3/5 523/3/5
f 525/3/5 522/3/5 521/3/5
f 526/3/5 522/3/5 525/3/5
f 529/3/5 528/3/5 527/3/5
f 530/3/5 528/3/5 529/3/5
f 533/2/5 532/2/5 531/2/5
f 534/2/5 532/2/5 533/2/5
f 539/3/5 536/3/5 535/3/5
f 540/3/5 538/3/5 537/3/5
f 541/3/5 539/3/5 535/3/5
f 542/3/5 539/3/5 541/3/5
f 543/3/5 538/3/5 540/3/5
f 544/3/5 538/3/5 543/3/5
f 545/3/6 546/3/6 549/3/6
f 549/3/6 546/3/6 550/3/6
f 547/3/6 548/3/6 551/3/6
f 551/3/6 548/3/6 552/3/6
f 553/3/6 554/3/6 557/3/6
f 557/3/6 554/3/6 558/3/6
f 555/3/6 556/3/6 559/3/6
f 559/3/6 556/3/6 560/3/6
f 561/3/6 562/3/6 565/3/6
f 565/3/6 562/3/6 566/3/6
f 563/3/6 564/3/6 567/3/6
f 567/3/6 564/3/6 568/3/6
f 569/3/6 570/3/6 573/3/6
f 573/3/6 570/3/6 574/3/6
f 571/3/6 572/3/6 577/3/6
f 577/3/6 572/3/6 578/3/6
f 575/3/6 576/3/6 579/3/6
f 579/3/6 576/3/6 580/3/6
f 581/3/6 582/3/6 587/3/6
f 587/3/6 582/3/6 588/3/6
f 583/3/6 584/3/6 589/3/6
f 589/3/6 584/3/6 590/3/6
f 585/3/6 586/3/6 594/3/6
f 594/3/6 586/3/6 595/3/6
f 591/3/6 592/3/6 596/3/6
f 596/3/6 592/3/6 597/3/6
f 593/3/6 594/3/6 599/3/6
f 599/3/6 594/3/6 600/3/6
f 597/3/6 598/3/6 601/3/6
f 601/3/6 598/3/6 602/3/6
f 603/3/6 604/3/6 607/3/6
f 607/3/6 604/3/6 608/3/6
f 605/3/6 606/3/6 609/3/6
f 609/3/6 606/3/6 610/3/6
f 611/3/6 612/3/6 614/3/6
f 614/3/6 612/3/6 615/3/6
f 613/3/6 614/3/6 618/3/6
f 615/3/6 616/3/6 618/3/6
f 614/3/6 615/3/6 618/3/6
f 618/3/6 616/3/6 619/3/6
f 617/3/6 618/3/6 622/3/6
f 619/3/6 620/3/6 623/3/6
f 621/3/6 622/3/6 626/3/6
f 622/3/6 618/3/6 627/3/6
f 626/3/6 622/3/6 627/3/6
f 623/3/6 624/3/6 628/3/6
f 619/3/6 623/3/6 628/3/6
f 628/3/6 624/3/6 629/3/6
f 625/3/6 626/3/6 631/3/6
f 631/3/6 626/3/6 632/3/6
f 629/3/6 630/3/6 635/3/6
f 635/3/6 630/3/6 636/3/6
f 632/3/6 633/3/6 637/3/6
f 637/3/6 633/3/6 638/3/6
f 634/3/6 635/3/6 639/3/6
f 639/3/6 635/3/6 640/3/6
f 641/3/6 642/3/6 643/3/6
f 643/3/6 642/3/6 644/3/6
f 641/3/6 643/3/6 646/3/6
f 644/3/6 642/3/6 647/3/6
f 645/3/6 646/3/6 649/3/6
f 649/3/6 646/3/6 650/3/6
f 647/3/6 648/3/6 651/3/6
f 651/3/6 648/3/6 652/3/6
f 650/3/6 646/3/6 653/3/6
f 646/3/6 643/3/6 654/3/6
f 653/3/6 646/3/6 654/3/6
f 644/3/6 647/3/6 655/3/6
f 647/3/6 651/3/6 655/3/6
f 655/3/6 651/3/6 656/3/6
f 657/3/6 658/3/6 661/3/6
f 661/3/6 658/3/6 662/3/6
f 659/3/6 660/3/6 663/3/6
f 663/3/6 660/3/6 664/3/6
f 665/3/6 666/3/6 667/3/6
f 667/3/6 666/3/6 668/3/6
f 669/4/6 670/4/6 673/4/6
f 673/4/6 670/4/6 674/4/6
f 671/4/6 672/4/6 675/4/6
f 675/4/6 672/4/6 676/4/6
f 677/3/6 678/3/6 679/3/6
f 679/3/6 678/3/6 680/3/6
f 677/3/6 679/3/6 681/3/6
f 680/3/6 678/3/6 684/3/6
f 681/3/6 682/3/6 685/3/6
f 677/3/6 681/3/6 685/3/6
f 685/3/6 682/3/6 686/3/6
f 683/3/6 684/3/6 687/3/6
f 684/3/6 678/3/6 688/3/6
f 687/3/6 684/3/6 688/3/6
f 689/2/6 690/2/6 691/2/6
f 691/2/6 690/2/6 692/2/6
f 692/2/6 690/2/6 693/2/6
f 693/2/6 690/2/6 694/2/6
f 692/2/6 693/2/6 695/2/6
f 695/2/6 693/2/6 696/2/6
