# MagicaVoxel @ Ephtracy

# group
o 

# material
mtllib CanonTower5.mtl
usemtl palette

# normals
vn -1 0 0
vn 1 0 0
vn 0 0 1
vn 0 0 -1
vn 0 -1 0
vn 0 1 0

# texcoords
vt 0.666016 0.5
vt 0.990234 0.5
vt 0.994141 0.5

# verts
v -1 0 1
v -1 0 -1
v -1 0.2 1
v -1 0.2 0.2
v -1 0.2 0.1
v -1 0.2 -0.1
v -1 0.2 -0.2
v -1 0.2 -1
v -1 1.5 0.1
v -1 1.5 -0.1
v -1 1.6 0.2
v -1 1.6 -0.2
v -0.9 0.2 0.9
v -0.9 0.2 0.2
v -0.9 0.2 -0.2
v -0.9 0.2 -0.9
v -0.9 0.4 0.9
v -0.9 0.4 0.2
v -0.9 0.4 -0.2
v -0.9 0.4 -0.9
v -0.8 0.4 0.8
v -0.8 0.4 0.2
v -0.8 0.4 -0.2
v -0.8 0.4 -0.8
v -0.8 0.6 0.8
v -0.8 0.6 0.2
v -0.8 0.6 -0.2
v -0.8 0.6 -0.8
v -0.7 0.6 0.7
v -0.7 0.6 0.2
v -0.7 0.6 -0.2
v -0.7 0.6 -0.7
v -0.7 1 0.7
v -0.7 1 0.2
v -0.7 1 -0.2
v -0.7 1 -0.7
v -0.7 1.5 0.7
v -0.7 1.5 0.5
v -0.7 1.5 0.2
v -0.7 1.5 -0.2
v -0.7 1.5 -0.5
v -0.7 1.5 -0.7
v -0.7 1.6 0.2
v -0.7 1.6 -0.2
v -0.7 1.9 0.7
v -0.7 1.9 0.5
v -0.7 1.9 -0.5
v -0.7 1.9 -0.7
v -0.6 1 0.6
v -0.6 1 0.2
v -0.6 1 -0.2
v -0.6 1 -0.6
v -0.6 1.5 0.6
v -0.6 1.5 0.5
v -0.6 1.5 0.2
v -0.6 1.5 -0.2
v -0.6 1.5 -0.5
v -0.6 1.5 -0.6
v -0.2 0.2 1
v -0.2 0.2 0.9
v -0.2 0.2 -0.9
v -0.2 0.2 -1
v -0.2 0.4 0.9
v -0.2 0.4 0.8
v -0.2 0.4 -0.8
v -0.2 0.4 -0.9
v -0.2 0.6 0.8
v -0.2 0.6 0.7
v -0.2 0.6 -0.7
v -0.2 0.6 -0.8
v -0.2 1 0.7
v -0.2 1 0.6
v -0.2 1 -0.6
v -0.2 1 -0.7
v -0.2 1.5 0.7
v -0.2 1.5 0.6
v -0.2 1.5 -0.6
v -0.2 1.5 -0.7
v -0.2 1.6 1
v -0.2 1.6 0.7
v -0.2 1.6 -0.7
v -0.2 1.6 -1
v 0.2 0.2 1
v 0.2 0.2 0.9
v 0.2 0.2 -0.9
v 0.2 0.2 -1
v 0.2 0.4 0.9
v 0.2 0.4 0.8
v 0.2 0.4 -0.8
v 0.2 0.4 -0.9
v 0.2 0.6 0.8
v 0.2 0.6 0.7
v 0.2 0.6 -0.7
v 0.2 0.6 -0.8
v 0.2 1 0.7
v 0.2 1 0.6
v 0.2 1 -0.6
v 0.2 1 -0.7
v 0.2 1.5 0.7
v 0.2 1.5 0.6
v 0.2 1.5 -0.6
v 0.2 1.5 -0.7
v 0.2 1.6 1
v 0.2 1.6 0.7
v 0.2 1.6 -0.7
v 0.2 1.6 -1
v 0.6 1 0.6
v 0.6 1 0.2
v 0.6 1 -0.2
v 0.6 1 -0.6
v 0.6 1.5 0.6
v 0.6 1.5 0.5
v 0.6 1.5 0.2
v 0.6 1.5 -0.2
v 0.6 1.5 -0.5
v 0.6 1.5 -0.6
v 0.7 0.6 0.7
v 0.7 0.6 0.2
v 0.7 0.6 -0.2
v 0.7 0.6 -0.7
v 0.7 1 0.7
v 0.7 1 0.2
v 0.7 1 -0.2
v 0.7 1 -0.7
v 0.7 1.5 0.7
v 0.7 1.5 0.5
v 0.7 1.5 0.2
v 0.7 1.5 -0.2
v 0.7 1.5 -0.5
v 0.7 1.5 -0.7
v 0.7 1.6 0.2
v 0.7 1.6 -0.2
v 0.7 1.9 0.7
v 0.7 1.9 0.5
v 0.7 1.9 -0.5
v 0.7 1.9 -0.7
v 0.8 0.4 0.8
v 0.8 0.4 0.2
v 0.8 0.4 -0.2
v 0.8 0.4 -0.8
v 0.8 0.6 0.8
v 0.8 0.6 0.2
v 0.8 0.6 -0.2
v 0.8 0.6 -0.8
v 0.9 0.2 0.9
v 0.9 0.2 0.2
v 0.9 0.2 -0.2
v 0.9 0.2 -0.9
v 0.9 0.4 0.9
v 0.9 0.4 0.2
v 0.9 0.4 -0.2
v 0.9 0.4 -0.9
v 1 0 1
v 1 0 -1
v 1 0.2 1
v 1 0.2 0.2
v 1 0.2 0.1
v 1 0.2 -0.1
v 1 0.2 -0.2
v 1 0.2 -1
v 1 1.5 0.1
v 1 1.5 -0.1
v 1 1.6 0.2
v 1 1.6 -0.2
v -1 0 1
v -1 0.2 1
v -0.2 0.2 1
v -0.2 1.6 1
v -0.1 0.2 1
v -0.1 1.5 1
v 0.1 0.2 1
v 0.1 1.5 1
v 0.2 0.2 1
v 0.2 1.6 1
v 1 0 1
v 1 0.2 1
v -0.9 0.2 0.9
v -0.9 0.4 0.9
v -0.2 0.2 0.9
v -0.2 0.4 0.9
v 0.2 0.2 0.9
v 0.2 0.4 0.9
v 0.9 0.2 0.9
v 0.9 0.4 0.9
v -0.8 0.4 0.8
v -0.8 0.6 0.8
v -0.2 0.4 0.8
v -0.2 0.6 0.8
v 0.2 0.4 0.8
v 0.2 0.6 0.8
v 0.8 0.4 0.8
v 0.8 0.6 0.8
v -0.7 0.6 0.7
v -0.7 1 0.7
v -0.7 1.5 0.7
v -0.7 1.9 0.7
v -0.5 1.5 0.7
v -0.5 1.9 0.7
v -0.2 0.6 0.7
v -0.2 1 0.7
v -0.2 1.5 0.7
v -0.2 1.6 0.7
v 0.2 0.6 0.7
v 0.2 1 0.7
v 0.2 1.5 0.7
v 0.2 1.6 0.7
v 0.5 1.5 0.7
v 0.5 1.9 0.7
v 0.7 0.6 0.7
v 0.7 1 0.7
v 0.7 1.5 0.7
v 0.7 1.9 0.7
v -0.6 1 0.6
v -0.6 1.5 0.6
v -0.5 1.5 0.6
v -0.2 1 0.6
v -0.2 1.5 0.6
v 0.2 1 0.6
v 0.2 1.5 0.6
v 0.5 1.5 0.6
v 0.6 1 0.6
v 0.6 1.5 0.6
v -1 0.2 0.2
v -1 1.6 0.2
v -0.9 0.2 0.2
v -0.9 0.4 0.2
v -0.8 0.4 0.2
v -0.8 0.6 0.2
v -0.7 0.6 0.2
v -0.7 1 0.2
v -0.7 1.5 0.2
v -0.7 1.6 0.2
v -0.6 1 0.2
v -0.6 1.5 0.2
v 0.6 1 0.2
v 0.6 1.5 0.2
v 0.7 0.6 0.2
v 0.7 1 0.2
v 0.7 1.5 0.2
v 0.7 1.6 0.2
v 0.8 0.4 0.2
v 0.8 0.6 0.2
v 0.9 0.2 0.2
v 0.9 0.4 0.2
v 1 0.2 0.2
v 1 1.6 0.2
v -1 0.2 -0.2
v -1 1.6 -0.2
v -0.9 0.2 -0.2
v -0.9 0.4 -0.2
v -0.8 0.4 -0.2
v -0.8 0.6 -0.2
v -0.7 0.6 -0.2
v -0.7 1 -0.2
v -0.7 1.5 -0.2
v -0.7 1.6 -0.2
v -0.6 1 -0.2
v -0.6 1.5 -0.2
v 0.6 1 -0.2
v 0.6 1.5 -0.2
v 0.7 0.6 -0.2
v 0.7 1 -0.2
v 0.7 1.5 -0.2
v 0.7 1.6 -0.2
v 0.8 0.4 -0.2
v 0.8 0.6 -0.2
v 0.9 0.2 -0.2
v 0.9 0.4 -0.2
v 1 0.2 -0.2
v 1 1.6 -0.2
v -0.6 1 -0.6
v -0.6 1.5 -0.6
v -0.5 1.5 -0.6
v -0.2 1 -0.6
v -0.2 1.5 -0.6
v 0.2 1 -0.6
v 0.2 1.5 -0.6
v 0.5 1.5 -0.6
v 0.6 1 -0.6
v 0.6 1.5 -0.6
v -0.7 0.6 -0.7
v -0.7 1 -0.7
v -0.7 1.5 -0.7
v -0.7 1.9 -0.7
v -0.5 1.5 -0.7
v -0.5 1.9 -0.7
v -0.2 0.6 -0.7
v -0.2 1 -0.7
v -0.2 1.5 -0.7
v -0.2 1.6 -0.7
v 0.2 0.6 -0.7
v 0.2 1 -0.7
v 0.2 1.5 -0.7
v 0.2 1.6 -0.7
v 0.5 1.5 -0.7
v 0.5 1.9 -0.7
v 0.7 0.6 -0.7
v 0.7 1 -0.7
v 0.7 1.5 -0.7
v 0.7 1.9 -0.7
v -0.8 0.4 -0.8
v -0.8 0.6 -0.8
v -0.2 0.4 -0.8
v -0.2 0.6 -0.8
v 0.2 0.4 -0.8
v 0.2 0.6 -0.8
v 0.8 0.4 -0.8
v 0.8 0.6 -0.8
v -0.9 0.2 -0.9
v -0.9 0.4 -0.9
v -0.2 0.2 -0.9
v -0.2 0.4 -0.9
v 0.2 0.2 -0.9
v 0.2 0.4 -0.9
v 0.9 0.2 -0.9
v 0.9 0.4 -0.9
v -1 0 -1
v -1 0.2 -1
v -0.2 0.2 -1
v -0.2 1.6 -1
v -0.1 0.2 -1
v -0.1 1.5 -1
v 0.1 0.2 -1
v 0.1 1.5 -1
v 0.2 0.2 -1
v 0.2 1.6 -1
v 1 0 -1
v 1 0.2 -1
v -1 0 1
v 1 0 1
v -1 0 -1
v 1 0 -1
v -0.7 1.5 0.7
v -0.5 1.5 0.7
v -0.2 1.5 0.7
v 0.2 1.5 0.7
v 0.5 1.5 0.7
v 0.7 1.5 0.7
v -0.6 1.5 0.6
v -0.5 1.5 0.6
v -0.2 1.5 0.6
v 0.2 1.5 0.6
v 0.5 1.5 0.6
v 0.6 1.5 0.6
v -0.7 1.5 0.5
v -0.6 1.5 0.5
v 0.6 1.5 0.5
v 0.7 1.5 0.5
v -0.7 1.5 0.2
v -0.6 1.5 0.2
v 0.6 1.5 0.2
v 0.7 1.5 0.2
v -0.7 1.5 -0.2
v -0.6 1.5 -0.2
v 0.6 1.5 -0.2
v 0.7 1.5 -0.2
v -0.7 1.5 -0.5
v -0.6 1.5 -0.5
v 0.6 1.5 -0.5
v 0.7 1.5 -0.5
v -0.6 1.5 -0.6
v -0.5 1.5 -0.6
v -0.2 1.5 -0.6
v 0.2 1.5 -0.6
v 0.5 1.5 -0.6
v 0.6 1.5 -0.6
v -0.7 1.5 -0.7
v -0.5 1.5 -0.7
v -0.2 1.5 -0.7
v 0.2 1.5 -0.7
v 0.5 1.5 -0.7
v 0.7 1.5 -0.7
v -1 0.2 1
v -0.2 0.2 1
v 0.2 0.2 1
v 1 0.2 1
v -0.9 0.2 0.9
v -0.2 0.2 0.9
v 0.2 0.2 0.9
v 0.9 0.2 0.9
v -1 0.2 0.2
v -0.9 0.2 0.2
v 0.9 0.2 0.2
v 1 0.2 0.2
v -1 0.2 -0.2
v -0.9 0.2 -0.2
v 0.9 0.2 -0.2
v 1 0.2 -0.2
v -0.9 0.2 -0.9
v -0.2 0.2 -0.9
v 0.2 0.2 -0.9
v 0.9 0.2 -0.9
v -1 0.2 -1
v -0.2 0.2 -1
v 0.2 0.2 -1
v 1 0.2 -1
v -0.9 0.4 0.9
v -0.2 0.4 0.9
v 0.2 0.4 0.9
v 0.9 0.4 0.9
v -0.8 0.4 0.8
v -0.2 0.4 0.8
v 0.2 0.4 0.8
v 0.8 0.4 0.8
v -0.9 0.4 0.2
v -0.8 0.4 0.2
v 0.8 0.4 0.2
v 0.9 0.4 0.2
v -0.9 0.4 -0.2
v -0.8 0.4 -0.2
v 0.8 0.4 -0.2
v 0.9 0.4 -0.2
v -0.8 0.4 -0.8
v -0.2 0.4 -0.8
v 0.2 0.4 -0.8
v 0.8 0.4 -0.8
v -0.9 0.4 -0.9
v -0.2 0.4 -0.9
v 0.2 0.4 -0.9
v 0.9 0.4 -0.9
v -0.8 0.6 0.8
v -0.2 0.6 0.8
v 0.2 0.6 0.8
v 0.8 0.6 0.8
v -0.7 0.6 0.7
v -0.2 0.6 0.7
v 0.2 0.6 0.7
v 0.7 0.6 0.7
v -0.8 0.6 0.2
v -0.7 0.6 0.2
v 0.7 0.6 0.2
v 0.8 0.6 0.2
v -0.8 0.6 -0.2
v -0.7 0.6 -0.2
v 0.7 0.6 -0.2
v 0.8 0.6 -0.2
v -0.7 0.6 -0.7
v -0.2 0.6 -0.7
v 0.2 0.6 -0.7
v 0.7 0.6 -0.7
v -0.8 0.6 -0.8
v -0.2 0.6 -0.8
v 0.2 0.6 -0.8
v 0.8 0.6 -0.8
v -0.7 1 0.7
v -0.2 1 0.7
v 0.2 1 0.7
v 0.7 1 0.7
v -0.6 1 0.6
v -0.2 1 0.6
v 0.2 1 0.6
v 0.6 1 0.6
v -0.7 1 0.2
v -0.6 1 0.2
v 0.6 1 0.2
v 0.7 1 0.2
v -0.7 1 -0.2
v -0.6 1 -0.2
v 0.6 1 -0.2
v 0.7 1 -0.2
v -0.6 1 -0.6
v -0.2 1 -0.6
v 0.2 1 -0.6
v 0.6 1 -0.6
v -0.7 1 -0.7
v -0.2 1 -0.7
v 0.2 1 -0.7
v 0.7 1 -0.7
v -0.2 1.6 1
v 0.2 1.6 1
v -0.2 1.6 0.7
v 0.2 1.6 0.7
v -1 1.6 0.2
v -0.7 1.6 0.2
v 0.7 1.6 0.2
v 1 1.6 0.2
v -1 1.6 -0.2
v -0.7 1.6 -0.2
v 0.7 1.6 -0.2
v 1 1.6 -0.2
v -0.2 1.6 -0.7
v 0.2 1.6 -0.7
v -0.2 1.6 -1
v 0.2 1.6 -1
v -0.7 1.9 0.7
v -0.5 1.9 0.7
v 0.5 1.9 0.7
v 0.7 1.9 0.7
v -0.7 1.9 0.5
v -0.5 1.9 0.5
v 0.5 1.9 0.5
v 0.7 1.9 0.5
v -0.7 1.9 -0.5
v -0.5 1.9 -0.5
v 0.5 1.9 -0.5
v 0.7 1.9 -0.5
v -0.7 1.9 -0.7
v -0.5 1.9 -0.7
v 0.5 1.9 -0.7
v 0.7 1.9 -0.7

# faces
f 3/2/1 2/2/1 1/2/1
f 4/2/1 2/2/1 3/2/1
f 5/2/1 2/2/1 4/2/1
f 6/2/1 2/2/1 5/2/1
f 7/2/1 2/2/1 6/2/1
f 8/2/1 2/2/1 7/2/1
f 9/1/1 5/1/1 4/1/1
f 9/2/1 6/2/1 5/2/1
f 10/1/1 7/1/1 6/1/1
f 10/2/1 6/2/1 9/2/1
f 11/1/1 9/1/1 4/1/1
f 11/1/1 10/1/1 9/1/1
f 12/1/1 7/1/1 10/1/1
f 12/1/1 10/1/1 11/1/1
f 17/1/1 14/1/1 13/1/1
f 18/1/1 14/1/1 17/1/1
f 19/1/1 16/1/1 15/1/1
f 20/1/1 16/1/1 19/1/1
f 25/2/1 22/2/1 21/2/1
f 26/2/1 22/2/1 25/2/1
f 27/2/1 24/2/1 23/2/1
f 28/2/1 24/2/1 27/2/1
f 33/1/1 30/1/1 29/1/1
f 34/1/1 30/1/1 33/1/1
f 35/1/1 32/1/1 31/1/1
f 36/1/1 32/1/1 35/1/1
f 43/1/1 39/1/1 38/1/1
f 44/1/1 41/1/1 40/1/1
f 45/2/1 38/2/1 37/2/1
f 46/1/1 44/1/1 43/1/1
f 46/2/1 38/2/1 45/2/1
f 46/1/1 43/1/1 38/1/1
f 47/2/1 42/2/1 41/2/1
f 47/1/1 44/1/1 46/1/1
f 47/1/1 41/1/1 44/1/1
f 48/2/1 42/2/1 47/2/1
f 53/2/1 50/2/1 49/2/1
f 54/2/1 50/2/1 53/2/1
f 55/2/1 50/2/1 54/2/1
f 56/2/1 52/2/1 51/2/1
f 57/2/1 52/2/1 56/2/1
f 58/2/1 52/2/1 57/2/1
f 63/1/1 60/1/1 59/1/1
f 66/1/1 62/1/1 61/1/1
f 67/1/1 64/1/1 63/1/1
f 70/1/1 66/1/1 65/1/1
f 71/1/1 68/1/1 67/1/1
f 74/1/1 70/1/1 69/1/1
f 75/2/1 72/2/1 71/2/1
f 75/1/1 71/1/1 67/1/1
f 76/2/1 72/2/1 75/2/1
f 77/2/1 74/2/1 73/2/1
f 78/1/1 70/1/1 74/1/1
f 78/2/1 74/2/1 77/2/1
f 79/1/1 63/1/1 59/1/1
f 79/1/1 75/1/1 67/1/1
f 79/1/1 67/1/1 63/1/1
f 80/1/1 75/1/1 79/1/1
f 81/1/1 70/1/1 78/1/1
f 82/1/1 62/1/1 66/1/1
f 82/1/1 70/1/1 81/1/1
f 82/1/1 66/1/1 70/1/1
f 83/1/2 84/1/2 87/1/2
f 85/1/2 86/1/2 90/1/2
f 87/1/2 88/1/2 91/1/2
f 89/1/2 90/1/2 94/1/2
f 91/1/2 92/1/2 95/1/2
f 93/1/2 94/1/2 98/1/2
f 95/2/2 96/2/2 99/2/2
f 91/1/2 95/1/2 99/1/2
f 99/2/2 96/2/2 100/2/2
f 97/2/2 98/2/2 101/2/2
f 98/1/2 94/1/2 102/1/2
f 101/2/2 98/2/2 102/2/2
f 83/1/2 87/1/2 103/1/2
f 91/1/2 99/1/2 103/1/2
f 87/1/2 91/1/2 103/1/2
f 103/1/2 99/1/2 104/1/2
f 102/1/2 94/1/2 105/1/2
f 90/1/2 86/1/2 106/1/2
f 105/1/2 94/1/2 106/1/2
f 94/1/2 90/1/2 106/1/2
f 107/2/2 108/2/2 111/2/2
f 111/2/2 108/2/2 112/2/2
f 112/2/2 108/2/2 113/2/2
f 109/2/2 110/2/2 114/2/2
f 114/2/2 110/2/2 115/2/2
f 115/2/2 110/2/2 116/2/2
f 117/1/2 118/1/2 121/1/2
f 121/1/2 118/1/2 122/1/2
f 119/1/2 120/1/2 123/1/2
f 123/1/2 120/1/2 124/1/2
f 126/1/2 127/1/2 131/1/2
f 128/1/2 129/1/2 132/1/2
f 125/2/2 126/2/2 133/2/2
f 131/1/2 132/1/2 134/1/2
f 133/2/2 126/2/2 134/2/2
f 126/1/2 131/1/2 134/1/2
f 129/2/2 130/2/2 135/2/2
f 134/1/2 132/1/2 135/1/2
f 132/1/2 129/1/2 135/1/2
f 135/2/2 130/2/2 136/2/2
f 137/2/2 138/2/2 141/2/2
f 141/2/2 138/2/2 142/2/2
f 139/2/2 140/2/2 143/2/2
f 143/2/2 140/2/2 144/2/2
f 145/1/2 146/1/2 149/1/2
f 149/1/2 146/1/2 150/1/2
f 147/1/2 148/1/2 151/1/2
f 151/1/2 148/1/2 152/1/2
f 153/2/2 154/2/2 155/2/2
f 155/2/2 154/2/2 156/2/2
f 156/2/2 154/2/2 157/2/2
f 157/2/2 154/2/2 158/2/2
f 158/2/2 154/2/2 159/2/2
f 159/2/2 154/2/2 160/2/2
f 156/1/2 157/1/2 161/1/2
f 157/2/2 158/2/2 161/2/2
f 158/1/2 159/1/2 162/1/2
f 161/2/2 158/2/2 162/2/2
f 156/1/2 161/1/2 163/1/2
f 161/1/2 162/1/2 163/1/2
f 162/1/2 159/1/2 164/1/2
f 163/1/2 162/1/2 164/1/2
f 167/2/3 166/2/3 165/2/3
f 169/2/3 167/2/3 165/2/3
f 169/1/3 168/1/3 167/1/3
f 170/1/3 168/1/3 169/1/3
f 171/2/3 169/2/3 165/2/3
f 171/2/3 170/2/3 169/2/3
f 172/1/3 168/1/3 170/1/3
f 172/2/3 170/2/3 171/2/3
f 173/2/3 171/2/3 165/2/3
f 173/1/3 172/1/3 171/1/3
f 174/1/3 168/1/3 172/1/3
f 174/1/3 172/1/3 173/1/3
f 175/2/3 173/2/3 165/2/3
f 176/2/3 173/2/3 175/2/3
f 179/1/3 178/1/3 177/1/3
f 180/1/3 178/1/3 179/1/3
f 183/1/3 182/1/3 181/1/3
f 184/1/3 182/1/3 183/1/3
f 187/2/3 186/2/3 185/2/3
f 188/2/3 186/2/3 187/2/3
f 191/2/3 190/2/3 189/2/3
f 192/2/3 190/2/3 191/2/3
f 197/2/3 196/2/3 195/2/3
f 198/2/3 196/2/3 197/2/3
f 199/1/3 194/1/3 193/1/3
f 200/1/3 194/1/3 199/1/3
f 201/1/3 198/1/3 197/1/3
f 202/1/3 198/1/3 201/1/3
f 206/1/3 198/1/3 202/1/3
f 207/1/3 206/1/3 205/1/3
f 208/1/3 198/1/3 206/1/3
f 208/1/3 206/1/3 207/1/3
f 209/1/3 204/1/3 203/1/3
f 210/1/3 204/1/3 209/1/3
f 211/2/3 208/2/3 207/2/3
f 212/2/3 208/2/3 211/2/3
f 215/2/3 214/2/3 213/2/3
f 216/2/3 215/2/3 213/2/3
f 217/2/3 215/2/3 216/2/3
f 220/2/3 219/2/3 218/2/3
f 221/2/3 220/2/3 218/2/3
f 222/2/3 220/2/3 221/2/3
f 225/1/3 224/1/3 223/1/3
f 226/1/3 224/1/3 225/1/3
f 227/1/3 224/1/3 226/1/3
f 228/1/3 224/1/3 227/1/3
f 229/1/3 224/1/3 228/1/3
f 230/1/3 224/1/3 229/1/3
f 231/1/3 224/1/3 230/1/3
f 232/1/3 224/1/3 231/1/3
f 233/2/3 231/2/3 230/2/3
f 234/2/3 231/2/3 233/2/3
f 238/2/3 236/2/3 235/2/3
f 239/2/3 236/2/3 238/2/3
f 242/1/3 239/1/3 238/1/3
f 242/1/3 240/1/3 239/1/3
f 242/1/3 238/1/3 237/1/3
f 244/1/3 242/1/3 241/1/3
f 245/1/3 244/1/3 243/1/3
f 246/1/3 240/1/3 242/1/3
f 246/1/3 244/1/3 245/1/3
f 246/1/3 242/1/3 244/1/3
f 247/1/4 248/1/4 249/1/4
f 249/1/4 248/1/4 250/1/4
f 250/1/4 248/1/4 251/1/4
f 251/1/4 248/1/4 252/1/4
f 252/1/4 248/1/4 253/1/4
f 253/1/4 248/1/4 254/1/4
f 254/1/4 248/1/4 255/1/4
f 255/1/4 248/1/4 256/1/4
f 254/2/4 255/2/4 257/2/4
f 257/2/4 255/2/4 258/2/4
f 259/2/4 260/2/4 262/2/4
f 262/2/4 260/2/4 263/2/4
f 262/1/4 263/1/4 266/1/4
f 263/1/4 264/1/4 266/1/4
f 261/1/4 262/1/4 266/1/4
f 265/1/4 266/1/4 268/1/4
f 267/1/4 268/1/4 269/1/4
f 266/1/4 264/1/4 270/1/4
f 269/1/4 268/1/4 270/1/4
f 268/1/4 266/1/4 270/1/4
f 271/2/4 272/2/4 273/2/4
f 271/2/4 273/2/4 274/2/4
f 274/2/4 273/2/4 275/2/4
f 276/2/4 277/2/4 278/2/4
f 276/2/4 278/2/4 279/2/4
f 279/2/4 278/2/4 280/2/4
f 283/2/4 284/2/4 285/2/4
f 285/2/4 284/2/4 286/2/4
f 281/1/4 282/1/4 287/1/4
f 287/1/4 282/1/4 288/1/4
f 285/1/4 286/1/4 289/1/4
f 289/1/4 286/1/4 290/1/4
f 290/1/4 286/1/4 294/1/4
f 293/1/4 294/1/4 295/1/4
f 294/1/4 286/1/4 296/1/4
f 295/1/4 294/1/4 296/1/4
f 291/1/4 292/1/4 297/1/4
f 297/1/4 292/1/4 298/1/4
f 295/2/4 296/2/4 299/2/4
f 299/2/4 296/2/4 300/2/4
f 301/2/4 302/2/4 303/2/4
f 303/2/4 302/2/4 304/2/4
f 305/2/4 306/2/4 307/2/4
f 307/2/4 306/2/4 308/2/4
f 309/1/4 310/1/4 311/1/4
f 311/1/4 310/1/4 312/1/4
f 313/1/4 314/1/4 315/1/4
f 315/1/4 314/1/4 316/1/4
f 317/2/4 318/2/4 319/2/4
f 317/2/4 319/2/4 321/2/4
f 319/1/4 320/1/4 321/1/4
f 321/1/4 320/1/4 322/1/4
f 317/2/4 321/2/4 323/2/4
f 321/2/4 322/2/4 323/2/4
f 322/1/4 320/1/4 324/1/4
f 323/2/4 322/2/4 324/2/4
f 317/2/4 323/2/4 325/2/4
f 323/1/4 324/1/4 325/1/4
f 324/1/4 320/1/4 326/1/4
f 325/1/4 324/1/4 326/1/4
f 317/2/4 325/2/4 327/2/4
f 327/2/4 325/2/4 328/2/4
f 331/2/5 330/2/5 329/2/5
f 332/2/5 330/2/5 331/2/5
f 339/2/5 334/2/5 333/2/5
f 340/1/5 335/1/5 334/1/5
f 340/2/5 334/2/5 339/2/5
f 341/1/5 335/1/5 340/1/5
f 342/1/5 337/1/5 336/1/5
f 343/2/5 338/2/5 337/2/5
f 343/1/5 337/1/5 342/1/5
f 344/2/5 338/2/5 343/2/5
f 345/2/5 339/2/5 333/2/5
f 346/2/5 339/2/5 345/2/5
f 347/2/5 338/2/5 344/2/5
f 348/2/5 338/2/5 347/2/5
f 349/1/5 346/1/5 345/1/5
f 350/1/5 346/1/5 349/1/5
f 351/1/5 348/1/5 347/1/5
f 352/1/5 348/1/5 351/1/5
f 357/1/5 354/1/5 353/1/5
f 358/1/5 354/1/5 357/1/5
f 359/1/5 356/1/5 355/1/5
f 360/1/5 356/1/5 359/1/5
f 361/2/5 358/2/5 357/2/5
f 366/2/5 360/2/5 359/2/5
f 367/2/5 361/2/5 357/2/5
f 367/2/5 362/2/5 361/2/5
f 368/1/5 363/1/5 362/1/5
f 368/2/5 362/2/5 367/2/5
f 369/1/5 363/1/5 368/1/5
f 370/1/5 365/1/5 364/1/5
f 371/2/5 366/2/5 365/2/5
f 371/1/5 365/1/5 370/1/5
f 372/2/5 360/2/5 366/2/5
f 372/2/5 366/2/5 371/2/5
f 373/2/6 374/2/6 377/2/6
f 377/2/6 374/2/6 378/2/6
f 375/2/6 376/2/6 379/2/6
f 379/2/6 376/2/6 380/2/6
f 373/2/6 377/2/6 381/2/6
f 381/2/6 377/2/6 382/2/6
f 380/2/6 376/2/6 383/2/6
f 383/2/6 376/2/6 384/2/6
f 385/2/6 386/2/6 389/2/6
f 387/2/6 388/2/6 392/2/6
f 389/2/6 390/2/6 393/2/6
f 385/2/6 389/2/6 393/2/6
f 393/2/6 390/2/6 394/2/6
f 391/2/6 392/2/6 395/2/6
f 392/2/6 388/2/6 396/2/6
f 395/2/6 392/2/6 396/2/6
f 397/1/6 398/1/6 401/1/6
f 401/1/6 398/1/6 402/1/6
f 399/1/6 400/1/6 403/1/6
f 403/1/6 400/1/6 404/1/6
f 397/1/6 401/1/6 405/1/6
f 405/1/6 401/1/6 406/1/6
f 404/1/6 400/1/6 407/1/6
f 407/1/6 400/1/6 408/1/6
f 409/1/6 410/1/6 413/1/6
f 411/1/6 412/1/6 416/1/6
f 413/1/6 414/1/6 417/1/6
f 409/1/6 413/1/6 417/1/6
f 417/1/6 414/1/6 418/1/6
f 415/1/6 416/1/6 419/1/6
f 416/1/6 412/1/6 420/1/6
f 419/1/6 416/1/6 420/1/6
f 421/2/6 422/2/6 425/2/6
f 425/2/6 422/2/6 426/2/6
f 423/2/6 424/2/6 427/2/6
f 427/2/6 424/2/6 428/2/6
f 421/2/6 425/2/6 429/2/6
f 429/2/6 425/2/6 430/2/6
f 428/2/6 424/2/6 431/2/6
f 431/2/6 424/2/6 432/2/6
f 433/2/6 434/2/6 437/2/6
f 435/2/6 436/2/6 440/2/6
f 437/2/6 438/2/6 441/2/6
f 433/2/6 437/2/6 441/2/6
f 441/2/6 438/2/6 442/2/6
f 439/2/6 440/2/6 443/2/6
f 440/2/6 436/2/6 444/2/6
f 443/2/6 440/2/6 444/2/6
f 445/1/6 446/1/6 449/1/6
f 449/1/6 446/1/6 450/1/6
f 447/1/6 448/1/6 451/1/6
f 451/1/6 448/1/6 452/1/6
f 445/1/6 449/1/6 453/1/6
f 453/1/6 449/1/6 454/1/6
f 452/1/6 448/1/6 455/1/6
f 455/1/6 448/1/6 456/1/6
f 457/1/6 458/1/6 461/1/6
f 459/1/6 460/1/6 464/1/6
f 461/1/6 462/1/6 465/1/6
f 457/1/6 461/1/6 465/1/6
f 465/1/6 462/1/6 466/1/6
f 463/1/6 464/1/6 467/1/6
f 464/1/6 460/1/6 468/1/6
f 467/1/6 464/1/6 468/1/6
f 469/1/6 470/1/6 471/1/6
f 471/1/6 470/1/6 472/1/6
f 473/1/6 474/1/6 477/1/6
f 477/1/6 474/1/6 478/1/6
f 475/1/6 476/1/6 479/1/6
f 479/1/6 476/1/6 480/1/6
f 481/1/6 482/1/6 483/1/6
f 483/1/6 482/1/6 484/1/6
f 485/2/6 486/2/6 489/2/6
f 486/1/6 487/1/6 490/1/6
f 489/2/6 486/2/6 490/2/6
f 487/2/6 488/2/6 491/2/6
f 490/1/6 487/1/6 491/1/6
f 491/2/6 488/2/6 492/2/6
f 489/1/6 490/1/6 493/1/6
f 490/3/6 491/3/6 494/3/6
f 493/1/6 490/1/6 494/1/6
f 491/1/6 492/1/6 495/1/6
f 494/3/6 491/3/6 495/3/6
f 495/1/6 492/1/6 496/1/6
f 493/2/6 494/2/6 497/2/6
f 494/1/6 495/1/6 498/1/6
f 497/2/6 494/2/6 498/2/6
f 495/2/6 496/2/6 499/2/6
f 498/1/6 495/1/6 499/1/6
f 499/2/6 496/2/6 500/2/6
