# MagicaVoxel @ Ephtracy

# group
o 

# material
mtllib CanonTower4.mtl
usemtl palette

# normals
vn -1 0 0
vn 1 0 0
vn 0 0 1
vn 0 0 -1
vn 0 -1 0
vn 0 1 0

# texcoords
vt 0.666016 0.5
vt 0.990234 0.5
vt 0.994141 0.5

# verts
v -1 0 1
v -1 0 -1
v -1 0.2 1
v -1 0.2 0.1
v -1 0.2 -0.1
v -1 0.2 -1
v -1 1.5 0.1
v -1 1.5 -0.1
v -0.9 0.2 0.9
v -0.9 0.2 0.1
v -0.9 0.2 -0.1
v -0.9 0.2 -0.9
v -0.9 0.4 0.9
v -0.9 0.4 0.1
v -0.9 0.4 -0.1
v -0.9 0.4 -0.9
v -0.8 0.4 0.8
v -0.8 0.4 0.1
v -0.8 0.4 -0.1
v -0.8 0.4 -0.8
v -0.8 0.6 0.8
v -0.8 0.6 0.1
v -0.8 0.6 -0.1
v -0.8 0.6 -0.8
v -0.7 0.6 0.7
v -0.7 0.6 0.2
v -0.7 0.6 0.1
v -0.7 0.6 -0.1
v -0.7 0.6 -0.2
v -0.7 0.6 -0.7
v -0.7 1 0.7
v -0.7 1 0.2
v -0.7 1 -0.2
v -0.7 1 -0.7
v -0.7 1.5 0.7
v -0.7 1.5 0.1
v -0.7 1.5 -0.1
v -0.7 1.5 -0.7
v -0.7 1.9 0.7
v -0.7 1.9 -0.7
v -0.1 0.2 1
v -0.1 0.2 0.9
v -0.1 0.2 -0.9
v -0.1 0.2 -1
v -0.1 0.4 0.9
v -0.1 0.4 0.8
v -0.1 0.4 -0.8
v -0.1 0.4 -0.9
v -0.1 0.6 0.8
v -0.1 0.6 0.7
v -0.1 0.6 -0.7
v -0.1 0.6 -0.8
v -0.1 1.5 1
v -0.1 1.5 0.7
v -0.1 1.5 -0.7
v -0.1 1.5 -1
v 0.1 0.2 1
v 0.1 0.2 0.9
v 0.1 0.2 -0.9
v 0.1 0.2 -1
v 0.1 0.4 0.9
v 0.1 0.4 0.8
v 0.1 0.4 -0.8
v 0.1 0.4 -0.9
v 0.1 0.6 0.8
v 0.1 0.6 0.7
v 0.1 0.6 -0.7
v 0.1 0.6 -0.8
v 0.1 1.5 1
v 0.1 1.5 0.7
v 0.1 1.5 -0.7
v 0.1 1.5 -1
v 0.7 0.6 0.7
v 0.7 0.6 0.2
v 0.7 0.6 0.1
v 0.7 0.6 -0.1
v 0.7 0.6 -0.2
v 0.7 0.6 -0.7
v 0.7 1 0.7
v 0.7 1 0.2
v 0.7 1 -0.2
v 0.7 1 -0.7
v 0.7 1.5 0.7
v 0.7 1.5 0.1
v 0.7 1.5 -0.1
v 0.7 1.5 -0.7
v 0.7 1.9 0.7
v 0.7 1.9 -0.7
v 0.8 0.4 0.8
v 0.8 0.4 0.1
v 0.8 0.4 -0.1
v 0.8 0.4 -0.8
v 0.8 0.6 0.8
v 0.8 0.6 0.1
v 0.8 0.6 -0.1
v 0.8 0.6 -0.8
v 0.9 0.2 0.9
v 0.9 0.2 0.1
v 0.9 0.2 -0.1
v 0.9 0.2 -0.9
v 0.9 0.4 0.9
v 0.9 0.4 0.1
v 0.9 0.4 -0.1
v 0.9 0.4 -0.9
v 1 0 1
v 1 0 -1
v 1 0.2 1
v 1 0.2 0.1
v 1 0.2 -0.1
v 1 0.2 -1
v 1 1.5 0.1
v 1 1.5 -0.1
v -1 0 1
v -1 0.2 1
v -0.1 0.2 1
v -0.1 1.5 1
v 0.1 0.2 1
v 0.1 1.5 1
v 1 0 1
v 1 0.2 1
v -0.9 0.2 0.9
v -0.9 0.4 0.9
v -0.1 0.2 0.9
v -0.1 0.4 0.9
v 0.1 0.2 0.9
v 0.1 0.4 0.9
v 0.9 0.2 0.9
v 0.9 0.4 0.9
v -0.8 0.4 0.8
v -0.8 0.6 0.8
v -0.1 0.4 0.8
v -0.1 0.6 0.8
v 0.1 0.4 0.8
v 0.1 0.6 0.8
v 0.8 0.4 0.8
v 0.8 0.6 0.8
v -0.7 0.6 0.7
v -0.7 1 0.7
v -0.7 1.5 0.7
v -0.7 1.9 0.7
v -0.2 0.6 0.7
v -0.2 1 0.7
v -0.1 0.6 0.7
v -0.1 1.5 0.7
v 0.1 0.6 0.7
v 0.1 1.5 0.7
v 0.2 0.6 0.7
v 0.2 1 0.7
v 0.7 0.6 0.7
v 0.7 1 0.7
v 0.7 1.5 0.7
v 0.7 1.9 0.7
v -1 0.2 0.1
v -1 1.5 0.1
v -0.9 0.2 0.1
v -0.9 0.4 0.1
v -0.8 0.4 0.1
v -0.8 0.6 0.1
v -0.7 0.6 0.1
v -0.7 1.5 0.1
v 0.7 0.6 0.1
v 0.7 1.5 0.1
v 0.8 0.4 0.1
v 0.8 0.6 0.1
v 0.9 0.2 0.1
v 0.9 0.4 0.1
v 1 0.2 0.1
v 1 1.5 0.1
v -1 0.2 -0.1
v -1 1.5 -0.1
v -0.9 0.2 -0.1
v -0.9 0.4 -0.1
v -0.8 0.4 -0.1
v -0.8 0.6 -0.1
v -0.7 0.6 -0.1
v -0.7 1.5 -0.1
v 0.7 0.6 -0.1
v 0.7 1.5 -0.1
v 0.8 0.4 -0.1
v 0.8 0.6 -0.1
v 0.9 0.2 -0.1
v 0.9 0.4 -0.1
v 1 0.2 -0.1
v 1 1.5 -0.1
v -0.7 0.6 -0.7
v -0.7 1 -0.7
v -0.7 1.5 -0.7
v -0.7 1.9 -0.7
v -0.2 0.6 -0.7
v -0.2 1 -0.7
v -0.1 0.6 -0.7
v -0.1 1.5 -0.7
v 0.1 0.6 -0.7
v 0.1 1.5 -0.7
v 0.2 0.6 -0.7
v 0.2 1 -0.7
v 0.7 0.6 -0.7
v 0.7 1 -0.7
v 0.7 1.5 -0.7
v 0.7 1.9 -0.7
v -0.8 0.4 -0.8
v -0.8 0.6 -0.8
v -0.1 0.4 -0.8
v -0.1 0.6 -0.8
v 0.1 0.4 -0.8
v 0.1 0.6 -0.8
v 0.8 0.4 -0.8
v 0.8 0.6 -0.8
v -0.9 0.2 -0.9
v -0.9 0.4 -0.9
v -0.1 0.2 -0.9
v -0.1 0.4 -0.9
v 0.1 0.2 -0.9
v 0.1 0.4 -0.9
v 0.9 0.2 -0.9
v 0.9 0.4 -0.9
v -1 0 -1
v -1 0.2 -1
v -0.1 0.2 -1
v -0.1 1.5 -1
v 0.1 0.2 -1
v 0.1 1.5 -1
v 1 0 -1
v 1 0.2 -1
v -1 0 1
v 1 0 1
v -1 0 -1
v 1 0 -1
v -1 0.2 1
v -0.1 0.2 1
v 0.1 0.2 1
v 1 0.2 1
v -0.9 0.2 0.9
v -0.1 0.2 0.9
v 0.1 0.2 0.9
v 0.9 0.2 0.9
v -1 0.2 0.1
v -0.9 0.2 0.1
v 0.9 0.2 0.1
v 1 0.2 0.1
v -1 0.2 -0.1
v -0.9 0.2 -0.1
v 0.9 0.2 -0.1
v 1 0.2 -0.1
v -0.9 0.2 -0.9
v -0.1 0.2 -0.9
v 0.1 0.2 -0.9
v 0.9 0.2 -0.9
v -1 0.2 -1
v -0.1 0.2 -1
v 0.1 0.2 -1
v 1 0.2 -1
v -0.9 0.4 0.9
v -0.1 0.4 0.9
v 0.1 0.4 0.9
v 0.9 0.4 0.9
v -0.8 0.4 0.8
v -0.1 0.4 0.8
v 0.1 0.4 0.8
v 0.8 0.4 0.8
v -0.9 0.4 0.1
v -0.8 0.4 0.1
v 0.8 0.4 0.1
v 0.9 0.4 0.1
v -0.9 0.4 -0.1
v -0.8 0.4 -0.1
v 0.8 0.4 -0.1
v 0.9 0.4 -0.1
v -0.8 0.4 -0.8
v -0.1 0.4 -0.8
v 0.1 0.4 -0.8
v 0.8 0.4 -0.8
v -0.9 0.4 -0.9
v -0.1 0.4 -0.9
v 0.1 0.4 -0.9
v 0.9 0.4 -0.9
v -0.8 0.6 0.8
v -0.1 0.6 0.8
v 0.1 0.6 0.8
v 0.8 0.6 0.8
v -0.7 0.6 0.7
v -0.2 0.6 0.7
v -0.1 0.6 0.7
v 0.1 0.6 0.7
v 0.2 0.6 0.7
v 0.7 0.6 0.7
v -0.7 0.6 0.2
v 0.7 0.6 0.2
v -0.8 0.6 0.1
v -0.7 0.6 0.1
v 0.7 0.6 0.1
v 0.8 0.6 0.1
v -0.8 0.6 -0.1
v -0.7 0.6 -0.1
v 0.7 0.6 -0.1
v 0.8 0.6 -0.1
v -0.7 0.6 -0.2
v 0.7 0.6 -0.2
v -0.7 0.6 -0.7
v -0.2 0.6 -0.7
v -0.1 0.6 -0.7
v 0.1 0.6 -0.7
v 0.2 0.6 -0.7
v 0.7 0.6 -0.7
v -0.8 0.6 -0.8
v -0.1 0.6 -0.8
v 0.1 0.6 -0.8
v 0.8 0.6 -0.8
v -0.1 1.5 1
v 0.1 1.5 1
v -0.1 1.5 0.7
v 0.1 1.5 0.7
v -1 1.5 0.1
v -0.7 1.5 0.1
v 0.7 1.5 0.1
v 1 1.5 0.1
v -1 1.5 -0.1
v -0.7 1.5 -0.1
v 0.7 1.5 -0.1
v 1 1.5 -0.1
v -0.1 1.5 -0.7
v 0.1 1.5 -0.7
v -0.1 1.5 -1
v 0.1 1.5 -1
v -0.7 1.9 0.7
v 0.7 1.9 0.7
v -0.5 1.9 0.5
v 0.5 1.9 0.5
v -0.5 1.9 -0.5
v 0.5 1.9 -0.5
v -0.7 1.9 -0.7
v 0.7 1.9 -0.7

# faces
f 3/2/1 2/2/1 1/2/1
f 4/2/1 2/2/1 3/2/1
f 5/2/1 2/2/1 4/2/1
f 6/2/1 2/2/1 5/2/1
f 7/2/1 5/2/1 4/2/1
f 8/2/1 5/2/1 7/2/1
f 13/1/1 10/1/1 9/1/1
f 14/1/1 10/1/1 13/1/1
f 15/1/1 12/1/1 11/1/1
f 16/1/1 12/1/1 15/1/1
f 21/2/1 18/2/1 17/2/1
f 22/2/1 18/2/1 21/2/1
f 23/2/1 20/2/1 19/2/1
f 24/2/1 20/2/1 23/2/1
f 31/1/1 26/1/1 25/1/1
f 32/2/1 27/2/1 26/2/1
f 32/1/1 26/1/1 31/1/1
f 33/1/1 30/1/1 29/1/1
f 33/2/1 29/2/1 28/2/1
f 34/1/1 30/1/1 33/1/1
f 35/2/1 32/2/1 31/2/1
f 36/2/1 27/2/1 32/2/1
f 36/2/1 32/2/1 35/2/1
f 37/2/1 33/2/1 28/2/1
f 37/2/1 34/2/1 33/2/1
f 38/2/1 34/2/1 37/2/1
f 39/1/1 36/1/1 35/1/1
f 39/1/1 37/1/1 36/1/1
f 39/1/1 38/1/1 37/1/1
f 40/1/1 38/1/1 39/1/1
f 45/2/1 42/2/1 41/2/1
f 48/2/1 44/2/1 43/2/1
f 49/2/1 46/2/1 45/2/1
f 52/2/1 48/2/1 47/2/1
f 53/2/1 50/2/1 49/2/1
f 53/2/1 45/2/1 41/2/1
f 53/2/1 49/2/1 45/2/1
f 54/2/1 50/2/1 53/2/1
f 55/2/1 52/2/1 51/2/1
f 56/2/1 48/2/1 52/2/1
f 56/2/1 52/2/1 55/2/1
f 56/2/1 44/2/1 48/2/1
f 57/2/2 58/2/2 61/2/2
f 59/2/2 60/2/2 64/2/2
f 61/2/2 62/2/2 65/2/2
f 63/2/2 64/2/2 68/2/2
f 65/2/2 66/2/2 69/2/2
f 57/2/2 61/2/2 69/2/2
f 61/2/2 65/2/2 69/2/2
f 69/2/2 66/2/2 70/2/2
f 67/2/2 68/2/2 71/2/2
f 68/2/2 64/2/2 72/2/2
f 71/2/2 68/2/2 72/2/2
f 64/2/2 60/2/2 72/2/2
f 73/1/2 74/1/2 79/1/2
f 74/2/2 75/2/2 80/2/2
f 79/1/2 74/1/2 80/1/2
f 77/1/2 78/1/2 81/1/2
f 76/2/2 77/2/2 81/2/2
f 81/1/2 78/1/2 82/1/2
f 79/2/2 80/2/2 83/2/2
f 80/2/2 75/2/2 84/2/2
f 83/2/2 80/2/2 84/2/2
f 76/2/2 81/2/2 85/2/2
f 81/2/2 82/2/2 85/2/2
f 85/2/2 82/2/2 86/2/2
f 83/1/2 84/1/2 87/1/2
f 84/1/2 85/1/2 87/1/2
f 85/1/2 86/1/2 87/1/2
f 87/1/2 86/1/2 88/1/2
f 89/2/2 90/2/2 93/2/2
f 93/2/2 90/2/2 94/2/2
f 91/2/2 92/2/2 95/2/2
f 95/2/2 92/2/2 96/2/2
f 97/1/2 98/1/2 101/1/2
f 101/1/2 98/1/2 102/1/2
f 99/1/2 100/1/2 103/1/2
f 103/1/2 100/1/2 104/1/2
f 105/2/2 106/2/2 107/2/2
f 107/2/2 106/2/2 108/2/2
f 108/2/2 106/2/2 109/2/2
f 109/2/2 106/2/2 110/2/2
f 108/2/2 109/2/2 111/2/2
f 111/2/2 109/2/2 112/2/2
f 115/2/3 114/2/3 113/2/3
f 117/2/3 115/2/3 113/2/3
f 117/2/3 116/2/3 115/2/3
f 118/2/3 116/2/3 117/2/3
f 119/2/3 117/2/3 113/2/3
f 120/2/3 117/2/3 119/2/3
f 123/1/3 122/1/3 121/1/3
f 124/1/3 122/1/3 123/1/3
f 127/1/3 126/1/3 125/1/3
f 128/1/3 126/1/3 127/1/3
f 131/2/3 130/2/3 129/2/3
f 132/2/3 130/2/3 131/2/3
f 135/2/3 134/2/3 133/2/3
f 136/2/3 134/2/3 135/2/3
f 141/1/3 138/1/3 137/1/3
f 142/2/3 139/2/3 138/2/3
f 142/1/3 138/1/3 141/1/3
f 143/2/3 142/2/3 141/2/3
f 144/1/3 140/1/3 139/1/3
f 144/2/3 142/2/3 143/2/3
f 144/2/3 139/2/3 142/2/3
f 146/1/3 140/1/3 144/1/3
f 147/2/3 146/2/3 145/2/3
f 148/2/3 146/2/3 147/2/3
f 149/1/3 148/1/3 147/1/3
f 150/2/3 146/2/3 148/2/3
f 150/1/3 148/1/3 149/1/3
f 151/1/3 140/1/3 146/1/3
f 151/2/3 146/2/3 150/2/3
f 152/1/3 140/1/3 151/1/3
f 155/2/3 154/2/3 153/2/3
f 156/2/3 154/2/3 155/2/3
f 157/2/3 154/2/3 156/2/3
f 158/2/3 154/2/3 157/2/3
f 159/2/3 154/2/3 158/2/3
f 160/2/3 154/2/3 159/2/3
f 164/2/3 162/2/3 161/2/3
f 166/2/3 164/2/3 163/2/3
f 167/2/3 166/2/3 165/2/3
f 168/2/3 162/2/3 164/2/3
f 168/2/3 166/2/3 167/2/3
f 168/2/3 164/2/3 166/2/3
f 169/2/4 170/2/4 171/2/4
f 171/2/4 170/2/4 172/2/4
f 172/2/4 170/2/4 173/2/4
f 173/2/4 170/2/4 174/2/4
f 174/2/4 170/2/4 175/2/4
f 175/2/4 170/2/4 176/2/4
f 177/2/4 178/2/4 180/2/4
f 179/2/4 180/2/4 182/2/4
f 181/2/4 182/2/4 183/2/4
f 180/2/4 178/2/4 184/2/4
f 183/2/4 182/2/4 184/2/4
f 182/2/4 180/2/4 184/2/4
f 185/1/4 186/1/4 189/1/4
f 186/2/4 187/2/4 190/2/4
f 189/1/4 186/1/4 190/1/4
f 189/2/4 190/2/4 191/2/4
f 187/1/4 188/1/4 192/1/4
f 191/2/4 190/2/4 192/2/4
f 190/2/4 187/2/4 192/2/4
f 192/1/4 188/1/4 194/1/4
f 193/2/4 194/2/4 195/2/4
f 195/2/4 194/2/4 196/2/4
f 195/1/4 196/1/4 197/1/4
f 196/2/4 194/2/4 198/2/4
f 197/1/4 196/1/4 198/1/4
f 194/1/4 188/1/4 199/1/4
f 198/2/4 194/2/4 199/2/4
f 199/1/4 188/1/4 200/1/4
f 201/2/4 202/2/4 203/2/4
f 203/2/4 202/2/4 204/2/4
f 205/2/4 206/2/4 207/2/4
f 207/2/4 206/2/4 208/2/4
f 209/1/4 210/1/4 211/1/4
f 211/1/4 210/1/4 212/1/4
f 213/1/4 214/1/4 215/1/4
f 215/1/4 214/1/4 216/1/4
f 217/2/4 218/2/4 219/2/4
f 217/2/4 219/2/4 221/2/4
f 219/2/4 220/2/4 221/2/4
f 221/2/4 220/2/4 222/2/4
f 217/2/4 221/2/4 223/2/4
f 223/2/4 221/2/4 224/2/4
f 227/2/5 226/2/5 225/2/5
f 228/2/5 226/2/5 227/2/5
f 229/2/6 230/2/6 233/2/6
f 233/2/6 230/2/6 234/2/6
f 231/2/6 232/2/6 235/2/6
f 235/2/6 232/2/6 236/2/6
f 229/2/6 233/2/6 237/2/6
f 237/2/6 233/2/6 238/2/6
f 236/2/6 232/2/6 239/2/6
f 239/2/6 232/2/6 240/2/6
f 241/2/6 242/2/6 245/2/6
f 243/2/6 244/2/6 248/2/6
f 245/2/6 246/2/6 249/2/6
f 241/2/6 245/2/6 249/2/6
f 249/2/6 246/2/6 250/2/6
f 247/2/6 248/2/6 251/2/6
f 248/2/6 244/2/6 252/2/6
f 251/2/6 248/2/6 252/2/6
f 253/1/6 254/1/6 257/1/6
f 257/1/6 254/1/6 258/1/6
f 255/1/6 256/1/6 259/1/6
f 259/1/6 256/1/6 260/1/6
f 253/1/6 257/1/6 261/1/6
f 261/1/6 257/1/6 262/1/6
f 260/1/6 256/1/6 263/1/6
f 263/1/6 256/1/6 264/1/6
f 265/1/6 266/1/6 269/1/6
f 267/1/6 268/1/6 272/1/6
f 269/1/6 270/1/6 273/1/6
f 265/1/6 269/1/6 273/1/6
f 273/1/6 270/1/6 274/1/6
f 271/1/6 272/1/6 275/1/6
f 272/1/6 268/1/6 276/1/6
f 275/1/6 272/1/6 276/1/6
f 277/2/6 278/2/6 281/2/6
f 281/2/6 278/2/6 282/2/6
f 282/2/6 278/2/6 283/2/6
f 279/2/6 280/2/6 284/2/6
f 284/2/6 280/2/6 285/2/6
f 285/2/6 280/2/6 286/2/6
f 277/2/6 281/2/6 287/2/6
f 286/2/6 280/2/6 288/2/6
f 277/2/6 287/2/6 289/2/6
f 289/2/6 287/2/6 290/2/6
f 288/2/6 280/2/6 291/2/6
f 291/2/6 280/2/6 292/2/6
f 293/2/6 294/2/6 297/2/6
f 295/2/6 296/2/6 298/2/6
f 293/2/6 297/2/6 299/2/6
f 298/2/6 296/2/6 304/2/6
f 293/2/6 299/2/6 305/2/6
f 299/2/6 300/2/6 305/2/6
f 300/2/6 301/2/6 305/2/6
f 305/2/6 301/2/6 306/2/6
f 302/2/6 303/2/6 307/2/6
f 303/2/6 304/2/6 307/2/6
f 304/2/6 296/2/6 308/2/6
f 307/2/6 304/2/6 308/2/6
f 309/2/6 310/2/6 311/2/6
f 311/2/6 310/2/6 312/2/6
f 313/2/6 314/2/6 317/2/6
f 317/2/6 314/2/6 318/2/6
f 315/2/6 316/2/6 319/2/6
f 319/2/6 316/2/6 320/2/6
f 321/2/6 322/2/6 323/2/6
f 323/2/6 322/2/6 324/2/6
f 325/1/6 326/1/6 327/1/6
f 327/1/6 326/1/6 328/1/6
f 325/1/6 327/1/6 329/1/6
f 327/3/6 328/3/6 329/3/6
f 328/1/6 326/1/6 330/1/6
f 329/3/6 328/3/6 330/3/6
f 325/1/6 329/1/6 331/1/6
f 329/1/6 330/1/6 331/1/6
f 330/1/6 326/1/6 332/1/6
f 331/1/6 330/1/6 332/1/6
