# MagicaVoxel @ Ephtracy

# group
o 

# material
mtllib canontower1.mtl
usemtl palette

# normals
vn -1 0 0
vn 1 0 0
vn 0 0 1
vn 0 0 -1
vn 0 -1 0
vn 0 1 0

# texcoords
vt 0.533203 0.5
vt 0.986328 0.5
vt 0.994141 0.5

# verts
v -1.2 0 1.2
v -1.2 0 -1.2
v -1.2 0.2 1.2
v -1.2 0.2 -1.2
v -1.1 0.2 1.1
v -1.1 0.2 -1.1
v -1.1 0.5 1.1
v -1.1 0.5 -1.1
v -1 0.5 1
v -1 0.5 -1
v -1 0.7 1
v -1 0.7 -1
v -0.9 0.7 0.9
v -0.9 0.7 -0.9
v -0.9 1.3 0.9
v -0.9 1.3 -0.9
v -0.8 1.3 0.8
v -0.8 1.3 -0.8
v -0.8 1.8 0.8
v -0.8 1.8 -0.8
v 0.8 1.3 0.8
v 0.8 1.3 -0.8
v 0.8 1.8 0.8
v 0.8 1.8 -0.8
v 0.9 0.7 0.9
v 0.9 0.7 -0.9
v 0.9 1.3 0.9
v 0.9 1.3 -0.9
v 1 0.5 1
v 1 0.5 -1
v 1 0.7 1
v 1 0.7 -1
v 1.1 0.2 1.1
v 1.1 0.2 -1.1
v 1.1 0.5 1.1
v 1.1 0.5 -1.1
v 1.2 0 1.2
v 1.2 0 -1.2
v 1.2 0.2 1.2
v 1.2 0.2 -1.2
v -1.2 0 1.2
v -1.2 0.2 1.2
v 1.2 0 1.2
v 1.2 0.2 1.2
v -1.1 0.2 1.1
v -1.1 0.5 1.1
v 1.1 0.2 1.1
v 1.1 0.5 1.1
v -1 0.5 1
v -1 0.7 1
v 1 0.5 1
v 1 0.7 1
v -0.9 0.7 0.9
v -0.9 1.3 0.9
v 0.9 0.7 0.9
v 0.9 1.3 0.9
v -0.8 1.3 0.8
v -0.8 1.8 0.8
v 0.8 1.3 0.8
v 0.8 1.8 0.8
v -0.8 1.3 -0.8
v -0.8 1.8 -0.8
v 0.8 1.3 -0.8
v 0.8 1.8 -0.8
v -0.9 0.7 -0.9
v -0.9 1.3 -0.9
v 0.9 0.7 -0.9
v 0.9 1.3 -0.9
v -1 0.5 -1
v -1 0.7 -1
v 1 0.5 -1
v 1 0.7 -1
v -1.1 0.2 -1.1
v -1.1 0.5 -1.1
v 1.1 0.2 -1.1
v 1.1 0.5 -1.1
v -1.2 0 -1.2
v -1.2 0.2 -1.2
v 1.2 0 -1.2
v 1.2 0.2 -1.2
v -1.2 0 1.2
v 1.2 0 1.2
v -1.2 0 -1.2
v 1.2 0 -1.2
v -1.2 0.2 1.2
v 1.2 0.2 1.2
v -1.1 0.2 1.1
v 1.1 0.2 1.1
v -1.1 0.2 -1.1
v 1.1 0.2 -1.1
v -1.2 0.2 -1.2
v 1.2 0.2 -1.2
v -1.1 0.5 1.1
v 1.1 0.5 1.1
v -1 0.5 1
v 1 0.5 1
v -1 0.5 -1
v 1 0.5 -1
v -1.1 0.5 -1.1
v 1.1 0.5 -1.1
v -1 0.7 1
v 1 0.7 1
v -0.9 0.7 0.9
v 0.9 0.7 0.9
v -0.9 0.7 -0.9
v 0.9 0.7 -0.9
v -1 0.7 -1
v 1 0.7 -1
v -0.9 1.3 0.9
v 0.9 1.3 0.9
v -0.8 1.3 0.8
v 0.8 1.3 0.8
v -0.8 1.3 -0.8
v 0.8 1.3 -0.8
v -0.9 1.3 -0.9
v 0.9 1.3 -0.9
v -0.8 1.8 0.8
v 0.8 1.8 0.8
v -0.4 1.8 0.5
v 0.4 1.8 0.5
v -0.5 1.8 0.4
v -0.4 1.8 0.4
v 0.4 1.8 0.4
v 0.5 1.8 0.4
v -0.5 1.8 -0.4
v -0.4 1.8 -0.4
v 0.4 1.8 -0.4
v 0.5 1.8 -0.4
v -0.4 1.8 -0.5
v 0.4 1.8 -0.5
v -0.8 1.8 -0.8
v 0.8 1.8 -0.8

# faces
f 3/2/1 2/2/1 1/2/1
f 4/2/1 2/2/1 3/2/1
f 7/1/1 6/1/1 5/1/1
f 8/1/1 6/1/1 7/1/1
f 11/2/1 10/2/1 9/2/1
f 12/2/1 10/2/1 11/2/1
f 15/1/1 14/1/1 13/1/1
f 16/1/1 14/1/1 15/1/1
f 19/2/1 18/2/1 17/2/1
f 20/2/1 18/2/1 19/2/1
f 21/2/2 22/2/2 23/2/2
f 23/2/2 22/2/2 24/2/2
f 25/1/2 26/1/2 27/1/2
f 27/1/2 26/1/2 28/1/2
f 29/2/2 30/2/2 31/2/2
f 31/2/2 30/2/2 32/2/2
f 33/1/2 34/1/2 35/1/2
f 35/1/2 34/1/2 36/1/2
f 37/2/2 38/2/2 39/2/2
f 39/2/2 38/2/2 40/2/2
f 43/2/3 42/2/3 41/2/3
f 44/2/3 42/2/3 43/2/3
f 47/1/3 46/1/3 45/1/3
f 48/1/3 46/1/3 47/1/3
f 51/2/3 50/2/3 49/2/3
f 52/2/3 50/2/3 51/2/3
f 55/1/3 54/1/3 53/1/3
f 56/1/3 54/1/3 55/1/3
f 59/2/3 58/2/3 57/2/3
f 60/2/3 58/2/3 59/2/3
f 61/2/4 62/2/4 63/2/4
f 63/2/4 62/2/4 64/2/4
f 65/1/4 66/1/4 67/1/4
f 67/1/4 66/1/4 68/1/4
f 69/2/4 70/2/4 71/2/4
f 71/2/4 70/2/4 72/2/4
f 73/1/4 74/1/4 75/1/4
f 75/1/4 74/1/4 76/1/4
f 77/2/4 78/2/4 79/2/4
f 79/2/4 78/2/4 80/2/4
f 83/2/5 82/2/5 81/2/5
f 84/2/5 82/2/5 83/2/5
f 85/2/6 86/2/6 87/2/6
f 87/2/6 86/2/6 88/2/6
f 85/2/6 87/2/6 89/2/6
f 88/2/6 86/2/6 90/2/6
f 85/2/6 89/2/6 91/2/6
f 89/2/6 90/2/6 91/2/6
f 90/2/6 86/2/6 92/2/6
f 91/2/6 90/2/6 92/2/6
f 93/1/6 94/1/6 95/1/6
f 95/1/6 94/1/6 96/1/6
f 93/1/6 95/1/6 97/1/6
f 96/1/6 94/1/6 98/1/6
f 93/1/6 97/1/6 99/1/6
f 97/1/6 98/1/6 99/1/6
f 98/1/6 94/1/6 100/1/6
f 99/1/6 98/1/6 100/1/6
f 101/2/6 102/2/6 103/2/6
f 103/2/6 102/2/6 104/2/6
f 101/2/6 103/2/6 105/2/6
f 104/2/6 102/2/6 106/2/6
f 101/2/6 105/2/6 107/2/6
f 105/2/6 106/2/6 107/2/6
f 106/2/6 102/2/6 108/2/6
f 107/2/6 106/2/6 108/2/6
f 109/1/6 110/1/6 111/1/6
f 111/1/6 110/1/6 112/1/6
f 109/1/6 111/1/6 113/1/6
f 112/1/6 110/1/6 114/1/6
f 109/1/6 113/1/6 115/1/6
f 113/1/6 114/1/6 115/1/6
f 114/1/6 110/1/6 116/1/6
f 115/1/6 114/1/6 116/1/6
f 117/2/6 118/2/6 119/2/6
f 119/2/6 118/2/6 120/2/6
f 117/2/6 119/2/6 121/2/6
f 119/3/6 120/3/6 122/3/6
f 121/2/6 119/2/6 122/2/6
f 120/2/6 118/2/6 123/2/6
f 122/3/6 120/3/6 123/3/6
f 123/2/6 118/2/6 124/2/6
f 121/3/6 122/3/6 125/3/6
f 117/2/6 121/2/6 125/2/6
f 123/3/6 124/3/6 125/3/6
f 122/3/6 123/3/6 125/3/6
f 125/3/6 124/3/6 126/3/6
f 126/3/6 124/3/6 127/3/6
f 124/2/6 118/2/6 128/2/6
f 127/3/6 124/3/6 128/3/6
f 126/3/6 127/3/6 129/3/6
f 125/2/6 126/2/6 129/2/6
f 127/2/6 128/2/6 130/2/6
f 129/3/6 127/3/6 130/3/6
f 117/2/6 125/2/6 131/2/6
f 125/2/6 129/2/6 131/2/6
f 129/2/6 130/2/6 131/2/6
f 128/2/6 118/2/6 132/2/6
f 131/2/6 130/2/6 132/2/6
f 130/2/6 128/2/6 132/2/6
