# ProBuilder 5.0.7
# https://unity3d.com/unity/features/worldbuilding/probuilder
# 7/10/2023 10:20:56 AM

mtllib ./ArcherUnitMesh.mtl
o ArcherUnitMesh

g ArcherUnitMesh
v 0.4999999 1.80298 -0.8660255
v 0.9198998 1.54271 -1.104455E-07
v 1 1.80298 -1.183218E-07
v 0.4599498 1.679673 -0.7966567
v -1 1.80298 -3.0899E-08
v -0.4599498 1.679673 -0.7966567
v -0.4999999 1.80298 -0.8660255
v -0.9198998 1.54271 -3.002531E-08
v -0.8 2.862448 -3.832786E-08
v 9.934126E-09 3.362705 -3.31991E-08
v -0.4 2.862448 0.6928203
v 0.4000001 2.862448 0.6928203
v 0.8 2.862448 -1.082661E-07
v 0.3999999 2.862448 -0.6928204
v -0.3999999 2.862448 -0.6928204
v -0.5 0.6542665 0.8660254
v -0.4599499 1.54271 0.7966565
v -1 0.6542665 -2.85989E-08
v 0.5000001 0.6542665 0.8660253
v 0.4599499 1.54271 0.7966565
v 1 0.6542665 -1.160217E-07
v 0.4999999 0.6542665 -0.8660255
v -0.4999999 0.6542665 -0.8660255
v 0.3845299 0.4595069 -0.6660255
v 0.38453 0.4595069 0.6660253
v 0.7690599 0.4595069 -9.678002E-08
v -0.7690599 0.4595069 -2.127817E-08
v -0.3845299 0.4595069 -0.6660255
v -0.3845299 0.4595069 0.6660254
v -0.4441385 1.959507 0.7692704
v 0.888277 1.959507 -1.108547E-07
v 0.4441386 1.959507 0.7692704
v -0.4441384 1.959507 -0.7692705
v -0.888277 1.959507 -3.31991E-08
v 0.4441384 1.959507 -0.7692705
v -0.5 1.80298 0.8660254
v 0.5000001 1.80298 0.8660253
v -0.8067713 1.231377 -0.15
v -1.27506 1.590051 -0.1500001
v -1.27506 1.231377 -0.15
v -0.8067713 1.590051 -0.1500001
v -1.27506 1.231377 0.15
v -0.8067713 1.590051 0.1499999
v -0.8067713 1.231377 0.15
v -1.27506 1.590051 0.1499999
v -0.8 1.945116 -3.31991E-08
v -0.4 1.945116 0.6928203
v 0.4000001 1.945116 0.6928203
v 0.8 1.945116 -1.031373E-07
v 0.7 2.356176 -0.1732052
v 0.3999999 2.662449 -0.6928204
v 0.3999999 2.145116 -0.6928204
v 0.7 2.662449 -0.1732052
v -0.3999999 2.662449 -0.6928204
v -0.3999999 2.145116 -0.6928204
v -0.7 2.662449 -0.1732051
v -0.7 2.356176 -0.1732051
v -0.3999999 1.945116 -0.6928204
v 0.3999999 1.945116 -0.6928204
v -0.457735 2.662449 -0.7928204
v -0.8866026 2.862448 -0.05000005
v -0.7866025 2.662449 -0.2232051
v -0.457735 2.862448 -0.7928204
v 0.457735 2.662449 -0.7928204
v 0.457735 2.862448 -0.7928204
v 0.7866025 2.662449 -0.2232052
v 0.8866025 2.862448 -0.05000012
v -0.1 2.662412 -0.7809796
v 0.09999999 2.304713 -0.7809796
v 0.09999998 2.662412 -0.7809796
v -0.1 2.304714 -0.7809796
v -0.1 2.304714 -0.6773419
v -0.1 2.662412 -0.6773419
v 0.09999999 2.304713 -0.6773419
v 0.09999998 2.662412 -0.6773419
v 1.275062 1.590051 -0.1500003
v 0.8067732 1.590051 -0.1500003
v 0.8067732 1.231377 -0.1500002
v 1.275062 1.231377 -0.1500002
v 0.8067732 1.590051 0.1499997
v 1.275062 1.590051 0.1499997
v 1.275062 1.231377 0.1499999
v 0.8067732 1.231377 0.1499999
v 1.200748 1.277738 0.5646415
v 1.200748 1.277738 -2.240256
v 0.9389539 1.277738 -2.240256
v 0.9389524 1.277738 0.5646411
v 1.200748 1.550688 0.5646415
v 0.9389524 1.550688 0.5646411
v 0.9389539 1.550687 -2.240256
v 1.200748 1.550687 -2.240256
v 0.9809365 1.846429 -0.3537292
v 0.9809365 1.846429 -0.6537294
v 1.171547 1.846429 -0.6537294
v 1.171547 1.846429 -0.3537292
v 0.9809365 1.539323 -0.6537294
v 1.171547 1.539323 -0.6537294
v 0.9809365 1.539324 -0.3537292
v 1.171547 1.539324 -0.3537292
v -0.7503009 1.482481 -1.827551
v -0.7204407 1.482481 -1.867656
v 1.076242 1.707571 -0.5299182
v 1.076242 1.711311 -0.4675807
v -0.7084115 1.333233 -1.858699
v 1.076242 1.556815 -0.5299181
v -0.7382716 1.333233 -1.818595
v 1.076242 1.560555 -0.4675807
v 2.872925 1.482481 -1.867655
v 2.902786 1.482481 -1.827551
v 2.860896 1.333233 -1.858698
v 2.890757 1.333233 -1.818594
v 0.6219642 1.614214 -2.221693
v 0.6219647 1.614214 -2.521693
v 1.53052 1.614214 -2.521693
v 1.53052 1.614214 -2.221693
v 0.6219645 1.214215 -2.521693
v 1.53052 1.214215 -2.521693
v 0.6219642 1.214215 -2.221693
v 1.53052 1.214215 -2.221693
v -0.7304754 1.564215 -1.720887
v -0.8287764 1.564215 -1.895062
v 0.1181026 1.564215 -2.429462
v 0.1785142 1.564215 -2.233903
v 1.076242 1.564215 -2.511503
v 1.076242 1.564215 -2.310771
v 2.034382 1.564215 -2.429462
v 1.973971 1.564215 -2.233903
v 2.981261 1.564215 -1.895061
v 2.88296 1.564215 -1.720886
v -0.8287764 1.264215 -1.895062
v 0.1181026 1.264215 -2.429462
v -0.7304755 1.264215 -1.720887
v 0.1785142 1.264215 -2.233903
v 1.076242 1.264215 -2.310771
v 1.076242 1.264215 -2.511503
v 1.973971 1.264215 -2.233903
v 2.034382 1.264215 -2.429462
v 2.88296 1.264215 -1.720886
v 2.981261 1.264215 -1.895061
v -0.5524429 0.5756582 -0.15
v -0.5524429 -0.001768112 -0.15
v -0.252443 -0.001768112 -0.15
v -0.252443 0.5756581 -0.15
v -0.2524429 -0.001768112 0.15
v -0.2524429 0.5756581 0.15
v -0.5524429 -0.001767993 0.1500001
v -0.5524429 0.5756582 0.15
v 0.5524391 0.5756582 -0.1500001
v 0.2524391 0.5756581 -0.1500001
v 0.2524391 -0.001768112 -0.1500001
v 0.5524391 -0.001768112 -0.1500001
v 0.2524392 0.5756581 0.1499999
v 0.2524392 -0.001768112 0.15
v 0.5524391 0.5756582 0.1499999
v 0.5524391 -0.001767993 0.1499999

vt 0.6712109 0.6843214
vt 0.6742743 0.6741286
vt 0.6712109 0.6741286
vt 0.6726622 0.683505
vt 0.6712109 0.6953737
vt 0.6726622 0.6859973
vt 0.6712109 0.6851808
vt 0.6742743 0.6953737
vt 0.8588202 0.9328818
vt 0.8533506 0.941317
vt 0.8633906 0.9418362
vt 0.6057765 0.9399065
vt 0.5957367 0.9393873
vt 0.6003069 0.9483417
vt 0.8579209 0.9502714
vt 0.8478811 0.9497522
vt 0.5902671 0.9478225
vt 0.5856968 0.9388681
vt 0.8433108 0.9407978
vt 0.8487804 0.9323626
vt 0.5911664 0.9304329
vt 0.6012062 0.9309521
vt 0.8071655 0.5849235
vt 0.7967088 0.5747306
vt 0.7967088 0.584107
vt 0.8071655 0.5747306
vt 0.6870223 0.553027
vt 0.6983206 0.5425703
vt 0.6874937 0.5425703
vt 0.698792 0.553027
vt 0.8071655 0.5534856
vt 0.7967088 0.5441092
vt 0.7967088 0.5534856
vt 0.8071655 0.5432928
vt 0.6861629 0.5580503
vt 0.6757063 0.5478575
vt 0.6740942 0.5572339
vt 0.6861629 0.5478575
vt 0.8080249 0.5799001
vt 0.8193232 0.5678314
vt 0.8084962 0.5678314
vt 0.8197945 0.5799001
vt 0.6861629 0.5691026
vt 0.6740942 0.5597262
vt 0.6757063 0.5691026
vt 0.6861629 0.5589098
vt 0.05294216 0.5539331
vt 0.06861997 0.5539331
vt 0.06078113 0.5494074
vt 0.06078113 0.5675105
vt 0.05294216 0.5629847
vt 0.06861997 0.5629847
vt 0.9046538 0.7008585
vt 0.9137078 0.6851764
vt 0.9046538 0.6904038
vt 0.9227619 0.7008585
vt 0.9137078 0.7060859
vt 0.9227619 0.6904038
vt 0.1934351 0.5562572
vt 0.1828153 0.5594239
vt 0.1832423 0.562142
vt 0.1906542 0.5548981
vt 0.1749764 0.5548981
vt 0.1730494 0.5562572
vt 0.1749764 0.5458466
vt 0.1730494 0.5444875
vt 0.1828153 0.5413208
vt 0.1832423 0.5386027
vt 0.1906542 0.5458466
vt 0.1934351 0.5444875
vt 0.8110073 0.7034897
vt 0.8128495 0.6944357
vt 0.8110073 0.6944357
vt 0.8128495 0.7046285
vt 0.8278864 0.6629978
vt 0.8389986 0.66484
vt 0.8383411 0.6629978
vt 0.8272289 0.66484
vt 0.8110073 0.6731906
vt 0.8128495 0.6629978
vt 0.8110073 0.6641366
vt 0.8128495 0.6731906
vt 0.8110073 0.6822447
vt 0.8128495 0.6833834
vt 0.8278864 0.6842428
vt 0.8389986 0.6860851
vt 0.8383411 0.6842428
vt 0.8272289 0.6860851
vt 0.8128495 0.6842428
vt 0.8110073 0.6853816
vt 0.6712109 0.7055665
vt 0.6742743 0.7047501
vt 0.6855903 0.665778
vt 0.6968886 0.6688414
vt 0.69736 0.665778
vt 0.6860617 0.6688414
vt 0.6742743 0.6647522
vt 0.6712109 0.6639358
vt 0.6855903 0.6870231
vt 0.6968886 0.6884744
vt 0.69736 0.6870231
vt 0.6860617 0.6884744
vt 0.0603 0.5585885
vt 0.05084351 0.5496408
vt 0.05084351 0.5585885
vt 0.0603 0.5496408
vt 0.04056244 0.5496408
vt 0.05001894 0.5585885
vt 0.05001894 0.5496408
vt 0.04056244 0.5585885
vt 0.1866092 0.5613972
vt 0.1776616 0.5688811
vt 0.1866092 0.5688811
vt 0.1776616 0.5613972
vt 0.5232789 0.5876269
vt 0.5327354 0.580143
vt 0.5232789 0.580143
vt 0.5327354 0.5876269
vt 0.0603 0.566897
vt 0.05084351 0.5594131
vt 0.05084351 0.566897
vt 0.0603 0.5594131
vt 0.319498 0.9415922
vt 0.3107916 0.9300644
vt 0.3107916 0.9415922
vt 0.319498 0.9300644
vt 0.1523094 0.9594604
vt 0.1638371 0.9494072
vt 0.1523094 0.9494072
vt 0.1638371 0.9594604
vt 0.3282044 0.9543557
vt 0.319498 0.9428279
vt 0.319498 0.9543557
vt 0.3282044 0.9428279
vt 0.9520178 0.218239
vt 0.945488 0.2143902
vt 0.945488 0.2208914
vt 0.9520178 0.2143902
vt 0.9741898 0.2056146
vt 0.9641365 0.1991134
vt 0.9641365 0.2056146
vt 0.9741898 0.1991134
vt 0.9629008 0.2081279
vt 0.956371 0.2016268
vt 0.956371 0.2054756
vt 0.9629008 0.2016268
vt 0.7004292 0.2092708
vt 0.7026058 0.2002564
vt 0.7004292 0.197743
vt 0.7026058 0.2041052
vt 0.7091357 0.2092708
vt 0.7091357 0.2067575
vt 0.6982526 0.2168686
vt 0.7004292 0.2105065
vt 0.6982526 0.2130198
vt 0.7004292 0.2220342
vt 0.6917229 0.219521
vt 0.6917229 0.2220342
vt 0.8410304 0.1922848
vt 0.8309771 0.1897715
vt 0.8309771 0.1922848
vt 0.8410304 0.1897715
vt 0.8216633 0.2113106
vt 0.8123286 0.2087973
vt 0.8145052 0.2113106
vt 0.8216633 0.2087973
vt 0.8256671 0.1760815
vt 0.8141628 0.1735682
vt 0.8141628 0.1760815
vt 0.8256671 0.1735682
vt 0.8381352 0.1985471
vt 0.8309771 0.1960338
vt 0.8309771 0.1985471
vt 0.8403118 0.1960338
vt 0.9074262 0.2947476
vt 0.9181257 0.2965592
vt 0.9181907 0.2953042
vt 0.9080859 0.29604
vt 0.9011672 0.3044002
vt 0.9026163 0.3044752
vt 0.9060673 0.3140008
vt 0.9071866 0.3134296
vt 0.6718398 0.1664807
vt 0.6669816 0.1723822
vt 0.6680698 0.1730105
vt 0.6711143 0.1652241
vt 0.6818931 0.1664807
vt 0.6826186 0.1652241
vt 0.6856631 0.1730105
vt 0.6867514 0.1723822
vt 0.6657249 0.1745587
vt 0.6668133 0.1751871
vt 0.6869198 0.1751871
vt 0.6880081 0.1745587
vt 0.8296375 0.1667067
vt 0.8251424 0.16922
vt 0.8296375 0.16922
vt 0.8251424 0.1667067
vt 0.6813035 0.1882204
vt 0.6768085 0.186918
vt 0.6768085 0.1882204
vt 0.6813035 0.186918
vt 0.6825444 0.1738847
vt 0.6850578 0.1751871
vt 0.6850578 0.1738847
vt 0.6825444 0.1751871
vt 0.6654006 0.1996814
vt 0.6698956 0.2009839
vt 0.6698956 0.1996814
vt 0.6654006 0.2009839
vt 0.05001894 0.5691853
vt 0.04056244 0.5691853
vt 0.04056244 0.5781329
vt 0.05001894 0.5781329
vt 0.04056244 0.5683607
vt 0.05001894 0.5683607
vt 0.05001894 0.5594131
vt 0.04056244 0.5594131
vt 0.1968903 0.5605726
vt 0.1968903 0.5530887
vt 0.1879427 0.5530887
vt 0.1879427 0.5605726
vt 0.5327354 0.5778546
vt 0.5327354 0.5703707
vt 0.5232789 0.5703707
vt 0.5232789 0.5778546
vt 0.05084351 0.5752055
vt 0.0603 0.5752055
vt 0.0603 0.5677215
vt 0.05084351 0.5677215
vt 0.04592252 0.5455191
vt 0.08579582 0.5485077
vt 0.08599031 0.5459123
vt 0.04611707 0.5429237
vt 0.2173703 0.5724264
vt 0.2172777 0.5698253
vt 0.1773179 0.5712484
vt 0.1774105 0.5738494
vt 0.1913425 0.5598211
vt 0.1913425 0.557689
vt 0.188629 0.557689
vt 0.188629 0.5598211
vt 0.07849807 0.5778163
vt 0.04574418 0.5778163
vt 0.04574418 0.5805299
vt 0.07849807 0.5805299
vt 0.04592252 0.5530075
vt 0.0786764 0.5530075
vt 0.0786764 0.5502939
vt 0.04592252 0.5502939
vt 0.3124675 0.06480804
vt 0.3126197 0.06908193
vt 0.3145134 0.06901452
vt 0.3143612 0.06474057
vt 0.3222539 0.2051708
vt 0.3182772 0.2051708
vt 0.3182772 0.2067231
vt 0.3222539 0.2067231
vt 0.3224176 0.1735753
vt 0.3184409 0.1735753
vt 0.3184409 0.1751275
vt 0.3224176 0.1751276
vt 0.1662466 0.1819924
vt 0.1622699 0.1819924
vt 0.1622699 0.1854956
vt 0.1662466 0.1854956
vt 0.2068073 0.1934411
vt 0.2068073 0.1899378
vt 0.2028306 0.1899378
vt 0.2028306 0.1934411
vt 0.8223276 0.07421351
vt 0.822535 0.07360364
vt 0.7964077 0.0738994
vt 0.795766 0.07451422
vt 0.5948206 0.08963746
vt 0.59482 0.08814359
vt 0.5690418 0.08738303
vt 0.5688686 0.08887178
vt 0.5418469 0.05802476
vt 0.5412294 0.05820811
vt 0.5398964 0.08456272
vt 0.5405358 0.08394569
vt 0.6858176 0.06892976
vt 0.6857584 0.07042244
vt 0.7121519 0.07067898
vt 0.7120372 0.06918457
vt 0.7978197 0.0478086
vt 0.7972015 0.04798979
vt 0.5655626 0.09749919
vt 0.5654479 0.09600478
vt 0.5399536 0.09573168
vt 0.5398964 0.09722418
vt 0.5662818 0.08417076
vt 0.5664871 0.08356017
vt 0.682698 0.07085612
vt 0.6828712 0.06936738
vt 0.6567875 0.06862381
vt 0.6567861 0.07011738
vt 0.593333 0.06468695
vt 0.5933082 0.06320316
vt 0.5927372 0.06320316
vt 0.5927619 0.06468695
vt 0.5865316 0.06468695
vt 0.5871341 0.06320316
vt 0.5864956 0.06320316
vt 0.5871702 0.06468695
vt 0.9298576 0.06771197
vt 0.9297054 0.06343802
vt 0.9206785 0.06375947
vt 0.9208307 0.06803342
vt 0.1988618 0.2183564
vt 0.1988618 0.2143797
vt 0.1914627 0.2143797
vt 0.1914627 0.2183564
vt 0.06070635 0.2072137
vt 0.06497103 0.2075333
vt 0.06564614 0.1985259
vt 0.06138146 0.1982063
vt 0.1926652 0.2131657
vt 0.1926652 0.209189
vt 0.1852661 0.209189
vt 0.1852661 0.2131657
vt 0.06470087 0.1710018
vt 0.06072417 0.1710018
vt 0.06072417 0.174505
vt 0.06470087 0.174505
vt 0.06072417 0.1751004
vt 0.06470087 0.1786037
vt 0.06470087 0.1751004
vt 0.06072417 0.1786037
vt 0.9173845 0.5600942
vt 0.9164962 0.5626104
vt 0.926175 0.5698887
vt 0.926676 0.5670813
vt 0.9357362 0.5707185
vt 0.9356343 0.5678588
vt 0.9452141 0.5692106
vt 0.9445147 0.566446
vt 0.9543507 0.5612623
vt 0.9532856 0.5588157
vt 0.7924969 0.5864276
vt 0.7924969 0.5894101
vt 0.8045777 0.5894101
vt 0.8045777 0.5864276
vt 0.7163718 0.5628762
vt 0.7153901 0.560395
vt 0.7063661 0.5677242
vt 0.7069716 0.570511
vt 0.6974431 0.5688358
vt 0.6974481 0.5716973
vt 0.6885161 0.5677558
vt 0.6879205 0.5705447
vt 0.6794663 0.5604585
vt 0.6784934 0.5629432
vt 0.6495211 0.5893146
vt 0.6495211 0.5922971
vt 0.6611184 0.5922971
vt 0.6611184 0.5893146
vt 0.8130514 0.5894101
vt 0.8130514 0.5864276
vt 0.6690579 0.5922971
vt 0.6690579 0.5893146
vt 0.8201835 0.5894101
vt 0.8201835 0.5864276
vt 0.6757403 0.5922971
vt 0.6757403 0.5893146
vt 0.7692258 0.5651858
vt 0.7662432 0.5651858
vt 0.7662432 0.5768256
vt 0.7692258 0.5768256
vt 0.6607574 0.5689401
vt 0.6577749 0.5689401
vt 0.6577749 0.5801142
vt 0.6607574 0.5801142
vt 0.5643753 0.5518085
vt 0.5643753 0.554791
vt 0.5669698 0.554791
vt 0.5669698 0.5518085
vt 0.5712467 0.5520545
vt 0.5682641 0.5498298
vt 0.5682641 0.5520545
vt 0.5712467 0.5498298
vt 0.5593109 0.1721341
vt 0.5593109 0.189973
vt 0.5500428 0.189973
vt 0.5500428 0.1721341
vt 0.03997213 0.05815411
vt 0.03997213 0.04031521
vt 0.04924023 0.04031521
vt 0.04924023 0.05815411
vt 0.5399546 0.189973
vt 0.5399546 0.1721341
vt 0.5492227 0.1721341
vt 0.5492227 0.189973
vt 0.04924023 0.05870082
vt 0.04924023 0.07653971
vt 0.03997213 0.07653971
vt 0.03997213 0.05870082
vt 0.06832194 0.0537314
vt 0.06832194 0.04446325
vt 0.07759005 0.04446325
vt 0.07759005 0.0537314

vn 0.7712051 -0.3824846 -0.488875
vn 0.8368132 -0.257536 -0.4831344
vn 0.7055969 -0.5074331 -0.4946157
vn -0.7867411 -0.3711343 -0.4758841
vn -0.7547841 -0.4903074 -0.4357749
vn -0.818698 -0.2519612 -0.5159933
vn -0.506974 0.8107424 0.2927015
vn 4.361593E-08 0.8107424 0.5854031
vn 0.506974 0.8107424 0.2927015
vn 0.5069739 0.8107424 -0.2927016
vn 0 0.8107424 -0.5854031
vn -0.506974 0.8107424 -0.2927016
vn -0.8633976 0.07784212 0.4984829
vn 6.561693E-08 0.07784212 0.9969657
vn 0.8633977 0.07784213 0.4984828
vn 0.8662115 0.07247305 -0.4943392
vn 0.8690255 0.06710398 -0.4901956
vn 0.8633976 0.07784212 -0.4984829
vn 3.940325E-09 0.0674958 -0.9977196
vn -0.8665936 0.07292767 -0.4935923
vn -0.8691368 0.07835955 -0.4883247
vn -0.8640504 0.06749579 -0.4988598
vn 0 -1 0
vn 0 1 0
vn -0.6041899 -0.7164305 0.3488292
vn -0.6041899 -0.7164305 -0.3488293
vn 0 -0.7164305 -0.6976585
vn 0.6041899 -0.7164306 -0.3488293
vn 0.60419 -0.7164305 0.3488292
vn 4.782724E-08 -0.7164305 0.6976584
vn -0.7366511 0.525795 0.4253057
vn 5.388881E-08 0.525795 0.8506114
vn 0.7366511 0.5257949 0.4253057
vn 0.7366511 0.5257949 -0.4253058
vn 0 0.525795 -0.8506114
vn -0.7366511 0.5257949 -0.4253058
vn -0.8368132 -0.2575362 0.4831343
vn 4.341463E-08 -0.2575361 0.9662687
vn 0.8368133 -0.257536 0.4831343
vn -3.176933E-08 -0.4903072 -0.8715497
vn 0 -3.739066E-07 -1
vn 9.518306E-14 3.739065E-07 1
vn -1 0 0
vn -0.8660254 0 0.5000001
vn 0.8660254 0 0.4999999
vn 0.8660254 3.392629E-08 -0.5000001
vn -0.8660254 0 -0.5
vn -0.3535532 -0.7071072 0.6123722
vn 0.3535534 -0.7071071 0.6123721
vn 1 4.165845E-08 0
vn -0.08019793 0.9949892 -0.05970598
vn 0.5972037 -6.663589E-08 -0.8020896
vn 0.0801976 -0.9949893 0.05970567
vn -0.5972037 6.510767E-08 0.8020896
vn 0.08019742 0.9949893 -0.05970651
vn -0.5972035 -1.217598E-06 -0.8020898
vn -0.08019713 -0.9949893 0.05970648
vn 0.5972036 1.477453E-06 0.8020898
vn -0.7980721 -0.09998319 -0.594209
vn 0.7980678 -0.09998398 -0.5942147
vn -0.4915051 1.730272E-07 -0.8708747
vn 0.4915048 -2.706804E-07 0.8708749
vn -0.08531289 0 -0.9963542
vn 0.08531278 -3.996736E-07 0.9963542
vn 0.08531319 0 -0.9963542
vn -0.08531302 -3.959154E-07 0.9963542
vn 0.4915052 -9.136709E-08 -0.8708746
vn -0.4915054 1.903511E-07 0.8708745
vn -0.8708748 -2.004301E-08 0.4915049
vn 0.870875 1.953063E-07 0.4915046

usemtl Towers_Violet
f 11/11/7 10/10/7 9/9/7
f 12/14/8 10/13/8 11/12/8
f 13/16/9 10/10/9 12/15/9
f 14/18/10 10/13/10 13/17/10
f 15/20/11 10/10/11 14/19/11
f 9/22/12 10/13/12 15/21/12
f 24/47/23 27/50/23 28/51/23
f 29/52/23 27/50/23 25/48/23
f 30/53/24 33/56/24 34/57/24
f 35/58/24 33/56/24 31/54/24
f 1/1/1 3/3/2 2/2/1
f 2/2/1 4/4/3 1/1/1
f 5/5/4 7/7/5 6/6/4
f 6/6/4 8/8/6 5/5/4
f 16/23/13 17/25/13 8/24/13
f 8/24/13 18/26/13 16/23/13
f 19/27/14 20/29/14 17/28/14
f 17/28/14 16/30/14 19/27/14
f 21/31/15 2/33/15 20/32/15
f 20/32/15 19/34/15 21/31/15
f 22/35/16 4/37/17 2/36/16
f 2/36/16 21/38/18 22/35/16
f 23/39/19 6/41/19 4/40/19
f 4/40/19 22/42/19 23/39/19
f 18/43/20 8/45/21 6/44/20
f 6/44/20 23/46/22 18/43/20
f 24/47/23 26/49/23 25/48/23
f 25/48/23 27/50/23 24/47/23
f 30/53/24 32/55/24 31/54/24
f 31/54/24 33/56/24 30/53/24
f 16/59/25 18/61/25 27/60/25
f 27/60/25 29/62/25 16/59/25
f 18/61/26 23/64/26 28/63/26
f 28/63/26 27/60/26 18/61/26
f 23/64/27 22/66/27 24/65/27
f 24/65/27 28/63/27 23/64/27
f 22/66/28 21/68/28 26/67/28
f 26/67/28 24/65/28 22/66/28
f 21/68/29 19/70/29 25/69/29
f 25/69/29 26/67/29 21/68/29
f 19/70/30 16/59/30 29/62/30
f 29/62/30 25/69/30 19/70/30
f 30/71/31 34/73/31 5/72/31
f 5/72/31 36/74/31 30/71/31
f 32/75/32 30/77/32 36/76/32
f 36/76/32 37/78/32 32/75/32
f 31/79/33 32/81/33 37/80/33
f 37/80/33 3/82/33 31/79/33
f 35/83/34 31/79/34 3/82/34
f 3/82/34 1/84/34 35/83/34
f 33/85/35 35/87/35 1/86/35
f 1/86/35 7/88/35 33/85/35
f 34/73/36 33/90/36 7/89/36
f 7/89/36 5/72/36 34/73/36
f 36/91/37 5/5/37 8/8/37
f 8/8/37 17/92/37 36/91/37
f 37/93/38 36/95/38 17/94/38
f 17/94/38 20/96/38 37/93/38
f 3/3/39 37/98/39 20/97/39
f 20/97/39 2/2/39 3/3/39
f 7/99/40 1/101/40 4/100/40
f 4/100/40 6/102/40 7/99/40
f 38/103/41 40/105/41 39/104/41
f 39/104/41 41/106/41 38/103/41
f 42/107/42 44/109/42 43/108/42
f 43/108/42 45/110/42 42/107/42
f 40/111/43 42/113/43 45/112/43
f 45/112/43 39/114/43 40/111/43
f 43/115/24 41/117/24 39/116/24
f 39/116/24 45/118/24 43/115/24
f 44/119/23 42/121/23 40/120/23
f 40/120/23 38/122/23 44/119/23
f 46/123/44 47/125/44 11/124/44
f 11/124/44 9/126/44 46/123/44
f 47/127/42 48/129/42 12/128/42
f 12/128/42 11/130/42 47/127/42
f 48/131/45 49/133/45 13/132/45
f 13/132/45 12/134/45 48/131/45
f 50/135/46 52/137/46 51/136/46
f 51/136/46 53/138/46 50/135/46
f 52/139/41 55/141/41 54/140/41
f 54/140/41 51/142/41 52/139/41
f 55/143/47 57/145/47 56/144/47
f 56/144/47 54/146/47 55/143/47
f 46/147/47 9/149/47 56/148/47
f 56/148/47 57/150/47 46/147/47
f 58/151/47 46/147/47 57/150/47
f 57/150/47 55/152/47 58/151/47
f 50/153/46 53/155/46 13/154/46
f 13/154/46 49/156/46 50/153/46
f 52/157/46 50/153/46 49/156/46
f 49/156/46 59/158/46 52/157/46
f 59/159/41 58/161/41 55/160/41
f 55/160/41 52/162/41 59/159/41
f 60/163/47 62/165/47 61/164/47
f 61/164/47 63/166/47 60/163/47
f 64/167/41 60/169/41 63/168/41
f 63/168/41 65/170/41 64/167/41
f 66/171/46 64/173/46 65/172/46
f 65/172/46 67/174/46 66/171/46
f 63/175/24 61/177/24 9/176/24
f 9/176/24 15/178/24 63/175/24
f 65/179/24 63/175/24 15/178/24
f 15/178/24 14/180/24 65/179/24
f 67/181/24 65/179/24 14/180/24
f 14/180/24 13/182/24 67/181/24
f 54/183/23 56/185/23 62/184/23
f 62/184/23 60/186/23 54/183/23
f 51/187/23 54/183/23 60/186/23
f 60/186/23 64/188/23 51/187/23
f 53/189/23 51/187/23 64/188/23
f 64/188/23 66/190/23 53/189/23
f 56/185/48 9/192/48 61/191/48
f 61/191/48 62/184/48 56/185/48
f 13/193/49 53/189/49 66/190/49
f 66/190/49 67/194/49 13/193/49
f 68/195/41 70/197/41 69/196/41
f 69/196/41 71/198/41 68/195/41
f 68/199/43 71/201/43 72/200/43
f 72/200/43 73/202/43 68/199/43
f 71/203/23 69/205/23 74/204/23
f 74/204/23 72/206/23 71/203/23
f 69/207/50 70/209/50 75/208/50
f 75/208/50 74/210/50 69/207/50
f 78/213/41 77/212/41 76/211/41
f 76/211/41 79/214/41 78/213/41
f 82/217/42 81/216/42 80/215/42
f 80/215/42 83/218/42 82/217/42
f 79/221/50 76/220/50 81/219/50
f 81/219/50 82/222/50 79/221/50
f 76/225/24 77/224/24 80/223/24
f 80/223/24 81/226/24 76/225/24
f 79/229/23 82/228/23 83/227/23
f 83/227/23 78/230/23 79/229/23
f 86/233/23 85/232/23 84/231/23
f 84/231/23 87/234/23 86/233/23
f 90/237/24 89/236/24 88/235/24
f 88/235/24 91/238/24 90/237/24
f 89/241/42 87/240/42 84/239/42
f 84/239/42 88/242/42 89/241/42
f 90/245/43 86/244/43 87/243/43
f 87/243/43 89/246/43 90/245/43
f 88/249/50 84/248/50 85/247/50
f 85/247/50 91/250/50 88/249/50
f 94/253/24 93/252/24 92/251/24
f 92/251/24 95/254/24 94/253/24
f 97/257/41 96/256/41 93/255/41
f 93/255/41 94/258/41 97/257/41
f 95/261/42 92/260/42 98/259/42
f 98/259/42 99/262/42 95/261/42
f 92/265/43 93/264/43 96/263/43
f 96/263/43 98/266/43 92/265/43
f 95/269/50 99/268/50 97/267/50
f 97/267/50 94/270/50 95/269/50
f 102/273/51 101/272/51 100/271/51
f 100/271/51 103/274/51 102/273/51
f 105/277/52 104/276/52 101/275/52
f 101/275/52 102/278/52 105/277/52
f 107/281/53 106/280/53 104/279/53
f 104/279/53 105/282/53 107/281/53
f 103/285/54 100/284/54 106/283/54
f 106/283/54 107/286/54 103/285/54
f 108/287/55 102/273/55 103/274/55
f 103/274/55 109/288/55 108/287/55
f 110/291/56 105/290/56 102/289/56
f 102/289/56 108/292/56 110/291/56
f 111/293/57 107/281/57 105/282/57
f 105/282/57 110/294/57 111/293/57
f 109/297/58 103/296/58 107/295/58
f 107/295/58 111/298/58 109/297/58
f 100/301/59 101/300/59 104/299/59
f 104/299/59 106/302/59 100/301/59
f 110/303/60 108/305/60 109/304/60
f 109/304/60 111/306/60 110/303/60
f 114/309/24 113/308/24 112/307/24
f 112/307/24 115/310/24 114/309/24
f 117/313/41 116/312/41 113/311/41
f 113/311/41 114/314/41 117/313/41
f 119/317/23 118/316/23 116/315/23
f 116/315/23 117/318/23 119/317/23
f 115/321/42 112/320/42 118/319/42
f 118/319/42 119/322/42 115/321/42
f 112/325/43 113/324/43 116/323/43
f 116/323/43 118/326/43 112/325/43
f 117/327/50 114/329/50 115/328/50
f 115/328/50 119/330/50 117/327/50
f 122/333/24 121/332/24 120/331/24
f 120/331/24 123/334/24 122/333/24
f 124/335/24 122/333/24 123/334/24
f 123/334/24 125/336/24 124/335/24
f 126/337/24 124/335/24 125/336/24
f 125/336/24 127/338/24 126/337/24
f 128/339/24 126/337/24 127/338/24
f 127/338/24 129/340/24 128/339/24
f 131/343/61 130/342/61 121/341/61
f 121/341/61 122/344/61 131/343/61
f 133/347/23 132/346/23 130/345/23
f 130/345/23 131/348/23 133/347/23
f 134/349/23 133/347/23 131/348/23
f 131/348/23 135/350/23 134/349/23
f 136/351/23 134/349/23 135/350/23
f 135/350/23 137/352/23 136/351/23
f 138/353/23 136/351/23 137/352/23
f 137/352/23 139/354/23 138/353/23
f 123/357/62 120/356/62 132/355/62
f 132/355/62 133/358/62 123/357/62
f 135/359/63 131/343/63 122/344/63
f 122/344/63 124/360/63 135/359/63
f 125/361/64 123/357/64 133/358/64
f 133/358/64 134/362/64 125/361/64
f 137/363/65 135/359/65 124/360/65
f 124/360/65 126/364/65 137/363/65
f 127/365/66 125/361/66 134/362/66
f 134/362/66 136/366/66 127/365/66
f 139/369/67 137/368/67 126/367/67
f 126/367/67 128/370/67 139/369/67
f 129/373/68 127/372/68 136/371/68
f 136/371/68 138/374/68 129/373/68
f 120/377/69 121/376/69 130/375/69
f 130/375/69 132/378/69 120/377/69
f 139/379/70 128/381/70 129/380/70
f 129/380/70 138/382/70 139/379/70
f 142/385/41 141/384/41 140/383/41
f 140/383/41 143/386/41 142/385/41
f 144/389/50 142/388/50 143/387/50
f 143/387/50 145/390/50 144/389/50
f 146/393/42 144/392/42 145/391/42
f 145/391/42 147/394/42 146/393/42
f 141/397/43 146/396/43 147/395/43
f 147/395/43 140/398/43 141/397/43
f 141/401/23 142/400/23 144/399/23
f 144/399/23 146/402/23 141/401/23
f 150/385/41 149/386/41 148/383/41
f 148/383/41 151/384/41 150/385/41
f 153/389/43 152/390/43 149/387/43
f 149/387/43 150/388/43 153/389/43
f 155/393/42 154/394/42 152/391/42
f 152/391/42 153/392/42 155/393/42
f 151/397/50 148/398/50 154/395/50
f 154/395/50 155/396/50 151/397/50
f 151/401/23 155/402/23 153/399/23
f 153/399/23 150/400/23 151/401/23

