# MagicaVoxel @ Ephtracy

# group
o 

# material
mtllib magetower3.mtl
usemtl palette

# normals
vn -1 0 0
vn 1 0 0
vn 0 0 1
vn 0 0 -1
vn 0 -1 0
vn 0 1 0

# texcoords
vt 0.775391 0.5
vt 0.974609 0.5

# verts
v -1.2 0 0.7
v -1.2 0 -0.7
v -1.2 0.4 0.7
v -1.2 0.4 -0.7
v -1.1 0 1.1
v -1.1 0 0.7
v -1.1 0 -0.7
v -1.1 0 -1.1
v -1.1 0.4 0.7
v -1.1 0.4 -0.7
v -1.1 0.6 1.1
v -1.1 0.6 -1.1
v -1.1 1.2 1.1
v -1.1 1.2 0.6
v -1.1 1.2 -0.6
v -1.1 1.2 -1.1
v -1.1 1.7 1.1
v -1.1 1.7 0.6
v -1.1 1.7 -0.6
v -1.1 1.7 -1.1
v -1 0.6 1
v -1 0.6 0.4
v -1 0.6 -0.4
v -1 0.6 -1
v -1 0.8 1
v -1 0.8 0.7
v -1 0.8 -0.7
v -1 0.8 -1
v -1 1.2 1
v -1 1.2 0.7
v -1 1.2 0.6
v -1 1.2 -0.6
v -1 1.2 -0.7
v -1 1.2 -1
v -1 1.5 0.6
v -1 1.5 0.4
v -1 1.5 -0.4
v -1 1.5 -0.6
v -0.8 0.6 0.4
v -0.8 0.6 -0.4
v -0.8 0.7 0.1
v -0.8 0.7 -0.0999999
v -0.8 0.8 0.2
v -0.8 0.8 0.1
v -0.8 0.8 -0.0999999
v -0.8 0.8 -0.2
v -0.8 0.9 0.2
v -0.8 0.9 0.1
v -0.8 0.9 -0.0999999
v -0.8 0.9 -0.2
v -0.8 1 0.2
v -0.8 1 0.1
v -0.8 1 -0.0999999
v -0.8 1 -0.2
v -0.8 1.1 0.2
v -0.8 1.1 0.1
v -0.8 1.1 -0.0999999
v -0.8 1.1 -0.2
v -0.8 1.2 0.2
v -0.8 1.2 0.1
v -0.8 1.2 -0.0999999
v -0.8 1.2 -0.2
v -0.8 1.3 0.2
v -0.8 1.3 0.1
v -0.8 1.3 -0.0999999
v -0.8 1.3 -0.2
v -0.8 1.4 0.1
v -0.8 1.4 -0.0999999
v -0.8 1.5 0.4
v -0.8 1.5 -0.4
v -0.7 0 1.2
v -0.7 0 1.1
v -0.7 0 -1.1
v -0.7 0 -1.2
v -0.7 0.4 1.2
v -0.7 0.4 1.1
v -0.7 0.4 -1.1
v -0.7 0.4 -1.2
v 0.4 0.6 1
v 0.4 0.6 0.8
v 0.4 0.6 -0.8
v 0.4 0.6 -1
v 0.4 1.5 1
v 0.4 1.5 0.8
v 0.4 1.5 -0.8
v 0.4 1.5 -1
v 0.6 1.2 1.1
v 0.6 1.2 1
v 0.6 1.2 -1
v 0.6 1.2 -1.1
v 0.6 1.5 1
v 0.6 1.5 0.6
v 0.6 1.5 -0.6
v 0.6 1.5 -1
v 0.6 1.7 1.1
v 0.6 1.7 0.6
v 0.6 1.7 -0.6
v 0.6 1.7 -1.1
v -0.6 1.2 1.1
v -0.6 1.2 1
v -0.6 1.2 -1
v -0.6 1.2 -1.1
v -0.6 1.5 1
v -0.6 1.5 0.6
v -0.6 1.5 -0.6
v -0.6 1.5 -1
v -0.6 1.7 1.1
v -0.6 1.7 0.6
v -0.6 1.7 -0.6
v -0.6 1.7 -1.1
v -0.4 0.6 1
v -0.4 0.6 0.8
v -0.4 0.6 -0.8
v -0.4 0.6 -1
v -0.4 1.5 1
v -0.4 1.5 0.8
v -0.4 1.5 -0.8
v -0.4 1.5 -1
v 0.7 0 1.2
v 0.7 0 1.1
v 0.7 0 -1.1
v 0.7 0 -1.2
v 0.7 0.4 1.2
v 0.7 0.4 1.1
v 0.7 0.4 -1.1
v 0.7 0.4 -1.2
v 0.8 0.6 0.4
v 0.8 0.6 -0.4
v 0.8 0.7 0.1
v 0.8 0.7 -0.0999999
v 0.8 0.8 0.2
v 0.8 0.8 0.1
v 0.8 0.8 -0.0999999
v 0.8 0.8 -0.2
v 0.8 0.9 0.2
v 0.8 0.9 0.1
v 0.8 0.9 -0.0999999
v 0.8 0.9 -0.2
v 0.8 1 0.2
v 0.8 1 0.1
v 0.8 1 -0.0999999
v 0.8 1 -0.2
v 0.8 1.1 0.2
v 0.8 1.1 0.1
v 0.8 1.1 -0.0999999
v 0.8 1.1 -0.2
v 0.8 1.2 0.2
v 0.8 1.2 0.1
v 0.8 1.2 -0.0999999
v 0.8 1.2 -0.2
v 0.8 1.3 0.2
v 0.8 1.3 0.1
v 0.8 1.3 -0.0999999
v 0.8 1.3 -0.2
v 0.8 1.4 0.1
v 0.8 1.4 -0.0999999
v 0.8 1.5 0.4
v 0.8 1.5 -0.4
v 1 0.6 1
v 1 0.6 0.4
v 1 0.6 -0.4
v 1 0.6 -1
v 1 0.8 1
v 1 0.8 0.7
v 1 0.8 -0.7
v 1 0.8 -1
v 1 1.2 1
v 1 1.2 0.7
v 1 1.2 0.6
v 1 1.2 -0.6
v 1 1.2 -0.7
v 1 1.2 -1
v 1 1.5 0.6
v 1 1.5 0.4
v 1 1.5 -0.4
v 1 1.5 -0.6
v 1.1 0 1.1
v 1.1 0 0.7
v 1.1 0 -0.7
v 1.1 0 -1.1
v 1.1 0.4 0.7
v 1.1 0.4 -0.7
v 1.1 0.6 1.1
v 1.1 0.6 -1.1
v 1.1 1.2 1.1
v 1.1 1.2 0.6
v 1.1 1.2 -0.6
v 1.1 1.2 -1.1
v 1.1 1.7 1.1
v 1.1 1.7 0.6
v 1.1 1.7 -0.6
v 1.1 1.7 -1.1
v 1.2 0 0.7
v 1.2 0 -0.7
v 1.2 0.4 0.7
v 1.2 0.4 -0.7
v -0.7 0 1.2
v -0.7 0.4 1.2
v 0.7 0 1.2
v 0.7 0.4 1.2
v -1.1 0 1.1
v -1.1 0.6 1.1
v -1.1 1.2 1.1
v -1.1 1.7 1.1
v -0.7 0 1.1
v -0.7 0.4 1.1
v -0.6 1.2 1.1
v -0.6 1.7 1.1
v 0.6 1.2 1.1
v 0.6 1.7 1.1
v 0.7 0 1.1
v 0.7 0.4 1.1
v 1.1 0 1.1
v 1.1 0.6 1.1
v 1.1 1.2 1.1
v 1.1 1.7 1.1
v -1 0.6 1
v -1 0.8 1
v -1 1.2 1
v -0.7 0.8 1
v -0.7 1.2 1
v -0.6 1.2 1
v -0.6 1.5 1
v -0.4 0.6 1
v -0.4 1.5 1
v 0.4 0.6 1
v 0.4 1.5 1
v 0.6 1.2 1
v 0.6 1.5 1
v 0.7 0.8 1
v 0.7 1.2 1
v 1 0.6 1
v 1 0.8 1
v 1 1.2 1
v -0.4 0.6 0.8
v -0.4 1.5 0.8
v -0.2 0.8 0.8
v -0.2 0.9 0.8
v -0.2 1 0.8
v -0.2 1.1 0.8
v -0.2 1.2 0.8
v -0.2 1.3 0.8
v -0.1 0.7 0.8
v -0.1 0.8 0.8
v -0.1 0.9 0.8
v -0.1 1 0.8
v -0.1 1.1 0.8
v -0.1 1.2 0.8
v -0.1 1.3 0.8
v -0.1 1.4 0.8
v 0.0999999 0.7 0.8
v 0.0999999 0.8 0.8
v 0.0999999 0.9 0.8
v 0.0999999 1 0.8
v 0.0999999 1.1 0.8
v 0.0999999 1.2 0.8
v 0.0999999 1.3 0.8
v 0.0999999 1.4 0.8
v 0.2 0.8 0.8
v 0.2 0.9 0.8
v 0.2 1 0.8
v 0.2 1.1 0.8
v 0.2 1.2 0.8
v 0.2 1.3 0.8
v 0.4 0.6 0.8
v 0.4 1.5 0.8
v -1.2 0 0.7
v -1.2 0.4 0.7
v -1.1 0 0.7
v -1.1 0.4 0.7
v 1.1 0 0.7
v 1.1 0.4 0.7
v 1.2 0 0.7
v 1.2 0.4 0.7
v -1 0.6 -0.4
v -1 1.5 -0.4
v -0.8 0.6 -0.4
v -0.8 1.5 -0.4
v 0.8 0.6 -0.4
v 0.8 1.5 -0.4
v 1 0.6 -0.4
v 1 1.5 -0.4
v -1.1 1.2 -0.6
v -1.1 1.7 -0.6
v -1 1.2 -0.6
v -1 1.5 -0.6
v -0.6 1.5 -0.6
v -0.6 1.7 -0.6
v 0.6 1.5 -0.6
v 0.6 1.7 -0.6
v 1 1.2 -0.6
v 1 1.5 -0.6
v 1.1 1.2 -0.6
v 1.1 1.7 -0.6
v -1.1 1.2 0.6
v -1.1 1.7 0.6
v -1 1.2 0.6
v -1 1.5 0.6
v -0.6 1.5 0.6
v -0.6 1.7 0.6
v 0.6 1.5 0.6
v 0.6 1.7 0.6
v 1 1.2 0.6
v 1 1.5 0.6
v 1.1 1.2 0.6
v 1.1 1.7 0.6
v -1 0.6 0.4
v -1 1.5 0.4
v -0.8 0.6 0.4
v -0.8 1.5 0.4
v 0.8 0.6 0.4
v 0.8 1.5 0.4
v 1 0.6 0.4
v 1 1.5 0.4
v -1.2 0 -0.7
v -1.2 0.4 -0.7
v -1.1 0 -0.7
v -1.1 0.4 -0.7
v 1.1 0 -0.7
v 1.1 0.4 -0.7
v 1.2 0 -0.7
v 1.2 0.4 -0.7
v -0.4 0.6 -0.8
v -0.4 1.5 -0.8
v -0.2 0.8 -0.8
v -0.2 0.9 -0.8
v -0.2 1 -0.8
v -0.2 1.1 -0.8
v -0.2 1.2 -0.8
v -0.2 1.3 -0.8
v -0.1 0.7 -0.8
v -0.1 0.8 -0.8
v -0.1 0.9 -0.8
v -0.1 1 -0.8
v -0.1 1.1 -0.8
v -0.1 1.2 -0.8
v -0.1 1.3 -0.8
v -0.1 1.4 -0.8
v 0.0999999 0.7 -0.8
v 0.0999999 0.8 -0.8
v 0.0999999 0.9 -0.8
v 0.0999999 1 -0.8
v 0.0999999 1.1 -0.8
v 0.0999999 1.2 -0.8
v 0.0999999 1.3 -0.8
v 0.0999999 1.4 -0.8
v 0.2 0.8 -0.8
v 0.2 0.9 -0.8
v 0.2 1 -0.8
v 0.2 1.1 -0.8
v 0.2 1.2 -0.8
v 0.2 1.3 -0.8
v 0.4 0.6 -0.8
v 0.4 1.5 -0.8
v -1 0.6 -1
v -1 0.8 -1
v -1 1.2 -1
v -0.7 0.8 -1
v -0.7 1.2 -1
v -0.6 1.2 -1
v -0.6 1.5 -1
v -0.4 0.6 -1
v -0.4 1.5 -1
v 0.4 0.6 -1
v 0.4 1.5 -1
v 0.6 1.2 -1
v 0.6 1.5 -1
v 0.7 0.8 -1
v 0.7 1.2 -1
v 1 0.6 -1
v 1 0.8 -1
v 1 1.2 -1
v -1.1 0 -1.1
v -1.1 0.6 -1.1
v -1.1 1.2 -1.1
v -1.1 1.7 -1.1
v -0.7 0 -1.1
v -0.7 0.4 -1.1
v -0.6 1.2 -1.1
v -0.6 1.7 -1.1
v 0.6 1.2 -1.1
v 0.6 1.7 -1.1
v 0.7 0 -1.1
v 0.7 0.4 -1.1
v 1.1 0 -1.1
v 1.1 0.6 -1.1
v 1.1 1.2 -1.1
v 1.1 1.7 -1.1
v -0.7 0 -1.2
v -0.7 0.4 -1.2
v 0.7 0 -1.2
v 0.7 0.4 -1.2
v -0.7 0 1.2
v 0.7 0 1.2
v -1.1 0 1.1
v -0.7 0 1.1
v 0.7 0 1.1
v 1.1 0 1.1
v -1.2 0 0.7
v -1.1 0 0.7
v 1.1 0 0.7
v 1.2 0 0.7
v -1.2 0 -0.7
v -1.1 0 -0.7
v 1.1 0 -0.7
v 1.2 0 -0.7
v -1.1 0 -1.1
v -0.7 0 -1.1
v 0.7 0 -1.1
v 1.1 0 -1.1
v -0.7 0 -1.2
v 0.7 0 -1.2
v -1.1 1.2 1.1
v -0.6 1.2 1.1
v 0.6 1.2 1.1
v 1.1 1.2 1.1
v -1 1.2 1
v -0.7 1.2 1
v -0.6 1.2 1
v 0.6 1.2 1
v 0.7 1.2 1
v 1 1.2 1
v -1 1.2 0.7
v 1 1.2 0.7
v -1.1 1.2 0.6
v -1 1.2 0.6
v 1 1.2 0.6
v 1.1 1.2 0.6
v -1.1 1.2 -0.6
v -1 1.2 -0.6
v 1 1.2 -0.6
v 1.1 1.2 -0.6
v -1 1.2 -0.7
v 1 1.2 -0.7
v -1 1.2 -1
v -0.7 1.2 -1
v -0.6 1.2 -1
v 0.6 1.2 -1
v 0.7 1.2 -1
v 1 1.2 -1
v -1.1 1.2 -1.1
v -0.6 1.2 -1.1
v 0.6 1.2 -1.1
v 1.1 1.2 -1.1
v -0.7 0.4 1.2
v 0.7 0.4 1.2
v -0.7 0.4 1.1
v 0.7 0.4 1.1
v -1.2 0.4 0.7
v -1.1 0.4 0.7
v 1.1 0.4 0.7
v 1.2 0.4 0.7
v -1.2 0.4 -0.7
v -1.1 0.4 -0.7
v 1.1 0.4 -0.7
v 1.2 0.4 -0.7
v -0.7 0.4 -1.1
v 0.7 0.4 -1.1
v -0.7 0.4 -1.2
v 0.7 0.4 -1.2
v -1.1 0.6 1.1
v 1.1 0.6 1.1
v -1 0.6 1
v -0.4 0.6 1
v 0.4 0.6 1
v 1 0.6 1
v -0.4 0.6 0.8
v 0.4 0.6 0.8
v -1 0.6 0.4
v -0.8 0.6 0.4
v 0.8 0.6 0.4
v 1 0.6 0.4
v -1 0.6 -0.4
v -0.8 0.6 -0.4
v 0.8 0.6 -0.4
v 1 0.6 -0.4
v -0.4 0.6 -0.8
v 0.4 0.6 -0.8
v -1 0.6 -1
v -0.4 0.6 -1
v 0.4 0.6 -1
v 1 0.6 -1
v -1.1 0.6 -1.1
v 1.1 0.6 -1.1
v -0.6 1.5 1
v -0.4 1.5 1
v 0.4 1.5 1
v 0.6 1.5 1
v -0.4 1.5 0.8
v 0.4 1.5 0.8
v -1 1.5 0.6
v -0.6 1.5 0.6
v 0.6 1.5 0.6
v 1 1.5 0.6
v -1 1.5 0.4
v -0.8 1.5 0.4
v 0.8 1.5 0.4
v 1 1.5 0.4
v -1 1.5 -0.4
v -0.8 1.5 -0.4
v 0.8 1.5 -0.4
v 1 1.5 -0.4
v -1 1.5 -0.6
v -0.6 1.5 -0.6
v 0.6 1.5 -0.6
v 1 1.5 -0.6
v -0.4 1.5 -0.8
v 0.4 1.5 -0.8
v -0.6 1.5 -1
v -0.4 1.5 -1
v 0.4 1.5 -1
v 0.6 1.5 -1
v -1.1 1.7 1.1
v -0.6 1.7 1.1
v 0.6 1.7 1.1
v 1.1 1.7 1.1
v -1.1 1.7 0.6
v -0.6 1.7 0.6
v 0.6 1.7 0.6
v 1.1 1.7 0.6
v -1.1 1.7 -0.6
v -0.6 1.7 -0.6
v 0.6 1.7 -0.6
v 1.1 1.7 -0.6
v -1.1 1.7 -1.1
v -0.6 1.7 -1.1
v 0.6 1.7 -1.1
v 1.1 1.7 -1.1

# faces
f 3/2/1 2/2/1 1/2/1
f 4/2/1 2/2/1 3/2/1
f 9/2/1 6/2/1 5/2/1
f 10/2/1 8/2/1 7/2/1
f 11/2/1 9/2/1 5/2/1
f 11/2/1 10/2/1 9/2/1
f 12/2/1 8/2/1 10/2/1
f 12/2/1 10/2/1 11/2/1
f 17/1/1 14/1/1 13/1/1
f 18/1/1 14/1/1 17/1/1
f 19/1/1 16/1/1 15/1/1
f 20/1/1 16/1/1 19/1/1
f 25/2/1 22/2/1 21/2/1
f 26/2/1 22/2/1 25/2/1
f 27/2/1 24/2/1 23/2/1
f 28/2/1 24/2/1 27/2/1
f 29/1/1 26/1/1 25/1/1
f 30/2/1 22/2/1 26/2/1
f 30/1/1 26/1/1 29/1/1
f 31/2/1 22/2/1 30/2/1
f 32/2/1 27/2/1 23/2/1
f 33/1/1 28/1/1 27/1/1
f 33/2/1 27/2/1 32/2/1
f 34/1/1 28/1/1 33/1/1
f 35/2/1 22/2/1 31/2/1
f 36/2/1 22/2/1 35/2/1
f 37/2/1 32/2/1 23/2/1
f 38/2/1 32/2/1 37/2/1
f 41/2/1 40/2/1 39/2/1
f 42/2/1 40/2/1 41/2/1
f 43/2/1 41/2/1 39/2/1
f 44/1/1 42/1/1 41/1/1
f 44/2/1 41/2/1 43/2/1
f 45/2/1 40/2/1 42/2/1
f 45/1/1 42/1/1 44/1/1
f 46/2/1 40/2/1 45/2/1
f 47/1/1 44/1/1 43/1/1
f 47/2/1 43/2/1 39/2/1
f 48/2/1 45/2/1 44/2/1
f 48/1/1 44/1/1 47/1/1
f 49/1/1 46/1/1 45/1/1
f 49/2/1 45/2/1 48/2/1
f 50/2/1 40/2/1 46/2/1
f 50/1/1 46/1/1 49/1/1
f 51/2/1 48/2/1 47/2/1
f 51/2/1 47/2/1 39/2/1
f 52/1/1 49/1/1 48/1/1
f 52/2/1 48/2/1 51/2/1
f 53/2/1 50/2/1 49/2/1
f 53/1/1 49/1/1 52/1/1
f 54/2/1 40/2/1 50/2/1
f 54/2/1 50/2/1 53/2/1
f 55/2/1 51/2/1 39/2/1
f 55/1/1 52/1/1 51/1/1
f 56/2/1 53/2/1 52/2/1
f 56/1/1 52/1/1 55/1/1
f 57/1/1 54/1/1 53/1/1
f 57/2/1 53/2/1 56/2/1
f 58/2/1 40/2/1 54/2/1
f 58/1/1 54/1/1 57/1/1
f 59/2/1 55/2/1 39/2/1
f 59/2/1 56/2/1 55/2/1
f 60/1/1 57/1/1 56/1/1
f 60/2/1 56/2/1 59/2/1
f 61/2/1 58/2/1 57/2/1
f 61/1/1 57/1/1 60/1/1
f 62/2/1 40/2/1 58/2/1
f 62/2/1 58/2/1 61/2/1
f 63/2/1 59/2/1 39/2/1
f 63/1/1 60/1/1 59/1/1
f 64/2/1 61/2/1 60/2/1
f 64/1/1 60/1/1 63/1/1
f 65/1/1 62/1/1 61/1/1
f 65/2/1 61/2/1 64/2/1
f 66/2/1 40/2/1 62/2/1
f 66/1/1 62/1/1 65/1/1
f 67/1/1 65/1/1 64/1/1
f 67/2/1 64/2/1 63/2/1
f 68/2/1 66/2/1 65/2/1
f 68/1/1 65/1/1 67/1/1
f 69/2/1 63/2/1 39/2/1
f 69/2/1 67/2/1 63/2/1
f 69/2/1 68/2/1 67/2/1
f 70/2/1 40/2/1 66/2/1
f 70/2/1 68/2/1 69/2/1
f 70/2/1 66/2/1 68/2/1
f 75/2/1 72/2/1 71/2/1
f 76/2/1 72/2/1 75/2/1
f 77/2/1 74/2/1 73/2/1
f 78/2/1 74/2/1 77/2/1
f 83/2/1 80/2/1 79/2/1
f 84/2/1 80/2/1 83/2/1
f 85/2/1 82/2/1 81/2/1
f 86/2/1 82/2/1 85/2/1
f 91/1/1 88/1/1 87/1/1
f 94/1/1 90/1/1 89/1/1
f 95/1/1 92/1/1 91/1/1
f 95/1/1 91/1/1 87/1/1
f 96/1/1 92/1/1 95/1/1
f 97/1/1 94/1/1 93/1/1
f 98/1/1 90/1/1 94/1/1
f 98/1/1 94/1/1 97/1/1
f 99/1/2 100/1/2 103/1/2
f 101/1/2 102/1/2 106/1/2
f 103/1/2 104/1/2 107/1/2
f 99/1/2 103/1/2 107/1/2
f 107/1/2 104/1/2 108/1/2
f 105/1/2 106/1/2 109/1/2
f 106/1/2 102/1/2 110/1/2
f 109/1/2 106/1/2 110/1/2
f 111/2/2 112/2/2 115/2/2
f 115/2/2 112/2/2 116/2/2
f 113/2/2 114/2/2 117/2/2
f 117/2/2 114/2/2 118/2/2
f 119/2/2 120/2/2 123/2/2
f 123/2/2 120/2/2 124/2/2
f 121/2/2 122/2/2 125/2/2
f 125/2/2 122/2/2 126/2/2
f 127/2/2 128/2/2 129/2/2
f 129/2/2 128/2/2 130/2/2
f 127/2/2 129/2/2 131/2/2
f 129/1/2 130/1/2 132/1/2
f 131/2/2 129/2/2 132/2/2
f 130/2/2 128/2/2 133/2/2
f 132/1/2 130/1/2 133/1/2
f 133/2/2 128/2/2 134/2/2
f 131/1/2 132/1/2 135/1/2
f 127/2/2 131/2/2 135/2/2
f 132/2/2 133/2/2 136/2/2
f 135/1/2 132/1/2 136/1/2
f 133/1/2 134/1/2 137/1/2
f 136/2/2 133/2/2 137/2/2
f 134/2/2 128/2/2 138/2/2
f 137/1/2 134/1/2 138/1/2
f 135/2/2 136/2/2 139/2/2
f 127/2/2 135/2/2 139/2/2
f 136/1/2 137/1/2 140/1/2
f 139/2/2 136/2/2 140/2/2
f 137/2/2 138/2/2 141/2/2
f 140/1/2 137/1/2 141/1/2
f 138/2/2 128/2/2 142/2/2
f 141/2/2 138/2/2 142/2/2
f 127/2/2 139/2/2 143/2/2
f 139/1/2 140/1/2 143/1/2
f 140/2/2 141/2/2 144/2/2
f 143/1/2 140/1/2 144/1/2
f 141/1/2 142/1/2 145/1/2
f 144/2/2 141/2/2 145/2/2
f 142/2/2 128/2/2 146/2/2
f 145/1/2 142/1/2 146/1/2
f 127/2/2 143/2/2 147/2/2
f 143/2/2 144/2/2 147/2/2
f 144/1/2 145/1/2 148/1/2
f 147/2/2 144/2/2 148/2/2
f 145/2/2 146/2/2 149/2/2
f 148/1/2 145/1/2 149/1/2
f 146/2/2 128/2/2 150/2/2
f 149/2/2 146/2/2 150/2/2
f 127/2/2 147/2/2 151/2/2
f 147/1/2 148/1/2 151/1/2
f 148/2/2 149/2/2 152/2/2
f 151/1/2 148/1/2 152/1/2
f 149/1/2 150/1/2 153/1/2
f 152/2/2 149/2/2 153/2/2
f 150/2/2 128/2/2 154/2/2
f 153/1/2 150/1/2 154/1/2
f 152/1/2 153/1/2 155/1/2
f 151/2/2 152/2/2 155/2/2
f 153/2/2 154/2/2 156/2/2
f 155/1/2 153/1/2 156/1/2
f 127/2/2 151/2/2 157/2/2
f 151/2/2 155/2/2 157/2/2
f 155/2/2 156/2/2 157/2/2
f 154/2/2 128/2/2 158/2/2
f 157/2/2 156/2/2 158/2/2
f 156/2/2 154/2/2 158/2/2
f 159/2/2 160/2/2 163/2/2
f 163/2/2 160/2/2 164/2/2
f 161/2/2 162/2/2 165/2/2
f 165/2/2 162/2/2 166/2/2
f 163/1/2 164/1/2 167/1/2
f 164/2/2 160/2/2 168/2/2
f 167/1/2 164/1/2 168/1/2
f 168/2/2 160/2/2 169/2/2
f 161/2/2 165/2/2 170/2/2
f 165/1/2 166/1/2 171/1/2
f 170/2/2 165/2/2 171/2/2
f 171/1/2 166/1/2 172/1/2
f 169/2/2 160/2/2 173/2/2
f 173/2/2 160/2/2 174/2/2
f 161/2/2 170/2/2 175/2/2
f 175/2/2 170/2/2 176/2/2
f 177/2/2 178/2/2 181/2/2
f 179/2/2 180/2/2 182/2/2
f 177/2/2 181/2/2 183/2/2
f 181/2/2 182/2/2 183/2/2
f 182/2/2 180/2/2 184/2/2
f 183/2/2 182/2/2 184/2/2
f 185/1/2 186/1/2 189/1/2
f 189/1/2 186/1/2 190/1/2
f 187/1/2 188/1/2 191/1/2
f 191/1/2 188/1/2 192/1/2
f 193/2/2 194/2/2 195/2/2
f 195/2/2 194/2/2 196/2/2
f 199/2/3 198/2/3 197/2/3
f 200/2/3 198/2/3 199/2/3
f 205/2/3 202/2/3 201/2/3
f 206/2/3 202/2/3 205/2/3
f 207/1/3 204/1/3 203/1/3
f 208/1/3 204/1/3 207/1/3
f 212/2/3 202/2/3 206/2/3
f 213/2/3 212/2/3 211/2/3
f 214/2/3 202/2/3 212/2/3
f 214/2/3 212/2/3 213/2/3
f 215/1/3 210/1/3 209/1/3
f 216/1/3 210/1/3 215/1/3
f 220/2/3 218/2/3 217/2/3
f 220/1/3 219/1/3 218/1/3
f 221/1/3 219/1/3 220/1/3
f 222/2/3 221/2/3 220/2/3
f 224/2/3 220/2/3 217/2/3
f 224/2/3 223/2/3 222/2/3
f 224/2/3 222/2/3 220/2/3
f 225/2/3 223/2/3 224/2/3
f 228/2/3 227/2/3 226/2/3
f 229/2/3 227/2/3 228/2/3
f 230/2/3 228/2/3 226/2/3
f 231/2/3 228/2/3 230/2/3
f 232/2/3 230/2/3 226/2/3
f 233/1/3 231/1/3 230/1/3
f 233/2/3 230/2/3 232/2/3
f 234/1/3 231/1/3 233/1/3
f 237/2/3 236/2/3 235/2/3
f 238/2/3 236/2/3 237/2/3
f 239/2/3 236/2/3 238/2/3
f 240/2/3 236/2/3 239/2/3
f 241/2/3 236/2/3 240/2/3
f 242/2/3 236/2/3 241/2/3
f 243/2/3 237/2/3 235/2/3
f 244/1/3 238/1/3 237/1/3
f 244/2/3 237/2/3 243/2/3
f 245/2/3 239/2/3 238/2/3
f 245/1/3 238/1/3 244/1/3
f 246/1/3 240/1/3 239/1/3
f 246/2/3 239/2/3 245/2/3
f 247/2/3 241/2/3 240/2/3
f 247/1/3 240/1/3 246/1/3
f 248/1/3 242/1/3 241/1/3
f 248/2/3 241/2/3 247/2/3
f 249/2/3 236/2/3 242/2/3
f 249/1/3 242/1/3 248/1/3
f 250/2/3 236/2/3 249/2/3
f 251/2/3 243/2/3 235/2/3
f 251/1/3 244/1/3 243/1/3
f 252/2/3 245/2/3 244/2/3
f 252/1/3 244/1/3 251/1/3
f 253/1/3 246/1/3 245/1/3
f 253/2/3 245/2/3 252/2/3
f 254/2/3 247/2/3 246/2/3
f 254/1/3 246/1/3 253/1/3
f 255/1/3 248/1/3 247/1/3
f 255/2/3 247/2/3 254/2/3
f 256/2/3 249/2/3 248/2/3
f 256/1/3 248/1/3 255/1/3
f 257/1/3 250/1/3 249/1/3
f 257/2/3 249/2/3 256/2/3
f 258/2/3 236/2/3 250/2/3
f 258/1/3 250/1/3 257/1/3
f 259/2/3 252/2/3 251/2/3
f 259/1/3 253/1/3 252/1/3
f 260/2/3 254/2/3 253/2/3
f 260/1/3 253/1/3 259/1/3
f 261/1/3 255/1/3 254/1/3
f 261/2/3 254/2/3 260/2/3
f 262/2/3 256/2/3 255/2/3
f 262/1/3 255/1/3 261/1/3
f 263/1/3 257/1/3 256/1/3
f 263/2/3 256/2/3 262/2/3
f 264/2/3 258/2/3 257/2/3
f 264/1/3 257/1/3 263/1/3
f 265/2/3 259/2/3 251/2/3
f 265/2/3 262/2/3 261/2/3
f 265/2/3 264/2/3 263/2/3
f 265/2/3 260/2/3 259/2/3
f 265/2/3 263/2/3 262/2/3
f 265/2/3 261/2/3 260/2/3
f 265/2/3 251/2/3 235/2/3
f 266/2/3 258/2/3 264/2/3
f 266/2/3 264/2/3 265/2/3
f 266/2/3 236/2/3 258/2/3
f 269/2/3 268/2/3 267/2/3
f 270/2/3 268/2/3 269/2/3
f 273/2/3 272/2/3 271/2/3
f 274/2/3 272/2/3 273/2/3
f 277/2/3 276/2/3 275/2/3
f 278/2/3 276/2/3 277/2/3
f 281/2/3 280/2/3 279/2/3
f 282/2/3 280/2/3 281/2/3
f 285/1/3 284/1/3 283/1/3
f 286/1/3 284/1/3 285/1/3
f 287/1/3 284/1/3 286/1/3
f 288/1/3 284/1/3 287/1/3
f 292/1/3 290/1/3 289/1/3
f 293/1/3 292/1/3 291/1/3
f 294/1/3 290/1/3 292/1/3
f 294/1/3 292/1/3 293/1/3
f 295/1/4 296/1/4 297/1/4
f 297/1/4 296/1/4 298/1/4
f 298/1/4 296/1/4 299/1/4
f 299/1/4 296/1/4 300/1/4
f 301/1/4 302/1/4 304/1/4
f 303/1/4 304/1/4 305/1/4
f 304/1/4 302/1/4 306/1/4
f 305/1/4 304/1/4 306/1/4
f 307/2/4 308/2/4 309/2/4
f 309/2/4 308/2/4 310/2/4
f 311/2/4 312/2/4 313/2/4
f 313/2/4 312/2/4 314/2/4
f 315/2/4 316/2/4 317/2/4
f 317/2/4 316/2/4 318/2/4
f 319/2/4 320/2/4 321/2/4
f 321/2/4 320/2/4 322/2/4
f 323/2/4 324/2/4 325/2/4
f 325/2/4 324/2/4 326/2/4
f 326/2/4 324/2/4 327/2/4
f 327/2/4 324/2/4 328/2/4
f 328/2/4 324/2/4 329/2/4
f 329/2/4 324/2/4 330/2/4
f 323/2/4 325/2/4 331/2/4
f 325/1/4 326/1/4 332/1/4
f 331/2/4 325/2/4 332/2/4
f 326/2/4 327/2/4 333/2/4
f 332/1/4 326/1/4 333/1/4
f 327/1/4 328/1/4 334/1/4
f 333/2/4 327/2/4 334/2/4
f 328/2/4 329/2/4 335/2/4
f 334/1/4 328/1/4 335/1/4
f 329/1/4 330/1/4 336/1/4
f 335/2/4 329/2/4 336/2/4
f 330/2/4 324/2/4 337/2/4
f 336/1/4 330/1/4 337/1/4
f 337/2/4 324/2/4 338/2/4
f 323/2/4 331/2/4 339/2/4
f 331/1/4 332/1/4 339/1/4
f 332/2/4 333/2/4 340/2/4
f 339/1/4 332/1/4 340/1/4
f 333/1/4 334/1/4 341/1/4
f 340/2/4 333/2/4 341/2/4
f 334/2/4 335/2/4 342/2/4
f 341/1/4 334/1/4 342/1/4
f 335/1/4 336/1/4 343/1/4
f 342/2/4 335/2/4 343/2/4
f 336/2/4 337/2/4 344/2/4
f 343/1/4 336/1/4 344/1/4
f 337/1/4 338/1/4 345/1/4
f 344/2/4 337/2/4 345/2/4
f 338/2/4 324/2/4 346/2/4
f 345/1/4 338/1/4 346/1/4
f 339/2/4 340/2/4 347/2/4
f 340/1/4 341/1/4 347/1/4
f 341/2/4 342/2/4 348/2/4
f 347/1/4 341/1/4 348/1/4
f 342/1/4 343/1/4 349/1/4
f 348/2/4 342/2/4 349/2/4
f 343/2/4 344/2/4 350/2/4
f 349/1/4 343/1/4 350/1/4
f 344/1/4 345/1/4 351/1/4
f 350/2/4 344/2/4 351/2/4
f 345/2/4 346/2/4 352/2/4
f 351/1/4 345/1/4 352/1/4
f 339/2/4 347/2/4 353/2/4
f 349/2/4 350/2/4 353/2/4
f 351/2/4 352/2/4 353/2/4
f 347/2/4 348/2/4 353/2/4
f 350/2/4 351/2/4 353/2/4
f 348/2/4 349/2/4 353/2/4
f 323/2/4 339/2/4 353/2/4
f 352/2/4 346/2/4 354/2/4
f 353/2/4 352/2/4 354/2/4
f 346/2/4 324/2/4 354/2/4
f 355/2/4 356/2/4 358/2/4
f 356/1/4 357/1/4 358/1/4
f 358/1/4 357/1/4 359/1/4
f 358/2/4 359/2/4 360/2/4
f 355/2/4 358/2/4 362/2/4
f 360/2/4 361/2/4 362/2/4
f 358/2/4 360/2/4 362/2/4
f 362/2/4 361/2/4 363/2/4
f 364/2/4 365/2/4 366/2/4
f 366/2/4 365/2/4 367/2/4
f 364/2/4 366/2/4 368/2/4
f 368/2/4 366/2/4 369/2/4
f 364/2/4 368/2/4 370/2/4
f 368/1/4 369/1/4 371/1/4
f 370/2/4 368/2/4 371/2/4
f 371/1/4 369/1/4 372/1/4
f 373/2/4 374/2/4 377/2/4
f 377/2/4 374/2/4 378/2/4
f 375/1/4 376/1/4 379/1/4
f 379/1/4 376/1/4 380/1/4
f 378/2/4 374/2/4 384/2/4
f 383/2/4 384/2/4 385/2/4
f 384/2/4 374/2/4 386/2/4
f 385/2/4 384/2/4 386/2/4
f 381/1/4 382/1/4 387/1/4
f 387/1/4 382/1/4 388/1/4
f 389/2/4 390/2/4 391/2/4
f 391/2/4 390/2/4 392/2/4
f 396/2/5 394/2/5 393/2/5
f 397/2/5 394/2/5 396/2/5
f 400/2/5 396/2/5 395/2/5
f 400/2/5 398/2/5 397/2/5
f 400/2/5 397/2/5 396/2/5
f 401/2/5 398/2/5 400/2/5
f 403/2/5 400/2/5 399/2/5
f 403/2/5 402/2/5 401/2/5
f 403/2/5 401/2/5 400/2/5
f 404/2/5 402/2/5 403/2/5
f 405/2/5 402/2/5 404/2/5
f 406/2/5 402/2/5 405/2/5
f 407/2/5 405/2/5 404/2/5
f 408/2/5 405/2/5 407/2/5
f 409/2/5 405/2/5 408/2/5
f 410/2/5 405/2/5 409/2/5
f 411/2/5 409/2/5 408/2/5
f 412/2/5 409/2/5 411/2/5
f 417/1/5 414/1/5 413/1/5
f 418/1/5 414/1/5 417/1/5
f 419/1/5 414/1/5 418/1/5
f 420/1/5 416/1/5 415/1/5
f 421/1/5 416/1/5 420/1/5
f 422/1/5 416/1/5 421/1/5
f 423/1/5 417/1/5 413/1/5
f 424/1/5 416/1/5 422/1/5
f 425/1/5 423/1/5 413/1/5
f 426/1/5 423/1/5 425/1/5
f 427/1/5 416/1/5 424/1/5
f 428/1/5 416/1/5 427/1/5
f 433/1/5 430/1/5 429/1/5
f 434/1/5 432/1/5 431/1/5
f 435/1/5 433/1/5 429/1/5
f 440/1/5 432/1/5 434/1/5
f 441/1/5 435/1/5 429/1/5
f 441/1/5 436/1/5 435/1/5
f 441/1/5 437/1/5 436/1/5
f 442/1/5 437/1/5 441/1/5
f 443/1/5 439/1/5 438/1/5
f 443/1/5 440/1/5 439/1/5
f 444/1/5 432/1/5 440/1/5
f 444/1/5 440/1/5 443/1/5
f 445/2/6 446/2/6 447/2/6
f 447/2/6 446/2/6 448/2/6
f 449/2/6 450/2/6 453/2/6
f 453/2/6 450/2/6 454/2/6
f 451/2/6 452/2/6 455/2/6
f 455/2/6 452/2/6 456/2/6
f 457/2/6 458/2/6 459/2/6
f 459/2/6 458/2/6 460/2/6
f 461/2/6 462/2/6 463/2/6
f 463/2/6 462/2/6 464/2/6
f 464/2/6 462/2/6 465/2/6
f 465/2/6 462/2/6 466/2/6
f 464/2/6 465/2/6 467/2/6
f 467/2/6 465/2/6 468/2/6
f 461/2/6 463/2/6 469/2/6
f 466/2/6 462/2/6 472/2/6
f 469/2/6 470/2/6 473/2/6
f 461/2/6 469/2/6 473/2/6
f 473/2/6 470/2/6 474/2/6
f 471/2/6 472/2/6 475/2/6
f 472/2/6 462/2/6 476/2/6
f 475/2/6 472/2/6 476/2/6
f 461/2/6 473/2/6 479/2/6
f 477/2/6 478/2/6 480/2/6
f 480/2/6 478/2/6 481/2/6
f 476/2/6 462/2/6 482/2/6
f 480/2/6 481/2/6 483/2/6
f 481/2/6 482/2/6 483/2/6
f 461/2/6 479/2/6 483/2/6
f 479/2/6 480/2/6 483/2/6
f 482/2/6 462/2/6 484/2/6
f 483/2/6 482/2/6 484/2/6
f 485/2/6 486/2/6 489/2/6
f 487/2/6 488/2/6 490/2/6
f 485/2/6 489/2/6 492/2/6
f 489/2/6 490/2/6 492/2/6
f 490/2/6 488/2/6 493/2/6
f 492/2/6 490/2/6 493/2/6
f 491/2/6 492/2/6 495/2/6
f 493/2/6 494/2/6 495/2/6
f 492/2/6 493/2/6 495/2/6
f 495/2/6 494/2/6 496/2/6
f 496/2/6 494/2/6 497/2/6
f 497/2/6 494/2/6 498/2/6
f 496/2/6 497/2/6 500/2/6
f 500/2/6 497/2/6 501/2/6
f 499/2/6 500/2/6 503/2/6
f 501/2/6 502/2/6 503/2/6
f 500/2/6 501/2/6 503/2/6
f 503/2/6 502/2/6 504/2/6
f 504/2/6 502/2/6 505/2/6
f 505/2/6 502/2/6 506/2/6
f 504/2/6 505/2/6 507/2/6
f 507/2/6 505/2/6 508/2/6
f 504/2/6 507/2/6 509/2/6
f 509/2/6 507/2/6 510/2/6
f 508/2/6 505/2/6 511/2/6
f 511/2/6 505/2/6 512/2/6
f 513/1/6 514/1/6 517/1/6
f 517/1/6 514/1/6 518/1/6
f 515/1/6 516/1/6 519/1/6
f 519/1/6 516/1/6 520/1/6
f 521/1/6 522/1/6 525/1/6
f 525/1/6 522/1/6 526/1/6
f 523/1/6 524/1/6 527/1/6
f 527/1/6 524/1/6 528/1/6
