# MagicaVoxel @ Ephtracy

# group
o 

# material
mtllib MageTower3.mtl
usemtl palette

# normals
vn -1 0 0
vn 1 0 0
vn 0 0 1
vn 0 0 -1
vn 0 -1 0
vn 0 1 0

# texcoords
vt 0.775391 0.5
vt 0.974609 0.5

# verts
v -1 0 0.5
v -1 0 -0.5
v -1 0.5 0.5
v -1 0.5 -0.5
v -0.9 0 0.9
v -0.9 0 0.5
v -0.9 0 -0.5
v -0.9 0 -0.9
v -0.9 0.5 0.5
v -0.9 0.5 -0.5
v -0.9 0.6 0.9
v -0.9 0.6 -0.9
v -0.9 1.3 0.9
v -0.9 1.3 0.5
v -0.9 1.3 -0.5
v -0.9 1.3 -0.9
v -0.9 1.8 0.9
v -0.9 1.8 0.5
v -0.9 1.8 -0.5
v -0.9 1.8 -0.9
v -0.8 0.8 0.8
v -0.8 0.8 0.4
v -0.8 0.8 -0.4
v -0.8 0.8 -0.8
v -0.8 1 0.8
v -0.8 1 0.6
v -0.8 1 -0.6
v -0.8 1 -0.8
v -0.8 1.3 0.8
v -0.8 1.3 0.6
v -0.8 1.3 0.5
v -0.8 1.3 -0.5
v -0.8 1.3 -0.6
v -0.8 1.3 -0.8
v -0.8 1.7 0.5
v -0.8 1.7 0.4
v -0.8 1.7 -0.4
v -0.8 1.7 -0.5
v -0.7 0.6 0.7
v -0.7 0.6 -0.7
v -0.7 0.7 0.1
v -0.7 0.7 -0.1
v -0.7 0.8 0.7
v -0.7 0.8 0.4
v -0.7 0.8 0.2
v -0.7 0.8 0.1
v -0.7 0.8 -0.1
v -0.7 0.8 -0.2
v -0.7 0.8 -0.4
v -0.7 0.8 -0.7
v -0.7 0.9 0.2
v -0.7 0.9 0.1
v -0.7 0.9 -0.1
v -0.7 0.9 -0.2
v -0.7 1 0.2
v -0.7 1 0.1
v -0.7 1 -0.1
v -0.7 1 -0.2
v -0.7 1.1 0.2
v -0.7 1.1 0.1
v -0.7 1.1 -0.1
v -0.7 1.1 -0.2
v -0.7 1.2 0.2
v -0.7 1.2 0.1
v -0.7 1.2 -0.1
v -0.7 1.2 -0.2
v -0.7 1.3 0.2
v -0.7 1.3 0.1
v -0.7 1.3 -0.1
v -0.7 1.3 -0.2
v -0.7 1.4 0.1
v -0.7 1.4 -0.1
v -0.7 1.5 0.3
v -0.7 1.5 -0.3
v -0.7 1.7 0.4
v -0.7 1.7 0.3
v -0.7 1.7 -0.3
v -0.7 1.7 -0.4
v -0.5 0 1
v -0.5 0 0.9
v -0.5 0 -0.9
v -0.5 0 -1
v -0.5 0.5 1
v -0.5 0.5 0.9
v -0.5 0.5 -0.9
v -0.5 0.5 -1
v 0.3 1.5 0.7
v 0.3 1.5 0.3
v 0.3 1.5 -0.3
v 0.3 1.5 -0.7
v 0.3 1.7 0.7
v 0.3 1.7 0.3
v 0.3 1.7 -0.3
v 0.3 1.7 -0.7
v 0.4 0.8 0.8
v 0.4 0.8 0.7
v 0.4 0.8 -0.7
v 0.4 0.8 -0.8
v 0.4 1.7 0.8
v 0.4 1.7 0.7
v 0.4 1.7 -0.7
v 0.4 1.7 -0.8
v 0.5 1.3 0.9
v 0.5 1.3 0.8
v 0.5 1.3 -0.8
v 0.5 1.3 -0.9
v 0.5 1.7 0.8
v 0.5 1.7 0.5
v 0.5 1.7 -0.5
v 0.5 1.7 -0.8
v 0.5 1.8 0.9
v 0.5 1.8 0.5
v 0.5 1.8 -0.5
v 0.5 1.8 -0.9
v -0.5 1.3 0.9
v -0.5 1.3 0.8
v -0.5 1.3 -0.8
v -0.5 1.3 -0.9
v -0.5 1.7 0.8
v -0.5 1.7 0.5
v -0.5 1.7 -0.5
v -0.5 1.7 -0.8
v -0.5 1.8 0.9
v -0.5 1.8 0.5
v -0.5 1.8 -0.5
v -0.5 1.8 -0.9
v -0.4 0.8 0.8
v -0.4 0.8 0.7
v -0.4 0.8 -0.7
v -0.4 0.8 -0.8
v -0.4 1.7 0.8
v -0.4 1.7 0.7
v -0.4 1.7 -0.7
v -0.4 1.7 -0.8
v -0.3 1.5 0.7
v -0.3 1.5 0.3
v -0.3 1.5 -0.3
v -0.3 1.5 -0.7
v -0.3 1.7 0.7
v -0.3 1.7 0.3
v -0.3 1.7 -0.3
v -0.3 1.7 -0.7
v 0.5 0 1
v 0.5 0 0.9
v 0.5 0 -0.9
v 0.5 0 -1
v 0.5 0.5 1
v 0.5 0.5 0.9
v 0.5 0.5 -0.9
v 0.5 0.5 -1
v 0.7 0.6 0.7
v 0.7 0.6 -0.7
v 0.7 0.7 0.1
v 0.7 0.7 -0.1
v 0.7 0.8 0.7
v 0.7 0.8 0.4
v 0.7 0.8 0.2
v 0.7 0.8 0.1
v 0.7 0.8 -0.1
v 0.7 0.8 -0.2
v 0.7 0.8 -0.4
v 0.7 0.8 -0.7
v 0.7 0.9 0.2
v 0.7 0.9 0.1
v 0.7 0.9 -0.1
v 0.7 0.9 -0.2
v 0.7 1 0.2
v 0.7 1 0.1
v 0.7 1 -0.1
v 0.7 1 -0.2
v 0.7 1.1 0.2
v 0.7 1.1 0.1
v 0.7 1.1 -0.1
v 0.7 1.1 -0.2
v 0.7 1.2 0.2
v 0.7 1.2 0.1
v 0.7 1.2 -0.1
v 0.7 1.2 -0.2
v 0.7 1.3 0.2
v 0.7 1.3 0.1
v 0.7 1.3 -0.1
v 0.7 1.3 -0.2
v 0.7 1.4 0.1
v 0.7 1.4 -0.1
v 0.7 1.5 0.3
v 0.7 1.5 -0.3
v 0.7 1.7 0.4
v 0.7 1.7 0.3
v 0.7 1.7 -0.3
v 0.7 1.7 -0.4
v 0.8 0.8 0.8
v 0.8 0.8 0.4
v 0.8 0.8 -0.4
v 0.8 0.8 -0.8
v 0.8 1 0.8
v 0.8 1 0.6
v 0.8 1 -0.6
v 0.8 1 -0.8
v 0.8 1.3 0.8
v 0.8 1.3 0.6
v 0.8 1.3 0.5
v 0.8 1.3 -0.5
v 0.8 1.3 -0.6
v 0.8 1.3 -0.8
v 0.8 1.7 0.5
v 0.8 1.7 0.4
v 0.8 1.7 -0.4
v 0.8 1.7 -0.5
v 0.9 0 0.9
v 0.9 0 0.5
v 0.9 0 -0.5
v 0.9 0 -0.9
v 0.9 0.5 0.5
v 0.9 0.5 -0.5
v 0.9 0.6 0.9
v 0.9 0.6 -0.9
v 0.9 1.3 0.9
v 0.9 1.3 0.5
v 0.9 1.3 -0.5
v 0.9 1.3 -0.9
v 0.9 1.8 0.9
v 0.9 1.8 0.5
v 0.9 1.8 -0.5
v 0.9 1.8 -0.9
v 1 0 0.5
v 1 0 -0.5
v 1 0.5 0.5
v 1 0.5 -0.5
v -0.5 0 1
v -0.5 0.5 1
v 0.5 0 1
v 0.5 0.5 1
v -0.9 0 0.9
v -0.9 0.6 0.9
v -0.9 1.3 0.9
v -0.9 1.8 0.9
v -0.5 0 0.9
v -0.5 0.5 0.9
v -0.5 1.3 0.9
v -0.5 1.8 0.9
v 0.5 0 0.9
v 0.5 0.5 0.9
v 0.5 1.3 0.9
v 0.5 1.8 0.9
v 0.9 0 0.9
v 0.9 0.6 0.9
v 0.9 1.3 0.9
v 0.9 1.8 0.9
v -0.8 0.8 0.8
v -0.8 1 0.8
v -0.8 1.3 0.8
v -0.6 1 0.8
v -0.6 1.3 0.8
v -0.5 1.3 0.8
v -0.5 1.7 0.8
v -0.4 0.8 0.8
v -0.4 1.7 0.8
v 0.4 0.8 0.8
v 0.4 1.7 0.8
v 0.5 1.3 0.8
v 0.5 1.7 0.8
v 0.6 1 0.8
v 0.6 1.3 0.8
v 0.8 0.8 0.8
v 0.8 1 0.8
v 0.8 1.3 0.8
v -0.7 0.6 0.7
v -0.7 0.8 0.7
v -0.4 0.8 0.7
v -0.4 1.7 0.7
v -0.3 1.5 0.7
v -0.3 1.7 0.7
v -0.2 0.8 0.7
v -0.2 0.9 0.7
v -0.2 1 0.7
v -0.2 1.1 0.7
v -0.2 1.2 0.7
v -0.2 1.3 0.7
v -0.1 0.7 0.7
v -0.1 0.8 0.7
v -0.1 0.9 0.7
v -0.1 1 0.7
v -0.1 1.1 0.7
v -0.1 1.2 0.7
v -0.1 1.3 0.7
v -0.1 1.4 0.7
v 0.1 0.7 0.7
v 0.1 0.8 0.7
v 0.1 0.9 0.7
v 0.1 1 0.7
v 0.1 1.1 0.7
v 0.1 1.2 0.7
v 0.1 1.3 0.7
v 0.1 1.4 0.7
v 0.2 0.8 0.7
v 0.2 0.9 0.7
v 0.2 1 0.7
v 0.2 1.1 0.7
v 0.2 1.2 0.7
v 0.2 1.3 0.7
v 0.3 1.5 0.7
v 0.3 1.7 0.7
v 0.4 0.8 0.7
v 0.4 1.7 0.7
v 0.7 0.6 0.7
v 0.7 0.8 0.7
v -1 0 0.5
v -1 0.5 0.5
v -0.9 0 0.5
v -0.9 0.5 0.5
v 0.9 0 0.5
v 0.9 0.5 0.5
v 1 0 0.5
v 1 0.5 0.5
v -0.7 1.5 -0.3
v -0.7 1.7 -0.3
v -0.3 1.5 -0.3
v -0.3 1.7 -0.3
v 0.3 1.5 -0.3
v 0.3 1.7 -0.3
v 0.7 1.5 -0.3
v 0.7 1.7 -0.3
v -0.8 0.8 -0.4
v -0.8 1.7 -0.4
v -0.7 0.8 -0.4
v -0.7 1.7 -0.4
v 0.7 0.8 -0.4
v 0.7 1.7 -0.4
v 0.8 0.8 -0.4
v 0.8 1.7 -0.4
v -0.9 1.3 -0.5
v -0.9 1.8 -0.5
v -0.8 1.3 -0.5
v -0.8 1.7 -0.5
v -0.5 1.7 -0.5
v -0.5 1.8 -0.5
v 0.5 1.7 -0.5
v 0.5 1.8 -0.5
v 0.8 1.3 -0.5
v 0.8 1.7 -0.5
v 0.9 1.3 -0.5
v 0.9 1.8 -0.5
v -0.9 1.3 0.5
v -0.9 1.8 0.5
v -0.8 1.3 0.5
v -0.8 1.7 0.5
v -0.5 1.7 0.5
v -0.5 1.8 0.5
v 0.5 1.7 0.5
v 0.5 1.8 0.5
v 0.8 1.3 0.5
v 0.8 1.7 0.5
v 0.9 1.3 0.5
v 0.9 1.8 0.5
v -0.8 0.8 0.4
v -0.8 1.7 0.4
v -0.7 0.8 0.4
v -0.7 1.7 0.4
v 0.7 0.8 0.4
v 0.7 1.7 0.4
v 0.8 0.8 0.4
v 0.8 1.7 0.4
v -0.7 1.5 0.3
v -0.7 1.7 0.3
v -0.3 1.5 0.3
v -0.3 1.7 0.3
v 0.3 1.5 0.3
v 0.3 1.7 0.3
v 0.7 1.5 0.3
v 0.7 1.7 0.3
v -1 0 -0.5
v -1 0.5 -0.5
v -0.9 0 -0.5
v -0.9 0.5 -0.5
v 0.9 0 -0.5
v 0.9 0.5 -0.5
v 1 0 -0.5
v 1 0.5 -0.5
v -0.7 0.6 -0.7
v -0.7 0.8 -0.7
v -0.4 0.8 -0.7
v -0.4 1.7 -0.7
v -0.3 1.5 -0.7
v -0.3 1.7 -0.7
v -0.2 0.8 -0.7
v -0.2 0.9 -0.7
v -0.2 1 -0.7
v -0.2 1.1 -0.7
v -0.2 1.2 -0.7
v -0.2 1.3 -0.7
v -0.1 0.7 -0.7
v -0.1 0.8 -0.7
v -0.1 0.9 -0.7
v -0.1 1 -0.7
v -0.1 1.1 -0.7
v -0.1 1.2 -0.7
v -0.1 1.3 -0.7
v -0.1 1.4 -0.7
v 0.1 0.7 -0.7
v 0.1 0.8 -0.7
v 0.1 0.9 -0.7
v 0.1 1 -0.7
v 0.1 1.1 -0.7
v 0.1 1.2 -0.7
v 0.1 1.3 -0.7
v 0.1 1.4 -0.7
v 0.2 0.8 -0.7
v 0.2 0.9 -0.7
v 0.2 1 -0.7
v 0.2 1.1 -0.7
v 0.2 1.2 -0.7
v 0.2 1.3 -0.7
v 0.3 1.5 -0.7
v 0.3 1.7 -0.7
v 0.4 0.8 -0.7
v 0.4 1.7 -0.7
v 0.7 0.6 -0.7
v 0.7 0.8 -0.7
v -0.8 0.8 -0.8
v -0.8 1 -0.8
v -0.8 1.3 -0.8
v -0.6 1 -0.8
v -0.6 1.3 -0.8
v -0.5 1.3 -0.8
v -0.5 1.7 -0.8
v -0.4 0.8 -0.8
v -0.4 1.7 -0.8
v 0.4 0.8 -0.8
v 0.4 1.7 -0.8
v 0.5 1.3 -0.8
v 0.5 1.7 -0.8
v 0.6 1 -0.8
v 0.6 1.3 -0.8
v 0.8 0.8 -0.8
v 0.8 1 -0.8
v 0.8 1.3 -0.8
v -0.9 0 -0.9
v -0.9 0.6 -0.9
v -0.9 1.3 -0.9
v -0.9 1.8 -0.9
v -0.5 0 -0.9
v -0.5 0.5 -0.9
v -0.5 1.3 -0.9
v -0.5 1.8 -0.9
v 0.5 0 -0.9
v 0.5 0.5 -0.9
v 0.5 1.3 -0.9
v 0.5 1.8 -0.9
v 0.9 0 -0.9
v 0.9 0.6 -0.9
v 0.9 1.3 -0.9
v 0.9 1.8 -0.9
v -0.5 0 -1
v -0.5 0.5 -1
v 0.5 0 -1
v 0.5 0.5 -1
v -0.5 0 1
v 0.5 0 1
v -0.9 0 0.9
v -0.5 0 0.9
v 0.5 0 0.9
v 0.9 0 0.9
v -1 0 0.5
v -0.9 0 0.5
v 0.9 0 0.5
v 1 0 0.5
v -1 0 -0.5
v -0.9 0 -0.5
v 0.9 0 -0.5
v 1 0 -0.5
v -0.9 0 -0.9
v -0.5 0 -0.9
v 0.5 0 -0.9
v 0.9 0 -0.9
v -0.5 0 -1
v 0.5 0 -1
v -0.8 0.8 0.8
v -0.4 0.8 0.8
v 0.4 0.8 0.8
v 0.8 0.8 0.8
v -0.7 0.8 0.7
v -0.4 0.8 0.7
v 0.4 0.8 0.7
v 0.7 0.8 0.7
v -0.8 0.8 0.4
v -0.7 0.8 0.4
v 0.7 0.8 0.4
v 0.8 0.8 0.4
v -0.8 0.8 -0.4
v -0.7 0.8 -0.4
v 0.7 0.8 -0.4
v 0.8 0.8 -0.4
v -0.7 0.8 -0.7
v -0.4 0.8 -0.7
v 0.4 0.8 -0.7
v 0.7 0.8 -0.7
v -0.8 0.8 -0.8
v -0.4 0.8 -0.8
v 0.4 0.8 -0.8
v 0.8 0.8 -0.8
v -0.9 1.3 0.9
v -0.5 1.3 0.9
v 0.5 1.3 0.9
v 0.9 1.3 0.9
v -0.8 1.3 0.8
v -0.6 1.3 0.8
v -0.5 1.3 0.8
v 0.5 1.3 0.8
v 0.6 1.3 0.8
v 0.8 1.3 0.8
v -0.8 1.3 0.6
v 0.8 1.3 0.6
v -0.9 1.3 0.5
v -0.8 1.3 0.5
v 0.8 1.3 0.5
v 0.9 1.3 0.5
v -0.9 1.3 -0.5
v -0.8 1.3 -0.5
v 0.8 1.3 -0.5
v 0.9 1.3 -0.5
v -0.8 1.3 -0.6
v 0.8 1.3 -0.6
v -0.8 1.3 -0.8
v -0.6 1.3 -0.8
v -0.5 1.3 -0.8
v 0.5 1.3 -0.8
v 0.6 1.3 -0.8
v 0.8 1.3 -0.8
v -0.9 1.3 -0.9
v -0.5 1.3 -0.9
v 0.5 1.3 -0.9
v 0.9 1.3 -0.9
v -0.5 0.5 1
v 0.5 0.5 1
v -0.5 0.5 0.9
v 0.5 0.5 0.9
v -1 0.5 0.5
v -0.9 0.5 0.5
v 0.9 0.5 0.5
v 1 0.5 0.5
v -1 0.5 -0.5
v -0.9 0.5 -0.5
v 0.9 0.5 -0.5
v 1 0.5 -0.5
v -0.5 0.5 -0.9
v 0.5 0.5 -0.9
v -0.5 0.5 -1
v 0.5 0.5 -1
v -0.9 0.6 0.9
v 0.9 0.6 0.9
v -0.7 0.6 0.7
v 0.7 0.6 0.7
v -0.7 0.6 -0.7
v 0.7 0.6 -0.7
v -0.9 0.6 -0.9
v 0.9 0.6 -0.9
v -0.3 1.5 0.7
v 0.3 1.5 0.7
v -0.7 1.5 0.3
v -0.3 1.5 0.3
v 0.3 1.5 0.3
v 0.7 1.5 0.3
v -0.7 1.5 -0.3
v -0.3 1.5 -0.3
v 0.3 1.5 -0.3
v 0.7 1.5 -0.3
v -0.3 1.5 -0.7
v 0.3 1.5 -0.7
v -0.5 1.7 0.8
v -0.4 1.7 0.8
v 0.4 1.7 0.8
v 0.5 1.7 0.8
v -0.4 1.7 0.7
v -0.3 1.7 0.7
v 0.3 1.7 0.7
v 0.4 1.7 0.7
v -0.8 1.7 0.5
v -0.5 1.7 0.5
v 0.5 1.7 0.5
v 0.8 1.7 0.5
v -0.8 1.7 0.4
v -0.7 1.7 0.4
v 0.7 1.7 0.4
v 0.8 1.7 0.4
v -0.7 1.7 0.3
v -0.3 1.7 0.3
v 0.3 1.7 0.3
v 0.7 1.7 0.3
v -0.7 1.7 -0.3
v -0.3 1.7 -0.3
v 0.3 1.7 -0.3
v 0.7 1.7 -0.3
v -0.8 1.7 -0.4
v -0.7 1.7 -0.4
v 0.7 1.7 -0.4
v 0.8 1.7 -0.4
v -0.8 1.7 -0.5
v -0.5 1.7 -0.5
v 0.5 1.7 -0.5
v 0.8 1.7 -0.5
v -0.4 1.7 -0.7
v -0.3 1.7 -0.7
v 0.3 1.7 -0.7
v 0.4 1.7 -0.7
v -0.5 1.7 -0.8
v -0.4 1.7 -0.8
v 0.4 1.7 -0.8
v 0.5 1.7 -0.8
v -0.9 1.8 0.9
v -0.5 1.8 0.9
v 0.5 1.8 0.9
v 0.9 1.8 0.9
v -0.9 1.8 0.5
v -0.5 1.8 0.5
v 0.5 1.8 0.5
v 0.9 1.8 0.5
v -0.9 1.8 -0.5
v -0.5 1.8 -0.5
v 0.5 1.8 -0.5
v 0.9 1.8 -0.5
v -0.9 1.8 -0.9
v -0.5 1.8 -0.9
v 0.5 1.8 -0.9
v 0.9 1.8 -0.9

# faces
f 3/2/1 2/2/1 1/2/1
f 4/2/1 2/2/1 3/2/1
f 9/2/1 6/2/1 5/2/1
f 10/2/1 8/2/1 7/2/1
f 11/2/1 9/2/1 5/2/1
f 11/2/1 10/2/1 9/2/1
f 12/2/1 8/2/1 10/2/1
f 12/2/1 10/2/1 11/2/1
f 17/1/1 14/1/1 13/1/1
f 18/1/1 14/1/1 17/1/1
f 19/1/1 16/1/1 15/1/1
f 20/1/1 16/1/1 19/1/1
f 25/2/1 22/2/1 21/2/1
f 26/2/1 22/2/1 25/2/1
f 27/2/1 24/2/1 23/2/1
f 28/2/1 24/2/1 27/2/1
f 29/1/1 26/1/1 25/1/1
f 30/2/1 22/2/1 26/2/1
f 30/1/1 26/1/1 29/1/1
f 31/2/1 22/2/1 30/2/1
f 32/2/1 27/2/1 23/2/1
f 33/1/1 28/1/1 27/1/1
f 33/2/1 27/2/1 32/2/1
f 34/1/1 28/1/1 33/1/1
f 35/2/1 22/2/1 31/2/1
f 36/2/1 22/2/1 35/2/1
f 37/2/1 32/2/1 23/2/1
f 38/2/1 32/2/1 37/2/1
f 41/2/1 40/2/1 39/2/1
f 42/2/1 40/2/1 41/2/1
f 43/2/1 41/2/1 39/2/1
f 44/2/1 41/2/1 43/2/1
f 45/2/1 41/2/1 44/2/1
f 46/1/1 42/1/1 41/1/1
f 46/2/1 41/2/1 45/2/1
f 47/2/1 40/2/1 42/2/1
f 47/1/1 42/1/1 46/1/1
f 48/2/1 40/2/1 47/2/1
f 49/2/1 40/2/1 48/2/1
f 50/2/1 40/2/1 49/2/1
f 51/1/1 46/1/1 45/1/1
f 51/2/1 45/2/1 44/2/1
f 52/2/1 47/2/1 46/2/1
f 52/1/1 46/1/1 51/1/1
f 53/1/1 48/1/1 47/1/1
f 53/2/1 47/2/1 52/2/1
f 54/2/1 49/2/1 48/2/1
f 54/1/1 48/1/1 53/1/1
f 55/2/1 52/2/1 51/2/1
f 55/2/1 51/2/1 44/2/1
f 56/1/1 53/1/1 52/1/1
f 56/2/1 52/2/1 55/2/1
f 57/2/1 54/2/1 53/2/1
f 57/1/1 53/1/1 56/1/1
f 58/2/1 49/2/1 54/2/1
f 58/2/1 54/2/1 57/2/1
f 59/2/1 55/2/1 44/2/1
f 59/1/1 56/1/1 55/1/1
f 60/2/1 57/2/1 56/2/1
f 60/1/1 56/1/1 59/1/1
f 61/1/1 58/1/1 57/1/1
f 61/2/1 57/2/1 60/2/1
f 62/2/1 49/2/1 58/2/1
f 62/1/1 58/1/1 61/1/1
f 63/2/1 59/2/1 44/2/1
f 63/2/1 60/2/1 59/2/1
f 64/1/1 61/1/1 60/1/1
f 64/2/1 60/2/1 63/2/1
f 65/2/1 62/2/1 61/2/1
f 65/1/1 61/1/1 64/1/1
f 66/2/1 49/2/1 62/2/1
f 66/2/1 62/2/1 65/2/1
f 67/2/1 63/2/1 44/2/1
f 67/1/1 64/1/1 63/1/1
f 68/2/1 65/2/1 64/2/1
f 68/1/1 64/1/1 67/1/1
f 69/1/1 66/1/1 65/1/1
f 69/2/1 65/2/1 68/2/1
f 70/2/1 49/2/1 66/2/1
f 70/1/1 66/1/1 69/1/1
f 71/1/1 69/1/1 68/1/1
f 71/2/1 68/2/1 67/2/1
f 72/2/1 70/2/1 69/2/1
f 72/1/1 69/1/1 71/1/1
f 73/2/1 67/2/1 44/2/1
f 73/2/1 71/2/1 67/2/1
f 73/2/1 72/2/1 71/2/1
f 74/2/1 49/2/1 70/2/1
f 74/2/1 72/2/1 73/2/1
f 74/2/1 70/2/1 72/2/1
f 75/2/1 73/2/1 44/2/1
f 76/2/1 73/2/1 75/2/1
f 77/2/1 49/2/1 74/2/1
f 78/2/1 49/2/1 77/2/1
f 83/2/1 80/2/1 79/2/1
f 84/2/1 80/2/1 83/2/1
f 85/2/1 82/2/1 81/2/1
f 86/2/1 82/2/1 85/2/1
f 91/2/1 88/2/1 87/2/1
f 92/2/1 88/2/1 91/2/1
f 93/2/1 90/2/1 89/2/1
f 94/2/1 90/2/1 93/2/1
f 99/2/1 96/2/1 95/2/1
f 100/2/1 96/2/1 99/2/1
f 101/2/1 98/2/1 97/2/1
f 102/2/1 98/2/1 101/2/1
f 107/1/1 104/1/1 103/1/1
f 110/1/1 106/1/1 105/1/1
f 111/1/1 108/1/1 107/1/1
f 111/1/1 107/1/1 103/1/1
f 112/1/1 108/1/1 111/1/1
f 113/1/1 110/1/1 109/1/1
f 114/1/1 106/1/1 110/1/1
f 114/1/1 110/1/1 113/1/1
f 115/1/2 116/1/2 119/1/2
f 117/1/2 118/1/2 122/1/2
f 119/1/2 120/1/2 123/1/2
f 115/1/2 119/1/2 123/1/2
f 123/1/2 120/1/2 124/1/2
f 121/1/2 122/1/2 125/1/2
f 122/1/2 118/1/2 126/1/2
f 125/1/2 122/1/2 126/1/2
f 127/2/2 128/2/2 131/2/2
f 131/2/2 128/2/2 132/2/2
f 129/2/2 130/2/2 133/2/2
f 133/2/2 130/2/2 134/2/2
f 135/2/2 136/2/2 139/2/2
f 139/2/2 136/2/2 140/2/2
f 137/2/2 138/2/2 141/2/2
f 141/2/2 138/2/2 142/2/2
f 143/2/2 144/2/2 147/2/2
f 147/2/2 144/2/2 148/2/2
f 145/2/2 146/2/2 149/2/2
f 149/2/2 146/2/2 150/2/2
f 151/2/2 152/2/2 153/2/2
f 153/2/2 152/2/2 154/2/2
f 151/2/2 153/2/2 155/2/2
f 155/2/2 153/2/2 156/2/2
f 156/2/2 153/2/2 157/2/2
f 153/1/2 154/1/2 158/1/2
f 157/2/2 153/2/2 158/2/2
f 154/2/2 152/2/2 159/2/2
f 158/1/2 154/1/2 159/1/2
f 159/2/2 152/2/2 160/2/2
f 160/2/2 152/2/2 161/2/2
f 161/2/2 152/2/2 162/2/2
f 157/1/2 158/1/2 163/1/2
f 156/2/2 157/2/2 163/2/2
f 158/2/2 159/2/2 164/2/2
f 163/1/2 158/1/2 164/1/2
f 159/1/2 160/1/2 165/1/2
f 164/2/2 159/2/2 165/2/2
f 160/2/2 161/2/2 166/2/2
f 165/1/2 160/1/2 166/1/2
f 163/2/2 164/2/2 167/2/2
f 156/2/2 163/2/2 167/2/2
f 164/1/2 165/1/2 168/1/2
f 167/2/2 164/2/2 168/2/2
f 165/2/2 166/2/2 169/2/2
f 168/1/2 165/1/2 169/1/2
f 166/2/2 161/2/2 170/2/2
f 169/2/2 166/2/2 170/2/2
f 156/2/2 167/2/2 171/2/2
f 167/1/2 168/1/2 171/1/2
f 168/2/2 169/2/2 172/2/2
f 171/1/2 168/1/2 172/1/2
f 169/1/2 170/1/2 173/1/2
f 172/2/2 169/2/2 173/2/2
f 170/2/2 161/2/2 174/2/2
f 173/1/2 170/1/2 174/1/2
f 156/2/2 171/2/2 175/2/2
f 171/2/2 172/2/2 175/2/2
f 172/1/2 173/1/2 176/1/2
f 175/2/2 172/2/2 176/2/2
f 173/2/2 174/2/2 177/2/2
f 176/1/2 173/1/2 177/1/2
f 174/2/2 161/2/2 178/2/2
f 177/2/2 174/2/2 178/2/2
f 156/2/2 175/2/2 179/2/2
f 175/1/2 176/1/2 179/1/2
f 176/2/2 177/2/2 180/2/2
f 179/1/2 176/1/2 180/1/2
f 177/1/2 178/1/2 181/1/2
f 180/2/2 177/2/2 181/2/2
f 178/2/2 161/2/2 182/2/2
f 181/1/2 178/1/2 182/1/2
f 180/1/2 181/1/2 183/1/2
f 179/2/2 180/2/2 183/2/2
f 181/2/2 182/2/2 184/2/2
f 183/1/2 181/1/2 184/1/2
f 156/2/2 179/2/2 185/2/2
f 179/2/2 183/2/2 185/2/2
f 183/2/2 184/2/2 185/2/2
f 182/2/2 161/2/2 186/2/2
f 185/2/2 184/2/2 186/2/2
f 184/2/2 182/2/2 186/2/2
f 156/2/2 185/2/2 187/2/2
f 187/2/2 185/2/2 188/2/2
f 186/2/2 161/2/2 189/2/2
f 189/2/2 161/2/2 190/2/2
f 191/2/2 192/2/2 195/2/2
f 195/2/2 192/2/2 196/2/2
f 193/2/2 194/2/2 197/2/2
f 197/2/2 194/2/2 198/2/2
f 195/1/2 196/1/2 199/1/2
f 196/2/2 192/2/2 200/2/2
f 199/1/2 196/1/2 200/1/2
f 200/2/2 192/2/2 201/2/2
f 193/2/2 197/2/2 202/2/2
f 197/1/2 198/1/2 203/1/2
f 202/2/2 197/2/2 203/2/2
f 203/1/2 198/1/2 204/1/2
f 201/2/2 192/2/2 205/2/2
f 205/2/2 192/2/2 206/2/2
f 193/2/2 202/2/2 207/2/2
f 207/2/2 202/2/2 208/2/2
f 209/2/2 210/2/2 213/2/2
f 211/2/2 212/2/2 214/2/2
f 209/2/2 213/2/2 215/2/2
f 213/2/2 214/2/2 215/2/2
f 214/2/2 212/2/2 216/2/2
f 215/2/2 214/2/2 216/2/2
f 217/1/2 218/1/2 221/1/2
f 221/1/2 218/1/2 222/1/2
f 219/1/2 220/1/2 223/1/2
f 223/1/2 220/1/2 224/1/2
f 225/2/2 226/2/2 227/2/2
f 227/2/2 226/2/2 228/2/2
f 231/2/3 230/2/3 229/2/3
f 232/2/3 230/2/3 231/2/3
f 237/2/3 234/2/3 233/2/3
f 238/2/3 234/2/3 237/2/3
f 239/1/3 236/1/3 235/1/3
f 240/1/3 236/1/3 239/1/3
f 242/2/3 234/2/3 238/2/3
f 245/2/3 242/2/3 241/2/3
f 246/2/3 234/2/3 242/2/3
f 246/2/3 242/2/3 245/2/3
f 247/1/3 244/1/3 243/1/3
f 248/1/3 244/1/3 247/1/3
f 252/2/3 250/2/3 249/2/3
f 252/1/3 251/1/3 250/1/3
f 253/1/3 251/1/3 252/1/3
f 254/2/3 253/2/3 252/2/3
f 256/2/3 252/2/3 249/2/3
f 256/2/3 255/2/3 254/2/3
f 256/2/3 254/2/3 252/2/3
f 257/2/3 255/2/3 256/2/3
f 260/2/3 259/2/3 258/2/3
f 261/2/3 259/2/3 260/2/3
f 262/2/3 260/2/3 258/2/3
f 263/2/3 260/2/3 262/2/3
f 264/2/3 262/2/3 258/2/3
f 265/1/3 263/1/3 262/1/3
f 265/2/3 262/2/3 264/2/3
f 266/1/3 263/1/3 265/1/3
f 269/2/3 268/2/3 267/2/3
f 271/2/3 270/2/3 269/2/3
f 272/2/3 270/2/3 271/2/3
f 273/2/3 269/2/3 267/2/3
f 273/2/3 271/2/3 269/2/3
f 274/2/3 271/2/3 273/2/3
f 275/2/3 271/2/3 274/2/3
f 276/2/3 271/2/3 275/2/3
f 277/2/3 271/2/3 276/2/3
f 278/2/3 271/2/3 277/2/3
f 279/2/3 273/2/3 267/2/3
f 280/1/3 274/1/3 273/1/3
f 280/2/3 273/2/3 279/2/3
f 281/2/3 275/2/3 274/2/3
f 281/1/3 274/1/3 280/1/3
f 282/1/3 276/1/3 275/1/3
f 282/2/3 275/2/3 281/2/3
f 283/2/3 277/2/3 276/2/3
f 283/1/3 276/1/3 282/1/3
f 284/1/3 278/1/3 277/1/3
f 284/2/3 277/2/3 283/2/3
f 285/2/3 271/2/3 278/2/3
f 285/1/3 278/1/3 284/1/3
f 286/2/3 271/2/3 285/2/3
f 287/2/3 279/2/3 267/2/3
f 287/1/3 280/1/3 279/1/3
f 288/2/3 281/2/3 280/2/3
f 288/1/3 280/1/3 287/1/3
f 289/1/3 282/1/3 281/1/3
f 289/2/3 281/2/3 288/2/3
f 290/2/3 283/2/3 282/2/3
f 290/1/3 282/1/3 289/1/3
f 291/1/3 284/1/3 283/1/3
f 291/2/3 283/2/3 290/2/3
f 292/2/3 285/2/3 284/2/3
f 292/1/3 284/1/3 291/1/3
f 293/1/3 286/1/3 285/1/3
f 293/2/3 285/2/3 292/2/3
f 294/2/3 271/2/3 286/2/3
f 294/1/3 286/1/3 293/1/3
f 295/2/3 288/2/3 287/2/3
f 295/1/3 289/1/3 288/1/3
f 296/2/3 290/2/3 289/2/3
f 296/1/3 289/1/3 295/1/3
f 297/1/3 291/1/3 290/1/3
f 297/2/3 290/2/3 296/2/3
f 298/2/3 292/2/3 291/2/3
f 298/1/3 291/1/3 297/1/3
f 299/1/3 293/1/3 292/1/3
f 299/2/3 292/2/3 298/2/3
f 300/2/3 294/2/3 293/2/3
f 300/1/3 293/1/3 299/1/3
f 301/2/3 298/2/3 297/2/3
f 301/2/3 294/2/3 300/2/3
f 301/2/3 300/2/3 299/2/3
f 301/2/3 296/2/3 295/2/3
f 301/2/3 299/2/3 298/2/3
f 301/2/3 271/2/3 294/2/3
f 301/2/3 297/2/3 296/2/3
f 303/2/3 295/2/3 287/2/3
f 303/2/3 302/2/3 301/2/3
f 303/2/3 301/2/3 295/2/3
f 304/2/3 302/2/3 303/2/3
f 305/2/3 287/2/3 267/2/3
f 305/2/3 303/2/3 287/2/3
f 306/2/3 303/2/3 305/2/3
f 309/2/3 308/2/3 307/2/3
f 310/2/3 308/2/3 309/2/3
f 313/2/3 312/2/3 311/2/3
f 314/2/3 312/2/3 313/2/3
f 317/2/3 316/2/3 315/2/3
f 318/2/3 316/2/3 317/2/3
f 321/2/3 320/2/3 319/2/3
f 322/2/3 320/2/3 321/2/3
f 325/2/3 324/2/3 323/2/3
f 326/2/3 324/2/3 325/2/3
f 329/2/3 328/2/3 327/2/3
f 330/2/3 328/2/3 329/2/3
f 333/1/3 332/1/3 331/1/3
f 334/1/3 332/1/3 333/1/3
f 335/1/3 332/1/3 334/1/3
f 336/1/3 332/1/3 335/1/3
f 340/1/3 338/1/3 337/1/3
f 341/1/3 340/1/3 339/1/3
f 342/1/3 338/1/3 340/1/3
f 342/1/3 340/1/3 341/1/3
f 343/1/4 344/1/4 345/1/4
f 345/1/4 344/1/4 346/1/4
f 346/1/4 344/1/4 347/1/4
f 347/1/4 344/1/4 348/1/4
f 349/1/4 350/1/4 352/1/4
f 351/1/4 352/1/4 353/1/4
f 352/1/4 350/1/4 354/1/4
f 353/1/4 352/1/4 354/1/4
f 355/2/4 356/2/4 357/2/4
f 357/2/4 356/2/4 358/2/4
f 359/2/4 360/2/4 361/2/4
f 361/2/4 360/2/4 362/2/4
f 363/2/4 364/2/4 365/2/4
f 365/2/4 364/2/4 366/2/4
f 367/2/4 368/2/4 369/2/4
f 369/2/4 368/2/4 370/2/4
f 371/2/4 372/2/4 373/2/4
f 373/2/4 372/2/4 374/2/4
f 375/2/4 376/2/4 377/2/4
f 377/2/4 376/2/4 378/2/4
f 379/2/4 380/2/4 381/2/4
f 381/2/4 382/2/4 383/2/4
f 383/2/4 382/2/4 384/2/4
f 379/2/4 381/2/4 385/2/4
f 381/2/4 383/2/4 385/2/4
f 385/2/4 383/2/4 386/2/4
f 386/2/4 383/2/4 387/2/4
f 387/2/4 383/2/4 388/2/4
f 388/2/4 383/2/4 389/2/4
f 389/2/4 383/2/4 390/2/4
f 379/2/4 385/2/4 391/2/4
f 385/1/4 386/1/4 392/1/4
f 391/2/4 385/2/4 392/2/4
f 386/2/4 387/2/4 393/2/4
f 392/1/4 386/1/4 393/1/4
f 387/1/4 388/1/4 394/1/4
f 393/2/4 387/2/4 394/2/4
f 388/2/4 389/2/4 395/2/4
f 394/1/4 388/1/4 395/1/4
f 389/1/4 390/1/4 396/1/4
f 395/2/4 389/2/4 396/2/4
f 390/2/4 383/2/4 397/2/4
f 396/1/4 390/1/4 397/1/4
f 397/2/4 383/2/4 398/2/4
f 379/2/4 391/2/4 399/2/4
f 391/1/4 392/1/4 399/1/4
f 392/2/4 393/2/4 400/2/4
f 399/1/4 392/1/4 400/1/4
f 393/1/4 394/1/4 401/1/4
f 400/2/4 393/2/4 401/2/4
f 394/2/4 395/2/4 402/2/4
f 401/1/4 394/1/4 402/1/4
f 395/1/4 396/1/4 403/1/4
f 402/2/4 395/2/4 403/2/4
f 396/2/4 397/2/4 404/2/4
f 403/1/4 396/1/4 404/1/4
f 397/1/4 398/1/4 405/1/4
f 404/2/4 397/2/4 405/2/4
f 398/2/4 383/2/4 406/2/4
f 405/1/4 398/1/4 406/1/4
f 399/2/4 400/2/4 407/2/4
f 400/1/4 401/1/4 407/1/4
f 401/2/4 402/2/4 408/2/4
f 407/1/4 401/1/4 408/1/4
f 402/1/4 403/1/4 409/1/4
f 408/2/4 402/2/4 409/2/4
f 403/2/4 404/2/4 410/2/4
f 409/1/4 403/1/4 410/1/4
f 404/1/4 405/1/4 411/1/4
f 410/2/4 404/2/4 411/2/4
f 405/2/4 406/2/4 412/2/4
f 411/1/4 405/1/4 412/1/4
f 409/2/4 410/2/4 413/2/4
f 412/2/4 406/2/4 413/2/4
f 411/2/4 412/2/4 413/2/4
f 407/2/4 408/2/4 413/2/4
f 410/2/4 411/2/4 413/2/4
f 406/2/4 383/2/4 413/2/4
f 408/2/4 409/2/4 413/2/4
f 399/2/4 407/2/4 415/2/4
f 413/2/4 414/2/4 415/2/4
f 407/2/4 413/2/4 415/2/4
f 415/2/4 414/2/4 416/2/4
f 379/2/4 399/2/4 417/2/4
f 399/2/4 415/2/4 417/2/4
f 417/2/4 415/2/4 418/2/4
f 419/2/4 420/2/4 422/2/4
f 420/1/4 421/1/4 422/1/4
f 422/1/4 421/1/4 423/1/4
f 422/2/4 423/2/4 424/2/4
f 419/2/4 422/2/4 426/2/4
f 424/2/4 425/2/4 426/2/4
f 422/2/4 424/2/4 426/2/4
f 426/2/4 425/2/4 427/2/4
f 428/2/4 429/2/4 430/2/4
f 430/2/4 429/2/4 431/2/4
f 428/2/4 430/2/4 432/2/4
f 432/2/4 430/2/4 433/2/4
f 428/2/4 432/2/4 434/2/4
f 432/1/4 433/1/4 435/1/4
f 434/2/4 432/2/4 435/2/4
f 435/1/4 433/1/4 436/1/4
f 437/2/4 438/2/4 441/2/4
f 441/2/4 438/2/4 442/2/4
f 439/1/4 440/1/4 443/1/4
f 443/1/4 440/1/4 444/1/4
f 442/2/4 438/2/4 446/2/4
f 445/2/4 446/2/4 449/2/4
f 446/2/4 438/2/4 450/2/4
f 449/2/4 446/2/4 450/2/4
f 447/1/4 448/1/4 451/1/4
f 451/1/4 448/1/4 452/1/4
f 453/2/4 454/2/4 455/2/4
f 455/2/4 454/2/4 456/2/4
f 460/2/5 458/2/5 457/2/5
f 461/2/5 458/2/5 460/2/5
f 464/2/5 460/2/5 459/2/5
f 464/2/5 462/2/5 461/2/5
f 464/2/5 461/2/5 460/2/5
f 465/2/5 462/2/5 464/2/5
f 467/2/5 464/2/5 463/2/5
f 467/2/5 466/2/5 465/2/5
f 467/2/5 465/2/5 464/2/5
f 468/2/5 466/2/5 467/2/5
f 469/2/5 466/2/5 468/2/5
f 470/2/5 466/2/5 469/2/5
f 471/2/5 469/2/5 468/2/5
f 472/2/5 469/2/5 471/2/5
f 473/2/5 469/2/5 472/2/5
f 474/2/5 469/2/5 473/2/5
f 475/2/5 473/2/5 472/2/5
f 476/2/5 473/2/5 475/2/5
f 481/2/5 478/2/5 477/2/5
f 482/2/5 478/2/5 481/2/5
f 483/2/5 480/2/5 479/2/5
f 484/2/5 480/2/5 483/2/5
f 485/2/5 481/2/5 477/2/5
f 486/2/5 481/2/5 485/2/5
f 487/2/5 480/2/5 484/2/5
f 488/2/5 480/2/5 487/2/5
f 493/2/5 490/2/5 489/2/5
f 496/2/5 492/2/5 491/2/5
f 497/2/5 494/2/5 493/2/5
f 497/2/5 493/2/5 489/2/5
f 498/2/5 494/2/5 497/2/5
f 499/2/5 496/2/5 495/2/5
f 500/2/5 492/2/5 496/2/5
f 500/2/5 496/2/5 499/2/5
f 505/1/5 502/1/5 501/1/5
f 506/1/5 502/1/5 505/1/5
f 507/1/5 502/1/5 506/1/5
f 508/1/5 504/1/5 503/1/5
f 509/1/5 504/1/5 508/1/5
f 510/1/5 504/1/5 509/1/5
f 511/1/5 505/1/5 501/1/5
f 512/1/5 504/1/5 510/1/5
f 513/1/5 511/1/5 501/1/5
f 514/1/5 511/1/5 513/1/5
f 515/1/5 504/1/5 512/1/5
f 516/1/5 504/1/5 515/1/5
f 521/1/5 518/1/5 517/1/5
f 522/1/5 520/1/5 519/1/5
f 523/1/5 521/1/5 517/1/5
f 528/1/5 520/1/5 522/1/5
f 529/1/5 523/1/5 517/1/5
f 529/1/5 524/1/5 523/1/5
f 529/1/5 525/1/5 524/1/5
f 530/1/5 525/1/5 529/1/5
f 531/1/5 527/1/5 526/1/5
f 531/1/5 528/1/5 527/1/5
f 532/1/5 520/1/5 528/1/5
f 532/1/5 528/1/5 531/1/5
f 533/2/6 534/2/6 535/2/6
f 535/2/6 534/2/6 536/2/6
f 537/2/6 538/2/6 541/2/6
f 541/2/6 538/2/6 542/2/6
f 539/2/6 540/2/6 543/2/6
f 543/2/6 540/2/6 544/2/6
f 545/2/6 546/2/6 547/2/6
f 547/2/6 546/2/6 548/2/6
f 549/2/6 550/2/6 551/2/6
f 551/2/6 550/2/6 552/2/6
f 549/2/6 551/2/6 553/2/6
f 552/2/6 550/2/6 554/2/6
f 549/2/6 553/2/6 555/2/6
f 553/2/6 554/2/6 555/2/6
f 554/2/6 550/2/6 556/2/6
f 555/2/6 554/2/6 556/2/6
f 557/2/6 558/2/6 560/2/6
f 560/2/6 558/2/6 561/2/6
f 559/2/6 560/2/6 563/2/6
f 561/2/6 562/2/6 563/2/6
f 560/2/6 561/2/6 563/2/6
f 563/2/6 562/2/6 564/2/6
f 564/2/6 562/2/6 565/2/6
f 565/2/6 562/2/6 566/2/6
f 564/2/6 565/2/6 567/2/6
f 567/2/6 565/2/6 568/2/6
f 569/2/6 570/2/6 573/2/6
f 571/2/6 572/2/6 576/2/6
f 573/2/6 574/2/6 578/2/6
f 569/2/6 573/2/6 578/2/6
f 575/2/6 576/2/6 579/2/6
f 576/2/6 572/2/6 579/2/6
f 577/2/6 578/2/6 581/2/6
f 581/2/6 578/2/6 582/2/6
f 579/2/6 580/2/6 583/2/6
f 583/2/6 580/2/6 584/2/6
f 582/2/6 578/2/6 585/2/6
f 578/2/6 574/2/6 586/2/6
f 585/2/6 578/2/6 586/2/6
f 575/2/6 579/2/6 587/2/6
f 579/2/6 583/2/6 587/2/6
f 587/2/6 583/2/6 588/2/6
f 589/2/6 590/2/6 594/2/6
f 591/2/6 592/2/6 595/2/6
f 593/2/6 594/2/6 597/2/6
f 594/2/6 590/2/6 598/2/6
f 597/2/6 594/2/6 598/2/6
f 591/2/6 595/2/6 599/2/6
f 595/2/6 596/2/6 599/2/6
f 599/2/6 596/2/6 600/2/6
f 598/2/6 590/2/6 601/2/6
f 601/2/6 590/2/6 602/2/6
f 591/2/6 599/2/6 603/2/6
f 603/2/6 599/2/6 604/2/6
f 598/2/6 601/2/6 605/2/6
f 605/2/6 601/2/6 606/2/6
f 604/2/6 599/2/6 607/2/6
f 607/2/6 599/2/6 608/2/6
f 609/1/6 610/1/6 613/1/6
f 613/1/6 610/1/6 614/1/6
f 611/1/6 612/1/6 615/1/6
f 615/1/6 612/1/6 616/1/6
f 617/1/6 618/1/6 621/1/6
f 621/1/6 618/1/6 622/1/6
f 619/1/6 620/1/6 623/1/6
f 623/1/6 620/1/6 624/1/6
