# ProBuilder 5.0.6
# https://unity3d.com/unity/features/worldbuilding/probuilder
# 3/31/2023 7:01:16 PM

mtllib ./TB_MageTower_Lvl2.mtl
o TB_MageTower_Lvl2

g TB_MageTower_Lvl2
v 2.773876E-08 3.79449 -2.402836
v 1.224462E-07 2.806348 -2.683724
v 0.4954022 2.767946 -2.393474
v -0.4954019 2.767946 -2.393474
v 2.728E-07 0.9913166 -2.626429
v 2.402833 3.79449 -1.495401E-06
v 2.683721 2.806348 -1.404043E-06
v 2.393471 2.767946 0.4954007
v 2.393471 2.767946 -0.4954035
v 2.626426 0.9913169 -1.253006E-06
v -2.402835 3.79449 -4.42601E-07
v -2.683723 2.806348 -3.522582E-07
v -2.393473 2.767946 -0.4954024
v -2.393473 2.767946 0.4954017
v -2.626428 0.9913166 -1.877662E-07
v -4.526439E-07 3.79449 2.402834
v -3.500231E-07 2.806348 2.683723
v -0.4954024 2.767946 2.393473
v 0.4954017 2.767946 2.393473
v -1.880356E-07 0.9913169 2.626428
v 1.048467 0.8000007 2.858446
v -1.090449 -7.629394E-07 2.959807
v -1.048465 0.8000003 2.858447
v 1.090452 -3.814697E-07 2.959806
v 2.858446 0.8000003 -1.048465
v 2.959808 -3.814697E-07 1.090451
v 2.858447 0.8000007 1.048466
v 2.959806 -7.629394E-07 -1.09045
v -1.048465 0.8 -2.858446
v 1.09045 -7.629394E-07 -2.959807
v 1.048465 0.8000003 -2.858446
v -1.090451 -1.144409E-06 -2.959806
v -2.858445 0.8000003 1.048467
v -2.959807 -1.144409E-06 -1.090449
v -2.858447 0.8 -1.048465
v -2.959805 -7.629394E-07 1.090452
v -2.361743 0.8000003 3.611849
v -3.740146 -7.629394E-07 2.450567
v -3.611847 0.8000003 2.361745
v -2.450563 -7.629394E-07 3.740149
v -3.611848 0.8 -2.361742
v -2.450566 -1.144409E-06 -3.740146
v -2.361745 0.8 -3.611847
v -3.740148 -1.144409E-06 -2.450563
v 2.361743 0.8000003 -3.611847
v 3.740148 -7.629394E-07 -2.450565
v 3.611848 0.8000003 -2.361744
v 2.450564 -7.629394E-07 -3.740147
v 3.61185 0.8000007 2.361742
v 2.450567 -3.814697E-07 3.740148
v 2.361746 0.8000007 3.611848
v 3.74015 -3.814697E-07 2.450563
v -1.352135 5.732358 0.5600728
v 0.5600728 5.732358 1.352134
v -0.5600722 5.732358 1.352135
v -0.5600726 5.732358 -1.352135
v -1.352135 5.732358 -0.5600726
v 1.352134 5.732358 -0.5600727
v 1.352135 5.732358 0.5600725
v 0.560072 5.732358 -1.352135
v -1.352134 5.472835 0.5600728
v -0.5600724 5.472835 1.352135
v 0.5600727 5.472835 1.352134
v 1.352135 5.472835 0.5600725
v 1.352134 5.472835 -0.5600727
v 0.560072 5.472835 -1.352135
v -0.5600727 5.472835 -1.352135
v -1.352135 5.472835 -0.5600724
v -1.749629 5.523489 0.7247199
v 0.7247201 5.523489 1.749627
v -0.7247198 5.523488 1.749628
v -0.7247199 5.523488 -1.749629
v -1.749628 5.523488 -0.7247201
v 1.749628 5.523488 -0.7247198
v 1.749628 5.523489 0.7247199
v 0.7247191 5.523489 -1.749629
v -3.051945 5.523489 2.112838
v -0.9987224 5.523488 2.41113
v -2.112837 5.523488 3.051946
v -2.411129 5.523489 0.9987231
v -2.411131 5.523488 -0.9987229
v 0.9987233 5.523489 2.411129
v 2.41113 5.523489 0.9987224
v 2.112839 5.523489 3.051945
v 3.051947 5.523488 2.112836
v 2.411129 5.523489 -0.9987231
v 0.9987221 5.523489 -2.41113
v 3.051945 5.523489 -2.112838
v 2.112837 5.523487 -3.051946
v -0.9987231 5.523489 -2.41113
v -2.112839 5.523488 -3.051946
v -3.051946 5.523487 -2.112837
v -2.874801 5.581604 2.382215
v -1.29949 5.581605 1.792076
v -2.382215 5.581604 2.874802
v -1.792077 5.581605 1.29949
v -2.874801 3.122602 2.382215
v -2.382215 3.122602 2.874801
v -1.29949 3.122602 1.792076
v -1.792076 3.122602 1.29949
v -2.382216 5.581604 -2.874802
v -1.792077 5.581604 -1.29949
v -2.874802 5.581604 -2.382215
v -1.29949 5.581604 -1.792077
v -2.382215 3.122601 -2.874801
v -2.874801 3.122601 -2.382215
v -1.792076 3.122601 -1.29949
v -1.29949 3.122601 -1.792076
v 2.874802 5.581605 -2.382215
v 1.29949 5.581605 -1.792076
v 2.382215 5.581605 -2.874802
v 1.792077 5.581605 -1.29949
v 2.874801 3.122602 -2.382215
v 2.382215 3.122602 -2.874801
v 1.29949 3.122602 -1.792076
v 1.792076 3.122602 -1.29949
v 2.382216 5.581605 2.874802
v 1.792076 5.581605 1.29949
v 2.874802 5.581605 2.382215
v 1.29949 5.581605 1.792076
v 2.382216 3.122602 2.874801
v 2.874802 3.122602 2.382215
v 1.792076 3.122602 1.29949
v 1.29949 3.122602 1.792076
v 0.9987235 2.761745 2.411129
v -0.9987221 2.761744 2.41113
v 2.411129 2.761744 -0.9987227
v 2.41113 2.761744 0.9987229
v -0.9987229 2.761744 -2.411129
v 0.9987224 2.761745 -2.41113
v -2.411129 2.761745 0.9987235
v -2.41113 2.761744 -0.9987224
v -2.112837 2.761744 3.051946
v -3.051945 2.761744 2.112839
v -3.051946 2.761743 -2.112837
v -2.112838 2.761744 -3.051945
v 2.112837 2.761743 -3.051945
v 3.051945 2.761745 -2.112838
v 3.051947 2.761743 2.112836
v 2.112839 2.761745 3.051945
v -1.102516 0.7840003 2.661712
v 1.102518 0.7840011 2.661711
v 2.661712 0.7840003 1.102517
v 2.661711 0.7840003 -1.102517
v 1.102517 0.7840008 -2.661711
v -1.102517 0.784 -2.661711
v -2.661712 0.784 -1.102516
v -2.66171 0.7840008 1.102518
v -3.369124 0.7840003 2.33242
v -2.332417 0.7839996 3.369127
v -2.332419 0.784 -3.369125
v -3.369125 0.784 -2.332417
v 3.369126 0.7840003 -2.332419
v 2.332418 0.7839984 -3.369125
v 2.33242 0.7840008 3.369126
v 3.369128 0.7839992 2.332417
v -0.1949539 5.994595 0.08075245
v 0.08075253 5.994595 0.1949537
v -0.08075261 5.994595 0.1949538
v -0.08075266 5.994595 -0.194954
v -0.194954 5.994595 -0.08075269
v 0.1949537 5.994595 -0.08075263
v 0.1949538 5.994595 0.08075247
v 0.08075235 5.994595 -0.194954
v -0.1821901 5.994595 0.4398457
v -0.5462332 5.714852 0.2262573
v -0.4398457 5.994595 0.18219
v -0.2262573 5.714852 0.5462334
v 0.18219 5.994595 0.4398454
v 0.2262573 5.714852 0.5462331
v 0.4398457 5.994595 0.18219
v 0.5462335 5.714852 0.2262573
v 0.4398456 5.994595 -0.1821902
v 0.5462331 5.714852 -0.2262574
v 0.1821899 5.994595 -0.4398459
v 0.226257 5.714852 -0.5462336
v -0.1821902 5.994595 -0.4398459
v -0.2262574 5.714852 -0.5462334
v -0.4398459 5.994595 -0.1821902
v -0.5462336 5.714852 -0.2262573

vt 0.05598937 0.8225259
vt 0.03562797 0.8160397
vt 0.03562797 0.829012
vt 0.07803856 0.7932056
vt 0.05767717 0.7867194
vt 0.05767717 0.7996918
vt 0.05767717 0.8225259
vt 0.07331522 0.8078657
vt 0.1140398 0.3317434
vt 0.132273 0.338563
vt 0.1319151 0.3317434
vt 0.1136819 0.338563
vt 0.1580166 0.34076
vt 0.1762498 0.3475797
vt 0.1758919 0.34076
vt 0.1576587 0.3475797
vt 0.1580166 0.3317434
vt 0.1762498 0.338563
vt 0.1758919 0.3317434
vt 0.1576587 0.338563
vt 0.1140398 0.34076
vt 0.132273 0.3475797
vt 0.1319151 0.34076
vt 0.1136819 0.3475797
vt 0.1661011 0.2953912
vt 0.1814097 0.3023352
vt 0.1811717 0.2953912
vt 0.1658631 0.3023352
vt 0.1431102 0.3317434
vt 0.1438673 0.338563
vt 0.1028447 0.34076
vt 0.1020876 0.3475797
vt 0.1661011 0.2862501
vt 0.1814097 0.2931941
vt 0.1811717 0.2862501
vt 0.1658631 0.2931941
vt 0.1431102 0.34076
vt 0.1438673 0.3475797
vt 0.1468215 0.3317434
vt 0.1460644 0.338563
vt 0.1661011 0.277109
vt 0.1814097 0.284053
vt 0.1811717 0.277109
vt 0.1658631 0.284053
vt 0.1870869 0.3317434
vt 0.1878441 0.338563
vt 0.1468215 0.34076
vt 0.1460644 0.3475797
vt 0.1661011 0.2679678
vt 0.1814097 0.2749119
vt 0.1811717 0.2679678
vt 0.1658631 0.2749119
vt 0.1870869 0.34076
vt 0.1878441 0.3475797
vt 0.1028447 0.3317434
vt 0.1020876 0.338563
vt 0.6221379 0.2902425
vt 0.6439896 0.2944766
vt 0.633333 0.2838201
vt 0.6042627 0.2902425
vt 0.6375672 0.3056717
vt 0.6221379 0.3389762
vt 0.633333 0.3453985
vt 0.6375672 0.323547
vt 0.6439895 0.334742
vt 0.5888335 0.3235469
vt 0.5930676 0.2838201
vt 0.5888335 0.3056717
vt 0.5824111 0.2944766
vt 0.5824111 0.334742
vt 0.6042627 0.3389761
vt 0.5930676 0.3453985
vt 0.8340428 0.04422735
vt 0.8684618 0.02997057
vt 0.8482996 0.02997051
vt 0.8482996 0.0786465
vt 0.8340428 0.06438957
vt 0.8827188 0.06438963
vt 0.8827188 0.04422735
vt 0.8684618 0.0786465
vt 0.5944243 0.04836491
vt 0.6158632 0.05577537
vt 0.6158632 0.04836491
vt 0.5944243 0.05577537
vt 0.6158632 0.06816694
vt 0.6461824 0.07557741
vt 0.6461824 0.06816694
vt 0.6158632 0.07557741
vt 0.5944243 0.06816694
vt 0.5944243 0.07557741
vt 0.6158632 0.05826595
vt 0.6461824 0.06567636
vt 0.6461824 0.05826595
vt 0.6158632 0.06567636
vt 0.5944243 0.05826595
vt 0.5944243 0.06567636
vt 0.6486729 0.06816694
vt 0.6789921 0.07557741
vt 0.6789921 0.06816694
vt 0.6486729 0.07557741
vt 0.6461824 0.04836491
vt 0.6676213 0.05577537
vt 0.6676213 0.04836491
vt 0.6461824 0.05577537
vt 0.04039875 0.7953462
vt 0.07180572 0.782337
vt 0.05340794 0.782337
vt 0.05340794 0.8267531
vt 0.04039875 0.8137439
vt 0.08481491 0.8137439
vt 0.08481491 0.7953462
vt 0.07180572 0.8267531
vt 0.7895832 0.2649965
vt 0.8022504 0.2631562
vt 0.795377 0.2592028
vt 0.7935367 0.27187
vt 0.8039408 0.2672373
vt 0.7976177 0.2735604
vt 0.812883 0.2672373
vt 0.7935367 0.284193
vt 0.8145735 0.2631562
vt 0.8192061 0.2735604
vt 0.7976177 0.2825026
vt 0.8232872 0.27187
vt 0.8214469 0.2592028
vt 0.8272407 0.2649965
vt 0.8192061 0.2825026
vt 0.8232872 0.284193
vt 0.812883 0.2888257
vt 0.8145735 0.2929068
vt 0.8272407 0.2910665
vt 0.8214469 0.2968602
vt 0.8039408 0.2888257
vt 0.8022504 0.2929068
vt 0.795377 0.2968602
vt 0.7895832 0.2910665
vt 0.6376507 0.9578019
vt 0.612488 0.9319808
vt 0.612488 0.9578019
vt 0.6376507 0.9319808
vt 0.1517572 0.9267282
vt 0.1361814 0.9518909
vt 0.1517572 0.9518909
vt 0.1361814 0.9267282
vt 0.4056888 0.9428024
vt 0.3901129 0.9686235
vt 0.4056888 0.9686235
vt 0.3901129 0.9428024
vt 0.4223393 0.9159067
vt 0.4067635 0.9410694
vt 0.4223393 0.9410694
vt 0.4067635 0.9159067
vt 0.4056888 0.9159067
vt 0.3901129 0.9417277
vt 0.4056888 0.9417277
vt 0.3901129 0.9159067
vt 0.6503717 0.3185327
vt 0.6333333 0.3062096
vt 0.6333333 0.3185327
vt 0.6503717 0.3062096
vt 0.6503717 0.355555
vt 0.6333333 0.3432319
vt 0.6333333 0.355555
vt 0.6503717 0.3432319
vt 0.6503717 0.2815104
vt 0.6333333 0.2691873
vt 0.6333333 0.2815104
vt 0.6503717 0.2691873
vt 0.6102641 0.321618
vt 0.5932257 0.3092949
vt 0.5932257 0.321618
vt 0.6102641 0.3092949
vt 0.6503717 0.3311999
vt 0.6333333 0.3254061
vt 0.6333333 0.3311999
vt 0.6503717 0.3254061
vt 0.3951502 0.3285766
vt 0.3781119 0.3217032
vt 0.3781119 0.3285766
vt 0.3951502 0.3217032
vt 0.3550426 0.3124654
vt 0.3380043 0.305592
vt 0.3380043 0.3124654
vt 0.3550426 0.305592
vt 0.6102641 0.3342852
vt 0.5932257 0.3284914
vt 0.5932257 0.3342852
vt 0.6102641 0.3284914
vt 0.3550426 0.3316619
vt 0.3380043 0.3247885
vt 0.3380043 0.3316619
vt 0.3550426 0.3247885
vt 0.3951502 0.2723577
vt 0.3781119 0.2654843
vt 0.3781119 0.2723577
vt 0.3951502 0.2654843
vt 0.6503717 0.2941776
vt 0.6333333 0.2883838
vt 0.6333333 0.2941776
vt 0.6503717 0.2883838
vt 0.3951502 0.2915542
vt 0.3781119 0.2846808
vt 0.3781119 0.2915542
vt 0.3951502 0.2846808
vt 0.3951502 0.3464024
vt 0.3781119 0.3395289
vt 0.3781119 0.3464024
vt 0.3951502 0.3395289
vt 0.6503717 0.3682222
vt 0.6333333 0.3624284
vt 0.6333333 0.3682222
vt 0.6503717 0.3624284
vt 0.3951502 0.3655989
vt 0.3781119 0.3587255
vt 0.3781119 0.3655989
vt 0.3951502 0.3587255
vt 0.3951502 0.3093801
vt 0.3781119 0.3025066
vt 0.3781119 0.3093801
vt 0.3951502 0.3025066
vt 0.6211318 0.319173
vt 0.6211318 0.3055692
vt 0.6211318 0.3561953
vt 0.6211318 0.3425916
vt 0.6211318 0.2821507
vt 0.6211318 0.2685469
vt 0.5810242 0.3222584
vt 0.5810242 0.3086546
vt 0.6585637 0.3436807
vt 0.6709878 0.3350613
vt 0.6585637 0.3346355
vt 0.6709878 0.3432549
vt 0.3659104 0.3224206
vt 0.3659104 0.3300073
vt 0.3258027 0.311749
vt 0.3258027 0.3041602
vt 0.6585637 0.3066584
vt 0.6709878 0.298039
vt 0.6585637 0.2976132
vt 0.6709878 0.3062326
vt 0.3258027 0.3255059
vt 0.3258027 0.3330927
vt 0.3659104 0.2716413
vt 0.3659104 0.2640525
vt 0.6585637 0.2696361
vt 0.6709878 0.2610167
vt 0.6585637 0.2605909
vt 0.6709878 0.2692103
vt 0.3659104 0.2853982
vt 0.3659104 0.292985
vt 0.3659104 0.345686
vt 0.3659104 0.3380972
vt 0.5811125 0.346766
vt 0.5935366 0.3381466
vt 0.5811125 0.3377209
vt 0.5935366 0.3463402
vt 0.3659104 0.3594429
vt 0.3659104 0.3670296
vt 0.3659104 0.3086636
vt 0.3659104 0.3010748
vt 0.05466017 0.8251026
vt 0.04689887 0.806365
vt 0.04689884 0.8173412
vt 0.07339767 0.8173412
vt 0.06563634 0.8251026
vt 0.06563634 0.7986037
vt 0.05466017 0.7986037
vt 0.07339767 0.806365
vt 0.09001851 0.226311
vt 0.1103587 0.1985522
vt 0.09001848 0.201547
vt 0.1103587 0.2293059
vt 0.1738135 0.1646909
vt 0.1928252 0.1369321
vt 0.1738135 0.139927
vt 0.1928252 0.1676858
vt 0.1121934 0.226311
vt 0.1325336 0.1985522
vt 0.1121934 0.2015471
vt 0.1325336 0.2293059
vt 0.172485 0.2298677
vt 0.1914968 0.2021088
vt 0.172485 0.2051037
vt 0.1914968 0.2328625
vt 0.1516386 0.1646909
vt 0.1719788 0.1369321
vt 0.1516386 0.139927
vt 0.1719788 0.1676858
vt 0.1738135 0.1972793
vt 0.1928252 0.1695205
vt 0.1738135 0.1725153
vt 0.1928252 0.2002741
vt 0.1516386 0.1972793
vt 0.1719788 0.1695205
vt 0.1516386 0.1725153
vt 0.1719788 0.2002742
vt 0.1516386 0.2298677
vt 0.1706503 0.2021088
vt 0.1516386 0.2051037
vt 0.1706503 0.2328625
vt 0.4074031 0.1833283
vt 0.3829985 0.1841958
vt 0.3898924 0.2008391
vt 0.3907599 0.1764345
vt 0.3720224 0.1841958
vt 0.4074031 0.1585644
vt 0.3651285 0.2008391
vt 0.3907599 0.1654583
vt 0.364261 0.1764345
vt 0.3898924 0.1410537
vt 0.3476177 0.1833283
vt 0.3829985 0.157697
vt 0.3642611 0.1654583
vt 0.3651285 0.1410537
vt 0.3476178 0.1585644
vt 0.3720224 0.157697

vn 0.5047873 0.2360339 -0.8303481
vn 0.5042702 0.1043892 -0.8468828
vn -0.5047873 0.2360339 -0.8303481
vn -0.5042702 0.1043892 -0.8468828
vn 0.5037532 -0.02725546 -0.8634176
vn -0.5037532 -0.02725554 -0.8634176
vn 0.8303479 0.2360342 0.5047873
vn 0.8468827 0.1043894 0.5042703
vn 0.8303479 0.2360341 -0.5047874
vn 0.8468827 0.1043893 -0.5042703
vn 0.8634176 -0.02725534 0.5037532
vn 0.8634176 -0.02725543 -0.5037532
vn -0.8303481 0.2360339 -0.5047873
vn -0.8468828 0.1043891 -0.5042702
vn -0.8303481 0.2360339 0.5047873
vn -0.8468828 0.1043892 0.5042702
vn -0.8634176 -0.02725566 -0.5037532
vn -0.8634176 -0.02725557 0.5037532
vn -0.5047871 0.2360342 0.8303481
vn -0.50427 0.1043894 0.8468829
vn 0.5047874 0.2360342 0.8303479
vn 0.5042703 0.1043894 0.8468827
vn -0.5037528 -0.02725543 0.8634178
vn 0.5037532 -0.02725534 0.8634176
vn 5.274584E-07 0.1256956 0.9920689
vn 0.9920689 0.1256957 -6.850801E-07
vn -4.078154E-07 0.1256955 -0.9920689
vn -0.9920689 0.1256954 8.632931E-07
vn -0.6944346 0.1884697 0.6944349
vn 0.4958888 0.08352701 0.8643596
vn 0.4958734 0.08349265 0.8643718
vn -0.8643599 0.0835261 -0.4958885
vn -0.8643719 0.08349206 -0.4958732
vn -0.6944351 0.1884693 -0.6944345
vn -0.8643599 0.08352651 0.4958886
vn -0.864372 0.08349223 0.4958732
vn 0.4958879 0.08352639 -0.8643602
vn 0.4958726 0.08349214 -0.8643723
vn 0.6944342 0.1884697 -0.6944353
vn -0.495888 0.08352672 -0.8643601
vn -0.4958726 0.08349255 -0.8643722
vn 0.8643597 0.08352691 0.4958888
vn 0.8643719 0.08349233 0.4958733
vn 0.6944351 0.1884702 0.6944343
vn 0.8643593 0.08352692 -0.4958895
vn 0.8643714 0.0834925 -0.495874
vn -0.4958888 0.08352648 0.8643597
vn -0.4958734 0.08349214 0.8643718
vn -9.948669E-08 1 -5.134304E-07
vn -0.7071066 -5.125909E-07 0.7071071
vn 3.724808E-07 -2.296705E-07 1
vn 0.7071067 -5.684342E-14 0.7071069
vn 1 -5.684342E-14 -4.256923E-07
vn 0.7071068 -4.100727E-07 -0.7071067
vn -2.128462E-07 -9.186819E-07 -1
vn -0.7071067 -9.226634E-07 -0.7071068
vn -1 -9.186818E-07 4.256922E-07
vn 0.4985882 2.196109E-07 0.8668389
vn -0.8668391 -2.462669E-07 -0.498588
vn -0.8668391 -2.616482E-08 0.498588
vn 0.498588 -1.440408E-07 -0.8668391
vn -0.4985878 -1.71188E-07 -0.8668392
vn 0.8668389 3.790792E-08 0.4985883
vn 0.8668386 5.306626E-08 -0.4985889
vn -0.4985883 -2.456311E-10 0.8668389
vn 0.4968525 0.08337159 0.863821
vn -0.8638213 0.08337118 -0.4968522
vn -0.8638213 0.08337138 0.4968522
vn 0.4968522 0.08337125 -0.8638213
vn -0.4968519 0.08337131 -0.8638214
vn 0.863821 0.08337155 0.4968527
vn 0.8638207 0.0833713 -0.4968532
vn -0.4968526 0.08337144 0.863821
vn -0.6609247 0.3554677 0.6609246
vn 5.520213E-07 0.3554679 0.9346886
vn 0.6609243 0.3554679 0.6609249
vn 0.9346886 0.3554677 -5.986899E-07
vn 0.660925 0.3554671 -0.6609246
vn -4.937082E-07 0.3554672 -0.9346888
vn -0.6609246 0.3554676 -0.6609248
vn -0.9346887 0.3554676 5.9869E-07

usemtl Towers_Blue
f 51/59/49 49/58/49 21/57/49
f 47/65/49 45/63/49 25/64/49
f 39/69/49 37/67/49 33/68/49
f 43/72/49 41/70/49 29/71/49
f 55/75/49 54/74/49 53/73/49
f 53/73/49 56/76/49 57/77/49
f 59/79/49 58/78/49 54/74/49
f 60/80/49 56/76/49 58/78/49
f 71/107/49 70/106/49 69/105/49
f 69/105/49 72/108/49 73/109/49
f 75/111/49 74/110/49 70/106/49
f 76/112/49 72/108/49 74/110/49
f 79/115/49 78/114/49 77/113/49
f 69/118/49 80/116/49 71/117/49
f 70/119/49 82/121/49 75/122/49
f 85/126/49 83/124/49 84/125/49
f 74/127/49 86/128/49 76/129/49
f 89/132/49 87/130/49 88/131/49
f 72/133/49 90/134/49 73/123/49
f 92/136/49 81/120/49 91/135/49
f 159/263/49 158/262/49 157/261/49
f 157/261/49 160/264/49 161/265/49
f 163/267/49 162/266/49 158/262/49
f 164/268/49 160/264/49 162/266/49
f 5/7/5 2/2/2 1/1/1
f 1/1/1 3/3/2 5/7/5
f 5/8/6 4/5/4 1/4/3
f 1/4/3 2/6/4 5/8/6
f 10/7/11 7/2/8 6/1/7
f 6/1/7 8/3/8 10/7/11
f 10/8/12 9/5/10 6/4/9
f 6/4/9 7/6/10 10/8/12
f 15/7/17 12/2/14 11/1/13
f 11/1/13 13/3/14 15/7/17
f 15/8/18 14/5/16 11/4/15
f 11/4/15 12/6/16 15/8/18
f 20/7/23 17/2/20 16/1/19
f 16/1/19 18/3/20 20/7/23
f 20/8/24 19/5/22 16/4/21
f 16/4/21 17/6/22 20/8/24
f 21/9/25 23/11/25 22/10/25
f 22/10/25 24/12/25 21/9/25
f 25/13/26 27/15/26 26/14/26
f 26/14/26 28/16/26 25/13/26
f 29/17/27 31/19/27 30/18/27
f 30/18/27 32/20/27 29/17/27
f 33/21/28 35/23/28 34/22/28
f 34/22/28 36/24/28 33/21/28
f 37/25/29 39/27/29 38/26/29
f 38/26/29 40/28/29 37/25/29
f 22/10/30 23/11/31 37/29/30
f 37/29/30 40/30/30 22/10/30
f 39/31/32 33/21/33 36/24/32
f 36/24/32 38/32/32 39/31/32
f 41/33/34 43/35/34 42/34/34
f 42/34/34 44/36/34 41/33/34
f 34/22/35 35/23/36 41/37/35
f 41/37/35 44/38/35 34/22/35
f 43/39/37 29/17/38 32/20/37
f 32/20/37 42/40/37 43/39/37
f 45/41/39 47/43/39 46/42/39
f 46/42/39 48/44/39 45/41/39
f 30/18/40 31/19/41 45/45/40
f 45/45/40 48/46/40 30/18/40
f 47/47/42 25/13/43 28/16/42
f 28/16/42 46/48/42 47/47/42
f 49/49/44 51/51/44 50/50/44
f 50/50/44 52/52/44 49/49/44
f 26/14/45 27/15/46 49/53/45
f 49/53/45 52/54/45 26/14/45
f 51/55/47 21/9/48 24/12/47
f 24/12/47 50/56/47 51/55/47
f 27/61/49 23/60/49 21/57/49
f 21/57/49 49/58/49 27/61/49
f 35/66/49 23/60/49 27/61/49
f 27/61/49 31/62/49 35/66/49
f 45/63/49 31/62/49 27/61/49
f 27/61/49 25/64/49 45/63/49
f 37/67/49 23/60/49 35/66/49
f 35/66/49 33/68/49 37/67/49
f 41/70/49 35/66/49 31/62/49
f 31/62/49 29/71/49 41/70/49
f 58/78/49 56/76/49 53/73/49
f 53/73/49 54/74/49 58/78/49
f 55/81/50 53/83/50 61/82/50
f 61/82/50 62/84/50 55/81/50
f 54/85/51 55/87/51 62/86/51
f 62/86/51 63/88/51 54/85/51
f 59/89/52 54/85/52 63/88/52
f 63/88/52 64/90/52 59/89/52
f 58/91/53 59/93/53 64/92/53
f 64/92/53 65/94/53 58/91/53
f 60/95/54 58/91/54 65/94/54
f 65/94/54 66/96/54 60/95/54
f 56/97/55 60/99/55 66/98/55
f 66/98/55 67/100/55 56/97/55
f 57/101/56 56/103/56 67/102/56
f 67/102/56 68/104/56 57/101/56
f 53/83/57 57/101/57 68/104/57
f 68/104/57 61/82/57 53/83/57
f 74/110/49 72/108/49 69/105/49
f 69/105/49 70/106/49 74/110/49
f 80/116/49 77/113/49 78/114/49
f 78/114/49 71/117/49 80/116/49
f 70/119/49 71/117/49 78/114/49
f 78/114/49 82/121/49 70/119/49
f 81/120/49 80/116/49 69/118/49
f 69/118/49 73/123/49 81/120/49
f 83/124/49 75/122/49 82/121/49
f 82/121/49 84/125/49 83/124/49
f 74/127/49 75/122/49 83/124/49
f 83/124/49 86/128/49 74/127/49
f 87/130/49 76/129/49 86/128/49
f 86/128/49 88/131/49 87/130/49
f 72/133/49 76/129/49 87/130/49
f 87/130/49 90/134/49 72/133/49
f 81/120/49 73/123/49 90/134/49
f 90/134/49 91/135/49 81/120/49
f 93/137/49 95/139/49 94/138/49
f 94/138/49 96/140/49 93/137/49
f 97/141/50 98/143/50 95/142/50
f 95/142/50 93/144/50 97/141/50
f 98/145/52 99/147/52 94/146/52
f 94/146/52 95/148/52 98/145/52
f 99/149/54 100/151/54 96/150/54
f 96/150/54 94/152/54 99/149/54
f 100/153/56 97/155/56 93/154/56
f 93/154/56 96/156/56 100/153/56
f 101/137/49 103/139/49 102/138/49
f 102/138/49 104/140/49 101/137/49
f 105/141/56 106/143/56 103/142/56
f 103/142/56 101/144/56 105/141/56
f 106/145/50 107/147/50 102/146/50
f 102/146/50 103/148/50 106/145/50
f 107/149/52 108/151/52 104/150/52
f 104/150/52 102/152/52 107/149/52
f 108/153/54 105/155/54 101/154/54
f 101/154/54 104/156/54 108/153/54
f 109/137/49 111/139/49 110/138/49
f 110/138/49 112/140/49 109/137/49
f 113/141/54 114/143/54 111/142/54
f 111/142/54 109/144/54 113/141/54
f 114/145/56 115/147/56 110/146/56
f 110/146/56 111/148/56 114/145/56
f 115/149/50 116/151/50 112/150/50
f 112/150/50 110/152/50 115/149/50
f 116/153/52 113/155/52 109/154/52
f 109/154/52 112/156/52 116/153/52
f 117/137/49 119/139/49 118/138/49
f 118/138/49 120/140/49 117/137/49
f 121/141/52 122/143/52 119/142/52
f 119/142/52 117/144/52 121/141/52
f 122/145/54 123/147/54 118/146/54
f 118/146/54 119/148/54 122/145/54
f 123/149/56 124/151/56 120/150/56
f 120/150/56 118/152/56 123/149/56
f 124/153/50 121/155/50 117/154/50
f 117/154/50 120/156/50 124/153/50
f 78/157/51 126/159/51 125/158/51
f 125/158/51 82/160/51 78/157/51
f 83/161/53 128/163/53 127/162/53
f 127/162/53 86/164/53 83/161/53
f 87/165/55 130/167/55 129/166/55
f 129/166/55 90/168/55 87/165/55
f 81/169/57 132/171/57 131/170/57
f 131/170/57 80/172/57 81/169/57
f 77/173/50 134/175/50 133/174/50
f 133/174/50 79/176/50 77/173/50
f 79/177/58 133/179/58 126/178/58
f 126/178/58 78/180/58 79/177/58
f 80/181/59 131/183/59 134/182/59
f 134/182/59 77/184/59 80/181/59
f 91/185/56 136/187/56 135/186/56
f 135/186/56 92/188/56 91/185/56
f 92/189/60 135/191/60 132/190/60
f 132/190/60 81/192/60 92/189/60
f 90/193/61 129/195/61 136/194/61
f 136/194/61 91/196/61 90/193/61
f 88/197/54 138/199/54 137/198/54
f 137/198/54 89/200/54 88/197/54
f 89/201/62 137/203/62 130/202/62
f 130/202/62 87/204/62 89/201/62
f 86/205/63 127/207/63 138/206/63
f 138/206/63 88/208/63 86/205/63
f 84/209/52 140/211/52 139/210/52
f 139/210/52 85/212/52 84/209/52
f 85/213/64 139/215/64 128/214/64
f 128/214/64 83/216/64 85/213/64
f 82/217/65 125/219/65 140/218/65
f 140/218/65 84/220/65 82/217/65
f 141/221/25 142/222/25 125/158/25
f 125/158/25 126/159/25 141/221/25
f 143/223/26 144/224/26 127/162/26
f 127/162/26 128/163/26 143/223/26
f 145/225/27 146/226/27 129/166/27
f 129/166/27 130/167/27 145/225/27
f 147/227/28 148/228/28 131/170/28
f 131/170/28 132/171/28 147/227/28
f 149/229/29 150/231/29 133/230/29
f 133/230/29 134/232/29 149/229/29
f 133/179/66 150/234/66 141/233/66
f 141/233/66 126/178/66 133/179/66
f 148/235/67 149/236/67 134/182/67
f 134/182/67 131/183/67 148/235/67
f 151/237/34 152/239/34 135/238/34
f 135/238/34 136/240/34 151/237/34
f 135/191/68 152/242/68 147/241/68
f 147/241/68 132/190/68 135/191/68
f 146/243/69 151/244/69 136/194/69
f 136/194/69 129/195/69 146/243/69
f 153/245/39 154/247/39 137/246/39
f 137/246/39 138/248/39 153/245/39
f 137/203/70 154/250/70 145/249/70
f 145/249/70 130/202/70 137/203/70
f 144/251/71 153/252/71 138/206/71
f 138/206/71 127/207/71 144/251/71
f 155/253/44 156/255/44 139/254/44
f 139/254/44 140/256/44 155/253/44
f 139/215/72 156/258/72 143/257/72
f 143/257/72 128/214/72 139/215/72
f 142/259/73 155/260/73 140/218/73
f 140/218/73 125/219/73 142/259/73
f 162/266/49 160/264/49 157/261/49
f 157/261/49 158/262/49 162/266/49
f 165/269/74 167/271/74 166/270/74
f 166/270/74 168/272/74 165/269/74
f 169/273/75 165/275/75 168/274/75
f 168/274/75 170/276/75 169/273/75
f 171/277/76 169/279/76 170/278/76
f 170/278/76 172/280/76 171/277/76
f 173/281/77 171/283/77 172/282/77
f 172/282/77 174/284/77 173/281/77
f 175/285/78 173/287/78 174/286/78
f 174/286/78 176/288/78 175/285/78
f 177/289/79 175/291/79 176/290/79
f 176/290/79 178/292/79 177/289/79
f 179/293/80 177/295/80 178/294/80
f 178/294/80 180/296/80 179/293/80
f 167/297/81 179/299/81 180/298/81
f 180/298/81 166/300/81 167/297/81
f 177/301/49 179/303/49 161/302/49
f 161/302/49 160/304/49 177/301/49
f 157/305/49 161/302/49 179/303/49
f 179/303/49 167/307/49 157/305/49
f 175/306/49 177/301/49 160/304/49
f 160/304/49 164/308/49 175/306/49
f 159/309/49 157/305/49 167/307/49
f 167/307/49 165/311/49 159/309/49
f 173/310/49 175/306/49 164/308/49
f 164/308/49 162/312/49 173/310/49
f 158/313/49 159/309/49 165/311/49
f 165/311/49 169/315/49 158/313/49
f 171/314/49 173/310/49 162/312/49
f 162/312/49 163/316/49 171/314/49
f 163/316/49 158/313/49 169/315/49
f 169/315/49 171/314/49 163/316/49

