# ProBuilder 5.0.6
# https://unity3d.com/unity/features/worldbuilding/probuilder
# 3/31/2023 6:54:37 PM

mtllib ./TB_MageTower_Lvl1.mtl
o TB_MageTower_Lvl1

g TB_MageTower_Lvl1
v -3.088961 -2.066839E-07 1.27949
v -1.255201 0.7999997 3.030324
v -1.279489 -2.922953E-07 3.088961
v -3.030324 0.7999997 1.255202
v 1.255202 0.7999998 3.030324
v 1.27949 -2.066839E-07 3.088961
v 3.030324 0.8 1.255201
v 3.088961 1.359676E-13 1.27949
v 3.030324 0.8000001 -1.255202
v 3.088961 2.066841E-07 -1.27949
v 1.255201 0.8000003 -3.030324
v 1.279489 2.922951E-07 -3.088962
v -1.255202 0.8000001 -3.030324
v -1.27949 2.06684E-07 -3.088961
v -3.030325 0.8 -1.255202
v -3.088962 9.14061E-14 -1.27949
v 1.25629E-07 2.674755 -2.42178
v 2.120152E-07 1.686613 -2.820577
v 0.4954023 1.648211 -2.602788
v -0.4954018 1.648211 -2.602788
v 2.727999E-07 0.9913164 -2.718616
v 2.421779 2.674755 1.281428E-07
v 2.820576 1.686613 2.097734E-07
v 2.602787 1.648211 0.4954023
v 2.602787 1.648211 -0.4954018
v 2.718615 0.9913169 2.71774E-07
v -3.530974E-07 2.674755 2.421779
v -2.318474E-07 1.686613 2.820576
v -0.4954023 1.648211 2.602787
v 0.4954018 1.648211 2.602787
v -1.799763E-07 0.9913169 2.718615
v -2.42178 2.674755 -3.438826E-07
v -2.820576 1.686613 -2.400645E-07
v -2.602787 1.648211 -0.4954023
v -2.602787 1.648211 0.4954018
v -2.718615 0.9913164 -1.837366E-07
v -2.791839 0.784 1.156418
v -0.9987219 2.921902 2.41113
v -1.156417 0.784 2.79184
v -2.411129 2.921903 0.9987233
v 0.9987234 2.921903 2.411129
v 1.156418 0.784 2.79184
v 2.41113 2.921902 0.9987221
v 2.79184 0.7840003 1.156418
v 2.411129 2.921903 -0.9987227
v 2.79184 0.7840003 -1.156417
v 0.9987221 2.921902 -2.41113
v 1.156417 0.7840008 -2.791839
v -0.9987229 2.921902 -2.411129
v -1.156418 0.7840003 -2.791839
v -2.411129 2.921902 -0.9987221
v -2.791839 0.7840003 -1.156417
v -1.595285 5.000479 0.6607888
v 0.6607888 5.000478 1.595284
v -0.6607885 5.000478 1.595285
v -0.6607888 5.000478 -1.595285
v -1.595285 5.000478 -0.6607887
v 1.595284 5.000478 -0.6607886
v 1.595285 5.000478 0.6607887
v 0.6607879 5.000479 -1.595285
v 0.9987234 5.000479 2.411129
v -0.9987226 5.000478 2.41113
v 2.411129 5.000479 -0.9987231
v 2.41113 5.000478 0.9987226
v -0.9987231 5.000478 -2.41113
v 0.9987224 5.000478 -2.41113
v -2.411129 5.000479 0.9987233
v -2.41113 5.000478 -0.9987227
v -2.112837 5.000478 3.051946
v -3.051945 3.744266 2.112838
v -3.051945 5.000478 2.112838
v -2.112837 3.744265 3.051946
v -2.874802 5.058595 2.382215
v -1.29949 5.058595 1.792077
v -2.382215 5.058595 2.874802
v -1.792077 5.058595 1.29949
v -2.874801 3.845455 2.382215
v -2.382215 3.845455 2.874801
v -1.29949 3.845455 1.792076
v -1.792076 3.845455 1.29949
v -3.051946 5.000477 -2.112837
v -2.112838 3.744266 -3.051945
v -2.112838 5.000478 -3.051946
v -3.051946 3.744265 -2.112837
v -2.382215 5.058594 -2.874802
v -1.792077 5.058595 -1.29949
v -2.874802 5.058594 -2.382215
v -1.29949 5.058595 -1.792077
v -2.382215 3.845455 -2.874802
v -2.874801 3.845455 -2.382215
v -1.792076 3.845455 -1.29949
v -1.29949 3.845455 -1.792076
v 2.112837 5.000477 -3.051946
v 3.051945 3.744266 -2.112838
v 3.051946 5.000478 -2.112838
v 2.112837 3.744265 -3.051945
v 2.874802 5.058595 -2.382215
v 1.29949 5.058595 -1.792076
v 2.382216 5.058595 -2.874802
v 1.792077 5.058595 -1.29949
v 2.874802 3.845455 -2.382215
v 2.382215 3.845455 -2.874801
v 1.29949 3.845455 -1.792076
v 1.792077 3.845455 -1.29949
v 3.051947 5.000478 2.112837
v 2.112839 3.744266 3.051945
v 2.112839 5.000479 3.051945
v 3.051946 3.744266 2.112836
v 2.382216 5.058595 2.874802
v 1.792077 5.058595 1.29949
v 2.874802 5.058595 2.382215
v 1.299491 5.058595 1.792076
v 2.382216 3.845456 2.874801
v 2.874802 3.845456 2.382215
v 1.792077 3.845456 1.29949
v 1.29949 3.845456 1.792076
v -1.243828 5.214834 0.5152107
v 0.5152107 5.214834 1.243828
v -0.5152104 5.214833 1.243828
v -0.5152106 5.214833 -1.243828
v -1.243829 5.214833 -0.5152106
v 1.243828 5.214833 -0.5152106
v 1.243829 5.214833 0.5152106
v 0.5152102 5.214834 -1.243829
v -1.243828 4.962983 0.5152108
v -0.5152104 4.962983 1.243828
v 0.5152106 4.962983 1.243828
v 1.243828 4.962983 0.5152106
v 1.243828 4.962983 -0.5152105
v 0.5152101 4.962984 -1.243828
v -0.5152106 4.962983 -1.243828
v -1.243828 4.962983 -0.5152104
v -0.1949538 5.471585 0.08075252
v 0.08075258 5.471585 0.1949538
v -0.08075256 5.471585 0.1949539
v -0.08075262 5.471585 -0.1949539
v -0.194954 5.471585 -0.08075263
v 0.1949538 5.471585 -0.08075257
v 0.1949539 5.471585 0.08075254
v 0.08075241 5.471585 -0.1949539
v -0.1821901 5.471585 0.4398457
v -0.5462333 5.191843 0.2262574
v -0.4398457 5.471585 0.1821901
v -0.2262572 5.191843 0.5462335
v 0.1821901 5.471585 0.4398456
v 0.2262574 5.191843 0.5462333
v 0.4398458 5.471585 0.1821901
v 0.5462335 5.191843 0.2262573
v 0.4398456 5.471585 -0.1821902
v 0.5462332 5.191843 -0.2262573
v 0.1821899 5.471585 -0.4398458
v 0.2262571 5.191843 -0.5462335
v -0.1821901 5.471585 -0.4398458
v -0.2262573 5.191843 -0.5462334
v -0.4398458 5.471585 -0.1821901
v -0.5462335 5.191843 -0.2262572

vt 0.1703816 0.33073
vt 0.1633831 0.3510194
vt 0.1703816 0.3510194
vt 0.1633831 0.33073
vt 0.1786401 0.2686014
vt 0.1716416 0.2888909
vt 0.1786401 0.2888909
vt 0.1716416 0.2686014
vt 0.1716416 0.3091804
vt 0.1786401 0.3091804
vt 0.1703816 0.2686014
vt 0.1633831 0.2888909
vt 0.1703816 0.2888909
vt 0.1633831 0.2686014
vt 0.1633831 0.3091804
vt 0.1703816 0.3091804
vt 0.1786401 0.3104405
vt 0.1716416 0.33073
vt 0.1786401 0.33073
vt 0.1716416 0.3104405
vt 0.1716416 0.3510194
vt 0.1786401 0.3510194
vt 0.1703816 0.3104405
vt 0.1633831 0.3104405
vt 0.05598937 0.8225259
vt 0.03562797 0.8160397
vt 0.03562797 0.829012
vt 0.07803856 0.7932056
vt 0.05767717 0.7867194
vt 0.05767717 0.7996918
vt 0.05767717 0.8225259
vt 0.07162743 0.829012
vt 0.07162743 0.8160397
vt 0.07331522 0.8078657
vt 0.08726547 0.8143519
vt 0.08726547 0.8013796
vt 0.3914355 0.2900334
vt 0.415896 0.2709475
vt 0.3914355 0.2690825
vt 0.415896 0.2881684
vt 0.4189405 0.2900334
vt 0.4429831 0.2709475
vt 0.4189405 0.2690825
vt 0.4429831 0.2881684
vt 0.374321 0.3346528
vt 0.3987815 0.315567
vt 0.374321 0.313702
vt 0.3987815 0.3327879
vt 0.4018261 0.3346528
vt 0.4258686 0.315567
vt 0.4018261 0.313702
vt 0.4258686 0.3327879
vt 0.346816 0.3346529
vt 0.3712765 0.315567
vt 0.346816 0.313702
vt 0.3712765 0.3327879
vt 0.4018261 0.3586482
vt 0.4258686 0.3395624
vt 0.4018261 0.3376974
vt 0.4258686 0.3567833
vt 0.346816 0.3586482
vt 0.3712765 0.3395624
vt 0.346816 0.3376974
vt 0.3712765 0.3567833
vt 0.374321 0.3586482
vt 0.3983636 0.3395624
vt 0.374321 0.3376974
vt 0.3983636 0.3567833
vt 0.6073728 0.3460513
vt 0.5664963 0.3286483
vt 0.5833302 0.3458156
vt 0.6247758 0.3051748
vt 0.6245401 0.3292173
vt 0.5838993 0.2877718
vt 0.5667319 0.3046057
vt 0.6079417 0.2880074
vt 0.0197908 0.7932854
vt 0.05119777 0.7802762
vt 0.03279999 0.7802762
vt 0.03279999 0.8246924
vt 0.0197908 0.8116832
vt 0.06420696 0.8116832
vt 0.06420696 0.7932854
vt 0.05119777 0.8246924
vt 0.3083635 0.3320948
vt 0.3361701 0.3610308
vt 0.3361701 0.3320948
vt 0.3083635 0.3610308
vt 0.3784947 0.2619636
vt 0.4063013 0.2908996
vt 0.4063013 0.2619636
vt 0.3784947 0.2908996
vt 0.3784947 0.3320948
vt 0.4063013 0.3610308
vt 0.4063013 0.3320948
vt 0.3784947 0.3610308
vt 0.3877685 0.2938997
vt 0.3588325 0.3217063
vt 0.3877685 0.3217064
vt 0.3588325 0.2938997
vt 0.6388072 0.275238
vt 0.6610401 0.2962674
vt 0.6610401 0.275238
vt 0.6388072 0.2962675
vt 0.8037987 0.2966529
vt 0.831634 0.3174265
vt 0.8372366 0.2966529
vt 0.8094012 0.3174265
vt 0.4015781 0.3396918
vt 0.3805486 0.3189182
vt 0.3667819 0.3396918
vt 0.4015781 0.3189182
vt 0.1343776 0.2061436
vt 0.1065421 0.1853701
vt 0.1009396 0.2061436
vt 0.128775 0.1853701
vt 0.3667819 0.2958459
vt 0.4015781 0.3166195
vt 0.4015781 0.295846
vt 0.3805486 0.3166195
vt 0.6376507 0.9578019
vt 0.612488 0.9319808
vt 0.612488 0.9578019
vt 0.6376507 0.9319808
vt 0.1517572 0.9267282
vt 0.1361814 0.9518909
vt 0.1517572 0.9518909
vt 0.1361814 0.9267282
vt 0.4056888 0.9428024
vt 0.3901129 0.9686235
vt 0.4056888 0.9686235
vt 0.3901129 0.9428024
vt 0.4223393 0.9159067
vt 0.4067635 0.9410694
vt 0.4223393 0.9410694
vt 0.4067635 0.9159067
vt 0.4056888 0.9159067
vt 0.3901129 0.9417277
vt 0.4056888 0.9417277
vt 0.3901129 0.9159067
vt 0.8340428 0.04422735
vt 0.8684618 0.02997057
vt 0.8482996 0.02997051
vt 0.8482996 0.0786465
vt 0.8340428 0.06438957
vt 0.8827188 0.06438963
vt 0.8827188 0.04422735
vt 0.8684618 0.0786465
vt 0.5944243 0.04836491
vt 0.6158632 0.05577537
vt 0.6158632 0.04836491
vt 0.5944243 0.05577537
vt 0.6158632 0.06816694
vt 0.6461824 0.07557741
vt 0.6461824 0.06816694
vt 0.6158632 0.07557741
vt 0.5944243 0.06816694
vt 0.5944243 0.07557741
vt 0.6158632 0.05826595
vt 0.6461824 0.06567636
vt 0.6461824 0.05826595
vt 0.6158632 0.06567636
vt 0.5944243 0.05826595
vt 0.5944243 0.06567636
vt 0.6486729 0.06816694
vt 0.6789921 0.07557741
vt 0.6789921 0.06816694
vt 0.6486729 0.07557741
vt 0.6461824 0.04836491
vt 0.6676213 0.05577537
vt 0.6676213 0.04836491
vt 0.6461824 0.05577537
vt 0.05466017 0.8251026
vt 0.04689887 0.806365
vt 0.04689884 0.8173412
vt 0.07339767 0.8173412
vt 0.06563634 0.8251026
vt 0.06563634 0.7986037
vt 0.05466017 0.7986037
vt 0.07339767 0.806365
vt 0.09001851 0.226311
vt 0.1103587 0.1985522
vt 0.09001848 0.201547
vt 0.1103587 0.2293059
vt 0.1738135 0.1646909
vt 0.1928252 0.1369321
vt 0.1738135 0.139927
vt 0.1928252 0.1676858
vt 0.1121934 0.226311
vt 0.1325336 0.1985522
vt 0.1121934 0.2015471
vt 0.1325336 0.2293059
vt 0.172485 0.2298677
vt 0.1914968 0.2021088
vt 0.172485 0.2051037
vt 0.1914968 0.2328625
vt 0.1516386 0.1646909
vt 0.1719788 0.1369321
vt 0.1516386 0.139927
vt 0.1719788 0.1676858
vt 0.1738135 0.1972793
vt 0.1928252 0.1695205
vt 0.1738135 0.1725153
vt 0.1928252 0.2002741
vt 0.1516386 0.1972793
vt 0.1719788 0.1695205
vt 0.1516386 0.1725153
vt 0.1719788 0.2002742
vt 0.1516386 0.2298677
vt 0.1706503 0.2021088
vt 0.1516386 0.2051037
vt 0.1706503 0.2328625
vt 0.4074031 0.1833283
vt 0.3829985 0.1841958
vt 0.3898924 0.2008391
vt 0.3907599 0.1764345
vt 0.3720224 0.1841958
vt 0.4074031 0.1585644
vt 0.3651285 0.2008391
vt 0.3907599 0.1654583
vt 0.364261 0.1764345
vt 0.3898924 0.1410537
vt 0.3476177 0.1833283
vt 0.3829985 0.157697
vt 0.3642611 0.1654583
vt 0.3651285 0.1410537
vt 0.3476178 0.1585644
vt 0.3720224 0.157697
vt 0.8173178 0.3191535
vt 0.8256227 0.3435202
vt 0.830327 0.3321627
vt 0.8173178 0.3007558
vt 0.8059604 0.3238579
vt 0.8534292 0.3435202
vt 0.8059604 0.2960514
vt 0.8487248 0.3321627
vt 0.830327 0.2877466
vt 0.8730915 0.3238579
vt 0.861734 0.3191535
vt 0.8487248 0.2877466
vt 0.8256227 0.2763891
vt 0.8730915 0.2960514
vt 0.8534293 0.2763892
vt 0.861734 0.3007558

vn -0.705215 0.07309964 0.7052151
vn 9.086074E-08 0.07309975 0.9973247
vn 0.7052151 0.07309988 0.705215
vn 0.9973246 0.07310004 -8.916263E-08
vn 0.7052149 0.07310009 -0.7052151
vn -1.432377E-07 0.07310019 -0.9973246
vn -0.705215 0.07309987 -0.7052151
vn -0.9973247 0.0730999 1.467025E-07
vn 0.4001902 0.342977 -0.8498321
vn -0.4001903 0.3429769 -0.8498321
vn 0.3901433 -0.1335937 -0.9110109
vn -0.3901433 -0.1335938 -0.9110109
vn 0.8498321 0.3429772 0.4001902
vn 0.8498321 0.3429771 -0.4001902
vn 0.9110109 -0.1335937 0.3901433
vn 0.9110109 -0.1335938 -0.3901433
vn -0.4001902 0.342977 0.8498321
vn 0.4001906 0.3429771 0.8498319
vn -0.3901433 -0.1335938 0.9110109
vn 0.3901437 -0.1335937 0.9110108
vn -0.8498322 0.3429769 -0.4001903
vn -0.8498321 0.342977 0.4001902
vn -0.9110109 -0.1335938 -0.3901433
vn -0.9110109 -0.1335937 0.3901433
vn -0.6961549 0.1753184 0.696155
vn 2.140998E-07 0.1753185 0.9845117
vn 0.696155 0.1753186 0.696155
vn 0.9845118 0.1753186 -2.728564E-07
vn 0.696155 0.1753184 -0.696155
vn -4.110847E-07 0.1753184 -0.9845118
vn -0.696155 0.1753184 -0.696155
vn -0.9845119 0.1753184 3.186795E-07
vn -3.318004E-08 1 8.473983E-08
vn 4.77447E-07 -1.147028E-07 1
vn 1 -2.867571E-07 -5.37128E-07
vn -4.177662E-07 -4.014599E-07 -1
vn -1 -4.588113E-07 4.774471E-07
vn -0.7071065 -2.679461E-07 0.7071071
vn -0.8668391 -1.988578E-07 -0.4985881
vn -0.3906131 -0.8335724 0.390613
vn 0.4985883 -4.096979E-08 0.8668389
vn 0.7071067 -6.417502E-08 0.7071069
vn 0.7071068 3.173834E-07 -0.7071067
vn -0.7071069 3.208752E-08 -0.7071067
vn 0.4985881 -3.844963E-07 -0.8668391
vn -0.390613 -0.8335724 -0.3906131
vn -0.8668389 -1.901131E-07 0.4985883
vn 0.866839 -1.761421E-07 0.4985882
vn 0.3906133 -0.8335724 -0.390613
vn -0.4985878 -1.335765E-07 -0.8668392
vn -0.4985881 -4.971445E-08 0.8668391
vn 0.3906132 -0.8335723 0.3906132
vn 0.8668389 -2.837977E-07 -0.4985883
vn -0.6609247 0.3554678 0.6609246
vn 4.14016E-07 0.3554679 0.9346885
vn 0.6609244 0.3554679 0.6609248
vn 0.9346886 0.3554677 -4.755739E-07
vn 0.6609247 0.3554678 -0.6609244
vn -3.486267E-07 0.3554678 -0.9346886
vn -0.6609247 0.3554675 -0.6609248
vn -0.9346886 0.3554677 4.755739E-07

usemtl Towers_Blue
f 19/27/9 18/26/9 17/25/9
f 18/30/10 20/29/10 17/28/10
f 18/33/11 19/32/11 21/31/11
f 20/36/12 18/35/12 21/34/12
f 24/27/13 23/26/13 22/25/13
f 23/30/14 25/29/14 22/28/14
f 23/33/15 24/32/15 26/31/15
f 25/36/16 23/35/16 26/34/16
f 29/27/17 28/26/17 27/25/17
f 28/30/18 30/29/18 27/28/18
f 28/33/19 29/32/19 31/31/19
f 30/36/20 28/35/20 31/34/20
f 34/27/21 33/26/21 32/25/21
f 33/30/22 35/29/22 32/28/22
f 33/33/23 34/32/23 36/31/23
f 35/36/24 33/35/24 36/34/24
f 2/71/33 5/70/33 4/69/33
f 4/69/33 13/72/33 15/73/33
f 7/75/33 9/74/33 5/70/33
f 11/76/33 13/72/33 9/74/33
f 55/79/33 54/78/33 53/77/33
f 53/77/33 56/80/33 57/81/33
f 59/83/33 58/82/33 54/78/33
f 60/84/33 56/80/33 58/82/33
f 69/108/33 62/105/33 71/106/33
f 81/108/33 68/105/33 83/106/33
f 93/108/33 66/105/33 95/106/33
f 105/108/33 64/105/33 107/106/33
f 119/143/33 118/142/33 117/141/33
f 117/141/33 120/144/33 121/145/33
f 123/147/33 122/146/33 118/142/33
f 124/148/33 120/144/33 122/146/33
f 135/175/33 134/174/33 133/173/33
f 133/173/33 136/176/33 137/177/33
f 139/179/33 138/178/33 134/174/33
f 140/180/33 136/176/33 138/178/33
f 56/231/33 65/230/33 57/229/33
f 53/232/33 67/235/33 55/237/33
f 58/239/33 63/238/33 60/236/33
f 54/240/33 61/243/33 59/244/33
f 1/1/1 3/3/1 2/2/1
f 2/2/1 4/4/1 1/1/1
f 3/5/2 6/7/2 5/6/2
f 5/6/2 2/8/2 3/5/2
f 6/7/3 8/10/3 7/9/3
f 7/9/3 5/6/3 6/7/3
f 8/11/4 10/13/4 9/12/4
f 9/12/4 7/14/4 8/11/4
f 10/13/5 12/16/5 11/15/5
f 11/15/5 9/12/5 10/13/5
f 12/17/6 14/19/6 13/18/6
f 13/18/6 11/20/6 12/17/6
f 14/19/7 16/22/7 15/21/7
f 15/21/7 13/18/7 14/19/7
f 16/23/8 1/1/8 4/4/8
f 4/4/8 15/24/8 16/23/8
f 37/37/25 39/39/25 38/38/25
f 38/38/25 40/40/25 37/37/25
f 39/41/26 42/43/26 41/42/26
f 41/42/26 38/44/26 39/41/26
f 42/45/27 44/47/27 43/46/27
f 43/46/27 41/48/27 42/45/27
f 44/49/28 46/51/28 45/50/28
f 45/50/28 43/52/28 44/49/28
f 46/53/29 48/55/29 47/54/29
f 47/54/29 45/56/29 46/53/29
f 48/57/30 50/59/30 49/58/30
f 49/58/30 47/60/30 48/57/30
f 50/61/31 52/63/31 51/62/31
f 51/62/31 49/64/31 50/61/31
f 52/65/32 37/67/32 40/66/32
f 40/66/32 51/68/32 52/65/32
f 9/74/33 13/72/33 4/69/33
f 4/69/33 5/70/33 9/74/33
f 58/82/33 56/80/33 53/77/33
f 53/77/33 54/78/33 58/82/33
f 61/85/34 62/87/34 38/86/34
f 38/86/34 41/88/34 61/85/34
f 63/89/35 64/91/35 43/90/35
f 43/90/35 45/92/35 63/89/35
f 65/93/36 66/95/36 47/94/36
f 47/94/36 49/96/36 65/93/36
f 67/97/37 68/99/37 51/98/37
f 51/98/37 40/100/37 67/97/37
f 69/101/38 71/103/38 70/102/38
f 70/102/38 72/104/38 69/101/38
f 67/107/33 71/106/33 62/105/33
f 62/105/33 55/237/33 67/107/33
f 67/109/39 40/111/39 70/110/39
f 70/110/39 71/112/39 67/109/39
f 40/113/40 38/115/40 72/114/40
f 72/114/40 70/116/40 40/113/40
f 38/117/41 62/119/41 69/118/41
f 69/118/41 72/120/41 38/117/41
f 73/121/33 75/123/33 74/122/33
f 74/122/33 76/124/33 73/121/33
f 77/125/38 78/127/38 75/126/38
f 75/126/38 73/128/38 77/125/38
f 78/129/42 79/131/42 74/130/42
f 74/130/42 75/132/42 78/129/42
f 79/133/43 80/135/43 76/134/43
f 76/134/43 74/136/43 79/133/43
f 80/137/44 77/139/44 73/138/44
f 73/138/44 76/140/44 80/137/44
f 81/101/44 83/103/44 82/102/44
f 82/102/44 84/104/44 81/101/44
f 65/107/33 83/106/33 68/105/33
f 68/105/33 57/229/33 65/107/33
f 65/109/45 49/111/45 82/110/45
f 82/110/45 83/112/45 65/109/45
f 49/113/46 51/115/46 84/114/46
f 84/114/46 82/116/46 49/113/46
f 51/117/47 68/119/47 81/118/47
f 81/118/47 84/120/47 51/117/47
f 85/121/33 87/123/33 86/122/33
f 86/122/33 88/124/33 85/121/33
f 89/125/44 90/127/44 87/126/44
f 87/126/44 85/128/44 89/125/44
f 90/129/38 91/131/38 86/130/38
f 86/130/38 87/132/38 90/129/38
f 91/133/42 92/135/42 88/134/42
f 88/134/42 86/136/42 91/133/42
f 92/137/43 89/139/43 85/138/43
f 85/138/43 88/140/43 92/137/43
f 93/101/43 95/103/43 94/102/43
f 94/102/43 96/104/43 93/101/43
f 63/107/33 95/106/33 66/105/33
f 66/105/33 60/236/33 63/107/33
f 63/109/48 45/111/48 94/110/48
f 94/110/48 95/112/48 63/109/48
f 45/113/49 47/115/49 96/114/49
f 96/114/49 94/116/49 45/113/49
f 47/117/50 66/119/50 93/118/50
f 93/118/50 96/120/50 47/117/50
f 97/121/33 99/123/33 98/122/33
f 98/122/33 100/124/33 97/121/33
f 101/125/43 102/127/43 99/126/43
f 99/126/43 97/128/43 101/125/43
f 102/129/44 103/131/44 98/130/44
f 98/130/44 99/132/44 102/129/44
f 103/133/38 104/135/38 100/134/38
f 100/134/38 98/136/38 103/133/38
f 104/137/42 101/139/42 97/138/42
f 97/138/42 100/140/42 104/137/42
f 105/101/42 107/103/42 106/102/42
f 106/102/42 108/104/42 105/101/42
f 61/107/33 107/106/33 64/105/33
f 64/105/33 59/244/33 61/107/33
f 61/109/51 41/111/51 106/110/51
f 106/110/51 107/112/51 61/109/51
f 41/113/52 43/115/52 108/114/52
f 108/114/52 106/116/52 41/113/52
f 43/117/53 64/119/53 105/118/53
f 105/118/53 108/120/53 43/117/53
f 109/121/33 111/123/33 110/122/33
f 110/122/33 112/124/33 109/121/33
f 113/125/42 114/127/42 111/126/42
f 111/126/42 109/128/42 113/125/42
f 114/129/43 115/131/43 110/130/43
f 110/130/43 111/132/43 114/129/43
f 115/133/44 116/135/44 112/134/44
f 112/134/44 110/136/44 115/133/44
f 116/137/38 113/139/38 109/138/38
f 109/138/38 112/140/38 116/137/38
f 122/146/33 120/144/33 117/141/33
f 117/141/33 118/142/33 122/146/33
f 119/149/38 117/151/38 125/150/38
f 125/150/38 126/152/38 119/149/38
f 118/153/34 119/155/34 126/154/34
f 126/154/34 127/156/34 118/153/34
f 123/157/42 118/153/42 127/156/42
f 127/156/42 128/158/42 123/157/42
f 122/159/35 123/161/35 128/160/35
f 128/160/35 129/162/35 122/159/35
f 124/163/43 122/159/43 129/162/43
f 129/162/43 130/164/43 124/163/43
f 120/165/36 124/167/36 130/166/36
f 130/166/36 131/168/36 120/165/36
f 121/169/44 120/171/44 131/170/44
f 131/170/44 132/172/44 121/169/44
f 117/151/37 121/169/37 132/172/37
f 132/172/37 125/150/37 117/151/37
f 138/178/33 136/176/33 133/173/33
f 133/173/33 134/174/33 138/178/33
f 141/181/54 143/183/54 142/182/54
f 142/182/54 144/184/54 141/181/54
f 145/185/55 141/187/55 144/186/55
f 144/186/55 146/188/55 145/185/55
f 147/189/56 145/191/56 146/190/56
f 146/190/56 148/192/56 147/189/56
f 149/193/57 147/195/57 148/194/57
f 148/194/57 150/196/57 149/193/57
f 151/197/58 149/199/58 150/198/58
f 150/198/58 152/200/58 151/197/58
f 153/201/59 151/203/59 152/202/59
f 152/202/59 154/204/59 153/201/59
f 155/205/60 153/207/60 154/206/60
f 154/206/60 156/208/60 155/205/60
f 143/209/61 155/211/61 156/210/61
f 156/210/61 142/212/61 143/209/61
f 153/213/33 155/215/33 137/214/33
f 137/214/33 136/216/33 153/213/33
f 133/217/33 137/214/33 155/215/33
f 155/215/33 143/219/33 133/217/33
f 151/218/33 153/213/33 136/216/33
f 136/216/33 140/220/33 151/218/33
f 135/221/33 133/217/33 143/219/33
f 143/219/33 141/223/33 135/221/33
f 149/222/33 151/218/33 140/220/33
f 140/220/33 138/224/33 149/222/33
f 134/225/33 135/221/33 141/223/33
f 141/223/33 145/227/33 134/225/33
f 147/226/33 149/222/33 138/224/33
f 138/224/33 139/228/33 147/226/33
f 139/228/33 134/225/33 145/227/33
f 145/227/33 147/226/33 139/228/33
f 53/232/33 57/229/33 68/233/33
f 68/233/33 67/235/33 53/232/33
f 66/234/33 65/230/33 56/231/33
f 56/231/33 60/236/33 66/234/33
f 54/240/33 55/237/33 62/241/33
f 62/241/33 61/243/33 54/240/33
f 64/242/33 63/238/33 58/239/33
f 58/239/33 59/244/33 64/242/33

