# MagicaVoxel @ Ephtracy

# group
o 

# material
mtllib DefenderTower1.mtl
usemtl palette

# normals
vn -1 0 0
vn 1 0 0
vn 0 0 1
vn 0 0 -1
vn 0 -1 0
vn 0 1 0

# texcoords
vt 0.533203 0.5
vt 0.861328 0.5
vt 0.974609 0.5
vt 0.982422 0.5

# verts
v -1 0 1
v -1 0 -1
v -1 0.1 1
v -1 0.1 -1
v -1 0.7 0.4
v -1 0.7 0.1
v -1 0.7 -0.1
v -1 0.7 -0.4
v -1 1 0.5
v -1 1 0.4
v -1 1 -0.4
v -1 1 -0.5
v -1 1.1 0.5
v -1 1.1 0.1
v -1 1.1 -0.1
v -1 1.1 -0.5
v -1 1.3 0.5
v -1 1.3 0.1
v -1 1.3 -0.1
v -1 1.3 -0.5
v -1 1.6 1
v -1 1.6 0.5
v -1 1.6 0.1
v -1 1.6 -0.1
v -1 1.6 -0.5
v -1 1.6 -1
v -1 1.7 1
v -1 1.7 -1
v -0.9 0.1 0.9
v -0.9 0.1 -0.9
v -0.9 0.7 0.4
v -0.9 0.7 0.1
v -0.9 0.7 -0.1
v -0.9 0.7 -0.4
v -0.9 1 0.5
v -0.9 1 0.4
v -0.9 1 -0.4
v -0.9 1 -0.5
v -0.9 1.1 0.5
v -0.9 1.1 -0.5
v -0.9 1.3 0.5
v -0.9 1.3 -0.5
v -0.9 1.6 0.9
v -0.9 1.6 0.5
v -0.9 1.6 -0.5
v -0.9 1.6 -0.9
v -0.5 1 1
v -0.5 1 0.9
v -0.5 1 -0.9
v -0.5 1 -1
v -0.5 1.1 1
v -0.5 1.1 0.9
v -0.5 1.1 -0.9
v -0.5 1.1 -1
v -0.5 1.3 1
v -0.5 1.3 0.9
v -0.5 1.3 -0.9
v -0.5 1.3 -1
v -0.5 1.6 1
v -0.5 1.6 0.9
v -0.5 1.6 -0.9
v -0.5 1.6 -1
v -0.4 0.1 -0.9
v -0.4 0.1 -1
v -0.4 0.7 1
v -0.4 0.7 0.9
v -0.4 0.7 -0.9
v -0.4 0.7 -1
v -0.4 1 1
v -0.4 1 0.9
v -0.4 1 -0.9
v -0.4 1 -1
v 0.2 0.5 -0.9
v 0.2 0.5 -1
v 0.2 0.6 -0.9
v 0.2 0.6 -1
v 0.3 0 -0.9
v 0.3 0 -1
v 0.3 0.5 -0.9
v 0.3 0.5 -1
v 0.9 1.6 0.9
v 0.9 1.6 -0.9
v 0.9 1.7 0.9
v 0.9 1.7 -0.9
v -0.9 1.6 0.9
v -0.9 1.6 -0.9
v -0.9 1.7 0.9
v -0.9 1.7 -0.9
v -0.3 0 -0.9
v -0.3 0 -1
v -0.3 0.5 -0.9
v -0.3 0.5 -1
v -0.2 0.5 -0.9
v -0.2 0.5 -1
v -0.2 0.6 -0.9
v -0.2 0.6 -1
v 0.4 0.1 -0.9
v 0.4 0.1 -1
v 0.4 0.7 1
v 0.4 0.7 0.9
v 0.4 0.7 -0.9
v 0.4 0.7 -1
v 0.4 1 1
v 0.4 1 0.9
v 0.4 1 -0.9
v 0.4 1 -1
v 0.5 1 1
v 0.5 1 0.9
v 0.5 1 -0.9
v 0.5 1 -1
v 0.5 1.1 1
v 0.5 1.1 0.9
v 0.5 1.1 -0.9
v 0.5 1.1 -1
v 0.5 1.3 1
v 0.5 1.3 0.9
v 0.5 1.3 -0.9
v 0.5 1.3 -1
v 0.5 1.6 1
v 0.5 1.6 0.9
v 0.5 1.6 -0.9
v 0.5 1.6 -1
v 0.9 0.1 0.9
v 0.9 0.1 -0.9
v 0.9 0.7 0.4
v 0.9 0.7 0.1
v 0.9 0.7 -0.1
v 0.9 0.7 -0.4
v 0.9 1 0.5
v 0.9 1 0.4
v 0.9 1 -0.4
v 0.9 1 -0.5
v 0.9 1.1 0.5
v 0.9 1.1 -0.5
v 0.9 1.3 0.5
v 0.9 1.3 -0.5
v 0.9 1.6 0.9
v 0.9 1.6 0.5
v 0.9 1.6 -0.5
v 0.9 1.6 -0.9
v 1 0 1
v 1 0 -1
v 1 0.1 1
v 1 0.1 -1
v 1 0.7 0.4
v 1 0.7 0.1
v 1 0.7 -0.1
v 1 0.7 -0.4
v 1 1 0.5
v 1 1 0.4
v 1 1 -0.4
v 1 1 -0.5
v 1 1.1 0.5
v 1 1.1 0.1
v 1 1.1 -0.1
v 1 1.1 -0.5
v 1 1.3 0.5
v 1 1.3 0.1
v 1 1.3 -0.1
v 1 1.3 -0.5
v 1 1.6 1
v 1 1.6 0.5
v 1 1.6 0.1
v 1 1.6 -0.1
v 1 1.6 -0.5
v 1 1.6 -1
v 1 1.7 1
v 1 1.7 -1
v -1 0 1
v -1 0.1 1
v -1 1.6 1
v -1 1.7 1
v -0.5 1 1
v -0.5 1.1 1
v -0.5 1.3 1
v -0.5 1.6 1
v -0.4 0.7 1
v -0.4 1 1
v -0.1 0.7 1
v -0.1 1.1 1
v -0.1 1.3 1
v -0.1 1.6 1
v 0.1 0.7 1
v 0.1 1.1 1
v 0.1 1.3 1
v 0.1 1.6 1
v 0.4 0.7 1
v 0.4 1 1
v 0.5 1 1
v 0.5 1.1 1
v 0.5 1.3 1
v 0.5 1.6 1
v 1 0 1
v 1 0.1 1
v 1 1.6 1
v 1 1.7 1
v -0.9 0.1 0.9
v -0.9 1.6 0.9
v -0.5 1 0.9
v -0.5 1.1 0.9
v -0.5 1.3 0.9
v -0.5 1.6 0.9
v -0.4 0.7 0.9
v -0.4 1 0.9
v -0.1 0.7 0.9
v 0.1 0.7 0.9
v 0.4 0.7 0.9
v 0.4 1 0.9
v 0.5 1 0.9
v 0.5 1.1 0.9
v 0.5 1.3 0.9
v 0.5 1.6 0.9
v 0.9 0.1 0.9
v 0.9 1.6 0.9
v -1 1 0.5
v -1 1.1 0.5
v -1 1.3 0.5
v -1 1.6 0.5
v -0.9 1 0.5
v -0.9 1.1 0.5
v -0.9 1.3 0.5
v -0.9 1.6 0.5
v 0.9 1 0.5
v 0.9 1.1 0.5
v 0.9 1.3 0.5
v 0.9 1.6 0.5
v 1 1 0.5
v 1 1.1 0.5
v 1 1.3 0.5
v 1 1.6 0.5
v -1 0.7 0.4
v -1 1 0.4
v -0.9 0.7 0.4
v -0.9 1 0.4
v 0.9 0.7 0.4
v 0.9 1 0.4
v 1 0.7 0.4
v 1 1 0.4
v -0.9 1.6 -0.9
v -0.9 1.7 -0.9
v 0.9 1.6 -0.9
v 0.9 1.7 -0.9
v -0.9 1.6 0.9
v -0.9 1.7 0.9
v 0.9 1.6 0.9
v 0.9 1.7 0.9
v -1 0.7 -0.4
v -1 1 -0.4
v -0.9 0.7 -0.4
v -0.9 1 -0.4
v 0.9 0.7 -0.4
v 0.9 1 -0.4
v 1 0.7 -0.4
v 1 1 -0.4
v -1 1 -0.5
v -1 1.1 -0.5
v -1 1.3 -0.5
v -1 1.6 -0.5
v -0.9 1 -0.5
v -0.9 1.1 -0.5
v -0.9 1.3 -0.5
v -0.9 1.6 -0.5
v 0.9 1 -0.5
v 0.9 1.1 -0.5
v 0.9 1.3 -0.5
v 0.9 1.6 -0.5
v 1 1 -0.5
v 1 1.1 -0.5
v 1 1.3 -0.5
v 1 1.6 -0.5
v -0.9 0.1 -0.9
v -0.9 1.6 -0.9
v -0.5 1 -0.9
v -0.5 1.1 -0.9
v -0.5 1.3 -0.9
v -0.5 1.6 -0.9
v -0.4 0.1 -0.9
v -0.4 0.7 -0.9
v -0.4 1 -0.9
v -0.3 0 -0.9
v -0.3 0.5 -0.9
v -0.2 0.5 -0.9
v -0.2 0.6 -0.9
v 0.2 0.5 -0.9
v 0.2 0.6 -0.9
v 0.3 0 -0.9
v 0.3 0.5 -0.9
v 0.4 0.1 -0.9
v 0.4 0.7 -0.9
v 0.4 1 -0.9
v 0.5 1 -0.9
v 0.5 1.1 -0.9
v 0.5 1.3 -0.9
v 0.5 1.6 -0.9
v 0.9 0.1 -0.9
v 0.9 1.6 -0.9
v -1 0 -1
v -1 0.1 -1
v -1 1.6 -1
v -1 1.7 -1
v -0.5 1 -1
v -0.5 1.1 -1
v -0.5 1.3 -1
v -0.5 1.6 -1
v -0.4 0.1 -1
v -0.4 0.7 -1
v -0.4 1 -1
v -0.3 0 -1
v -0.3 0.5 -1
v -0.2 0.5 -1
v -0.2 0.6 -1
v -0.1 0.7 -1
v -0.1 1.1 -1
v -0.1 1.3 -1
v -0.1 1.6 -1
v 0.1 0.7 -1
v 0.1 1.1 -1
v 0.1 1.3 -1
v 0.1 1.6 -1
v 0.2 0.5 -1
v 0.2 0.6 -1
v 0.3 0 -1
v 0.3 0.5 -1
v 0.4 0.1 -1
v 0.4 0.7 -1
v 0.4 1 -1
v 0.5 1 -1
v 0.5 1.1 -1
v 0.5 1.3 -1
v 0.5 1.6 -1
v 1 0 -1
v 1 0.1 -1
v 1 1.6 -1
v 1 1.7 -1
v -1 0 1
v 1 0 1
v -0.3 0 -0.8
v 0.3 0 -0.8
v -0.3 0 -0.9
v 0.3 0 -0.9
v -1 0 -1
v -0.3 0 -1
v 0.3 0 -1
v 1 0 -1
v -0.3 0.5 -0.9
v -0.2 0.5 -0.9
v 0.2 0.5 -0.9
v 0.3 0.5 -0.9
v -0.3 0.5 -1
v -0.2 0.5 -1
v 0.2 0.5 -1
v 0.3 0.5 -1
v -0.2 0.6 -0.9
v 0.2 0.6 -0.9
v -0.2 0.6 -1
v 0.2 0.6 -1
v -0.4 0.7 1
v -0.1 0.7 1
v 0.1 0.7 1
v 0.4 0.7 1
v -0.4 0.7 0.9
v -0.1 0.7 0.9
v 0.1 0.7 0.9
v 0.4 0.7 0.9
v -1 0.7 0.4
v -0.9 0.7 0.4
v 0.9 0.7 0.4
v 1 0.7 0.4
v -1 0.7 0.1
v -0.9 0.7 0.1
v 0.9 0.7 0.1
v 1 0.7 0.1
v -1 0.7 -0.1
v -0.9 0.7 -0.1
v 0.9 0.7 -0.1
v 1 0.7 -0.1
v -1 0.7 -0.4
v -0.9 0.7 -0.4
v 0.9 0.7 -0.4
v 1 0.7 -0.4
v -0.5 1 1
v -0.4 1 1
v 0.4 1 1
v 0.5 1 1
v -0.5 1 0.9
v -0.4 1 0.9
v 0.4 1 0.9
v 0.5 1 0.9
v -1 1 0.5
v -0.9 1 0.5
v 0.9 1 0.5
v 1 1 0.5
v -1 1 0.4
v -0.9 1 0.4
v 0.9 1 0.4
v 1 1 0.4
v -1 1 -0.4
v -0.9 1 -0.4
v 0.9 1 -0.4
v 1 1 -0.4
v -1 1 -0.5
v -0.9 1 -0.5
v 0.9 1 -0.5
v 1 1 -0.5
v -0.5 1 -0.9
v -0.4 1 -0.9
v 0.4 1 -0.9
v 0.5 1 -0.9
v -0.5 1 -1
v -0.4 1 -1
v 0.4 1 -1
v 0.5 1 -1
v -1 1.6 1
v -0.5 1.6 1
v 0.5 1.6 1
v 1 1.6 1
v -0.9 1.6 0.9
v -0.5 1.6 0.9
v 0.5 1.6 0.9
v 0.9 1.6 0.9
v -1 1.6 0.5
v -0.9 1.6 0.5
v 0.9 1.6 0.5
v 1 1.6 0.5
v -1 1.6 -0.5
v -0.9 1.6 -0.5
v 0.9 1.6 -0.5
v 1 1.6 -0.5
v -0.9 1.6 -0.9
v -0.5 1.6 -0.9
v 0.5 1.6 -0.9
v 0.9 1.6 -0.9
v -1 1.6 -1
v -0.5 1.6 -1
v 0.5 1.6 -1
v 1 1.6 -1
v -1 0.1 1
v 1 0.1 1
v -0.9 0.1 0.9
v 0.9 0.1 0.9
v -0.9 0.1 -0.9
v -0.4 0.1 -0.9
v 0.4 0.1 -0.9
v 0.9 0.1 -0.9
v -1 0.1 -1
v -0.4 0.1 -1
v 0.4 0.1 -1
v 1 0.1 -1
v -0.9 1.6 0.9
v 0.9 1.6 0.9
v -0.9 1.6 -0.9
v 0.9 1.6 -0.9
v -1 1.7 1
v 1 1.7 1
v -0.9 1.7 0.9
v 0.9 1.7 0.9
v -0.9 1.7 -0.9
v 0.9 1.7 -0.9
v -1 1.7 -1
v 1 1.7 -1

# faces
f 3/3/1 2/3/1 1/3/1
f 4/3/1 2/3/1 3/3/1
f 10/4/1 6/4/1 5/4/1
f 11/4/1 8/4/1 7/4/1
f 13/4/1 10/4/1 9/4/1
f 14/2/1 7/2/1 6/2/1
f 14/4/1 10/4/1 13/4/1
f 14/4/1 6/4/1 10/4/1
f 15/4/1 12/4/1 11/4/1
f 15/2/1 7/2/1 14/2/1
f 15/4/1 11/4/1 7/4/1
f 16/4/1 12/4/1 15/4/1
f 17/2/1 14/2/1 13/2/1
f 17/2/1 15/2/1 14/2/1
f 17/2/1 16/2/1 15/2/1
f 18/2/1 16/2/1 17/2/1
f 19/2/1 16/2/1 18/2/1
f 20/2/1 16/2/1 19/2/1
f 22/4/1 18/4/1 17/4/1
f 23/2/1 19/2/1 18/2/1
f 23/4/1 18/4/1 22/4/1
f 24/4/1 20/4/1 19/4/1
f 24/2/1 19/2/1 23/2/1
f 25/4/1 20/4/1 24/4/1
f 27/3/1 25/3/1 24/3/1
f 27/3/1 26/3/1 25/3/1
f 27/3/1 24/3/1 23/3/1
f 27/3/1 23/3/1 22/3/1
f 27/3/1 22/3/1 21/3/1
f 28/3/1 26/3/1 27/3/1
f 31/3/1 30/3/1 29/3/1
f 32/3/1 30/3/1 31/3/1
f 33/3/1 30/3/1 32/3/1
f 34/3/1 30/3/1 33/3/1
f 35/3/1 31/3/1 29/3/1
f 36/3/1 31/3/1 35/3/1
f 37/3/1 30/3/1 34/3/1
f 38/3/1 30/3/1 37/3/1
f 39/3/1 35/3/1 29/3/1
f 40/3/1 30/3/1 38/3/1
f 41/3/1 39/3/1 29/3/1
f 42/3/1 30/3/1 40/3/1
f 43/3/1 41/3/1 29/3/1
f 44/3/1 41/3/1 43/3/1
f 45/3/1 30/3/1 42/3/1
f 46/3/1 30/3/1 45/3/1
f 51/4/1 48/4/1 47/4/1
f 52/4/1 48/4/1 51/4/1
f 53/4/1 50/4/1 49/4/1
f 54/4/1 50/4/1 53/4/1
f 55/2/1 52/2/1 51/2/1
f 56/2/1 52/2/1 55/2/1
f 57/2/1 54/2/1 53/2/1
f 58/2/1 54/2/1 57/2/1
f 59/4/1 56/4/1 55/4/1
f 60/4/1 56/4/1 59/4/1
f 61/4/1 58/4/1 57/4/1
f 62/4/1 58/4/1 61/4/1
f 67/3/1 64/3/1 63/3/1
f 68/3/1 64/3/1 67/3/1
f 69/4/1 66/4/1 65/4/1
f 70/4/1 66/4/1 69/4/1
f 71/4/1 68/4/1 67/4/1
f 72/4/1 68/4/1 71/4/1
f 75/3/1 74/3/1 73/3/1
f 76/3/1 74/3/1 75/3/1
f 79/3/1 78/3/1 77/3/1
f 80/3/1 78/3/1 79/3/1
f 83/3/1 82/3/1 81/3/1
f 84/3/1 82/3/1 83/3/1
f 85/3/2 86/3/2 87/3/2
f 87/3/2 86/3/2 88/3/2
f 89/3/2 90/3/2 91/3/2
f 91/3/2 90/3/2 92/3/2
f 93/3/2 94/3/2 95/3/2
f 95/3/2 94/3/2 96/3/2
f 97/3/2 98/3/2 101/3/2
f 101/3/2 98/3/2 102/3/2
f 99/4/2 100/4/2 103/4/2
f 103/4/2 100/4/2 104/4/2
f 101/4/2 102/4/2 105/4/2
f 105/4/2 102/4/2 106/4/2
f 107/4/2 108/4/2 111/4/2
f 111/4/2 108/4/2 112/4/2
f 109/4/2 110/4/2 113/4/2
f 113/4/2 110/4/2 114/4/2
f 111/2/2 112/2/2 115/2/2
f 115/2/2 112/2/2 116/2/2
f 113/2/2 114/2/2 117/2/2
f 117/2/2 114/2/2 118/2/2
f 115/4/2 116/4/2 119/4/2
f 119/4/2 116/4/2 120/4/2
f 117/4/2 118/4/2 121/4/2
f 121/4/2 118/4/2 122/4/2
f 123/3/2 124/3/2 125/3/2
f 125/3/2 124/3/2 126/3/2
f 126/3/2 124/3/2 127/3/2
f 127/3/2 124/3/2 128/3/2
f 123/3/2 125/3/2 129/3/2
f 129/3/2 125/3/2 130/3/2
f 128/3/2 124/3/2 131/3/2
f 131/3/2 124/3/2 132/3/2
f 123/3/2 129/3/2 133/3/2
f 132/3/2 124/3/2 134/3/2
f 123/3/2 133/3/2 135/3/2
f 134/3/2 124/3/2 136/3/2
f 123/3/2 135/3/2 137/3/2
f 137/3/2 135/3/2 138/3/2
f 136/3/2 124/3/2 139/3/2
f 139/3/2 124/3/2 140/3/2
f 141/3/2 142/3/2 143/3/2
f 143/3/2 142/3/2 144/3/2
f 145/4/2 146/4/2 150/4/2
f 147/4/2 148/4/2 151/4/2
f 149/4/2 150/4/2 153/4/2
f 146/2/2 147/2/2 154/2/2
f 153/4/2 150/4/2 154/4/2
f 150/4/2 146/4/2 154/4/2
f 151/4/2 152/4/2 155/4/2
f 154/2/2 147/2/2 155/2/2
f 147/4/2 151/4/2 155/4/2
f 155/4/2 152/4/2 156/4/2
f 153/2/2 154/2/2 157/2/2
f 154/2/2 155/2/2 157/2/2
f 155/2/2 156/2/2 157/2/2
f 157/2/2 156/2/2 158/2/2
f 158/2/2 156/2/2 159/2/2
f 159/2/2 156/2/2 160/2/2
f 157/4/2 158/4/2 162/4/2
f 158/2/2 159/2/2 163/2/2
f 162/4/2 158/4/2 163/4/2
f 159/4/2 160/4/2 164/4/2
f 163/2/2 159/2/2 164/2/2
f 164/4/2 160/4/2 165/4/2
f 164/3/2 165/3/2 167/3/2
f 165/3/2 166/3/2 167/3/2
f 163/3/2 164/3/2 167/3/2
f 162/3/2 163/3/2 167/3/2
f 161/3/2 162/3/2 167/3/2
f 167/3/2 166/3/2 168/3/2
f 176/3/3 172/3/3 171/3/3
f 178/4/3 174/4/3 173/4/3
f 179/4/3 178/4/3 177/4/3
f 180/2/3 175/2/3 174/2/3
f 180/4/3 178/4/3 179/4/3
f 180/4/3 174/4/3 178/4/3
f 181/4/3 176/4/3 175/4/3
f 181/2/3 175/2/3 180/2/3
f 182/3/3 172/3/3 176/3/3
f 182/4/3 176/4/3 181/4/3
f 183/2/3 180/2/3 179/2/3
f 183/2/3 181/2/3 180/2/3
f 183/2/3 182/2/3 181/2/3
f 184/2/3 182/2/3 183/2/3
f 185/2/3 182/2/3 184/2/3
f 186/3/3 172/3/3 182/3/3
f 186/2/3 182/2/3 185/2/3
f 187/4/3 184/4/3 183/4/3
f 188/4/3 184/4/3 187/4/3
f 189/4/3 184/4/3 188/4/3
f 190/2/3 185/2/3 184/2/3
f 190/4/3 184/4/3 189/4/3
f 191/4/3 186/4/3 185/4/3
f 191/2/3 185/2/3 190/2/3
f 192/3/3 172/3/3 186/3/3
f 192/4/3 186/4/3 191/4/3
f 193/3/3 170/3/3 169/3/3
f 194/3/3 170/3/3 193/3/3
f 195/3/3 172/3/3 192/3/3
f 196/3/3 172/3/3 195/3/3
f 199/3/3 198/3/3 197/3/3
f 200/3/3 198/3/3 199/3/3
f 201/3/3 198/3/3 200/3/3
f 202/3/3 198/3/3 201/3/3
f 203/3/3 199/3/3 197/3/3
f 204/3/3 199/3/3 203/3/3
f 205/3/3 203/3/3 197/3/3
f 206/3/3 205/3/3 197/3/3
f 207/3/3 206/3/3 197/3/3
f 209/3/3 208/3/3 207/3/3
f 213/3/3 209/3/3 207/3/3
f 213/3/3 212/3/3 211/3/3
f 213/3/3 211/3/3 210/3/3
f 213/3/3 210/3/3 209/3/3
f 213/3/3 207/3/3 197/3/3
f 214/3/3 212/3/3 213/3/3
f 219/4/3 216/4/3 215/4/3
f 220/2/3 217/2/3 216/2/3
f 220/4/3 216/4/3 219/4/3
f 221/4/3 218/4/3 217/4/3
f 221/2/3 217/2/3 220/2/3
f 222/4/3 218/4/3 221/4/3
f 227/4/3 224/4/3 223/4/3
f 228/2/3 225/2/3 224/2/3
f 228/4/3 224/4/3 227/4/3
f 229/4/3 226/4/3 225/4/3
f 229/2/3 225/2/3 228/2/3
f 230/4/3 226/4/3 229/4/3
f 233/4/3 232/4/3 231/4/3
f 234/4/3 232/4/3 233/4/3
f 237/4/3 236/4/3 235/4/3
f 238/4/3 236/4/3 237/4/3
f 241/3/3 240/3/3 239/3/3
f 242/3/3 240/3/3 241/3/3
f 243/3/4 244/3/4 245/3/4
f 245/3/4 244/3/4 246/3/4
f 247/4/4 248/4/4 249/4/4
f 249/4/4 248/4/4 250/4/4
f 251/4/4 252/4/4 253/4/4
f 253/4/4 252/4/4 254/4/4
f 255/4/4 256/4/4 259/4/4
f 256/2/4 257/2/4 260/2/4
f 259/4/4 256/4/4 260/4/4
f 257/4/4 258/4/4 261/4/4
f 260/2/4 257/2/4 261/2/4
f 261/4/4 258/4/4 262/4/4
f 263/4/4 264/4/4 267/4/4
f 264/2/4 265/2/4 268/2/4
f 267/4/4 264/4/4 268/4/4
f 265/4/4 266/4/4 269/4/4
f 268/2/4 265/2/4 269/2/4
f 269/4/4 266/4/4 270/4/4
f 271/3/4 272/3/4 273/3/4
f 273/3/4 272/3/4 274/3/4
f 274/3/4 272/3/4 275/3/4
f 275/3/4 272/3/4 276/3/4
f 271/3/4 273/3/4 277/3/4
f 277/3/4 273/3/4 278/3/4
f 278/3/4 273/3/4 279/3/4
f 280/1/4 281/1/4 282/1/4
f 280/1/4 282/1/4 284/1/4
f 282/1/4 283/1/4 284/1/4
f 284/1/4 283/1/4 285/1/4
f 280/1/4 284/1/4 286/1/4
f 286/1/4 284/1/4 287/1/4
f 288/3/4 289/3/4 291/3/4
f 289/3/4 290/3/4 291/3/4
f 288/3/4 291/3/4 295/3/4
f 293/3/4 294/3/4 295/3/4
f 292/3/4 293/3/4 295/3/4
f 291/3/4 292/3/4 295/3/4
f 295/3/4 294/3/4 296/3/4
f 299/3/4 300/3/4 304/3/4
f 297/3/4 298/3/4 305/3/4
f 301/4/4 302/4/4 307/4/4
f 305/3/4 306/3/4 308/3/4
f 297/3/4 305/3/4 308/3/4
f 308/3/4 306/3/4 309/3/4
f 309/3/4 306/3/4 310/3/4
f 310/3/4 306/3/4 311/3/4
f 306/4/4 307/4/4 312/4/4
f 311/3/4 306/3/4 312/3/4
f 302/2/4 303/2/4 313/2/4
f 312/4/4 307/4/4 313/4/4
f 307/4/4 302/4/4 313/4/4
f 303/4/4 304/4/4 314/4/4
f 313/2/4 303/2/4 314/2/4
f 304/3/4 300/3/4 315/3/4
f 314/4/4 304/4/4 315/4/4
f 312/2/4 313/2/4 316/2/4
f 311/3/4 312/3/4 316/3/4
f 314/2/4 315/2/4 316/2/4
f 313/2/4 314/2/4 316/2/4
f 316/2/4 315/2/4 317/2/4
f 317/2/4 315/2/4 318/2/4
f 315/3/4 300/3/4 319/3/4
f 318/2/4 315/2/4 319/2/4
f 311/3/4 316/3/4 321/3/4
f 320/3/4 321/3/4 323/3/4
f 322/3/4 323/3/4 324/3/4
f 316/4/4 317/4/4 325/4/4
f 324/3/4 323/3/4 325/3/4
f 321/3/4 316/3/4 325/3/4
f 323/3/4 321/3/4 325/3/4
f 325/4/4 317/4/4 326/4/4
f 326/4/4 317/4/4 327/4/4
f 317/2/4 318/2/4 328/2/4
f 327/4/4 317/4/4 328/4/4
f 318/4/4 319/4/4 329/4/4
f 328/2/4 318/2/4 329/2/4
f 319/3/4 300/3/4 330/3/4
f 329/4/4 319/4/4 330/4/4
f 322/3/4 324/3/4 331/3/4
f 331/3/4 324/3/4 332/3/4
f 330/3/4 300/3/4 333/3/4
f 333/3/4 300/3/4 334/3/4
f 337/3/5 336/3/5 335/3/5
f 338/3/5 336/3/5 337/3/5
f 339/3/5 337/3/5 335/3/5
f 339/1/5 338/1/5 337/1/5
f 340/3/5 336/3/5 338/3/5
f 340/1/5 338/1/5 339/1/5
f 341/3/5 339/3/5 335/3/5
f 342/3/5 339/3/5 341/3/5
f 343/3/5 336/3/5 340/3/5
f 344/3/5 336/3/5 343/3/5
f 349/3/5 346/3/5 345/3/5
f 350/3/5 346/3/5 349/3/5
f 351/3/5 348/3/5 347/3/5
f 352/3/5 348/3/5 351/3/5
f 355/3/5 354/3/5 353/3/5
f 356/3/5 354/3/5 355/3/5
f 361/4/5 358/4/5 357/4/5
f 362/2/5 359/2/5 358/2/5
f 362/4/5 358/4/5 361/4/5
f 363/4/5 360/4/5 359/4/5
f 363/2/5 359/2/5 362/2/5
f 364/4/5 360/4/5 363/4/5
f 369/4/5 366/4/5 365/4/5
f 370/4/5 366/4/5 369/4/5
f 371/4/5 368/4/5 367/4/5
f 372/4/5 368/4/5 371/4/5
f 373/2/5 370/2/5 369/2/5
f 374/2/5 370/2/5 373/2/5
f 375/2/5 372/2/5 371/2/5
f 376/2/5 372/2/5 375/2/5
f 377/4/5 374/4/5 373/4/5
f 378/4/5 374/4/5 377/4/5
f 379/4/5 376/4/5 375/4/5
f 380/4/5 376/4/5 379/4/5
f 385/4/5 382/4/5 381/4/5
f 386/4/5 382/4/5 385/4/5
f 387/4/5 384/4/5 383/4/5
f 388/4/5 384/4/5 387/4/5
f 393/4/5 390/4/5 389/4/5
f 394/4/5 390/4/5 393/4/5
f 395/4/5 392/4/5 391/4/5
f 396/4/5 392/4/5 395/4/5
f 401/4/5 398/4/5 397/4/5
f 402/4/5 398/4/5 401/4/5
f 403/4/5 400/4/5 399/4/5
f 404/4/5 400/4/5 403/4/5
f 409/4/5 406/4/5 405/4/5
f 410/4/5 406/4/5 409/4/5
f 411/4/5 408/4/5 407/4/5
f 412/4/5 408/4/5 411/4/5
f 417/3/5 414/3/5 413/3/5
f 418/3/5 414/3/5 417/3/5
f 419/3/5 416/3/5 415/3/5
f 420/3/5 416/3/5 419/3/5
f 421/3/5 417/3/5 413/3/5
f 422/3/5 417/3/5 421/3/5
f 423/3/5 416/3/5 420/3/5
f 424/3/5 416/3/5 423/3/5
f 429/3/5 426/3/5 425/3/5
f 432/3/5 428/3/5 427/3/5
f 433/3/5 430/3/5 429/3/5
f 433/3/5 429/3/5 425/3/5
f 434/3/5 430/3/5 433/3/5
f 435/3/5 432/3/5 431/3/5
f 436/3/5 428/3/5 432/3/5
f 436/3/5 432/3/5 435/3/5
f 437/3/6 438/3/6 439/3/6
f 439/3/6 438/3/6 440/3/6
f 437/3/6 439/3/6 441/3/6
f 440/3/6 438/3/6 444/3/6
f 441/3/6 442/3/6 445/3/6
f 437/3/6 441/3/6 445/3/6
f 445/3/6 442/3/6 446/3/6
f 443/3/6 444/3/6 447/3/6
f 444/3/6 438/3/6 448/3/6
f 447/3/6 444/3/6 448/3/6
f 449/3/6 450/3/6 451/3/6
f 451/3/6 450/3/6 452/3/6
f 453/3/6 454/3/6 455/3/6
f 455/3/6 454/3/6 456/3/6
f 453/3/6 455/3/6 457/3/6
f 456/3/6 454/3/6 458/3/6
f 453/3/6 457/3/6 459/3/6
f 457/3/6 458/3/6 459/3/6
f 458/3/6 454/3/6 460/3/6
f 459/3/6 458/3/6 460/3/6
