# MagicaVoxel @ Ephtracy

# group
o 

# material
mtllib DefenderTower3.mtl
usemtl palette

# normals
vn -1 0 0
vn 1 0 0
vn 0 0 1
vn 0 0 -1
vn 0 -1 0
vn 0 1 0

# texcoords
vt 0.533203 0.5
vt 0.861328 0.5
vt 0.974609 0.5
vt 0.982422 0.5

# verts
v -1 0 1
v -1 0 -1
v -1 0.1 1
v -1 0.1 -1
v -1 0.7 0.4
v -1 0.7 0.1
v -1 0.7 -0.1
v -1 0.7 -0.4
v -1 1 0.5
v -1 1 0.4
v -1 1 -0.4
v -1 1 -0.5
v -1 1.1 0.5
v -1 1.1 0.1
v -1 1.1 -0.1
v -1 1.1 -0.5
v -1 1.3 0.5
v -1 1.3 0.1
v -1 1.3 -0.1
v -1 1.3 -0.5
v -1 1.6 1
v -1 1.6 0.5
v -1 1.6 0.1
v -1 1.6 -0.1
v -1 1.6 -0.5
v -1 1.6 -1
v -1 1.7 0.7
v -1 1.7 0.2
v -1 1.7 -0.2
v -1 1.7 -0.7
v -1 1.9 1
v -1 1.9 0.7
v -1 1.9 0.2
v -1 1.9 -0.2
v -1 1.9 -0.7
v -1 1.9 -1
v -0.9 0.1 0.9
v -0.9 0.1 -0.9
v -0.9 0.7 0.4
v -0.9 0.7 0.1
v -0.9 0.7 -0.1
v -0.9 0.7 -0.4
v -0.9 1 0.5
v -0.9 1 0.4
v -0.9 1 -0.4
v -0.9 1 -0.5
v -0.9 1.1 0.5
v -0.9 1.1 -0.5
v -0.9 1.3 0.5
v -0.9 1.3 -0.5
v -0.9 1.6 0.9
v -0.9 1.6 0.5
v -0.9 1.6 -0.5
v -0.9 1.6 -0.9
v -0.5 1 1
v -0.5 1 0.9
v -0.5 1 -0.9
v -0.5 1 -1
v -0.5 1.1 1
v -0.5 1.1 0.9
v -0.5 1.1 -0.9
v -0.5 1.1 -1
v -0.5 1.3 1
v -0.5 1.3 0.9
v -0.5 1.3 -0.9
v -0.5 1.3 -1
v -0.5 1.6 1
v -0.5 1.6 0.9
v -0.5 1.6 -0.9
v -0.5 1.6 -1
v -0.4 0.1 -0.9
v -0.4 0.1 -1
v -0.4 0.7 1
v -0.4 0.7 0.9
v -0.4 0.7 -0.9
v -0.4 0.7 -1
v -0.4 1 1
v -0.4 1 0.9
v -0.4 1 -0.9
v -0.4 1 -1
v -0.2 1.7 1
v -0.2 1.7 0.9
v -0.2 1.7 -0.9
v -0.2 1.7 -1
v -0.2 1.9 1
v -0.2 1.9 0.9
v -0.2 1.9 -0.9
v -0.2 1.9 -1
v 0.2 0.5 -0.9
v 0.2 0.5 -1
v 0.2 0.6 -0.9
v 0.2 0.6 -1
v 0.3 0 -0.9
v 0.3 0 -1
v 0.3 0.5 -0.9
v 0.3 0.5 -1
v 0.7 1.6 0.9
v 0.7 1.6 0.7
v 0.7 1.6 -0.7
v 0.7 1.6 -0.9
v 0.7 1.7 1
v 0.7 1.7 0.9
v 0.7 1.7 -0.9
v 0.7 1.7 -1
v 0.7 1.9 1
v 0.7 1.9 0.7
v 0.7 1.9 -0.7
v 0.7 1.9 -1
v 0.9 1.6 0.7
v 0.9 1.6 -0.7
v 0.9 1.7 0.7
v 0.9 1.7 0.2
v 0.9 1.7 -0.2
v 0.9 1.7 -0.7
v 0.9 1.9 0.2
v 0.9 1.9 -0.2
v -0.9 1.6 0.7
v -0.9 1.6 -0.7
v -0.9 1.7 0.7
v -0.9 1.7 0.2
v -0.9 1.7 -0.2
v -0.9 1.7 -0.7
v -0.9 1.9 0.2
v -0.9 1.9 -0.2
v -0.7 1.6 0.9
v -0.7 1.6 0.7
v -0.7 1.6 -0.7
v -0.7 1.6 -0.9
v -0.7 1.7 1
v -0.7 1.7 0.9
v -0.7 1.7 -0.9
v -0.7 1.7 -1
v -0.7 1.9 1
v -0.7 1.9 0.7
v -0.7 1.9 -0.7
v -0.7 1.9 -1
v -0.3 0 -0.9
v -0.3 0 -1
v -0.3 0.5 -0.9
v -0.3 0.5 -1
v -0.2 0.5 -0.9
v -0.2 0.5 -1
v -0.2 0.6 -0.9
v -0.2 0.6 -1
v 0.2 1.7 1
v 0.2 1.7 0.9
v 0.2 1.7 -0.9
v 0.2 1.7 -1
v 0.2 1.9 1
v 0.2 1.9 0.9
v 0.2 1.9 -0.9
v 0.2 1.9 -1
v 0.4 0.1 -0.9
v 0.4 0.1 -1
v 0.4 0.7 1
v 0.4 0.7 0.9
v 0.4 0.7 -0.9
v 0.4 0.7 -1
v 0.4 1 1
v 0.4 1 0.9
v 0.4 1 -0.9
v 0.4 1 -1
v 0.5 1 1
v 0.5 1 0.9
v 0.5 1 -0.9
v 0.5 1 -1
v 0.5 1.1 1
v 0.5 1.1 0.9
v 0.5 1.1 -0.9
v 0.5 1.1 -1
v 0.5 1.3 1
v 0.5 1.3 0.9
v 0.5 1.3 -0.9
v 0.5 1.3 -1
v 0.5 1.6 1
v 0.5 1.6 0.9
v 0.5 1.6 -0.9
v 0.5 1.6 -1
v 0.9 0.1 0.9
v 0.9 0.1 -0.9
v 0.9 0.7 0.4
v 0.9 0.7 0.1
v 0.9 0.7 -0.1
v 0.9 0.7 -0.4
v 0.9 1 0.5
v 0.9 1 0.4
v 0.9 1 -0.4
v 0.9 1 -0.5
v 0.9 1.1 0.5
v 0.9 1.1 -0.5
v 0.9 1.3 0.5
v 0.9 1.3 -0.5
v 0.9 1.6 0.9
v 0.9 1.6 0.5
v 0.9 1.6 -0.5
v 0.9 1.6 -0.9
v 1 0 1
v 1 0 -1
v 1 0.1 1
v 1 0.1 -1
v 1 0.7 0.4
v 1 0.7 0.1
v 1 0.7 -0.1
v 1 0.7 -0.4
v 1 1 0.5
v 1 1 0.4
v 1 1 -0.4
v 1 1 -0.5
v 1 1.1 0.5
v 1 1.1 0.1
v 1 1.1 -0.1
v 1 1.1 -0.5
v 1 1.3 0.5
v 1 1.3 0.1
v 1 1.3 -0.1
v 1 1.3 -0.5
v 1 1.6 1
v 1 1.6 0.5
v 1 1.6 0.1
v 1 1.6 -0.1
v 1 1.6 -0.5
v 1 1.6 -1
v 1 1.7 0.7
v 1 1.7 0.2
v 1 1.7 -0.2
v 1 1.7 -0.7
v 1 1.9 1
v 1 1.9 0.7
v 1 1.9 0.2
v 1 1.9 -0.2
v 1 1.9 -0.7
v 1 1.9 -1
v -1 0 1
v -1 0.1 1
v -1 1.6 1
v -1 1.9 1
v -0.7 1.7 1
v -0.7 1.9 1
v -0.5 1 1
v -0.5 1.1 1
v -0.5 1.3 1
v -0.5 1.6 1
v -0.4 0.7 1
v -0.4 1 1
v -0.2 1.7 1
v -0.2 1.9 1
v -0.1 0.7 1
v -0.1 1.1 1
v -0.1 1.3 1
v -0.1 1.6 1
v 0.1 0.7 1
v 0.1 1.1 1
v 0.1 1.3 1
v 0.1 1.6 1
v 0.2 1.7 1
v 0.2 1.9 1
v 0.4 0.7 1
v 0.4 1 1
v 0.5 1 1
v 0.5 1.1 1
v 0.5 1.3 1
v 0.5 1.6 1
v 0.7 1.7 1
v 0.7 1.9 1
v 1 0 1
v 1 0.1 1
v 1 1.6 1
v 1 1.9 1
v -0.9 0.1 0.9
v -0.9 1.6 0.9
v -0.5 1 0.9
v -0.5 1.1 0.9
v -0.5 1.3 0.9
v -0.5 1.6 0.9
v -0.4 0.7 0.9
v -0.4 1 0.9
v -0.1 0.7 0.9
v 0.1 0.7 0.9
v 0.4 0.7 0.9
v 0.4 1 0.9
v 0.5 1 0.9
v 0.5 1.1 0.9
v 0.5 1.3 0.9
v 0.5 1.6 0.9
v 0.9 0.1 0.9
v 0.9 1.6 0.9
v -1 1 0.5
v -1 1.1 0.5
v -1 1.3 0.5
v -1 1.6 0.5
v -0.9 1 0.5
v -0.9 1.1 0.5
v -0.9 1.3 0.5
v -0.9 1.6 0.5
v 0.9 1 0.5
v 0.9 1.1 0.5
v 0.9 1.3 0.5
v 0.9 1.6 0.5
v 1 1 0.5
v 1 1.1 0.5
v 1 1.3 0.5
v 1 1.6 0.5
v -1 0.7 0.4
v -1 1 0.4
v -0.9 0.7 0.4
v -0.9 1 0.4
v 0.9 0.7 0.4
v 0.9 1 0.4
v 1 0.7 0.4
v 1 1 0.4
v -1 1.7 0.2
v -1 1.9 0.2
v -0.9 1.7 0.2
v -0.9 1.9 0.2
v 0.9 1.7 0.2
v 0.9 1.9 0.2
v 1 1.7 0.2
v 1 1.9 0.2
v -1 1.7 -0.7
v -1 1.9 -0.7
v -0.9 1.6 -0.7
v -0.9 1.7 -0.7
v -0.7 1.6 -0.7
v -0.7 1.9 -0.7
v 0.7 1.6 -0.7
v 0.7 1.9 -0.7
v 0.9 1.6 -0.7
v 0.9 1.7 -0.7
v 1 1.7 -0.7
v 1 1.9 -0.7
v -0.7 1.6 -0.9
v -0.7 1.7 -0.9
v -0.2 1.7 -0.9
v -0.2 1.9 -0.9
v 0.2 1.7 -0.9
v 0.2 1.9 -0.9
v 0.7 1.6 -0.9
v 0.7 1.7 -0.9
v -0.7 1.6 0.9
v -0.7 1.7 0.9
v -0.2 1.7 0.9
v -0.2 1.9 0.9
v 0.2 1.7 0.9
v 0.2 1.9 0.9
v 0.7 1.6 0.9
v 0.7 1.7 0.9
v -1 1.7 0.7
v -1 1.9 0.7
v -0.9 1.6 0.7
v -0.9 1.7 0.7
v -0.7 1.6 0.7
v -0.7 1.9 0.7
v 0.7 1.6 0.7
v 0.7 1.9 0.7
v 0.9 1.6 0.7
v 0.9 1.7 0.7
v 1 1.7 0.7
v 1 1.9 0.7
v -1 1.7 -0.2
v -1 1.9 -0.2
v -0.9 1.7 -0.2
v -0.9 1.9 -0.2
v 0.9 1.7 -0.2
v 0.9 1.9 -0.2
v 1 1.7 -0.2
v 1 1.9 -0.2
v -1 0.7 -0.4
v -1 1 -0.4
v -0.9 0.7 -0.4
v -0.9 1 -0.4
v 0.9 0.7 -0.4
v 0.9 1 -0.4
v 1 0.7 -0.4
v 1 1 -0.4
v -1 1 -0.5
v -1 1.1 -0.5
v -1 1.3 -0.5
v -1 1.6 -0.5
v -0.9 1 -0.5
v -0.9 1.1 -0.5
v -0.9 1.3 -0.5
v -0.9 1.6 -0.5
v 0.9 1 -0.5
v 0.9 1.1 -0.5
v 0.9 1.3 -0.5
v 0.9 1.6 -0.5
v 1 1 -0.5
v 1 1.1 -0.5
v 1 1.3 -0.5
v 1 1.6 -0.5
v -0.9 0.1 -0.9
v -0.9 1.6 -0.9
v -0.5 1 -0.9
v -0.5 1.1 -0.9
v -0.5 1.3 -0.9
v -0.5 1.6 -0.9
v -0.4 0.1 -0.9
v -0.4 0.7 -0.9
v -0.4 1 -0.9
v -0.3 0 -0.9
v -0.3 0.5 -0.9
v -0.2 0.5 -0.9
v -0.2 0.6 -0.9
v 0.2 0.5 -0.9
v 0.2 0.6 -0.9
v 0.3 0 -0.9
v 0.3 0.5 -0.9
v 0.4 0.1 -0.9
v 0.4 0.7 -0.9
v 0.4 1 -0.9
v 0.5 1 -0.9
v 0.5 1.1 -0.9
v 0.5 1.3 -0.9
v 0.5 1.6 -0.9
v 0.9 0.1 -0.9
v 0.9 1.6 -0.9
v -1 0 -1
v -1 0.1 -1
v -1 1.6 -1
v -1 1.9 -1
v -0.7 1.7 -1
v -0.7 1.9 -1
v -0.5 1 -1
v -0.5 1.1 -1
v -0.5 1.3 -1
v -0.5 1.6 -1
v -0.4 0.1 -1
v -0.4 0.7 -1
v -0.4 1 -1
v -0.3 0 -1
v -0.3 0.5 -1
v -0.2 0.5 -1
v -0.2 0.6 -1
v -0.2 1.7 -1
v -0.2 1.9 -1
v -0.1 0.7 -1
v -0.1 1.1 -1
v -0.1 1.3 -1
v -0.1 1.6 -1
v 0.1 0.7 -1
v 0.1 1.1 -1
v 0.1 1.3 -1
v 0.1 1.6 -1
v 0.2 0.5 -1
v 0.2 0.6 -1
v 0.2 1.7 -1
v 0.2 1.9 -1
v 0.3 0 -1
v 0.3 0.5 -1
v 0.4 0.1 -1
v 0.4 0.7 -1
v 0.4 1 -1
v 0.5 1 -1
v 0.5 1.1 -1
v 0.5 1.3 -1
v 0.5 1.6 -1
v 0.7 1.7 -1
v 0.7 1.9 -1
v 1 0 -1
v 1 0.1 -1
v 1 1.6 -1
v 1 1.9 -1
v -1 0 1
v 1 0 1
v -0.3 0 -0.8
v 0.3 0 -0.8
v -0.3 0 -0.9
v 0.3 0 -0.9
v -1 0 -1
v -0.3 0 -1
v 0.3 0 -1
v 1 0 -1
v -0.3 0.5 -0.9
v -0.2 0.5 -0.9
v 0.2 0.5 -0.9
v 0.3 0.5 -0.9
v -0.3 0.5 -1
v -0.2 0.5 -1
v 0.2 0.5 -1
v 0.3 0.5 -1
v -0.2 0.6 -0.9
v 0.2 0.6 -0.9
v -0.2 0.6 -1
v 0.2 0.6 -1
v -0.4 0.7 1
v -0.1 0.7 1
v 0.1 0.7 1
v 0.4 0.7 1
v -0.4 0.7 0.9
v -0.1 0.7 0.9
v 0.1 0.7 0.9
v 0.4 0.7 0.9
v -1 0.7 0.4
v -0.9 0.7 0.4
v 0.9 0.7 0.4
v 1 0.7 0.4
v -1 0.7 0.1
v -0.9 0.7 0.1
v 0.9 0.7 0.1
v 1 0.7 0.1
v -1 0.7 -0.1
v -0.9 0.7 -0.1
v 0.9 0.7 -0.1
v 1 0.7 -0.1
v -1 0.7 -0.4
v -0.9 0.7 -0.4
v 0.9 0.7 -0.4
v 1 0.7 -0.4
v -0.5 1 1
v -0.4 1 1
v 0.4 1 1
v 0.5 1 1
v -0.5 1 0.9
v -0.4 1 0.9
v 0.4 1 0.9
v 0.5 1 0.9
v -1 1 0.5
v -0.9 1 0.5
v 0.9 1 0.5
v 1 1 0.5
v -1 1 0.4
v -0.9 1 0.4
v 0.9 1 0.4
v 1 1 0.4
v -1 1 -0.4
v -0.9 1 -0.4
v 0.9 1 -0.4
v 1 1 -0.4
v -1 1 -0.5
v -0.9 1 -0.5
v 0.9 1 -0.5
v 1 1 -0.5
v -0.5 1 -0.9
v -0.4 1 -0.9
v 0.4 1 -0.9
v 0.5 1 -0.9
v -0.5 1 -1
v -0.4 1 -1
v 0.4 1 -1
v 0.5 1 -1
v -1 1.6 1
v -0.5 1.6 1
v 0.5 1.6 1
v 1 1.6 1
v -0.9 1.6 0.9
v -0.5 1.6 0.9
v 0.5 1.6 0.9
v 0.9 1.6 0.9
v -1 1.6 0.5
v -0.9 1.6 0.5
v 0.9 1.6 0.5
v 1 1.6 0.5
v -1 1.6 -0.5
v -0.9 1.6 -0.5
v 0.9 1.6 -0.5
v 1 1.6 -0.5
v -0.9 1.6 -0.9
v -0.5 1.6 -0.9
v 0.5 1.6 -0.9
v 0.9 1.6 -0.9
v -1 1.6 -1
v -0.5 1.6 -1
v 0.5 1.6 -1
v 1 1.6 -1
v -1 0.1 1
v 1 0.1 1
v -0.9 0.1 0.9
v 0.9 0.1 0.9
v -0.9 0.1 -0.9
v -0.4 0.1 -0.9
v 0.4 0.1 -0.9
v 0.9 0.1 -0.9
v -1 0.1 -1
v -0.4 0.1 -1
v 0.4 0.1 -1
v 1 0.1 -1
v -0.7 1.6 0.9
v 0.7 1.6 0.9
v -0.9 1.6 0.7
v -0.7 1.6 0.7
v 0.7 1.6 0.7
v 0.9 1.6 0.7
v -0.9 1.6 -0.7
v -0.7 1.6 -0.7
v 0.7 1.6 -0.7
v 0.9 1.6 -0.7
v -0.7 1.6 -0.9
v 0.7 1.6 -0.9
v -0.7 1.7 1
v -0.2 1.7 1
v 0.2 1.7 1
v 0.7 1.7 1
v -0.7 1.7 0.9
v -0.2 1.7 0.9
v 0.2 1.7 0.9
v 0.7 1.7 0.9
v -1 1.7 0.7
v -0.9 1.7 0.7
v 0.9 1.7 0.7
v 1 1.7 0.7
v -1 1.7 0.2
v -0.9 1.7 0.2
v 0.9 1.7 0.2
v 1 1.7 0.2
v -1 1.7 -0.2
v -0.9 1.7 -0.2
v 0.9 1.7 -0.2
v 1 1.7 -0.2
v -1 1.7 -0.7
v -0.9 1.7 -0.7
v 0.9 1.7 -0.7
v 1 1.7 -0.7
v -0.7 1.7 -0.9
v -0.2 1.7 -0.9
v 0.2 1.7 -0.9
v 0.7 1.7 -0.9
v -0.7 1.7 -1
v -0.2 1.7 -1
v 0.2 1.7 -1
v 0.7 1.7 -1
v -1 1.9 1
v -0.7 1.9 1
v -0.2 1.9 1
v 0.2 1.9 1
v 0.7 1.9 1
v 1 1.9 1
v -0.2 1.9 0.9
v 0.2 1.9 0.9
v -1 1.9 0.7
v -0.7 1.9 0.7
v 0.7 1.9 0.7
v 1 1.9 0.7
v -1 1.9 0.2
v -0.9 1.9 0.2
v 0.9 1.9 0.2
v 1 1.9 0.2
v -1 1.9 -0.2
v -0.9 1.9 -0.2
v 0.9 1.9 -0.2
v 1 1.9 -0.2
v -1 1.9 -0.7
v -0.7 1.9 -0.7
v 0.7 1.9 -0.7
v 1 1.9 -0.7
v -0.2 1.9 -0.9
v 0.2 1.9 -0.9
v -1 1.9 -1
v -0.7 1.9 -1
v -0.2 1.9 -1
v 0.2 1.9 -1
v 0.7 1.9 -1
v 1 1.9 -1

# faces
f 3/3/1 2/3/1 1/3/1
f 4/3/1 2/3/1 3/3/1
f 10/4/1 6/4/1 5/4/1
f 11/4/1 8/4/1 7/4/1
f 13/4/1 10/4/1 9/4/1
f 14/2/1 7/2/1 6/2/1
f 14/4/1 10/4/1 13/4/1
f 14/4/1 6/4/1 10/4/1
f 15/4/1 12/4/1 11/4/1
f 15/2/1 7/2/1 14/2/1
f 15/4/1 11/4/1 7/4/1
f 16/4/1 12/4/1 15/4/1
f 17/2/1 14/2/1 13/2/1
f 17/2/1 15/2/1 14/2/1
f 17/2/1 16/2/1 15/2/1
f 18/2/1 16/2/1 17/2/1
f 19/2/1 16/2/1 18/2/1
f 20/2/1 16/2/1 19/2/1
f 22/4/1 18/4/1 17/4/1
f 23/2/1 19/2/1 18/2/1
f 23/4/1 18/4/1 22/4/1
f 24/4/1 20/4/1 19/4/1
f 24/2/1 19/2/1 23/2/1
f 25/4/1 20/4/1 24/4/1
f 27/2/1 25/2/1 24/2/1
f 27/2/1 26/2/1 25/2/1
f 27/2/1 24/2/1 23/2/1
f 27/2/1 23/2/1 22/2/1
f 27/2/1 22/2/1 21/2/1
f 28/2/1 26/2/1 27/2/1
f 29/2/1 26/2/1 28/2/1
f 30/2/1 26/2/1 29/2/1
f 31/2/1 27/2/1 21/2/1
f 32/2/1 27/2/1 31/2/1
f 33/2/1 29/2/1 28/2/1
f 34/2/1 29/2/1 33/2/1
f 35/2/1 26/2/1 30/2/1
f 36/2/1 26/2/1 35/2/1
f 39/3/1 38/3/1 37/3/1
f 40/3/1 38/3/1 39/3/1
f 41/3/1 38/3/1 40/3/1
f 42/3/1 38/3/1 41/3/1
f 43/3/1 39/3/1 37/3/1
f 44/3/1 39/3/1 43/3/1
f 45/3/1 38/3/1 42/3/1
f 46/3/1 38/3/1 45/3/1
f 47/3/1 43/3/1 37/3/1
f 48/3/1 38/3/1 46/3/1
f 49/3/1 47/3/1 37/3/1
f 50/3/1 38/3/1 48/3/1
f 51/3/1 49/3/1 37/3/1
f 52/3/1 49/3/1 51/3/1
f 53/3/1 38/3/1 50/3/1
f 54/3/1 38/3/1 53/3/1
f 59/4/1 56/4/1 55/4/1
f 60/4/1 56/4/1 59/4/1
f 61/4/1 58/4/1 57/4/1
f 62/4/1 58/4/1 61/4/1
f 63/2/1 60/2/1 59/2/1
f 64/2/1 60/2/1 63/2/1
f 65/2/1 62/2/1 61/2/1
f 66/2/1 62/2/1 65/2/1
f 67/4/1 64/4/1 63/4/1
f 68/4/1 64/4/1 67/4/1
f 69/4/1 66/4/1 65/4/1
f 70/4/1 66/4/1 69/4/1
f 75/3/1 72/3/1 71/3/1
f 76/3/1 72/3/1 75/3/1
f 77/4/1 74/4/1 73/4/1
f 78/4/1 74/4/1 77/4/1
f 79/4/1 76/4/1 75/4/1
f 80/4/1 76/4/1 79/4/1
f 85/2/1 82/2/1 81/2/1
f 86/2/1 82/2/1 85/2/1
f 87/2/1 84/2/1 83/2/1
f 88/2/1 84/2/1 87/2/1
f 91/3/1 90/3/1 89/3/1
f 92/3/1 90/3/1 91/3/1
f 95/3/1 94/3/1 93/3/1
f 96/3/1 94/3/1 95/3/1
f 102/2/1 98/2/1 97/2/1
f 103/2/1 100/2/1 99/2/1
f 105/2/1 102/2/1 101/2/1
f 106/2/1 98/2/1 102/2/1
f 106/2/1 102/2/1 105/2/1
f 107/2/1 104/2/1 103/2/1
f 107/2/1 103/2/1 99/2/1
f 108/2/1 104/2/1 107/2/1
f 111/2/1 110/2/1 109/2/1
f 112/2/1 110/2/1 111/2/1
f 113/2/1 110/2/1 112/2/1
f 114/2/1 110/2/1 113/2/1
f 115/2/1 113/2/1 112/2/1
f 116/2/1 113/2/1 115/2/1
f 117/2/2 118/2/2 119/2/2
f 119/2/2 118/2/2 120/2/2
f 120/2/2 118/2/2 121/2/2
f 121/2/2 118/2/2 122/2/2
f 120/2/2 121/2/2 123/2/2
f 123/2/2 121/2/2 124/2/2
f 125/2/2 126/2/2 130/2/2
f 127/2/2 128/2/2 131/2/2
f 129/2/2 130/2/2 133/2/2
f 130/2/2 126/2/2 134/2/2
f 133/2/2 130/2/2 134/2/2
f 131/2/2 132/2/2 135/2/2
f 127/2/2 131/2/2 135/2/2
f 135/2/2 132/2/2 136/2/2
f 137/3/2 138/3/2 139/3/2
f 139/3/2 138/3/2 140/3/2
f 141/3/2 142/3/2 143/3/2
f 143/3/2 142/3/2 144/3/2
f 145/2/2 146/2/2 149/2/2
f 149/2/2 146/2/2 150/2/2
f 147/2/2 148/2/2 151/2/2
f 151/2/2 148/2/2 152/2/2
f 153/3/2 154/3/2 157/3/2
f 157/3/2 154/3/2 158/3/2
f 155/4/2 156/4/2 159/4/2
f 159/4/2 156/4/2 160/4/2
f 157/4/2 158/4/2 161/4/2
f 161/4/2 158/4/2 162/4/2
f 163/4/2 164/4/2 167/4/2
f 167/4/2 164/4/2 168/4/2
f 165/4/2 166/4/2 169/4/2
f 169/4/2 166/4/2 170/4/2
f 167/2/2 168/2/2 171/2/2
f 171/2/2 168/2/2 172/2/2
f 169/2/2 170/2/2 173/2/2
f 173/2/2 170/2/2 174/2/2
f 171/4/2 172/4/2 175/4/2
f 175/4/2 172/4/2 176/4/2
f 173/4/2 174/4/2 177/4/2
f 177/4/2 174/4/2 178/4/2
f 179/3/2 180/3/2 181/3/2
f 181/3/2 180/3/2 182/3/2
f 182/3/2 180/3/2 183/3/2
f 183/3/2 180/3/2 184/3/2
f 179/3/2 181/3/2 185/3/2
f 185/3/2 181/3/2 186/3/2
f 184/3/2 180/3/2 187/3/2
f 187/3/2 180/3/2 188/3/2
f 179/3/2 185/3/2 189/3/2
f 188/3/2 180/3/2 190/3/2
f 179/3/2 189/3/2 191/3/2
f 190/3/2 180/3/2 192/3/2
f 179/3/2 191/3/2 193/3/2
f 193/3/2 191/3/2 194/3/2
f 192/3/2 180/3/2 195/3/2
f 195/3/2 180/3/2 196/3/2
f 197/3/2 198/3/2 199/3/2
f 199/3/2 198/3/2 200/3/2
f 201/4/2 202/4/2 206/4/2
f 203/4/2 204/4/2 207/4/2
f 205/4/2 206/4/2 209/4/2
f 202/2/2 203/2/2 210/2/2
f 209/4/2 206/4/2 210/4/2
f 206/4/2 202/4/2 210/4/2
f 207/4/2 208/4/2 211/4/2
f 210/2/2 203/2/2 211/2/2
f 203/4/2 207/4/2 211/4/2
f 211/4/2 208/4/2 212/4/2
f 209/2/2 210/2/2 213/2/2
f 210/2/2 211/2/2 213/2/2
f 211/2/2 212/2/2 213/2/2
f 213/2/2 212/2/2 214/2/2
f 214/2/2 212/2/2 215/2/2
f 215/2/2 212/2/2 216/2/2
f 213/4/2 214/4/2 218/4/2
f 214/2/2 215/2/2 219/2/2
f 218/4/2 214/4/2 219/4/2
f 215/4/2 216/4/2 220/4/2
f 219/2/2 215/2/2 220/2/2
f 220/4/2 216/4/2 221/4/2
f 220/2/2 221/2/2 223/2/2
f 221/2/2 222/2/2 223/2/2
f 219/2/2 220/2/2 223/2/2
f 218/2/2 219/2/2 223/2/2
f 217/2/2 218/2/2 223/2/2
f 223/2/2 222/2/2 224/2/2
f 224/2/2 222/2/2 225/2/2
f 225/2/2 222/2/2 226/2/2
f 217/2/2 223/2/2 227/2/2
f 227/2/2 223/2/2 228/2/2
f 224/2/2 225/2/2 229/2/2
f 229/2/2 225/2/2 230/2/2
f 226/2/2 222/2/2 231/2/2
f 231/2/2 222/2/2 232/2/2
f 237/2/3 236/2/3 235/2/3
f 238/2/3 236/2/3 237/2/3
f 242/2/3 237/2/3 235/2/3
f 244/4/3 240/4/3 239/4/3
f 245/2/3 237/2/3 242/2/3
f 247/4/3 244/4/3 243/4/3
f 248/2/3 241/2/3 240/2/3
f 248/4/3 244/4/3 247/4/3
f 248/4/3 240/4/3 244/4/3
f 249/4/3 242/4/3 241/4/3
f 249/2/3 241/2/3 248/2/3
f 250/2/3 246/2/3 245/2/3
f 250/4/3 242/4/3 249/4/3
f 250/2/3 245/2/3 242/2/3
f 251/2/3 248/2/3 247/2/3
f 251/2/3 249/2/3 248/2/3
f 251/2/3 250/2/3 249/2/3
f 252/2/3 250/2/3 251/2/3
f 253/2/3 250/2/3 252/2/3
f 254/2/3 246/2/3 250/2/3
f 254/2/3 250/2/3 253/2/3
f 255/2/3 246/2/3 254/2/3
f 256/2/3 246/2/3 255/2/3
f 257/4/3 252/4/3 251/4/3
f 258/4/3 252/4/3 257/4/3
f 259/4/3 252/4/3 258/4/3
f 260/2/3 253/2/3 252/2/3
f 260/4/3 252/4/3 259/4/3
f 261/4/3 254/4/3 253/4/3
f 261/2/3 253/2/3 260/2/3
f 262/2/3 255/2/3 254/2/3
f 262/4/3 254/4/3 261/4/3
f 263/2/3 255/2/3 262/2/3
f 265/3/3 234/3/3 233/3/3
f 266/3/3 234/3/3 265/3/3
f 267/2/3 264/2/3 263/2/3
f 267/2/3 263/2/3 262/2/3
f 268/2/3 264/2/3 267/2/3
f 271/3/3 270/3/3 269/3/3
f 272/3/3 270/3/3 271/3/3
f 273/3/3 270/3/3 272/3/3
f 274/3/3 270/3/3 273/3/3
f 275/3/3 271/3/3 269/3/3
f 276/3/3 271/3/3 275/3/3
f 277/3/3 275/3/3 269/3/3
f 278/3/3 277/3/3 269/3/3
f 279/3/3 278/3/3 269/3/3
f 281/3/3 280/3/3 279/3/3
f 285/3/3 281/3/3 279/3/3
f 285/3/3 284/3/3 283/3/3
f 285/3/3 283/3/3 282/3/3
f 285/3/3 282/3/3 281/3/3
f 285/3/3 279/3/3 269/3/3
f 286/3/3 284/3/3 285/3/3
f 291/4/3 288/4/3 287/4/3
f 292/2/3 289/2/3 288/2/3
f 292/4/3 288/4/3 291/4/3
f 293/4/3 290/4/3 289/4/3
f 293/2/3 289/2/3 292/2/3
f 294/4/3 290/4/3 293/4/3
f 299/4/3 296/4/3 295/4/3
f 300/2/3 297/2/3 296/2/3
f 300/4/3 296/4/3 299/4/3
f 301/4/3 298/4/3 297/4/3
f 301/2/3 297/2/3 300/2/3
f 302/4/3 298/4/3 301/4/3
f 305/4/3 304/4/3 303/4/3
f 306/4/3 304/4/3 305/4/3
f 309/4/3 308/4/3 307/4/3
f 310/4/3 308/4/3 309/4/3
f 313/2/3 312/2/3 311/2/3
f 314/2/3 312/2/3 313/2/3
f 317/2/3 316/2/3 315/2/3
f 318/2/3 316/2/3 317/2/3
f 322/2/3 320/2/3 319/2/3
f 323/2/3 322/2/3 321/2/3
f 324/2/3 320/2/3 322/2/3
f 324/2/3 322/2/3 323/2/3
f 327/2/3 326/2/3 325/2/3
f 328/2/3 326/2/3 327/2/3
f 329/2/3 326/2/3 328/2/3
f 330/2/3 326/2/3 329/2/3
f 333/2/3 332/2/3 331/2/3
f 335/2/3 333/2/3 331/2/3
f 335/2/3 334/2/3 333/2/3
f 336/2/3 334/2/3 335/2/3
f 337/2/3 335/2/3 331/2/3
f 338/2/3 335/2/3 337/2/3
f 339/2/4 340/2/4 341/2/4
f 339/2/4 341/2/4 343/2/4
f 341/2/4 342/2/4 343/2/4
f 343/2/4 342/2/4 344/2/4
f 339/2/4 343/2/4 345/2/4
f 345/2/4 343/2/4 346/2/4
f 347/2/4 348/2/4 350/2/4
f 349/2/4 350/2/4 351/2/4
f 350/2/4 348/2/4 352/2/4
f 351/2/4 350/2/4 352/2/4
f 353/2/4 354/2/4 355/2/4
f 355/2/4 354/2/4 356/2/4
f 356/2/4 354/2/4 357/2/4
f 357/2/4 354/2/4 358/2/4
f 359/2/4 360/2/4 361/2/4
f 361/2/4 360/2/4 362/2/4
f 363/2/4 364/2/4 365/2/4
f 365/2/4 364/2/4 366/2/4
f 367/4/4 368/4/4 369/4/4
f 369/4/4 368/4/4 370/4/4
f 371/4/4 372/4/4 373/4/4
f 373/4/4 372/4/4 374/4/4
f 375/4/4 376/4/4 379/4/4
f 376/2/4 377/2/4 380/2/4
f 379/4/4 376/4/4 380/4/4
f 377/4/4 378/4/4 381/4/4
f 380/2/4 377/2/4 381/2/4
f 381/4/4 378/4/4 382/4/4
f 383/4/4 384/4/4 387/4/4
f 384/2/4 385/2/4 388/2/4
f 387/4/4 384/4/4 388/4/4
f 385/4/4 386/4/4 389/4/4
f 388/2/4 385/2/4 389/2/4
f 389/4/4 386/4/4 390/4/4
f 391/3/4 392/3/4 393/3/4
f 393/3/4 392/3/4 394/3/4
f 394/3/4 392/3/4 395/3/4
f 395/3/4 392/3/4 396/3/4
f 391/3/4 393/3/4 397/3/4
f 397/3/4 393/3/4 398/3/4
f 398/3/4 393/3/4 399/3/4
f 400/1/4 401/1/4 402/1/4
f 400/1/4 402/1/4 404/1/4
f 402/1/4 403/1/4 404/1/4
f 404/1/4 403/1/4 405/1/4
f 400/1/4 404/1/4 406/1/4
f 406/1/4 404/1/4 407/1/4
f 408/3/4 409/3/4 411/3/4
f 409/3/4 410/3/4 411/3/4
f 408/3/4 411/3/4 415/3/4
f 413/3/4 414/3/4 415/3/4
f 412/3/4 413/3/4 415/3/4
f 411/3/4 412/3/4 415/3/4
f 415/3/4 414/3/4 416/3/4
f 419/2/4 420/2/4 421/2/4
f 421/2/4 420/2/4 422/2/4
f 419/2/4 421/2/4 426/2/4
f 417/3/4 418/3/4 427/3/4
f 423/4/4 424/4/4 429/4/4
f 427/3/4 428/3/4 430/3/4
f 417/3/4 427/3/4 430/3/4
f 430/3/4 428/3/4 431/3/4
f 431/3/4 428/3/4 432/3/4
f 432/3/4 428/3/4 433/3/4
f 426/2/4 421/2/4 434/2/4
f 428/4/4 429/4/4 436/4/4
f 433/3/4 428/3/4 436/3/4
f 424/2/4 425/2/4 437/2/4
f 436/4/4 429/4/4 437/4/4
f 429/4/4 424/4/4 437/4/4
f 425/4/4 426/4/4 438/4/4
f 437/2/4 425/2/4 438/2/4
f 434/2/4 435/2/4 439/2/4
f 438/4/4 426/4/4 439/4/4
f 426/2/4 434/2/4 439/2/4
f 436/2/4 437/2/4 440/2/4
f 433/3/4 436/3/4 440/3/4
f 438/2/4 439/2/4 440/2/4
f 437/2/4 438/2/4 440/2/4
f 440/2/4 439/2/4 441/2/4
f 441/2/4 439/2/4 442/2/4
f 439/2/4 435/2/4 443/2/4
f 442/2/4 439/2/4 443/2/4
f 433/3/4 440/3/4 445/3/4
f 443/2/4 435/2/4 446/2/4
f 446/2/4 435/2/4 447/2/4
f 444/3/4 445/3/4 449/3/4
f 448/3/4 449/3/4 450/3/4
f 440/4/4 441/4/4 451/4/4
f 450/3/4 449/3/4 451/3/4
f 445/3/4 440/3/4 451/3/4
f 449/3/4 445/3/4 451/3/4
f 451/4/4 441/4/4 452/4/4
f 452/4/4 441/4/4 453/4/4
f 441/2/4 442/2/4 454/2/4
f 453/4/4 441/4/4 454/4/4
f 442/4/4 443/4/4 455/4/4
f 454/2/4 442/2/4 455/2/4
f 443/2/4 446/2/4 456/2/4
f 455/4/4 443/4/4 456/4/4
f 456/2/4 446/2/4 457/2/4
f 448/3/4 450/3/4 459/3/4
f 459/3/4 450/3/4 460/3/4
f 457/2/4 458/2/4 461/2/4
f 456/2/4 457/2/4 461/2/4
f 461/2/4 458/2/4 462/2/4
f 465/3/5 464/3/5 463/3/5
f 466/3/5 464/3/5 465/3/5
f 467/3/5 465/3/5 463/3/5
f 467/1/5 466/1/5 465/1/5
f 468/3/5 464/3/5 466/3/5
f 468/1/5 466/1/5 467/1/5
f 469/3/5 467/3/5 463/3/5
f 470/3/5 467/3/5 469/3/5
f 471/3/5 464/3/5 468/3/5
f 472/3/5 464/3/5 471/3/5
f 477/3/5 474/3/5 473/3/5
f 478/3/5 474/3/5 477/3/5
f 479/3/5 476/3/5 475/3/5
f 480/3/5 476/3/5 479/3/5
f 483/3/5 482/3/5 481/3/5
f 484/3/5 482/3/5 483/3/5
f 489/4/5 486/4/5 485/4/5
f 490/2/5 487/2/5 486/2/5
f 490/4/5 486/4/5 489/4/5
f 491/4/5 488/4/5 487/4/5
f 491/2/5 487/2/5 490/2/5
f 492/4/5 488/4/5 491/4/5
f 497/4/5 494/4/5 493/4/5
f 498/4/5 494/4/5 497/4/5
f 499/4/5 496/4/5 495/4/5
f 500/4/5 496/4/5 499/4/5
f 501/2/5 498/2/5 497/2/5
f 502/2/5 498/2/5 501/2/5
f 503/2/5 500/2/5 499/2/5
f 504/2/5 500/2/5 503/2/5
f 505/4/5 502/4/5 501/4/5
f 506/4/5 502/4/5 505/4/5
f 507/4/5 504/4/5 503/4/5
f 508/4/5 504/4/5 507/4/5
f 513/4/5 510/4/5 509/4/5
f 514/4/5 510/4/5 513/4/5
f 515/4/5 512/4/5 511/4/5
f 516/4/5 512/4/5 515/4/5
f 521/4/5 518/4/5 517/4/5
f 522/4/5 518/4/5 521/4/5
f 523/4/5 520/4/5 519/4/5
f 524/4/5 520/4/5 523/4/5
f 529/4/5 526/4/5 525/4/5
f 530/4/5 526/4/5 529/4/5
f 531/4/5 528/4/5 527/4/5
f 532/4/5 528/4/5 531/4/5
f 537/4/5 534/4/5 533/4/5
f 538/4/5 534/4/5 537/4/5
f 539/4/5 536/4/5 535/4/5
f 540/4/5 536/4/5 539/4/5
f 545/2/5 542/2/5 541/2/5
f 546/2/5 542/2/5 545/2/5
f 547/2/5 544/2/5 543/2/5
f 548/2/5 544/2/5 547/2/5
f 549/2/5 545/2/5 541/2/5
f 550/2/5 545/2/5 549/2/5
f 551/2/5 544/2/5 548/2/5
f 552/2/5 544/2/5 551/2/5
f 557/2/5 554/2/5 553/2/5
f 560/2/5 556/2/5 555/2/5
f 561/2/5 558/2/5 557/2/5
f 561/2/5 557/2/5 553/2/5
f 562/2/5 558/2/5 561/2/5
f 563/2/5 560/2/5 559/2/5
f 564/2/5 556/2/5 560/2/5
f 564/2/5 560/2/5 563/2/5
f 565/3/6 566/3/6 567/3/6
f 567/3/6 566/3/6 568/3/6
f 565/3/6 567/3/6 569/3/6
f 568/3/6 566/3/6 572/3/6
f 569/3/6 570/3/6 573/3/6
f 565/3/6 569/3/6 573/3/6
f 573/3/6 570/3/6 574/3/6
f 571/3/6 572/3/6 575/3/6
f 572/3/6 566/3/6 576/3/6
f 575/3/6 572/3/6 576/3/6
f 577/3/6 578/3/6 580/3/6
f 580/3/6 578/3/6 581/3/6
f 579/3/6 580/3/6 583/3/6
f 581/3/6 582/3/6 583/3/6
f 580/3/6 581/3/6 583/3/6
f 583/3/6 582/3/6 584/3/6
f 584/3/6 582/3/6 585/3/6
f 585/3/6 582/3/6 586/3/6
f 584/3/6 585/3/6 587/3/6
f 587/3/6 585/3/6 588/3/6
f 589/2/6 590/2/6 593/2/6
f 593/2/6 590/2/6 594/2/6
f 591/2/6 592/2/6 595/2/6
f 595/2/6 592/2/6 596/2/6
f 597/2/6 598/2/6 601/2/6
f 601/2/6 598/2/6 602/2/6
f 599/2/6 600/2/6 603/2/6
f 603/2/6 600/2/6 604/2/6
f 605/2/6 606/2/6 609/2/6
f 609/2/6 606/2/6 610/2/6
f 607/2/6 608/2/6 611/2/6
f 611/2/6 608/2/6 612/2/6
f 613/2/6 614/2/6 617/2/6
f 617/2/6 614/2/6 618/2/6
f 615/2/6 616/2/6 619/2/6
f 619/2/6 616/2/6 620/2/6
f 623/2/6 624/2/6 627/2/6
f 627/2/6 624/2/6 628/2/6
f 621/2/6 622/2/6 629/2/6
f 629/2/6 622/2/6 630/2/6
f 625/2/6 626/2/6 631/2/6
f 631/2/6 626/2/6 632/2/6
f 633/2/6 634/2/6 637/2/6
f 637/2/6 634/2/6 638/2/6
f 635/2/6 636/2/6 639/2/6
f 639/2/6 636/2/6 640/2/6
f 641/2/6 642/2/6 647/2/6
f 647/2/6 642/2/6 648/2/6
f 645/2/6 646/2/6 649/2/6
f 649/2/6 646/2/6 650/2/6
f 643/2/6 644/2/6 651/2/6
f 651/2/6 644/2/6 652/2/6
