# MagicaVoxel @ Ephtracy

# group
o 

# material
mtllib Santa.mtl
usemtl palette

# normals
vn -1 0 0
vn 1 0 0
vn 0 0 1
vn 0 0 -1
vn 0 -1 0
vn 0 1 0

# texcoords
vt 0.0214844 0.5
vt 0.0605469 0.5
vt 0.849609 0.5
vt 0.958984 0.5
vt 0.990234 0.5

# verts
v -0.3 0.4 0.1
v -0.3 0.4 0
v -0.3 0.4 -0.1
v -0.3 0.4 -0.2
v -0.3 0.4 -0.4
v -0.3 0.5 0.1
v -0.3 0.5 0
v -0.3 0.6 0
v -0.3 0.6 -0.1
v -0.3 0.6 -0.2
v -0.3 0.7 -0.1
v -0.3 0.7 -0.4
v -0.2 0 0.1
v -0.2 0 -0.1
v -0.2 0.1 0.1
v -0.2 0.1 0
v -0.2 0.1 -0.1
v -0.2 0.2 0
v -0.2 0.2 -0.1
v -0.2 0.3 0.1
v -0.2 0.3 0
v -0.2 0.3 -0.1
v -0.2 0.3 -0.2
v -0.2 0.4 0.1
v -0.2 0.4 0
v -0.2 0.4 -0.1
v -0.2 0.4 -0.2
v -0.2 0.6 0.2
v -0.2 0.6 0
v -0.2 0.6 -0.1
v -0.2 0.6 -0.2
v -0.2 0.7 0.2
v -0.2 0.7 0.1
v -0.2 0.7 0
v -0.2 0.7 -0.1
v -0.2 0.7 -0.2
v -0.2 0.8 0.1
v -0.2 0.8 0
v -0.2 0.8 -0.1
v -0.2 0.8 -0.2
v -0.2 0.8 -0.3
v -0.2 0.9 0.1
v -0.2 0.9 0
v -0.2 0.9 -0.1
v -0.2 0.9 -0.2
v -0.2 0.9 -0.3
v -0.2 1 -0.1
v -0.2 1 -0.2
v -0.1 0.5 0.2
v -0.1 0.5 0.1
v -0.1 0.5 0
v -0.1 0.6 0.3
v -0.1 0.6 0.2
v -0.1 0.6 0.1
v -0.1 0.6 0
v -0.1 0.7 0.3
v -0.1 0.7 0.2
v -0.1 0.7 0.1
v -0.1 0.8 0.2
v -0.1 0.8 0.1
v 0.1 0 0.1
v 0.1 0 -0.1
v 0.1 0.1 0.1
v 0.1 0.1 0
v 0.1 0.1 -0.1
v 0.1 0.2 0
v 0.1 0.2 -0.1
v 0.1 0.3 0
v 0.1 0.3 -0.1
v -0.1 0 0.1
v -0.1 0 -0.1
v -0.1 0.1 0.1
v -0.1 0.1 0
v -0.1 0.1 -0.1
v -0.1 0.2 0
v -0.1 0.2 -0.1
v -0.1 0.3 0
v -0.1 0.3 -0.1
v -0.1 0.8 -0.2
v -0.1 0.8 -0.3
v -0.1 0.9 -0.1
v -0.1 0.9 -0.2
v -0.1 0.9 -0.3
v -0.1 1 -0.1
v -0.1 1 -0.2
v 0.1 0.5 0.2
v 0.1 0.5 0.1
v 0.1 0.5 0
v 0.1 0.6 0.3
v 0.1 0.6 0.2
v 0.1 0.6 0.1
v 0.1 0.6 0
v 0.1 0.7 0.3
v 0.1 0.7 0.2
v 0.1 0.7 0.1
v 0.1 0.8 0.2
v 0.1 0.8 0.1
v 0.2 0 0.1
v 0.2 0 -0.1
v 0.2 0.1 0.1
v 0.2 0.1 0
v 0.2 0.1 -0.1
v 0.2 0.2 0
v 0.2 0.2 -0.1
v 0.2 0.3 0.1
v 0.2 0.3 0
v 0.2 0.3 -0.1
v 0.2 0.3 -0.2
v 0.2 0.4 0.1
v 0.2 0.4 0
v 0.2 0.4 -0.1
v 0.2 0.4 -0.2
v 0.2 0.6 0.2
v 0.2 0.6 0
v 0.2 0.6 -0.1
v 0.2 0.6 -0.2
v 0.2 0.7 0.2
v 0.2 0.7 0.1
v 0.2 0.7 0
v 0.2 0.7 -0.1
v 0.2 0.7 -0.2
v 0.2 0.8 0.1
v 0.2 0.8 0
v 0.2 0.8 -0.1
v 0.2 0.9 0.1
v 0.2 0.9 0
v 0.2 0.9 -0.2
v 0.3 0.4 0.1
v 0.3 0.4 0
v 0.3 0.4 -0.1
v 0.3 0.4 -0.2
v 0.3 0.4 -0.4
v 0.3 0.5 0.1
v 0.3 0.5 0
v 0.3 0.6 0
v 0.3 0.6 -0.1
v 0.3 0.6 -0.2
v 0.3 0.7 -0.1
v 0.3 0.7 -0.4
v -0.1 0.6 0.3
v -0.1 0.7 0.3
v 0.1 0.6 0.3
v 0.1 0.7 0.3
v -0.2 0.6 0.2
v -0.2 0.7 0.2
v -0.1 0.5 0.2
v -0.1 0.6 0.2
v -0.1 0.7 0.2
v -0.1 0.8 0.2
v 0.1 0.5 0.2
v 0.1 0.6 0.2
v 0.1 0.7 0.2
v 0.1 0.8 0.2
v 0.2 0.6 0.2
v 0.2 0.7 0.2
v -0.3 0.4 0.1
v -0.3 0.5 0.1
v -0.2 0 0.1
v -0.2 0.1 0.1
v -0.2 0.3 0.1
v -0.2 0.4 0.1
v -0.2 0.5 0.1
v -0.2 0.7 0.1
v -0.2 0.8 0.1
v -0.2 0.9 0.1
v -0.1 0 0.1
v -0.1 0.1 0.1
v -0.1 0.4 0.1
v -0.1 0.5 0.1
v -0.1 0.7 0.1
v -0.1 0.8 0.1
v 0.1 0 0.1
v 0.1 0.1 0.1
v 0.1 0.4 0.1
v 0.1 0.5 0.1
v 0.1 0.7 0.1
v 0.1 0.8 0.1
v 0.2 0 0.1
v 0.2 0.1 0.1
v 0.2 0.3 0.1
v 0.2 0.4 0.1
v 0.2 0.5 0.1
v 0.2 0.7 0.1
v 0.2 0.8 0.1
v 0.2 0.9 0.1
v 0.3 0.4 0.1
v 0.3 0.5 0.1
v -0.3 0.5 0
v -0.3 0.6 0
v -0.2 0.1 0
v -0.2 0.2 0
v -0.2 0.3 0
v -0.2 0.5 0
v -0.2 0.6 0
v -0.1 0.1 0
v -0.1 0.2 0
v -0.1 0.3 0
v -0.1 0.5 0
v -0.1 0.6 0
v 0.1 0.1 0
v 0.1 0.2 0
v 0.1 0.3 0
v 0.1 0.5 0
v 0.1 0.6 0
v 0.2 0.1 0
v 0.2 0.2 0
v 0.2 0.3 0
v 0.2 0.5 0
v 0.2 0.6 0
v 0.3 0.5 0
v 0.3 0.6 0
v -0.3 0.6 -0.1
v -0.3 0.7 -0.1
v -0.2 0.6 -0.1
v -0.2 0.7 -0.1
v -0.2 0.9 -0.1
v -0.2 1 -0.1
v -0.1 0.9 -0.1
v -0.1 1 -0.1
v 0.2 0.6 -0.1
v 0.2 0.7 -0.1
v 0.3 0.6 -0.1
v 0.3 0.7 -0.1
v -0.3 0.4 -0.2
v -0.3 0.6 -0.2
v -0.2 0.4 -0.2
v -0.2 0.6 -0.2
v 0.2 0.4 -0.2
v 0.2 0.6 -0.2
v 0.3 0.4 -0.2
v 0.3 0.6 -0.2
v -0.3 0.4 -0.1
v -0.3 0.6 -0.1
v -0.2 0 -0.1
v -0.2 0.1 -0.1
v -0.2 0.2 -0.1
v -0.2 0.3 -0.1
v -0.2 0.4 -0.1
v -0.2 0.6 -0.1
v -0.1 0 -0.1
v -0.1 0.1 -0.1
v -0.1 0.2 -0.1
v -0.1 0.3 -0.1
v 0.1 0 -0.1
v 0.1 0.1 -0.1
v 0.1 0.2 -0.1
v 0.1 0.3 -0.1
v 0.2 0 -0.1
v 0.2 0.1 -0.1
v 0.2 0.2 -0.1
v 0.2 0.3 -0.1
v 0.2 0.4 -0.1
v 0.2 0.6 -0.1
v 0.3 0.4 -0.1
v 0.3 0.6 -0.1
v -0.2 0.3 -0.2
v -0.2 0.4 -0.2
v -0.2 0.7 -0.2
v -0.2 0.8 -0.2
v -0.2 0.9 -0.2
v -0.2 1 -0.2
v -0.1 0.8 -0.2
v -0.1 0.9 -0.2
v -0.1 1 -0.2
v 0.2 0.3 -0.2
v 0.2 0.4 -0.2
v 0.2 0.7 -0.2
v 0.2 0.9 -0.2
v -0.2 0.8 -0.3
v -0.2 0.9 -0.3
v -0.1 0.8 -0.3
v -0.1 0.9 -0.3
v -0.3 0.4 -0.4
v -0.3 0.7 -0.4
v 0.3 0.4 -0.4
v 0.3 0.7 -0.4
v -0.2 0 0.1
v -0.1 0 0.1
v 0.1 0 0.1
v 0.2 0 0.1
v -0.2 0 -0.1
v -0.1 0 -0.1
v 0.1 0 -0.1
v 0.2 0 -0.1
v -0.2 0.3 0.1
v 0.2 0.3 0.1
v -0.2 0.3 0
v -0.1 0.3 0
v 0.1 0.3 0
v 0.2 0.3 0
v -0.2 0.3 -0.1
v -0.1 0.3 -0.1
v 0.1 0.3 -0.1
v 0.2 0.3 -0.1
v -0.2 0.3 -0.2
v 0.2 0.3 -0.2
v -0.3 0.4 0.1
v -0.2 0.4 0.1
v 0.2 0.4 0.1
v 0.3 0.4 0.1
v -0.3 0.4 0
v -0.2 0.4 0
v 0.2 0.4 0
v 0.3 0.4 0
v -0.3 0.4 -0.1
v -0.2 0.4 -0.1
v 0.2 0.4 -0.1
v 0.3 0.4 -0.1
v -0.3 0.4 -0.2
v -0.2 0.4 -0.2
v 0.2 0.4 -0.2
v 0.3 0.4 -0.2
v -0.3 0.4 -0.4
v 0.3 0.4 -0.4
v -0.1 0.5 0.2
v 0.1 0.5 0.2
v -0.1 0.5 0.1
v 0.1 0.5 0.1
v -0.1 0.6 0.3
v 0.1 0.6 0.3
v -0.2 0.6 0.2
v -0.1 0.6 0.2
v 0.1 0.6 0.2
v 0.2 0.6 0.2
v -0.1 0.6 0.1
v 0.1 0.6 0.1
v -0.2 0.6 0
v -0.1 0.6 0
v 0.1 0.6 0
v 0.2 0.6 0
v -0.3 0.6 -0.1
v -0.2 0.6 -0.1
v 0.2 0.6 -0.1
v 0.3 0.6 -0.1
v -0.3 0.6 -0.2
v -0.2 0.6 -0.2
v 0.2 0.6 -0.2
v 0.3 0.6 -0.2
v -0.2 0.8 -0.2
v -0.1 0.8 -0.2
v -0.2 0.8 -0.3
v -0.1 0.8 -0.3
v -0.2 0.1 0.1
v -0.1 0.1 0.1
v 0.1 0.1 0.1
v 0.2 0.1 0.1
v -0.2 0.1 0
v -0.1 0.1 0
v 0.1 0.1 0
v 0.2 0.1 0
v -0.3 0.5 0.1
v -0.2 0.5 0.1
v -0.1 0.5 0.1
v 0.1 0.5 0.1
v 0.2 0.5 0.1
v 0.3 0.5 0.1
v -0.3 0.5 0
v -0.2 0.5 0
v -0.1 0.5 0
v 0.1 0.5 0
v 0.2 0.5 0
v 0.3 0.5 0
v -0.3 0.6 0
v -0.2 0.6 0
v 0.2 0.6 0
v 0.3 0.6 0
v -0.3 0.6 -0.1
v -0.2 0.6 -0.1
v 0.2 0.6 -0.1
v 0.3 0.6 -0.1
v -0.1 0.7 0.3
v 0.1 0.7 0.3
v -0.2 0.7 0.2
v -0.1 0.7 0.2
v 0.1 0.7 0.2
v 0.2 0.7 0.2
v -0.2 0.7 0.1
v -0.1 0.7 0.1
v 0.1 0.7 0.1
v 0.2 0.7 0.1
v -0.3 0.7 -0.1
v -0.2 0.7 -0.1
v 0.2 0.7 -0.1
v 0.3 0.7 -0.1
v -0.2 0.7 -0.2
v 0.2 0.7 -0.2
v -0.3 0.7 -0.4
v 0.3 0.7 -0.4
v -0.1 0.8 0.2
v 0.1 0.8 0.2
v -0.1 0.8 0.1
v 0.1 0.8 0.1
v -0.2 0.9 0.1
v 0.2 0.9 0.1
v -0.2 0.9 0
v 0.2 0.9 0
v -0.2 0.9 -0.1
v -0.1 0.9 -0.1
v -0.2 0.9 -0.2
v -0.1 0.9 -0.2
v 0.2 0.9 -0.2
v -0.2 0.9 -0.3
v -0.1 0.9 -0.3
v -0.2 1 -0.1
v -0.1 1 -0.1
v -0.2 1 -0.2
v -0.1 1 -0.2

# faces
f 6/2/1 2/2/1 1/2/1
f 7/3/1 3/3/1 2/3/1
f 7/2/1 2/2/1 6/2/1
f 8/3/1 3/3/1 7/3/1
f 9/3/1 3/3/1 8/3/1
f 10/3/1 5/3/1 4/3/1
f 11/3/1 10/3/1 9/3/1
f 12/3/1 5/3/1 10/3/1
f 12/3/1 10/3/1 11/3/1
f 15/5/1 14/5/1 13/5/1
f 16/5/1 14/5/1 15/5/1
f 17/5/1 14/5/1 16/5/1
f 18/4/1 17/4/1 16/4/1
f 19/4/1 17/4/1 18/4/1
f 21/3/1 19/3/1 18/3/1
f 22/3/1 19/3/1 21/3/1
f 24/3/1 22/3/1 21/3/1
f 24/3/1 23/3/1 22/3/1
f 24/3/1 21/3/1 20/3/1
f 25/3/1 23/3/1 24/3/1
f 26/3/1 23/3/1 25/3/1
f 27/3/1 23/3/1 26/3/1
f 30/3/1 27/3/1 26/3/1
f 31/3/1 27/3/1 30/3/1
f 32/4/1 29/4/1 28/4/1
f 32/4/1 30/4/1 29/4/1
f 33/4/1 30/4/1 32/4/1
f 34/4/1 30/4/1 33/4/1
f 35/4/1 30/4/1 34/4/1
f 37/2/1 34/2/1 33/2/1
f 38/4/1 35/4/1 34/4/1
f 38/2/1 34/2/1 37/2/1
f 39/3/1 36/3/1 35/3/1
f 39/4/1 35/4/1 38/4/1
f 40/3/1 36/3/1 39/3/1
f 42/4/1 38/4/1 37/4/1
f 43/3/1 40/3/1 39/3/1
f 43/4/1 38/4/1 42/4/1
f 43/3/1 39/3/1 38/3/1
f 44/3/1 40/3/1 43/3/1
f 45/4/1 41/4/1 40/4/1
f 45/3/1 40/3/1 44/3/1
f 46/4/1 41/4/1 45/4/1
f 47/4/1 45/4/1 44/4/1
f 48/4/1 45/4/1 47/4/1
f 53/4/1 50/4/1 49/4/1
f 54/3/1 51/3/1 50/3/1
f 54/4/1 50/4/1 53/4/1
f 55/3/1 51/3/1 54/3/1
f 56/4/1 53/4/1 52/4/1
f 57/4/1 53/4/1 56/4/1
f 59/2/1 58/2/1 57/2/1
f 60/2/1 58/2/1 59/2/1
f 63/5/1 62/5/1 61/5/1
f 64/5/1 62/5/1 63/5/1
f 65/5/1 62/5/1 64/5/1
f 66/4/1 65/4/1 64/4/1
f 67/4/1 65/4/1 66/4/1
f 68/3/1 67/3/1 66/3/1
f 69/3/1 67/3/1 68/3/1
f 70/5/2 71/5/2 72/5/2
f 72/5/2 71/5/2 73/5/2
f 73/5/2 71/5/2 74/5/2
f 73/4/2 74/4/2 75/4/2
f 75/4/2 74/4/2 76/4/2
f 75/3/2 76/3/2 77/3/2
f 77/3/2 76/3/2 78/3/2
f 79/4/2 80/4/2 82/4/2
f 82/4/2 80/4/2 83/4/2
f 81/4/2 82/4/2 84/4/2
f 84/4/2 82/4/2 85/4/2
f 86/4/2 87/4/2 90/4/2
f 87/3/2 88/3/2 91/3/2
f 90/4/2 87/4/2 91/4/2
f 91/3/2 88/3/2 92/3/2
f 89/4/2 90/4/2 93/4/2
f 93/4/2 90/4/2 94/4/2
f 94/2/2 95/2/2 96/2/2
f 96/2/2 95/2/2 97/2/2
f 98/5/2 99/5/2 100/5/2
f 100/5/2 99/5/2 101/5/2
f 101/5/2 99/5/2 102/5/2
f 101/4/2 102/4/2 103/4/2
f 103/4/2 102/4/2 104/4/2
f 103/3/2 104/3/2 106/3/2
f 106/3/2 104/3/2 107/3/2
f 106/3/2 107/3/2 109/3/2
f 107/3/2 108/3/2 109/3/2
f 105/3/2 106/3/2 109/3/2
f 109/3/2 108/3/2 110/3/2
f 110/3/2 108/3/2 111/3/2
f 111/3/2 108/3/2 112/3/2
f 111/3/2 112/3/2 115/3/2
f 115/3/2 112/3/2 116/3/2
f 113/4/2 114/4/2 117/4/2
f 114/4/2 115/4/2 117/4/2
f 117/4/2 115/4/2 118/4/2
f 118/4/2 115/4/2 119/4/2
f 119/4/2 115/4/2 120/4/2
f 118/2/2 119/2/2 122/2/2
f 119/4/2 120/4/2 123/4/2
f 122/2/2 119/2/2 123/2/2
f 120/3/2 121/3/2 124/3/2
f 123/4/2 120/4/2 124/4/2
f 122/4/2 123/4/2 125/4/2
f 123/3/2 124/3/2 126/3/2
f 125/4/2 123/4/2 126/4/2
f 124/3/2 121/3/2 127/3/2
f 126/3/2 124/3/2 127/3/2
f 128/2/2 129/2/2 133/2/2
f 129/3/2 130/3/2 134/3/2
f 133/2/2 129/2/2 134/2/2
f 134/3/2 130/3/2 135/3/2
f 135/3/2 130/3/2 136/3/2
f 131/3/2 132/3/2 137/3/2
f 136/3/2 137/3/2 138/3/2
f 137/3/2 132/3/2 139/3/2
f 138/3/2 137/3/2 139/3/2
f 142/4/3 141/4/3 140/4/3
f 143/4/3 141/4/3 142/4/3
f 147/4/3 145/4/3 144/4/3
f 148/4/3 145/4/3 147/4/3
f 150/4/3 147/4/3 146/4/3
f 151/4/3 147/4/3 150/4/3
f 152/2/3 149/2/3 148/2/3
f 153/2/3 149/2/3 152/2/3
f 154/4/3 152/4/3 151/4/3
f 155/4/3 152/4/3 154/4/3
f 161/2/3 157/2/3 156/2/3
f 162/2/3 157/2/3 161/2/3
f 166/5/3 159/5/3 158/5/3
f 167/5/3 159/5/3 166/5/3
f 168/3/3 161/3/3 160/3/3
f 168/5/3 162/5/3 161/5/3
f 169/5/3 162/5/3 168/5/3
f 170/2/3 164/2/3 163/2/3
f 171/4/3 165/4/3 164/4/3
f 171/2/3 164/2/3 170/2/3
f 174/1/3 169/1/3 168/1/3
f 174/3/3 168/3/3 160/3/3
f 175/1/3 169/1/3 174/1/3
f 177/4/3 165/4/3 171/4/3
f 178/5/3 173/5/3 172/5/3
f 179/5/3 173/5/3 178/5/3
f 180/3/3 174/3/3 160/3/3
f 181/5/3 175/5/3 174/5/3
f 181/3/3 174/3/3 180/3/3
f 182/5/3 175/5/3 181/5/3
f 183/2/3 177/2/3 176/2/3
f 184/4/3 165/4/3 177/4/3
f 184/2/3 177/2/3 183/2/3
f 185/4/3 165/4/3 184/4/3
f 186/2/3 182/2/3 181/2/3
f 187/2/3 182/2/3 186/2/3
f 193/3/3 189/3/3 188/3/3
f 194/3/3 189/3/3 193/3/3
f 195/4/3 191/4/3 190/4/3
f 196/3/3 192/3/3 191/3/3
f 196/4/3 191/4/3 195/4/3
f 197/3/3 192/3/3 196/3/3
f 198/3/3 194/3/3 193/3/3
f 199/3/3 194/3/3 198/3/3
f 205/4/3 201/4/3 200/4/3
f 206/3/3 202/3/3 201/3/3
f 206/4/3 201/4/3 205/4/3
f 207/3/3 202/3/3 206/3/3
f 208/3/3 204/3/3 203/3/3
f 209/3/3 204/3/3 208/3/3
f 210/3/3 209/3/3 208/3/3
f 211/3/3 209/3/3 210/3/3
f 214/3/3 213/3/3 212/3/3
f 215/3/3 213/3/3 214/3/3
f 218/4/3 217/4/3 216/4/3
f 219/4/3 217/4/3 218/4/3
f 222/3/3 221/3/3 220/3/3
f 223/3/3 221/3/3 222/3/3
f 226/3/3 225/3/3 224/3/3
f 227/3/3 225/3/3 226/3/3
f 230/3/3 229/3/3 228/3/3
f 231/3/3 229/3/3 230/3/3
f 232/3/4 233/3/4 238/3/4
f 238/3/4 233/3/4 239/3/4
f 234/5/4 235/5/4 240/5/4
f 235/4/4 236/4/4 241/4/4
f 240/5/4 235/5/4 241/5/4
f 236/3/4 237/3/4 242/3/4
f 241/4/4 236/4/4 242/4/4
f 242/3/4 237/3/4 243/3/4
f 244/5/4 245/5/4 248/5/4
f 245/4/4 246/4/4 249/4/4
f 248/5/4 245/5/4 249/5/4
f 246/3/4 247/3/4 250/3/4
f 249/4/4 246/4/4 250/4/4
f 250/3/4 247/3/4 251/3/4
f 252/3/4 253/3/4 254/3/4
f 254/3/4 253/3/4 255/3/4
f 258/3/4 259/3/4 262/3/4
f 260/4/4 261/4/4 263/4/4
f 263/4/4 261/4/4 264/4/4
f 256/3/4 257/3/4 265/3/4
f 265/3/4 257/3/4 266/3/4
f 258/3/4 262/3/4 267/3/4
f 262/3/4 263/3/4 267/3/4
f 267/3/4 263/3/4 268/3/4
f 269/4/4 270/4/4 271/4/4
f 271/4/4 270/4/4 272/4/4
f 273/3/4 274/3/4 275/3/4
f 275/3/4 274/3/4 276/3/4
f 281/5/5 278/5/5 277/5/5
f 282/5/5 278/5/5 281/5/5
f 283/5/5 280/5/5 279/5/5
f 284/5/5 280/5/5 283/5/5
f 287/3/5 286/3/5 285/3/5
f 288/3/5 286/3/5 287/3/5
f 289/3/5 286/3/5 288/3/5
f 290/3/5 286/3/5 289/3/5
f 292/3/5 289/3/5 288/3/5
f 293/3/5 289/3/5 292/3/5
f 295/3/5 292/3/5 291/3/5
f 295/3/5 294/3/5 293/3/5
f 295/3/5 293/3/5 292/3/5
f 296/3/5 294/3/5 295/3/5
f 301/2/5 298/2/5 297/2/5
f 302/2/5 298/2/5 301/2/5
f 303/2/5 300/2/5 299/2/5
f 304/2/5 300/2/5 303/2/5
f 305/3/5 302/3/5 301/3/5
f 306/3/5 302/3/5 305/3/5
f 307/3/5 304/3/5 303/3/5
f 308/3/5 304/3/5 307/3/5
f 313/3/5 310/3/5 309/3/5
f 313/3/5 312/3/5 311/3/5
f 313/3/5 311/3/5 310/3/5
f 314/3/5 312/3/5 313/3/5
f 317/4/5 316/4/5 315/4/5
f 318/4/5 316/4/5 317/4/5
f 322/4/5 320/4/5 319/4/5
f 323/4/5 320/4/5 322/4/5
f 325/4/5 322/4/5 321/4/5
f 326/4/5 324/4/5 323/4/5
f 327/4/5 325/4/5 321/4/5
f 328/4/5 325/4/5 327/4/5
f 329/4/5 324/4/5 326/4/5
f 330/4/5 324/4/5 329/4/5
f 335/3/5 332/3/5 331/3/5
f 336/3/5 332/3/5 335/3/5
f 337/3/5 334/3/5 333/3/5
f 338/3/5 334/3/5 337/3/5
f 341/4/5 340/4/5 339/4/5
f 342/4/5 340/4/5 341/4/5
f 343/5/6 344/5/6 347/5/6
f 347/5/6 344/5/6 348/5/6
f 345/5/6 346/5/6 349/5/6
f 349/5/6 346/5/6 350/5/6
f 351/2/6 352/2/6 357/2/6
f 352/5/6 353/5/6 358/5/6
f 357/2/6 352/2/6 358/2/6
f 358/5/6 353/5/6 359/5/6
f 354/5/6 355/5/6 360/5/6
f 355/2/6 356/2/6 361/2/6
f 360/5/6 355/5/6 361/5/6
f 361/2/6 356/2/6 362/2/6
f 363/3/6 364/3/6 367/3/6
f 367/3/6 364/3/6 368/3/6
f 365/3/6 366/3/6 369/3/6
f 369/3/6 366/3/6 370/3/6
f 371/4/6 372/4/6 374/4/6
f 374/4/6 372/4/6 375/4/6
f 373/4/6 374/4/6 377/4/6
f 377/4/6 374/4/6 378/4/6
f 375/4/6 376/4/6 379/4/6
f 379/4/6 376/4/6 380/4/6
f 381/3/6 382/3/6 385/3/6
f 383/3/6 384/3/6 386/3/6
f 381/3/6 385/3/6 387/3/6
f 385/3/6 386/3/6 387/3/6
f 386/3/6 384/3/6 388/3/6
f 387/3/6 386/3/6 388/3/6
f 389/2/6 390/2/6 391/2/6
f 391/2/6 390/2/6 392/2/6
f 393/4/6 394/4/6 395/4/6
f 395/4/6 394/4/6 396/4/6
f 395/3/6 396/3/6 397/3/6
f 397/3/6 396/3/6 398/3/6
f 398/3/6 396/3/6 400/3/6
f 400/3/6 396/3/6 401/3/6
f 399/4/6 400/4/6 402/4/6
f 402/4/6 400/4/6 403/4/6
f 404/4/6 405/4/6 406/4/6
f 406/4/6 405/4/6 407/4/6
