# MagicaVoxel @ Ephtracy

# group
o 

# material
mtllib Werewolf.mtl
usemtl palette

# normals
vn -1 0 0
vn 1 0 0
vn 0 0 1
vn 0 0 -1
vn 0 -1 0
vn 0 1 0

# texcoords
vt 0.369141 0.5
vt 0.537109 0.5
vt 0.884766 0.5
vt 0.958984 0.5

# verts
v -0.3 0.5 0.4
v -0.3 0.5 0
v -0.3 0.6 0.4
v -0.3 0.6 0
v -0.2 0 0.2
v -0.2 0 0
v -0.2 0.1 0.2
v -0.2 0.1 0.1
v -0.2 0.1 0
v -0.2 0.1 -0.2
v -0.2 0.3 0.1
v -0.2 0.3 -0.2
v -0.2 0.8 0.1
v -0.2 0.8 -0.2
v -0.2 1.1 0.1
v -0.2 1.1 -0.2
v -0.1 0.3 0.2
v -0.1 0.3 0.1
v -0.1 0.3 -0.2
v -0.1 0.5 0.1
v -0.1 0.5 0
v -0.1 0.6 0.3
v -0.1 0.6 0.2
v -0.1 0.6 0.1
v -0.1 0.6 0
v -0.1 0.7 0.3
v -0.1 0.7 0.2
v -0.1 0.8 0.3
v -0.1 0.8 0.2
v -0.1 0.8 0.1
v -0.1 0.8 -0.2
v -0.1 0.9 0.3
v -0.1 0.9 0.2
v -0.1 0.9 0.1
v -0.1 1 0.2
v -0.1 1 0.1
v -0.1 1.1 0.2
v -0.1 1.1 0.1
v -0.1 1.1 0
v -0.1 1.1 -0.2
v -0.1 1.2 0
v -0.1 1.2 -0.2
v 0 0.2 -0.2
v 0 0.2 -0.3
v 0 0.3 -0.2
v 0 0.3 -0.3
v 0 0.4 -0.3
v 0 0.4 -0.5
v 0 0.5 -0.2
v 0 0.5 -0.3
v 0 0.6 -0.3
v 0 0.6 -0.4
v 0 0.7 -0.4
v 0 0.7 -0.5
v 0 0.8 -0.2
v 0 0.8 -0.3
v 0 0.9 -0.3
v 0 0.9 -0.4
v 0 1.1 0.1
v 0 1.1 0
v 0 1.1 -0.2
v 0 1.1 -0.3
v 0 1.1 -0.4
v 0 1.2 0.1
v 0 1.2 0
v 0 1.2 -0.2
v 0 1.2 -0.3
v 0.1 0.7 0.3
v 0.1 0.7 0.2
v 0.1 0.8 0.3
v 0.1 0.8 0.2
v 0.2 0 0.2
v 0.2 0 0
v 0.2 0.1 0.2
v 0.2 0.1 0.1
v 0.2 0.1 0
v 0.2 0.1 -0.2
v 0.2 0.2 0.1
v 0.2 0.2 0
v 0.2 0.2 -0.2
v 0.3 0.5 0.4
v 0.3 0.5 0.1
v 0.3 0.6 0.4
v 0.3 0.6 0.1
v -0.2 0.5 0.4
v -0.2 0.5 0.1
v -0.2 0.6 0.4
v -0.2 0.6 0.1
v -0.1 0 0.2
v -0.1 0 0
v -0.1 0.1 0.2
v -0.1 0.1 0.1
v -0.1 0.1 0
v -0.1 0.1 -0.2
v -0.1 0.2 0
v -0.1 0.2 -0.2
v -0.1 0.3 0.1
v -0.1 0.3 0
v 0 0.7 0.3
v 0 0.7 0.2
v 0 0.8 0.3
v 0 0.8 0.2
v 0.1 0.2 -0.2
v 0.1 0.2 -0.3
v 0.1 0.3 -0.2
v 0.1 0.3 -0.3
v 0.1 0.4 -0.3
v 0.1 0.4 -0.5
v 0.1 0.5 -0.2
v 0.1 0.5 -0.3
v 0.1 0.6 -0.3
v 0.1 0.6 -0.4
v 0.1 0.7 -0.4
v 0.1 0.7 -0.5
v 0.1 0.8 -0.2
v 0.1 0.8 -0.3
v 0.1 0.9 -0.3
v 0.1 0.9 -0.4
v 0.1 1.1 0.1
v 0.1 1.1 0
v 0.1 1.1 -0.2
v 0.1 1.1 -0.3
v 0.1 1.1 -0.4
v 0.1 1.2 0.1
v 0.1 1.2 0
v 0.1 1.2 -0.2
v 0.1 1.2 -0.3
v 0.2 0.3 0.2
v 0.2 0.3 0
v 0.2 0.3 -0.2
v 0.2 0.5 0.1
v 0.2 0.5 0
v 0.2 0.6 0.3
v 0.2 0.6 0.2
v 0.2 0.6 0.1
v 0.2 0.6 0
v 0.2 0.7 0.3
v 0.2 0.7 0.2
v 0.2 0.8 0.3
v 0.2 0.8 0.2
v 0.2 0.8 0.1
v 0.2 0.8 -0.2
v 0.2 0.9 0.3
v 0.2 0.9 0.2
v 0.2 0.9 0.1
v 0.2 1 0.2
v 0.2 1 0.1
v 0.2 1.1 0.2
v 0.2 1.1 0.1
v 0.2 1.1 0
v 0.2 1.1 -0.2
v 0.2 1.2 0
v 0.2 1.2 -0.2
v 0.3 0 0.2
v 0.3 0 0
v 0.3 0.1 0.2
v 0.3 0.1 0.1
v 0.3 0.1 0
v 0.3 0.1 -0.2
v 0.3 0.2 0.1
v 0.3 0.2 0
v 0.3 0.3 0
v 0.3 0.3 -0.2
v 0.3 0.8 0.1
v 0.3 0.8 -0.2
v 0.3 1.1 0.1
v 0.3 1.1 -0.2
v 0.4 0.5 0.4
v 0.4 0.5 0
v 0.4 0.6 0.4
v 0.4 0.6 0
v -0.3 0.5 0.4
v -0.3 0.6 0.4
v -0.2 0.5 0.4
v -0.2 0.6 0.4
v 0.3 0.5 0.4
v 0.3 0.6 0.4
v 0.4 0.5 0.4
v 0.4 0.6 0.4
v -0.1 0.6 0.3
v -0.1 0.7 0.3
v -0.1 0.8 0.3
v -0.1 0.9 0.3
v 0 0.7 0.3
v 0 0.8 0.3
v 0.1 0.7 0.3
v 0.1 0.8 0.3
v 0.2 0.6 0.3
v 0.2 0.7 0.3
v 0.2 0.8 0.3
v 0.2 0.9 0.3
v -0.2 0 0.2
v -0.2 0.1 0.2
v -0.1 0 0.2
v -0.1 0.1 0.2
v -0.1 0.3 0.2
v -0.1 0.6 0.2
v -0.1 0.9 0.2
v -0.1 1 0.2
v -0.1 1.1 0.2
v 0 0.7 0.2
v 0 0.8 0.2
v 0 0.9 0.2
v 0 1 0.2
v 0.1 0.7 0.2
v 0.1 0.8 0.2
v 0.1 0.9 0.2
v 0.1 1 0.2
v 0.2 0 0.2
v 0.2 0.1 0.2
v 0.2 0.3 0.2
v 0.2 0.6 0.2
v 0.2 0.9 0.2
v 0.2 1 0.2
v 0.2 1.1 0.2
v 0.3 0 0.2
v 0.3 0.1 0.2
v -0.2 0.1 0.1
v -0.2 0.3 0.1
v -0.2 0.5 0.1
v -0.2 0.6 0.1
v -0.2 0.8 0.1
v -0.2 1.1 0.1
v -0.1 0.1 0.1
v -0.1 0.3 0.1
v -0.1 0.5 0.1
v -0.1 0.6 0.1
v -0.1 0.8 0.1
v -0.1 0.9 0.1
v -0.1 1 0.1
v -0.1 1.1 0.1
v 0 1.1 0.1
v 0 1.2 0.1
v 0.1 1.1 0.1
v 0.1 1.2 0.1
v 0.2 0.1 0.1
v 0.2 0.2 0.1
v 0.2 0.5 0.1
v 0.2 0.6 0.1
v 0.2 0.8 0.1
v 0.2 0.9 0.1
v 0.2 1 0.1
v 0.2 1.1 0.1
v 0.3 0.1 0.1
v 0.3 0.2 0.1
v 0.3 0.5 0.1
v 0.3 0.6 0.1
v 0.3 0.8 0.1
v 0.3 1.1 0.1
v -0.1 0.2 0
v -0.1 0.3 0
v -0.1 1.1 0
v -0.1 1.2 0
v 0 1.1 0
v 0 1.2 0
v 0.1 1.1 0
v 0.1 1.2 0
v 0.2 0.2 0
v 0.2 0.3 0
v 0.2 1.1 0
v 0.2 1.2 0
v 0.3 0.2 0
v 0.3 0.3 0
v 0 0.5 -0.3
v 0 0.6 -0.3
v 0.1 0.5 -0.3
v 0.1 0.6 -0.3
v 0 0.6 -0.4
v 0 0.7 -0.4
v 0.1 0.6 -0.4
v 0.1 0.7 -0.4
v -0.3 0.5 0
v -0.3 0.6 0
v -0.2 0 0
v -0.2 0.1 0
v -0.1 0 0
v -0.1 0.1 0
v -0.1 0.5 0
v -0.1 0.6 0
v 0.2 0 0
v 0.2 0.1 0
v 0.2 0.5 0
v 0.2 0.6 0
v 0.3 0 0
v 0.3 0.1 0
v 0.4 0.5 0
v 0.4 0.6 0
v -0.2 0.1 -0.2
v -0.2 0.3 -0.2
v -0.2 0.8 -0.2
v -0.2 1.1 -0.2
v -0.1 0.1 -0.2
v -0.1 0.2 -0.2
v -0.1 0.3 -0.2
v -0.1 0.8 -0.2
v -0.1 1.1 -0.2
v -0.1 1.2 -0.2
v 0 0.2 -0.2
v 0 0.3 -0.2
v 0 0.5 -0.2
v 0 0.8 -0.2
v 0 1.1 -0.2
v 0 1.2 -0.2
v 0.1 0.2 -0.2
v 0.1 0.3 -0.2
v 0.1 0.5 -0.2
v 0.1 0.8 -0.2
v 0.1 1.1 -0.2
v 0.1 1.2 -0.2
v 0.2 0.1 -0.2
v 0.2 0.2 -0.2
v 0.2 0.3 -0.2
v 0.2 0.8 -0.2
v 0.2 1.1 -0.2
v 0.2 1.2 -0.2
v 0.3 0.1 -0.2
v 0.3 0.3 -0.2
v 0.3 0.8 -0.2
v 0.3 1.1 -0.2
v 0 0.2 -0.3
v 0 0.3 -0.3
v 0 0.4 -0.3
v 0 0.8 -0.3
v 0 0.9 -0.3
v 0 1.1 -0.3
v 0 1.2 -0.3
v 0.1 0.2 -0.3
v 0.1 0.3 -0.3
v 0.1 0.4 -0.3
v 0.1 0.8 -0.3
v 0.1 0.9 -0.3
v 0.1 1.1 -0.3
v 0.1 1.2 -0.3
v 0 0.9 -0.4
v 0 1.1 -0.4
v 0.1 0.9 -0.4
v 0.1 1.1 -0.4
v 0 0.4 -0.5
v 0 0.7 -0.5
v 0.1 0.4 -0.5
v 0.1 0.7 -0.5
v -0.2 0 0.2
v -0.1 0 0.2
v 0.2 0 0.2
v 0.3 0 0.2
v -0.2 0 0
v -0.1 0 0
v 0.2 0 0
v 0.3 0 0
v -0.2 0.1 0
v -0.1 0.1 0
v 0.2 0.1 0
v 0.3 0.1 0
v -0.2 0.1 -0.2
v -0.1 0.1 -0.2
v 0.2 0.1 -0.2
v 0.3 0.1 -0.2
v -0.1 0.2 0
v 0.2 0.2 0
v -0.1 0.2 -0.2
v 0 0.2 -0.2
v 0.1 0.2 -0.2
v 0.2 0.2 -0.2
v 0 0.2 -0.3
v 0.1 0.2 -0.3
v -0.1 0.3 0.2
v 0.2 0.3 0.2
v -0.1 0.3 0.1
v -0.1 0.3 0
v 0.2 0.3 0
v 0 0.4 -0.3
v 0.1 0.4 -0.3
v 0 0.4 -0.5
v 0.1 0.4 -0.5
v -0.3 0.5 0.4
v -0.2 0.5 0.4
v 0.3 0.5 0.4
v 0.4 0.5 0.4
v -0.2 0.5 0.1
v -0.1 0.5 0.1
v 0.2 0.5 0.1
v 0.3 0.5 0.1
v -0.3 0.5 0
v -0.1 0.5 0
v 0.2 0.5 0
v 0.4 0.5 0
v -0.1 0.6 0.3
v 0.2 0.6 0.3
v -0.1 0.6 0.2
v 0.2 0.6 0.2
v 0 0.8 0.3
v 0.1 0.8 0.3
v 0 0.8 0.2
v 0.1 0.8 0.2
v -0.2 0.8 0.1
v -0.1 0.8 0.1
v 0.2 0.8 0.1
v 0.3 0.8 0.1
v -0.2 0.8 -0.2
v -0.1 0.8 -0.2
v 0 0.8 -0.2
v 0.1 0.8 -0.2
v 0.2 0.8 -0.2
v 0.3 0.8 -0.2
v 0 0.8 -0.3
v 0.1 0.8 -0.3
v 0 0.9 -0.3
v 0.1 0.9 -0.3
v 0 0.9 -0.4
v 0.1 0.9 -0.4
v -0.2 0.1 0.2
v -0.1 0.1 0.2
v 0.2 0.1 0.2
v 0.3 0.1 0.2
v -0.2 0.1 0.1
v -0.1 0.1 0.1
v 0.2 0.1 0.1
v 0.3 0.1 0.1
v 0.2 0.2 0.1
v 0.3 0.2 0.1
v 0.2 0.2 0
v 0.3 0.2 0
v -0.2 0.3 0.1
v -0.1 0.3 0.1
v 0.2 0.3 0
v 0.3 0.3 0
v -0.2 0.3 -0.2
v -0.1 0.3 -0.2
v 0.2 0.3 -0.2
v 0.3 0.3 -0.2
v 0 0.5 -0.2
v 0.1 0.5 -0.2
v 0 0.5 -0.3
v 0.1 0.5 -0.3
v -0.3 0.6 0.4
v -0.2 0.6 0.4
v 0.3 0.6 0.4
v 0.4 0.6 0.4
v -0.2 0.6 0.1
v -0.1 0.6 0.1
v 0.2 0.6 0.1
v 0.3 0.6 0.1
v -0.3 0.6 0
v -0.1 0.6 0
v 0.2 0.6 0
v 0.4 0.6 0
v 0 0.6 -0.3
v 0.1 0.6 -0.3
v 0 0.6 -0.4
v 0.1 0.6 -0.4
v 0 0.7 0.3
v 0.1 0.7 0.3
v 0 0.7 0.2
v 0.1 0.7 0.2
v 0 0.7 -0.4
v 0.1 0.7 -0.4
v 0 0.7 -0.5
v 0.1 0.7 -0.5
v -0.1 0.9 0.3
v 0.2 0.9 0.3
v -0.1 0.9 0.2
v 0 0.9 0.2
v 0.1 0.9 0.2
v 0.2 0.9 0.2
v -0.1 1.1 0.2
v 0.2 1.1 0.2
v -0.2 1.1 0.1
v -0.1 1.1 0.1
v 0 1.1 0.1
v 0.1 1.1 0.1
v 0.2 1.1 0.1
v 0.3 1.1 0.1
v -0.1 1.1 0
v 0 1.1 0
v 0.1 1.1 0
v 0.2 1.1 0
v -0.2 1.1 -0.2
v -0.1 1.1 -0.2
v 0.2 1.1 -0.2
v 0.3 1.1 -0.2
v 0 1.1 -0.3
v 0.1 1.1 -0.3
v 0 1.1 -0.4
v 0.1 1.1 -0.4
v 0 1.2 0.1
v 0.1 1.2 0.1
v -0.1 1.2 0
v 0 1.2 0
v 0.1 1.2 0
v 0.2 1.2 0
v -0.1 1.2 -0.2
v 0 1.2 -0.2
v 0.1 1.2 -0.2
v 0.2 1.2 -0.2
v 0 1.2 -0.3
v 0.1 1.2 -0.3

# faces
f 3/1/1 2/1/1 1/1/1
f 4/1/1 2/1/1 3/1/1
f 7/1/1 6/1/1 5/1/1
f 8/1/1 6/1/1 7/1/1
f 9/1/1 6/1/1 8/1/1
f 11/1/1 10/1/1 9/1/1
f 11/1/1 9/1/1 8/1/1
f 12/1/1 10/1/1 11/1/1
f 15/1/1 14/1/1 13/1/1
f 16/1/1 14/1/1 15/1/1
f 20/1/1 18/1/1 17/1/1
f 20/1/1 19/1/1 18/1/1
f 21/1/1 19/1/1 20/1/1
f 23/1/1 20/1/1 17/1/1
f 24/1/1 20/1/1 23/1/1
f 25/1/1 19/1/1 21/1/1
f 26/1/1 24/1/1 23/1/1
f 26/1/1 25/1/1 24/1/1
f 26/1/1 23/1/1 22/1/1
f 27/1/1 25/1/1 26/1/1
f 28/4/1 27/4/1 26/4/1
f 29/1/1 25/1/1 27/1/1
f 29/4/1 27/4/1 28/4/1
f 30/1/1 25/1/1 29/1/1
f 31/1/1 19/1/1 25/1/1
f 31/1/1 25/1/1 30/1/1
f 32/1/1 30/1/1 29/1/1
f 32/1/1 29/1/1 28/1/1
f 33/1/1 30/1/1 32/1/1
f 34/1/1 30/1/1 33/1/1
f 35/3/1 34/3/1 33/3/1
f 36/3/1 34/3/1 35/3/1
f 37/1/1 36/1/1 35/1/1
f 38/1/1 36/1/1 37/1/1
f 41/2/1 40/2/1 39/2/1
f 42/2/1 40/2/1 41/2/1
f 45/1/1 44/1/1 43/1/1
f 46/1/1 44/1/1 45/1/1
f 47/2/1 46/2/1 45/2/1
f 49/2/1 47/2/1 45/2/1
f 49/2/1 48/2/1 47/2/1
f 50/2/1 48/2/1 49/2/1
f 51/2/1 48/2/1 50/2/1
f 52/2/1 48/2/1 51/2/1
f 53/2/1 48/2/1 52/2/1
f 54/2/1 48/2/1 53/2/1
f 57/2/1 56/2/1 55/2/1
f 61/2/1 57/2/1 55/2/1
f 61/2/1 58/2/1 57/2/1
f 62/2/1 58/2/1 61/2/1
f 63/2/1 58/2/1 62/2/1
f 64/2/1 60/2/1 59/2/1
f 65/2/1 60/2/1 64/2/1
f 66/2/1 62/2/1 61/2/1
f 67/2/1 62/2/1 66/2/1
f 70/4/1 69/4/1 68/4/1
f 71/4/1 69/4/1 70/4/1
f 74/1/1 73/1/1 72/1/1
f 75/1/1 73/1/1 74/1/1
f 76/1/1 73/1/1 75/1/1
f 78/1/1 77/1/1 76/1/1
f 78/1/1 76/1/1 75/1/1
f 79/1/1 77/1/1 78/1/1
f 80/1/1 77/1/1 79/1/1
f 83/1/1 82/1/1 81/1/1
f 84/1/1 82/1/1 83/1/1
f 85/1/2 86/1/2 87/1/2
f 87/1/2 86/1/2 88/1/2
f 89/1/2 90/1/2 91/1/2
f 91/1/2 90/1/2 92/1/2
f 92/1/2 90/1/2 93/1/2
f 93/1/2 94/1/2 95/1/2
f 92/1/2 93/1/2 95/1/2
f 95/1/2 94/1/2 96/1/2
f 92/1/2 95/1/2 97/1/2
f 97/1/2 95/1/2 98/1/2
f 99/4/2 100/4/2 101/4/2
f 101/4/2 100/4/2 102/4/2
f 103/1/2 104/1/2 105/1/2
f 105/1/2 104/1/2 106/1/2
f 105/2/2 106/2/2 107/2/2
f 105/2/2 107/2/2 109/2/2
f 107/2/2 108/2/2 109/2/2
f 109/2/2 108/2/2 110/2/2
f 110/2/2 108/2/2 111/2/2
f 111/2/2 108/2/2 112/2/2
f 112/2/2 108/2/2 113/2/2
f 113/2/2 108/2/2 114/2/2
f 115/2/2 116/2/2 117/2/2
f 115/2/2 117/2/2 121/2/2
f 117/2/2 118/2/2 121/2/2
f 121/2/2 118/2/2 122/2/2
f 122/2/2 118/2/2 123/2/2
f 119/2/2 120/2/2 124/2/2
f 124/2/2 120/2/2 125/2/2
f 121/2/2 122/2/2 126/2/2
f 126/2/2 122/2/2 127/2/2
f 128/1/2 129/1/2 131/1/2
f 129/1/2 130/1/2 131/1/2
f 131/1/2 130/1/2 132/1/2
f 128/1/2 131/1/2 134/1/2
f 134/1/2 131/1/2 135/1/2
f 132/1/2 130/1/2 136/1/2
f 134/1/2 135/1/2 137/1/2
f 135/1/2 136/1/2 137/1/2
f 133/1/2 134/1/2 137/1/2
f 137/1/2 136/1/2 138/1/2
f 137/4/2 138/4/2 139/4/2
f 138/1/2 136/1/2 140/1/2
f 139/4/2 138/4/2 140/4/2
f 140/1/2 136/1/2 141/1/2
f 136/1/2 130/1/2 142/1/2
f 141/1/2 136/1/2 142/1/2
f 140/1/2 141/1/2 143/1/2
f 139/1/2 140/1/2 143/1/2
f 143/1/2 141/1/2 144/1/2
f 144/1/2 141/1/2 145/1/2
f 144/3/2 145/3/2 146/3/2
f 146/3/2 145/3/2 147/3/2
f 146/1/2 147/1/2 148/1/2
f 148/1/2 147/1/2 149/1/2
f 150/2/2 151/2/2 152/2/2
f 152/2/2 151/2/2 153/2/2
f 154/1/2 155/1/2 156/1/2
f 156/1/2 155/1/2 157/1/2
f 157/1/2 155/1/2 158/1/2
f 158/1/2 159/1/2 160/1/2
f 157/1/2 158/1/2 160/1/2
f 160/1/2 159/1/2 161/1/2
f 161/1/2 159/1/2 162/1/2
f 162/1/2 159/1/2 163/1/2
f 164/1/2 165/1/2 166/1/2
f 166/1/2 165/1/2 167/1/2
f 168/1/2 169/1/2 170/1/2
f 170/1/2 169/1/2 171/1/2
f 174/1/3 173/1/3 172/1/3
f 175/1/3 173/1/3 174/1/3
f 178/1/3 177/1/3 176/1/3
f 179/1/3 177/1/3 178/1/3
f 184/1/3 181/1/3 180/1/3
f 184/4/3 182/4/3 181/4/3
f 185/1/3 183/1/3 182/1/3
f 185/4/3 182/4/3 184/4/3
f 186/1/3 184/1/3 180/1/3
f 187/1/3 183/1/3 185/1/3
f 188/1/3 186/1/3 180/1/3
f 189/4/3 187/4/3 186/4/3
f 189/1/3 186/1/3 188/1/3
f 190/1/3 183/1/3 187/1/3
f 190/4/3 187/4/3 189/4/3
f 191/1/3 183/1/3 190/1/3
f 194/1/3 193/1/3 192/1/3
f 195/1/3 193/1/3 194/1/3
f 203/3/3 199/3/3 198/3/3
f 204/1/3 200/1/3 199/1/3
f 204/3/3 199/3/3 203/3/3
f 205/1/3 202/1/3 201/1/3
f 206/1/3 202/1/3 205/1/3
f 207/1/3 204/1/3 203/1/3
f 208/1/3 200/1/3 204/1/3
f 208/1/3 204/1/3 207/1/3
f 211/1/3 197/1/3 196/1/3
f 212/1/3 197/1/3 211/1/3
f 213/3/3 208/3/3 207/3/3
f 214/1/3 200/1/3 208/1/3
f 214/3/3 208/3/3 213/3/3
f 215/1/3 200/1/3 214/1/3
f 216/1/3 210/1/3 209/1/3
f 217/1/3 210/1/3 216/1/3
f 224/1/3 219/1/3 218/1/3
f 225/1/3 219/1/3 224/1/3
f 226/1/3 221/1/3 220/1/3
f 227/1/3 221/1/3 226/1/3
f 228/1/3 223/1/3 222/1/3
f 229/1/3 223/1/3 228/1/3
f 230/1/3 223/1/3 229/1/3
f 231/1/3 223/1/3 230/1/3
f 234/2/3 233/2/3 232/2/3
f 235/2/3 233/2/3 234/2/3
f 244/1/3 237/1/3 236/1/3
f 245/1/3 237/1/3 244/1/3
f 246/1/3 239/1/3 238/1/3
f 247/1/3 239/1/3 246/1/3
f 248/1/3 243/1/3 242/1/3
f 248/1/3 241/1/3 240/1/3
f 248/1/3 242/1/3 241/1/3
f 249/1/3 243/1/3 248/1/3
f 254/2/3 253/2/3 252/2/3
f 255/2/3 253/2/3 254/2/3
f 258/1/3 251/1/3 250/1/3
f 259/1/3 251/1/3 258/1/3
f 260/2/3 257/2/3 256/2/3
f 261/2/3 257/2/3 260/2/3
f 262/1/3 259/1/3 258/1/3
f 263/1/3 259/1/3 262/1/3
f 266/2/3 265/2/3 264/2/3
f 267/2/3 265/2/3 266/2/3
f 270/2/3 269/2/3 268/2/3
f 271/2/3 269/2/3 270/2/3
f 274/1/4 275/1/4 276/1/4
f 276/1/4 275/1/4 277/1/4
f 272/1/4 273/1/4 278/1/4
f 278/1/4 273/1/4 279/1/4
f 280/1/4 281/1/4 284/1/4
f 284/1/4 281/1/4 285/1/4
f 282/1/4 283/1/4 286/1/4
f 286/1/4 283/1/4 287/1/4
f 288/1/4 289/1/4 292/1/4
f 292/1/4 289/1/4 293/1/4
f 293/1/4 289/1/4 294/1/4
f 290/1/4 291/1/4 295/1/4
f 295/1/4 291/1/4 296/1/4
f 293/1/4 294/1/4 298/1/4
f 295/1/4 296/1/4 298/1/4
f 294/1/4 295/1/4 298/1/4
f 298/1/4 296/1/4 299/1/4
f 299/1/4 296/1/4 300/1/4
f 300/1/4 296/1/4 301/1/4
f 296/2/4 297/2/4 302/2/4
f 301/1/4 296/1/4 302/1/4
f 302/2/4 297/2/4 303/2/4
f 300/1/4 301/1/4 306/1/4
f 306/1/4 301/1/4 307/1/4
f 304/1/4 305/1/4 311/1/4
f 305/1/4 306/1/4 311/1/4
f 307/1/4 308/1/4 311/1/4
f 306/1/4 307/1/4 311/1/4
f 311/1/4 308/1/4 312/1/4
f 312/1/4 308/1/4 313/1/4
f 308/2/4 309/2/4 314/2/4
f 313/1/4 308/1/4 314/1/4
f 314/2/4 309/2/4 315/2/4
f 310/1/4 311/1/4 316/1/4
f 311/1/4 312/1/4 316/1/4
f 316/1/4 312/1/4 317/1/4
f 313/1/4 314/1/4 318/1/4
f 318/1/4 314/1/4 319/1/4
f 320/1/4 321/1/4 327/1/4
f 321/2/4 322/2/4 328/2/4
f 327/1/4 321/1/4 328/1/4
f 328/2/4 322/2/4 329/2/4
f 323/2/4 324/2/4 330/2/4
f 330/2/4 324/2/4 331/2/4
f 325/2/4 326/2/4 332/2/4
f 332/2/4 326/2/4 333/2/4
f 334/2/4 335/2/4 336/2/4
f 336/2/4 335/2/4 337/2/4
f 338/2/4 339/2/4 340/2/4
f 340/2/4 339/2/4 341/2/4
f 346/1/5 343/1/5 342/1/5
f 347/1/5 343/1/5 346/1/5
f 348/1/5 345/1/5 344/1/5
f 349/1/5 345/1/5 348/1/5
f 354/1/5 351/1/5 350/1/5
f 355/1/5 351/1/5 354/1/5
f 356/1/5 353/1/5 352/1/5
f 357/1/5 353/1/5 356/1/5
f 360/1/5 359/1/5 358/1/5
f 361/1/5 359/1/5 360/1/5
f 362/1/5 359/1/5 361/1/5
f 363/1/5 359/1/5 362/1/5
f 364/1/5 362/1/5 361/1/5
f 365/1/5 362/1/5 364/1/5
f 368/1/5 367/1/5 366/1/5
f 369/1/5 367/1/5 368/1/5
f 370/1/5 367/1/5 369/1/5
f 373/2/5 372/2/5 371/2/5
f 374/2/5 372/2/5 373/2/5
f 379/1/5 376/1/5 375/1/5
f 382/1/5 378/1/5 377/1/5
f 383/1/5 380/1/5 379/1/5
f 383/1/5 379/1/5 375/1/5
f 384/1/5 380/1/5 383/1/5
f 385/1/5 382/1/5 381/1/5
f 386/1/5 378/1/5 382/1/5
f 386/1/5 382/1/5 385/1/5
f 389/1/5 388/1/5 387/1/5
f 390/1/5 388/1/5 389/1/5
f 393/1/5 392/1/5 391/1/5
f 394/1/5 392/1/5 393/1/5
f 399/1/5 396/1/5 395/1/5
f 400/1/5 396/1/5 399/1/5
f 403/1/5 398/1/5 397/1/5
f 404/1/5 398/1/5 403/1/5
f 405/2/5 402/2/5 401/2/5
f 406/2/5 402/2/5 405/2/5
f 409/2/5 408/2/5 407/2/5
f 410/2/5 408/2/5 409/2/5
f 411/1/6 412/1/6 415/1/6
f 415/1/6 412/1/6 416/1/6
f 413/1/6 414/1/6 417/1/6
f 417/1/6 414/1/6 418/1/6
f 419/1/6 420/1/6 421/1/6
f 421/1/6 420/1/6 422/1/6
f 423/1/6 424/1/6 427/1/6
f 427/1/6 424/1/6 428/1/6
f 425/1/6 426/1/6 429/1/6
f 429/1/6 426/1/6 430/1/6
f 431/2/6 432/2/6 433/2/6
f 433/2/6 432/2/6 434/2/6
f 435/1/6 436/1/6 439/1/6
f 437/1/6 438/1/6 442/1/6
f 439/1/6 440/1/6 443/1/6
f 435/1/6 439/1/6 443/1/6
f 443/1/6 440/1/6 444/1/6
f 441/1/6 442/1/6 445/1/6
f 442/1/6 438/1/6 446/1/6
f 445/1/6 442/1/6 446/1/6
f 447/2/6 448/2/6 449/2/6
f 449/2/6 448/2/6 450/2/6
f 451/1/6 452/1/6 453/1/6
f 453/1/6 452/1/6 454/1/6
f 455/2/6 456/2/6 457/2/6
f 457/2/6 456/2/6 458/2/6
f 459/1/6 460/1/6 461/1/6
f 461/1/6 460/1/6 462/1/6
f 462/1/6 460/1/6 463/1/6
f 463/1/6 460/1/6 464/1/6
f 465/1/6 466/1/6 468/1/6
f 468/1/6 466/1/6 469/1/6
f 469/1/6 466/1/6 470/1/6
f 470/1/6 466/1/6 471/1/6
f 467/1/6 468/1/6 473/1/6
f 468/1/6 469/1/6 473/1/6
f 473/1/6 469/1/6 474/1/6
f 471/1/6 472/1/6 475/1/6
f 470/1/6 471/1/6 475/1/6
f 475/1/6 472/1/6 476/1/6
f 467/1/6 473/1/6 477/1/6
f 477/1/6 473/1/6 478/1/6
f 476/1/6 472/1/6 479/1/6
f 479/1/6 472/1/6 480/1/6
f 481/2/6 482/2/6 483/2/6
f 483/2/6 482/2/6 484/2/6
f 485/2/6 486/2/6 488/2/6
f 488/2/6 486/2/6 489/2/6
f 487/2/6 488/2/6 491/2/6
f 489/2/6 490/2/6 491/2/6
f 488/2/6 489/2/6 491/2/6
f 491/2/6 490/2/6 492/2/6
f 492/2/6 490/2/6 493/2/6
f 493/2/6 490/2/6 494/2/6
f 492/2/6 493/2/6 495/2/6
f 495/2/6 493/2/6 496/2/6
