# MagicaVoxel @ Ephtracy

# group
o 

# material
mtllib SnowMan.mtl
usemtl palette

# normals
vn -1 0 0
vn 1 0 0
vn 0 0 1
vn 0 0 -1
vn 0 -1 0
vn 0 1 0

# texcoords
vt 0.0917969 0.5
vt 0.537109 0.5
vt 0.841797 0.5
vt 0.958984 0.5
vt 0.994141 0.5

# verts
v -0.5 0.3 0
v -0.5 0.3 -0.1
v -0.5 0.6 0
v -0.5 0.6 -0.1
v -0.3 0 0.3
v -0.3 0 -0.4
v -0.3 0.5 0
v -0.3 0.5 -0.1
v -0.3 0.6 0
v -0.3 0.6 -0.1
v -0.3 0.7 0.3
v -0.3 0.7 -0.4
v -0.3 1.1 0.3
v -0.3 1.1 -0.4
v -0.3 1.2 0.3
v -0.3 1.2 -0.4
v -0.2 0.7 0.2
v -0.2 0.7 -0.3
v -0.2 1.1 0.2
v -0.2 1.1 -0.3
v -0.2 1.2 0.2
v -0.2 1.2 -0.3
v -0.2 1.3 0.2
v -0.2 1.3 -0.3
v -0.2 1.5 0.2
v -0.2 1.5 -0.3
v 0 0.8 0.4
v 0 0.8 0.2
v 0 0.9 0.4
v 0 0.9 0.2
v 0.5 0.3 0
v 0.5 0.3 -0.1
v 0.5 0.5 0
v 0.5 0.5 -0.1
v -0.4 0.3 0
v -0.4 0.3 -0.1
v -0.4 0.5 0
v -0.4 0.5 -0.1
v 0.1 0.8 0.4
v 0.1 0.8 0.2
v 0.1 0.9 0.4
v 0.1 0.9 0.2
v 0.3 0.7 0.2
v 0.3 0.7 -0.3
v 0.3 1.1 0.2
v 0.3 1.1 -0.3
v 0.3 1.2 0.2
v 0.3 1.2 -0.3
v 0.3 1.3 0.2
v 0.3 1.3 -0.3
v 0.3 1.5 0.2
v 0.3 1.5 -0.3
v 0.4 0 0.3
v 0.4 0 -0.4
v 0.4 0.5 0
v 0.4 0.5 -0.1
v 0.4 0.6 0
v 0.4 0.6 -0.1
v 0.4 0.7 0.3
v 0.4 0.7 -0.4
v 0.4 1.1 0.3
v 0.4 1.1 -0.4
v 0.4 1.2 0.3
v 0.4 1.2 -0.4
v 0.6 0.3 0
v 0.6 0.3 -0.1
v 0.6 0.6 0
v 0.6 0.6 -0.1
v 0 0.8 0.4
v 0 0.9 0.4
v 0.1 0.8 0.4
v 0.1 0.9 0.4
v -0.3 0 0.3
v -0.3 0.7 0.3
v -0.3 1.1 0.3
v -0.3 1.2 0.3
v 0 0.1 0.3
v 0 0.2 0.3
v 0 0.3 0.3
v 0 0.4 0.3
v 0 0.5 0.3
v 0 0.6 0.3
v 0.1 0.1 0.3
v 0.1 0.2 0.3
v 0.1 0.3 0.3
v 0.1 0.4 0.3
v 0.1 0.5 0.3
v 0.1 0.6 0.3
v 0.4 0 0.3
v 0.4 0.7 0.3
v 0.4 1.1 0.3
v 0.4 1.2 0.3
v -0.2 0.7 0.2
v -0.2 1.1 0.2
v -0.2 1.2 0.2
v -0.2 1.3 0.2
v -0.2 1.5 0.2
v -0.1 0.9 0.2
v -0.1 1 0.2
v 0 0.8 0.2
v 0 0.9 0.2
v 0 1 0.2
v 0.1 0.8 0.2
v 0.1 0.9 0.2
v 0.1 1 0.2
v 0.2 0.9 0.2
v 0.2 1 0.2
v 0.3 0.7 0.2
v 0.3 1.1 0.2
v 0.3 1.2 0.2
v 0.3 1.3 0.2
v 0.3 1.5 0.2
v -0.5 0.3 0
v -0.5 0.6 0
v -0.4 0.3 0
v -0.4 0.5 0
v -0.3 0.5 0
v -0.3 0.6 0
v 0.4 0.5 0
v 0.4 0.6 0
v 0.5 0.3 0
v 0.5 0.5 0
v 0.6 0.3 0
v 0.6 0.6 0
v -0.5 0.3 -0.1
v -0.5 0.6 -0.1
v -0.4 0.3 -0.1
v -0.4 0.5 -0.1
v -0.3 0.5 -0.1
v -0.3 0.6 -0.1
v 0.4 0.5 -0.1
v 0.4 0.6 -0.1
v 0.5 0.3 -0.1
v 0.5 0.5 -0.1
v 0.6 0.3 -0.1
v 0.6 0.6 -0.1
v -0.2 0.7 -0.3
v -0.2 1.1 -0.3
v -0.2 1.2 -0.3
v -0.2 1.3 -0.3
v -0.2 1.5 -0.3
v 0.3 0.7 -0.3
v 0.3 1.1 -0.3
v 0.3 1.2 -0.3
v 0.3 1.3 -0.3
v 0.3 1.5 -0.3
v -0.3 0 -0.4
v -0.3 0.7 -0.4
v -0.3 1.1 -0.4
v -0.3 1.2 -0.4
v 0.4 0 -0.4
v 0.4 0.7 -0.4
v 0.4 1.1 -0.4
v 0.4 1.2 -0.4
v -0.3 0 0.3
v 0.4 0 0.3
v -0.3 0 -0.4
v 0.4 0 -0.4
v -0.5 0.3 0
v -0.4 0.3 0
v 0.5 0.3 0
v 0.6 0.3 0
v -0.5 0.3 -0.1
v -0.4 0.3 -0.1
v 0.5 0.3 -0.1
v 0.6 0.3 -0.1
v -0.4 0.5 0
v -0.3 0.5 0
v 0.4 0.5 0
v 0.5 0.5 0
v -0.4 0.5 -0.1
v -0.3 0.5 -0.1
v 0.4 0.5 -0.1
v 0.5 0.5 -0.1
v 0 0.8 0.4
v 0.1 0.8 0.4
v 0 0.8 0.2
v 0.1 0.8 0.2
v -0.3 1.1 0.3
v 0.4 1.1 0.3
v -0.2 1.1 0.2
v 0.3 1.1 0.2
v -0.2 1.1 -0.3
v 0.3 1.1 -0.3
v -0.3 1.1 -0.4
v 0.4 1.1 -0.4
v -0.5 0.6 0
v -0.3 0.6 0
v 0.4 0.6 0
v 0.6 0.6 0
v -0.5 0.6 -0.1
v -0.3 0.6 -0.1
v 0.4 0.6 -0.1
v 0.6 0.6 -0.1
v -0.3 0.7 0.3
v 0.4 0.7 0.3
v -0.2 0.7 0.2
v 0.3 0.7 0.2
v -0.2 0.7 -0.3
v 0.3 0.7 -0.3
v -0.3 0.7 -0.4
v 0.4 0.7 -0.4
v 0 0.9 0.4
v 0.1 0.9 0.4
v 0 0.9 0.2
v 0.1 0.9 0.2
v -0.3 1.2 0.3
v 0.4 1.2 0.3
v -0.2 1.2 0.2
v 0.3 1.2 0.2
v -0.2 1.2 -0.3
v 0.3 1.2 -0.3
v -0.3 1.2 -0.4
v 0.4 1.2 -0.4
v -0.2 1.5 0.2
v 0.3 1.5 0.2
v -0.2 1.5 -0.3
v 0.3 1.5 -0.3

# faces
f 3/2/1 2/2/1 1/2/1
f 4/2/1 2/2/1 3/2/1
f 7/4/1 6/4/1 5/4/1
f 8/4/1 6/4/1 7/4/1
f 9/4/1 7/4/1 5/4/1
f 10/4/1 6/4/1 8/4/1
f 11/4/1 9/4/1 5/4/1
f 11/4/1 10/4/1 9/4/1
f 12/4/1 6/4/1 10/4/1
f 12/4/1 10/4/1 11/4/1
f 15/5/1 14/5/1 13/5/1
f 16/5/1 14/5/1 15/5/1
f 19/4/1 18/4/1 17/4/1
f 20/4/1 18/4/1 19/4/1
f 23/3/1 22/3/1 21/3/1
f 24/3/1 22/3/1 23/3/1
f 25/5/1 24/5/1 23/5/1
f 26/5/1 24/5/1 25/5/1
f 29/1/1 28/1/1 27/1/1
f 30/1/1 28/1/1 29/1/1
f 33/2/1 32/2/1 31/2/1
f 34/2/1 32/2/1 33/2/1
f 35/2/2 36/2/2 37/2/2
f 37/2/2 36/2/2 38/2/2
f 39/1/2 40/1/2 41/1/2
f 41/1/2 40/1/2 42/1/2
f 43/4/2 44/4/2 45/4/2
f 45/4/2 44/4/2 46/4/2
f 47/3/2 48/3/2 49/3/2
f 49/3/2 48/3/2 50/3/2
f 49/5/2 50/5/2 51/5/2
f 51/5/2 50/5/2 52/5/2
f 53/4/2 54/4/2 55/4/2
f 55/4/2 54/4/2 56/4/2
f 53/4/2 55/4/2 57/4/2
f 56/4/2 54/4/2 58/4/2
f 53/4/2 57/4/2 59/4/2
f 57/4/2 58/4/2 59/4/2
f 58/4/2 54/4/2 60/4/2
f 59/4/2 58/4/2 60/4/2
f 61/5/2 62/5/2 63/5/2
f 63/5/2 62/5/2 64/5/2
f 65/2/2 66/2/2 67/2/2
f 67/2/2 66/2/2 68/2/2
f 71/1/3 70/1/3 69/1/3
f 72/1/3 70/1/3 71/1/3
f 77/4/3 74/4/3 73/4/3
f 78/4/3 74/4/3 77/4/3
f 79/4/3 74/4/3 78/4/3
f 80/4/3 74/4/3 79/4/3
f 81/4/3 74/4/3 80/4/3
f 82/4/3 74/4/3 81/4/3
f 83/4/3 77/4/3 73/4/3
f 83/5/3 78/5/3 77/5/3
f 84/4/3 79/4/3 78/4/3
f 84/5/3 78/5/3 83/5/3
f 85/5/3 80/5/3 79/5/3
f 85/4/3 79/4/3 84/4/3
f 86/4/3 81/4/3 80/4/3
f 86/5/3 80/5/3 85/5/3
f 87/5/3 82/5/3 81/5/3
f 87/4/3 81/4/3 86/4/3
f 88/4/3 74/4/3 82/4/3
f 88/5/3 82/5/3 87/5/3
f 89/4/3 87/4/3 86/4/3
f 89/4/3 86/4/3 85/4/3
f 89/4/3 88/4/3 87/4/3
f 89/4/3 85/4/3 84/4/3
f 89/4/3 84/4/3 83/4/3
f 89/4/3 83/4/3 73/4/3
f 90/4/3 74/4/3 88/4/3
f 90/4/3 88/4/3 89/4/3
f 91/5/3 76/5/3 75/5/3
f 92/5/3 76/5/3 91/5/3
f 98/4/3 94/4/3 93/4/3
f 99/4/3 94/4/3 98/4/3
f 100/4/3 98/4/3 93/4/3
f 101/5/3 99/5/3 98/5/3
f 101/4/3 98/4/3 100/4/3
f 102/4/3 94/4/3 99/4/3
f 102/5/3 99/5/3 101/5/3
f 103/4/3 100/4/3 93/4/3
f 104/4/3 102/4/3 101/4/3
f 105/4/3 94/4/3 102/4/3
f 105/4/3 102/4/3 104/4/3
f 106/4/3 104/4/3 103/4/3
f 106/5/3 105/5/3 104/5/3
f 107/4/3 94/4/3 105/4/3
f 107/5/3 105/5/3 106/5/3
f 108/4/3 106/4/3 103/4/3
f 108/4/3 103/4/3 93/4/3
f 108/4/3 107/4/3 106/4/3
f 109/4/3 94/4/3 107/4/3
f 109/4/3 107/4/3 108/4/3
f 110/3/3 96/3/3 95/3/3
f 111/5/3 97/5/3 96/5/3
f 111/3/3 96/3/3 110/3/3
f 112/5/3 97/5/3 111/5/3
f 115/2/3 114/2/3 113/2/3
f 116/2/3 114/2/3 115/2/3
f 117/2/3 114/2/3 116/2/3
f 118/2/3 114/2/3 117/2/3
f 122/2/3 120/2/3 119/2/3
f 123/2/3 122/2/3 121/2/3
f 124/2/3 120/2/3 122/2/3
f 124/2/3 122/2/3 123/2/3
f 125/2/4 126/2/4 127/2/4
f 127/2/4 126/2/4 128/2/4
f 128/2/4 126/2/4 129/2/4
f 129/2/4 126/2/4 130/2/4
f 131/2/4 132/2/4 134/2/4
f 133/2/4 134/2/4 135/2/4
f 134/2/4 132/2/4 136/2/4
f 135/2/4 134/2/4 136/2/4
f 137/4/4 138/4/4 142/4/4
f 142/4/4 138/4/4 143/4/4
f 139/3/4 140/3/4 144/3/4
f 140/5/4 141/5/4 145/5/4
f 144/3/4 140/3/4 145/3/4
f 145/5/4 141/5/4 146/5/4
f 147/4/4 148/4/4 151/4/4
f 151/4/4 148/4/4 152/4/4
f 149/5/4 150/5/4 153/5/4
f 153/5/4 150/5/4 154/5/4
f 157/4/5 156/4/5 155/4/5
f 158/4/5 156/4/5 157/4/5
f 163/2/5 160/2/5 159/2/5
f 164/2/5 160/2/5 163/2/5
f 165/2/5 162/2/5 161/2/5
f 166/2/5 162/2/5 165/2/5
f 171/2/5 168/2/5 167/2/5
f 172/2/5 168/2/5 171/2/5
f 173/2/5 170/2/5 169/2/5
f 174/2/5 170/2/5 173/2/5
f 177/1/5 176/1/5 175/1/5
f 178/1/5 176/1/5 177/1/5
f 181/5/5 180/5/5 179/5/5
f 182/5/5 180/5/5 181/5/5
f 183/5/5 181/5/5 179/5/5
f 184/5/5 180/5/5 182/5/5
f 185/5/5 183/5/5 179/5/5
f 185/5/5 184/5/5 183/5/5
f 186/5/5 180/5/5 184/5/5
f 186/5/5 184/5/5 185/5/5
f 187/2/6 188/2/6 191/2/6
f 191/2/6 188/2/6 192/2/6
f 189/2/6 190/2/6 193/2/6
f 193/2/6 190/2/6 194/2/6
f 195/4/6 196/4/6 197/4/6
f 197/4/6 196/4/6 198/4/6
f 195/4/6 197/4/6 199/4/6
f 198/4/6 196/4/6 200/4/6
f 195/4/6 199/4/6 201/4/6
f 199/4/6 200/4/6 201/4/6
f 200/4/6 196/4/6 202/4/6
f 201/4/6 200/4/6 202/4/6
f 203/1/6 204/1/6 205/1/6
f 205/1/6 204/1/6 206/1/6
f 207/5/6 208/5/6 209/5/6
f 209/5/6 208/5/6 210/5/6
f 207/5/6 209/5/6 211/5/6
f 210/5/6 208/5/6 212/5/6
f 207/5/6 211/5/6 213/5/6
f 211/5/6 212/5/6 213/5/6
f 212/5/6 208/5/6 214/5/6
f 213/5/6 212/5/6 214/5/6
f 215/5/6 216/5/6 217/5/6
f 217/5/6 216/5/6 218/5/6
